<svg width="280" height="62" viewBox="0 0 280 62" fill="none" xmlns="http://www.w3.org/2000/svg">
<g clip-path="url(#clip0_134_1679)">
<path d="M28.6273 57.4775C23.2466 57.4775 19.8665 56.8567 19.1077 56.7188H18.9697C22.1429 57.8914 25.5231 58.5122 29.0412 58.5122C32.5593 58.5122 35.2496 58.0293 38.1469 57.0636C38.2158 57.0636 38.3538 57.0636 38.4228 56.9257C38.4918 56.7877 38.9057 56.6498 38.1469 56.7877C34.4908 57.2706 31.2486 57.4775 28.5583 57.4775H28.6273Z" fill="black"/>
<path d="M9.03647 9.5383C3.58685 14.9875 0.620605 22.1612 0.620605 29.8177C0.620605 37.4742 3.58685 44.7168 9.03647 50.0971C9.79528 50.8558 10.6231 51.6146 11.4509 52.3044C11.4509 51.7525 11.4509 51.2007 11.7268 50.6489C5.79429 45.6825 1.93127 38.233 1.93127 29.7487C1.93127 21.2645 1.93127 28.5071 1.93127 27.8173C2.06924 26.2309 2.27619 24.7134 2.69008 23.1959C2.69008 22.851 2.82805 22.5751 2.96601 22.3681C2.96601 22.1612 3.10398 21.9543 3.17296 21.6783C3.51787 20.6437 3.93177 19.54 4.34566 18.5744C4.55261 18.1605 4.75955 17.7466 4.9665 17.4017C5.31141 16.7809 5.58735 16.2291 5.93226 15.6773C6.13921 15.2634 6.41513 14.9186 6.69106 14.5737C6.82903 14.3667 6.967 14.2288 7.10496 14.0218C7.38089 13.677 7.65682 13.2631 7.93275 12.9872C8.07072 12.7802 8.20868 12.6423 8.34665 12.4354C8.89851 11.7456 9.45036 11.1248 10.1402 10.504C10.83 9.88319 10.4851 10.1591 10.6231 10.0211C10.968 9.67626 11.3129 9.40035 11.5888 9.19342C11.7268 9.05546 11.9337 8.91751 12.1407 8.77955C12.4166 8.57262 12.6925 8.36569 12.9685 8.15875C13.7963 7.53796 14.5551 7.05511 15.3829 6.50329C16.4866 5.81352 17.7283 5.2617 18.901 4.70988C20.0737 4.15806 21.3843 3.81317 22.695 3.46828C23.1089 3.46828 23.4538 3.26135 23.7987 3.19237C24.2126 3.19237 24.5575 3.05442 24.9024 2.98544C24.9024 2.15771 25.6613 1.53691 26.489 1.53691H26.696L26.834 1.12305C20.1427 1.74384 13.9342 4.6409 9.10545 9.46933L9.03647 9.5383Z" fill="black"/>
<path d="M49.3911 9.46995C44.0794 4.15868 37.1812 1.19264 29.6621 1.05469L29.8691 2.43424H30.076C30.283 2.43424 30.4899 2.57219 30.6968 2.64117C32.2145 2.64117 33.6631 2.98606 35.1117 3.26197C35.3187 3.26197 35.5256 3.26197 35.7326 3.39992C35.8705 3.39992 35.9395 3.39992 36.0085 3.39992C36.2844 3.39992 36.6293 3.53788 36.8363 3.67583C37.4571 3.88277 37.94 4.02072 38.5609 4.29663C38.8368 4.43459 39.1127 4.50356 39.3886 4.64152C39.5956 4.64152 39.7336 4.77947 39.9405 4.84845C40.2164 4.98641 40.4924 5.12436 40.7683 5.26232C41.3201 5.53823 41.803 5.81414 42.3549 6.09005C43.1827 6.57289 43.8725 6.98676 44.6313 7.4696C45.1142 7.81449 45.5281 8.15937 46.011 8.50426C46.2869 8.71119 46.5628 8.9871 46.8388 9.19404C47.3906 9.67688 47.8045 10.0907 48.3564 10.5736C53.2541 15.471 56.2894 22.2998 56.2894 29.7493C56.2894 37.1989 53.0472 44.4416 47.8735 49.4079C47.8735 49.5459 47.8735 49.9598 47.8045 50.0977C47.8045 50.8565 47.5286 51.4773 47.4596 51.8911C48.1494 51.3393 48.7703 50.7875 49.3911 50.0977C54.8407 44.6485 57.807 37.4748 57.807 29.8183C57.807 22.1618 54.8407 14.9192 49.3911 9.53893V9.46995Z" fill="black"/>
<path d="M28.0758 22.437C28.0068 22.2991 27.8688 22.1611 27.7999 22.0921H27.7309C27.7309 21.9542 27.7309 21.9542 27.6619 21.9542C27.6619 21.9542 27.5239 21.8162 27.4549 21.8162C27.179 21.6093 26.9031 21.4713 26.5582 21.4023C26.2133 21.4023 25.8684 21.4023 25.5924 21.4023C25.3165 21.4713 25.0406 21.6783 24.8336 21.8162C24.6267 21.9542 24.4197 22.1611 24.2818 22.368C24.0058 22.7129 23.7989 23.0578 23.6609 23.2647C23.5229 23.4717 23.5229 23.6096 23.5229 23.6096C23.5229 23.6786 23.5229 23.8166 23.5919 23.8855C23.6609 23.9545 23.7989 23.8855 23.8679 23.8855C23.8679 23.8855 23.9368 23.7476 24.0748 23.6096C24.2128 23.4027 24.4197 23.1958 24.6957 22.9198C24.9716 22.6439 25.3165 22.368 25.7304 22.2991C26.1443 22.1611 26.4892 22.2991 26.9031 22.575C26.9031 22.575 26.9721 22.6439 27.0411 22.7129L27.11 22.8509C27.248 22.9198 27.248 22.9888 27.386 23.1268C27.5239 23.3337 27.5929 23.4717 27.6619 23.6786C27.6619 23.8855 27.6619 24.0235 27.6619 24.2304C27.5929 24.4374 27.455 24.5753 27.386 24.7133C27.11 24.9892 26.9031 25.1961 26.6961 25.3341C26.6272 25.403 26.5582 25.472 26.4892 25.472H26.4202C26.4202 25.472 26.3512 25.541 26.4202 25.61C26.4202 25.6789 26.4892 25.7479 26.5582 25.679C26.5582 25.679 26.5582 25.679 26.6272 25.679C26.6272 25.679 26.7651 25.6789 26.9031 25.61C27.11 25.541 27.4549 25.3341 27.7999 25.0582C28.0068 24.9202 28.1448 24.7133 28.2827 24.4374C28.4207 24.1614 28.4897 23.8166 28.4897 23.4717C28.4897 23.1268 28.2827 22.7819 28.0758 22.575V22.437Z" fill="black"/>
<path d="M33.8706 25.2651C33.8706 25.2651 33.9395 25.2651 34.0085 25.3341C34.0085 25.3341 34.0775 25.3341 34.1465 25.4031C34.1465 25.4031 34.2155 25.4031 34.2845 25.4721C34.3534 25.4721 34.4914 25.61 34.5604 25.679C34.6294 25.679 34.6983 25.817 34.8363 25.8859C34.9053 25.8859 34.9743 26.0239 35.0433 26.0239C35.0433 26.0239 35.1812 26.0929 35.1812 26.1618C35.2502 26.1618 35.3192 26.2998 35.3192 26.2998C35.3192 26.2998 35.3882 26.2998 35.4572 26.2998C35.5261 26.2998 35.5951 26.1618 35.5951 26.0239C35.5951 26.0239 35.5951 25.9549 35.5261 25.817C35.5261 25.817 35.5261 25.679 35.4572 25.61C35.4572 25.541 35.3882 25.4031 35.3192 25.3341C35.3192 25.2651 35.1812 25.1272 35.1122 25.0582C35.0433 24.9202 34.9053 24.8513 34.8363 24.7823C34.8363 24.7823 34.6983 24.7133 34.6983 24.6443C34.6983 24.6443 34.5604 24.5754 34.4914 24.5064C34.4914 24.5064 34.3534 24.4374 34.2845 24.3684C34.2155 24.3684 34.1465 24.3684 34.0775 24.2994C33.9395 24.2305 33.7326 24.2305 33.5946 24.2305C33.4567 24.2305 33.2497 24.2305 33.1118 24.2994C32.9738 24.2994 32.8358 24.4374 32.6979 24.5064C32.5599 24.5754 32.4909 24.7133 32.4219 24.7823C32.3529 24.8513 32.284 24.9892 32.215 25.0582C32.215 25.1272 32.146 25.1962 32.146 25.3341V25.4721C32.146 25.4721 32.146 25.4721 32.3529 25.4031C32.3529 25.4031 32.4909 25.4031 32.5599 25.3341C32.6289 25.3341 32.6979 25.3341 32.7668 25.2651C32.8358 25.2651 32.9048 25.2651 33.0428 25.1962C33.1118 25.1962 33.2497 25.1962 33.3187 25.1962C33.3877 25.1962 33.5256 25.1962 33.5946 25.1962C33.6636 25.1962 33.8016 25.1962 33.8706 25.1962C33.8706 25.1962 33.9395 25.1962 34.0085 25.1962L33.8706 25.2651Z" fill="black"/>
<path d="M25.6615 22.7129C25.2476 22.7129 24.9717 23.0578 24.9717 23.4027C24.9717 23.7476 25.3166 24.0924 25.6615 24.0924C26.0064 24.0924 26.3513 23.7476 26.3513 23.4027C26.3513 23.0578 26.0064 22.7129 25.6615 22.7129Z" fill="black"/>
<path d="M18.4872 22.7129C18.1423 22.7129 17.7974 22.9888 17.7974 23.4027C17.7974 23.8165 18.0733 24.0924 18.4872 24.0924C18.9011 24.0924 19.177 23.8165 19.177 23.4027C19.177 22.9888 18.9011 22.7129 18.4872 22.7129Z" fill="black"/>
<path d="M21.8674 18.0234C21.2465 18.0234 20.7637 18.6442 20.7637 19.472C20.7637 20.2997 21.2465 20.9205 21.8674 20.9205C22.4882 20.9205 22.9711 20.2997 22.9711 19.472C22.9711 18.6442 22.4882 18.0234 21.8674 18.0234ZM22.7642 19.9548C22.7642 20.2307 22.4882 20.5066 22.1433 20.4377C22.0054 20.4377 21.8674 20.2997 21.7984 20.0928C21.7294 19.7479 21.9364 19.472 22.2813 19.472C22.6262 19.472 22.7642 19.6789 22.7642 19.9548Z" fill="black"/>
<path d="M42.9763 18.7826H43.0453C43.0453 18.7826 43.1832 18.9206 43.2522 19.1275C43.3212 19.2655 43.3902 19.4724 43.4592 19.6793C43.4592 19.7483 43.4592 19.8173 43.4592 19.8173V20.0242C43.4592 20.0932 43.5282 20.2311 43.5282 20.3001C43.5282 20.507 43.5282 20.645 43.5282 20.8519C43.5282 20.9899 43.5282 21.1278 43.4592 21.2658C43.4592 21.4038 43.3212 21.5417 43.2522 21.6107C43.0453 21.8176 42.8383 21.9556 42.6314 22.0935C42.4934 22.1625 42.3555 22.2315 42.3555 22.2315C42.2865 22.2315 42.2175 22.3005 42.2175 22.4384C42.2175 22.5074 42.2865 22.5764 42.4244 22.5764C42.4244 22.5764 42.4244 22.5764 42.4934 22.5764C42.4934 22.5764 42.6314 22.5764 42.7694 22.5764C42.9763 22.5764 43.3212 22.5764 43.7351 22.3005C43.9421 22.1625 44.149 22.0246 44.287 21.8176C44.4939 21.6107 44.5629 21.3348 44.6319 20.9899C44.7009 20.714 44.7009 20.3691 44.6319 20.0932C44.6319 19.9552 44.6319 19.8173 44.6319 19.6793V19.4724L44.5629 19.3344C44.4939 18.9895 44.3559 18.7136 44.218 18.4377C44.08 18.1618 43.8731 17.8859 43.5282 17.679C43.3902 17.61 43.1832 17.541 42.9763 17.541C42.7693 17.541 42.6314 17.541 42.4244 17.679C42.1485 17.8169 41.9416 17.9549 41.8036 18.1618C41.6656 18.2998 41.5277 18.5067 41.4587 18.6447C41.3897 18.7826 41.3207 18.9206 41.2517 18.9895C41.2517 19.1275 41.1828 19.1965 41.1138 19.2655V19.3344C41.1138 19.4034 41.1138 19.5414 41.1138 19.6103C41.1828 19.7483 41.3897 19.7483 41.4587 19.6103C41.4587 19.6103 41.5277 19.5414 41.6656 19.4034C41.8036 19.2655 42.0105 19.0585 42.2865 18.9206C42.4244 18.8516 42.5624 18.7826 42.6314 18.7826H42.9763Z" fill="black"/>
<path d="M28.9724 17.334C28.2136 17.334 27.5928 18.2307 27.5928 19.4033C27.5928 20.5759 28.2136 21.4726 28.9724 21.4726C29.7312 21.4726 30.3521 20.5759 30.3521 19.4033C30.3521 18.2307 29.7312 17.334 28.9724 17.334ZM30.2831 20.0931C30.2831 20.507 30.0072 20.7829 29.5933 20.7829C29.1794 20.7829 28.9034 20.507 28.9034 20.0931C28.9034 19.6792 29.1794 19.4033 29.5933 19.4033C30.0072 19.4033 30.2831 19.6792 30.2831 20.0931Z" fill="black"/>
<path d="M47.253 44.5103C46.7012 42.8549 45.4595 41.4753 43.1831 40.3717C43.8729 39.337 40.4927 36.0951 40.4238 36.0261C40.4238 36.0261 40.1478 35.8192 40.5617 35.5433C43.1831 33.8878 46.0113 30.9907 46.3563 26.4382C46.3563 25.4725 46.3563 24.5758 46.2873 23.6791C46.3563 23.5412 46.4942 23.4032 46.5632 23.2653C46.8391 22.7824 46.9771 22.2306 47.0461 21.6098C47.1151 21.058 47.1151 20.4372 47.0461 19.8164C46.9771 19.1956 46.8391 18.5748 46.5632 18.023C46.4252 17.7471 46.3563 17.4711 46.2183 17.1952C46.1493 17.0573 46.0803 16.9193 46.0113 16.7814C46.0113 16.7124 46.0113 16.6434 46.0113 16.6434L45.8734 16.3675C45.6664 16.0916 45.4595 15.8157 45.2525 15.6087C44.9766 15.4018 44.7007 15.1949 44.3558 15.0569C44.0108 14.919 43.597 14.919 43.252 14.919C42.9071 14.919 42.5622 15.0569 42.3553 15.1949C42.2863 15.1949 42.2173 15.2639 42.1483 15.3328C40.2858 13.3325 37.8024 11.4701 34.7672 9.74566C31.2491 7.74531 30.8352 3.95155 30.8352 3.88257C30.8352 3.60666 30.5593 3.33075 30.2833 3.26177C30.0074 3.26177 29.6625 3.39973 29.5935 3.67564C29.5935 3.74461 29.1796 1.19245 29.1796 1.19245C29.1796 0.916535 28.9037 0.640625 28.5588 0.640625C28.2139 0.640625 27.9379 0.847558 27.8689 1.12347L27.3171 3.12382V2.98586C27.2481 2.64097 26.9032 2.43404 26.6273 2.43404C26.2823 2.43404 26.0064 2.70995 26.0064 3.05484C25.3856 9.40077 21.3846 11.6081 20.7637 11.9529C18.5563 11.2632 17.1766 11.1942 16.3489 11.815C15.5211 12.4358 15.3831 13.4704 15.3831 14.2292C15.3831 16.0226 16.9007 16.6434 18.0044 16.7814C18.4183 17.5401 19.3841 19.5405 18.7632 21.5408C18.6253 21.5408 18.4873 21.5408 18.3494 21.5408C18.2114 21.5408 18.0044 21.6098 17.8665 21.6788C17.7975 21.6788 17.7285 21.6788 17.6595 21.8167L17.4526 21.9547L17.3146 22.1616V22.2306H17.2456C17.2456 22.3685 17.1766 22.4375 17.1077 22.5065C17.1077 22.6445 16.9697 22.7824 16.9007 22.9204C16.8317 23.1963 16.7628 23.5412 16.8317 23.7481C16.8317 23.8861 16.8317 24.024 16.9007 24.162C16.9007 24.162 16.9007 24.162 16.9007 24.2309C15.1072 26.0933 14.6933 27.4729 14.6243 28.3006H14.2104C14.0035 28.3006 13.8655 28.4386 13.7275 28.5765C12.4169 30.0251 12.2789 32.1634 13.3826 34.4396C14.8312 37.5436 18.4183 40.6476 22.8332 41.1994C22.6263 41.3374 21.8675 42.2341 21.7985 42.372C17.5216 43.5447 14.4863 48.511 13.6585 50.3045C12.4858 52.8566 12.6238 56.5814 14.9692 58.0299C18.4183 60.1682 24.3508 61.1339 28.2139 61.1339C32.0769 61.1339 30.7662 60.7201 31.1111 60.4442C31.456 60.1682 31.8009 59.8234 32.1459 59.4095C33.9394 59.4095 38.0094 59.2026 39.527 58.6507C41.8724 57.823 45.2525 54.857 47.0461 51.0632C48.2188 48.511 48.6327 46.7176 47.8739 44.5103H47.253ZM42.0104 39.7509C41.9414 39.7509 41.8034 39.8888 41.7344 39.9578C41.6654 39.9578 41.5275 40.0958 41.4585 40.1648C41.3895 40.2337 41.2515 40.3027 41.1136 40.4407C41.0446 40.4407 40.9066 40.5786 40.8377 40.6476C39.9409 41.3374 38.0784 42.6479 37.5265 42.8549C37.3885 42.8549 34.6292 41.5443 34.4223 41.8202C34.2153 42.0961 34.4223 44.2344 34.4223 44.2344L33.9394 44.3724L33.3875 44.5793C30.4903 45.476 27.593 46.3727 24.6957 47.2694C25.5925 47.2694 29.3176 44.4414 30.6972 43.4757C32.6977 42.0961 35.8019 39.406 39.32 36.9228C39.7339 37.1297 42.0104 39.7509 41.9414 39.7509H42.0104ZM39.9409 19.3335C39.9409 19.3335 39.9409 19.3335 39.9409 19.2646C39.9409 19.2646 39.9409 19.2646 39.9409 19.1956C39.9409 19.1956 39.9409 19.1956 39.9409 19.1266C39.9409 19.1266 39.9409 19.1266 39.9409 19.0576C39.9409 19.0576 39.9409 19.0576 39.9409 18.9886C39.9409 18.9886 39.9409 18.9886 39.9409 18.9197C39.9409 18.9197 39.9409 18.8507 40.0099 18.7817C40.0099 18.7817 40.0099 18.7817 40.0099 18.7127C40.0099 18.7127 40.0099 18.7127 40.0099 18.6438C40.0099 18.6438 40.0099 18.6438 40.0099 18.5748C40.0099 18.5748 40.0099 18.4368 40.1478 18.4368C40.1478 18.4368 40.1478 18.3679 40.2168 18.2989C40.2168 18.2989 40.2168 18.2299 40.2858 18.1609C40.2858 18.1609 40.2858 18.0919 40.3548 18.023C40.3548 18.023 40.4238 17.885 40.4927 17.885C40.4927 17.885 40.4927 17.816 40.5617 17.7471C40.5617 17.7471 40.5617 17.6781 40.6307 17.6091C40.6307 17.6091 40.6307 17.5401 40.6997 17.4711C40.6997 17.4711 40.6997 17.4022 40.7687 17.3332C40.7687 17.3332 40.8376 17.2642 40.9066 17.1952C40.9756 17.1263 41.0446 17.0573 41.1826 16.9883C41.4585 16.7124 41.8724 16.5055 42.2173 16.3675C42.4242 16.3675 42.5622 16.2295 42.7692 16.2295C42.9071 16.2295 43.1141 16.2295 43.252 16.2985C43.39 16.2985 43.528 16.5055 43.7349 16.5744C43.8729 16.7124 44.0108 16.9193 44.1488 17.1263V17.2642C44.2178 17.2642 44.2868 17.2642 44.2868 17.2642V17.4022C44.2868 17.5401 44.4247 17.6781 44.4937 17.7471C44.6317 17.954 44.7007 18.2299 44.8386 18.4368C45.2525 19.4025 45.4595 20.4372 45.3215 21.4029C45.3215 22.3685 44.9076 23.1963 44.3558 23.6791C44.0798 23.8861 43.8039 24.024 43.528 24.093C43.252 24.093 42.9761 24.093 42.7692 24.093C42.5622 24.093 42.3553 24.093 42.2173 23.955C42.0793 23.955 42.0104 23.955 42.0104 23.955H41.8724L39.458 19.4025L39.9409 19.3335ZM14.0035 33.8878C13.2446 32.2323 13.2446 30.7148 14.0035 29.6802H14.9002C14.9692 29.6802 15.0382 29.6802 15.1072 29.6112C15.1072 29.6112 15.1072 29.7491 15.1072 29.8181C15.1762 30.163 15.3831 30.5769 15.5901 30.9907C15.866 31.4046 16.2109 31.8874 16.6938 32.3703C17.1766 32.7842 17.7975 33.198 18.4873 33.4739C18.8322 33.6119 19.1771 33.7498 19.591 33.8188C19.798 33.8188 19.9359 33.8878 20.1429 33.9568C20.3498 33.9568 20.4878 33.9568 20.6948 34.0258C21.4536 34.1637 22.2124 34.2327 23.0402 34.2327C23.868 34.2327 24.6268 34.2327 25.4546 34.0947C26.2823 34.0258 27.0411 33.8188 27.8 33.6119C28.5588 33.405 29.3176 33.0601 30.0074 32.6462C30.6972 32.2323 31.2491 31.8185 31.732 31.2667C32.2148 30.7838 32.5598 30.232 32.8357 29.6112C32.8357 29.4732 32.9736 29.3353 33.0426 29.1973C33.0426 29.0594 33.1806 28.9214 33.1806 28.7835C33.1806 28.6455 33.2496 28.5075 33.3186 28.3696C33.3186 28.2316 33.3186 28.0937 33.3875 28.0247C33.4565 27.5419 33.5255 27.128 33.4565 26.7831C33.4565 26.4382 33.3186 26.1623 33.3186 25.9554C33.3186 25.7484 33.1806 25.6795 33.1806 25.6795C33.1806 25.6105 33.0426 25.5415 32.9736 25.6105C32.9047 25.6105 32.8357 25.7484 32.9047 25.8174C32.9047 25.8174 33.0426 26.1623 33.0426 26.7831C33.0426 27.128 33.0426 27.4729 32.8357 27.8868C32.8357 28.0247 32.8357 28.0937 32.6977 28.2316C32.6977 28.3696 32.6287 28.4386 32.5597 28.5765C32.5597 28.7145 32.4218 28.7835 32.4218 28.9214C32.4218 29.0594 32.2838 29.1973 32.2148 29.2663C31.9389 29.7491 31.594 30.232 31.1111 30.6459C30.6282 31.0597 30.0764 31.4736 29.5245 31.7495C28.2828 32.3703 26.8342 32.7152 25.3166 32.8531C24.5578 32.9221 23.799 32.9221 23.0402 32.8531C22.2814 32.8531 21.5915 32.7842 20.8327 32.6462C20.6948 32.6462 20.6258 32.6462 20.4878 32.6462C20.4878 32.6462 20.4878 32.5772 20.4878 32.5082C20.4878 32.5082 20.4878 32.5082 20.4878 32.4393C20.4878 32.4393 20.4878 32.3013 20.4878 32.2323C20.4878 32.1634 20.4878 32.0254 20.4188 31.8875C20.4188 31.7495 20.4188 31.5426 20.3498 31.4046C20.3498 31.1977 20.3498 30.9907 20.3498 30.7838C20.3498 30.5769 20.3498 30.301 20.3498 30.094C20.3498 29.8181 20.3498 29.6112 20.3498 29.3353C20.3498 29.0594 20.3498 28.7835 20.4188 28.5765C20.4188 28.3006 20.4188 28.0247 20.5568 27.8178C20.5568 27.5419 20.6258 27.3349 20.6948 27.059C20.6948 26.8521 20.8327 26.5762 20.8327 26.3692C20.8327 26.1623 20.9707 25.9554 21.0397 25.7484C21.0397 25.5415 21.1776 25.4036 21.1776 25.2656C21.1776 25.1277 21.2466 24.9897 21.3156 24.8517C21.3846 24.6448 21.4536 24.5069 21.4536 24.5069C21.4536 24.3689 21.4536 24.2999 21.3846 24.2309C21.3156 24.2309 21.1776 24.2309 21.1087 24.2999C21.1087 24.2999 21.1087 24.4379 20.9707 24.6448C20.9707 24.7828 20.8327 24.8517 20.7637 25.0587C20.6948 25.1966 20.6258 25.4036 20.5568 25.5415C20.4878 25.7484 20.4188 25.9554 20.2809 26.1623C20.2119 26.3692 20.1429 26.6452 20.0739 26.8521C20.0049 27.059 19.9359 27.3349 19.867 27.6108C19.798 27.8868 19.729 28.1627 19.66 28.4386C19.66 28.7145 19.5221 28.9904 19.5221 29.2663C19.5221 29.5422 19.4531 29.8181 19.3841 30.094C19.3841 30.3699 19.3841 30.6459 19.3841 30.8528C19.3841 31.1287 19.3841 31.3356 19.3841 31.5426C19.3841 31.7495 19.3841 31.9564 19.3841 32.1634C19.3841 32.3013 19.3841 32.4393 19.3841 32.5772C19.2461 32.5772 19.1082 32.5082 19.0392 32.4393C18.7632 32.3013 18.4873 32.2323 18.2114 32.0944C17.9355 31.9564 17.7285 31.8185 17.5216 31.6805C17.1077 31.3356 16.7628 30.9907 16.4868 30.6459C16.2109 30.301 16.0039 29.9561 15.866 29.6802C15.728 29.4043 15.659 29.1283 15.5901 28.9904C15.5901 28.8524 15.5211 28.7835 15.5211 28.7835C15.5211 28.7835 15.5211 28.7145 15.4521 28.6455C15.4521 28.2316 15.659 27.128 17.2456 25.4725C17.2456 25.4725 17.3146 25.4725 17.3836 25.5415C17.4526 25.5415 17.5216 25.6105 17.5905 25.6105C17.6595 25.6105 17.7285 25.6105 17.7975 25.6105H17.9355C17.9355 25.6105 18.0044 25.6105 18.0734 25.6105H18.1424C18.1424 25.6105 18.1424 25.6105 18.1424 25.5415C18.1424 25.5415 18.1424 25.5415 18.0734 25.5415C18.0734 25.5415 18.0734 25.5415 18.0044 25.5415C18.0044 25.5415 18.0044 25.5415 17.9355 25.4725C17.9355 25.4725 17.8665 25.4725 17.7975 25.4036C17.7975 25.4036 17.7285 25.3346 17.6595 25.2656C17.6595 25.2656 17.6595 25.2656 17.6595 25.1966C17.6595 25.1966 17.6595 25.1966 17.6595 25.1276C17.6595 25.1276 17.5905 24.9897 17.5216 24.9207C17.4526 24.7828 17.3836 24.6448 17.3836 24.5069C17.3836 24.4379 17.3836 24.3689 17.3836 24.2999C17.3836 24.2309 17.3836 24.162 17.3836 24.024C17.3836 23.955 17.3836 23.8861 17.3836 23.8171C17.3836 23.8171 17.3836 23.8171 17.3836 23.7481C17.3836 23.7481 17.3836 23.6791 17.3836 23.6101C17.3836 23.5412 17.4526 23.4722 17.5216 23.4032C17.5216 23.4032 17.5216 23.4032 17.5216 23.3342L17.6595 23.1963L17.7285 23.1273C17.7285 23.1273 17.8665 23.1273 17.9355 23.0583C17.9355 23.0583 18.0734 23.0583 18.1424 23.0583C18.1424 23.0583 18.2804 23.0583 18.3494 23.0583C18.4183 23.0583 18.4873 23.0583 18.5563 23.1273C18.6253 23.1273 18.6943 23.1273 18.7632 23.2653C18.8322 23.2653 18.9012 23.3342 18.9702 23.4032C18.9702 23.4032 18.9702 23.4032 19.0392 23.4722C19.1082 23.4722 19.2461 23.6101 19.3151 23.6791C19.3841 23.7481 19.5221 23.8171 19.591 23.8861C19.729 24.024 19.798 24.093 19.798 24.093C19.798 24.093 19.936 24.093 20.0049 24.093C20.1429 24.093 20.1429 23.955 20.1429 23.8861C20.1429 23.8861 20.1429 23.8861 20.1429 23.8171C20.1429 23.8171 20.1429 23.6791 20.0739 23.6101C20.0739 23.5412 19.9359 23.4032 19.867 23.2653C19.798 23.1273 19.66 22.9893 19.5221 22.8514C19.5221 22.8514 19.5221 22.7824 19.4531 22.7134C19.798 21.6788 19.867 20.5062 19.66 19.2646C19.5221 18.7817 19.3841 18.2989 19.2461 17.885C19.5221 17.885 19.798 18.023 20.1429 18.023C20.4188 18.023 20.7637 18.0919 21.0397 18.1609C21.3846 18.1609 21.7295 18.2299 22.0744 18.2299C22.4193 18.2299 22.8332 18.2299 23.1781 18.2299C23.523 18.2299 23.9369 18.2299 24.3508 18.2299C24.7647 18.2299 25.1096 18.2299 25.4546 18.2299C25.7995 18.2299 26.2134 18.2299 26.5583 18.1609C26.9032 18.1609 27.2481 18.0919 27.593 18.023C27.9379 18.023 28.2138 17.885 28.4898 17.885C28.7657 17.885 29.0416 17.816 29.2486 17.7471C29.4555 17.7471 29.6625 17.6091 29.8004 17.6091C30.1454 17.5401 30.2833 17.4711 30.2833 17.4711C30.4213 17.4711 30.4903 17.3332 30.4903 17.1952C30.4903 17.0573 30.3523 16.9883 30.2143 16.9883C30.2143 16.9883 30.0074 16.9883 29.7315 17.0573C29.5935 17.0573 29.3866 17.0573 29.1796 17.1263C28.9727 17.1263 28.6967 17.1263 28.4208 17.1952C28.1449 17.1952 27.8689 17.2642 27.524 17.2642C27.1791 17.2642 26.9032 17.2642 26.4893 17.2642C26.1444 17.2642 25.7995 17.2642 25.3856 17.2642C25.0407 17.2642 24.6268 17.2642 24.2818 17.2642C23.9369 17.2642 23.523 17.2642 23.1781 17.1952C22.8332 17.1952 22.4883 17.1263 22.1434 17.0573C21.7985 17.0573 21.4536 16.9193 21.1776 16.9193C20.9017 16.9193 20.5568 16.7814 20.2809 16.7124C19.729 16.5744 19.3151 16.4365 18.9702 16.3675C18.8322 16.3675 18.6943 16.2985 18.6253 16.2295C18.5563 16.2295 18.4873 16.2295 18.4873 16.2295C18.4873 16.2295 18.3494 16.2295 18.2804 16.2295C18.1424 16.1606 18.0044 16.0916 17.8665 16.0916C17.7285 16.0916 16.2109 16.0916 16.2109 14.85C16.2109 13.6084 16.4178 13.6084 16.6248 13.4704C16.9697 13.1945 17.8665 13.0566 20.0739 13.8153C20.2809 13.8153 25.3856 14.988 31.8699 14.0912C32.0079 14.0912 32.6977 14.0912 33.0426 14.5051C33.2496 14.712 33.3186 14.919 33.3186 15.2639C33.3186 15.8157 32.6287 16.5744 32.1459 16.9193C32.0079 17.0573 31.8699 17.2642 31.8699 17.4711V20.5751C31.8699 20.92 32.0769 21.1959 32.4218 21.1959C32.4218 21.1959 37.9404 22.2996 39.458 27.4039C40.9756 32.5772 36.2158 36.0261 34.6982 37.1297C34.6982 37.1297 34.6982 37.1297 34.6292 37.1297C34.6292 37.1297 31.387 40.3027 23.661 40.4407C19.0392 40.5096 15.1762 37.4746 13.7275 34.3706L14.0035 33.8878ZM23.0402 43.7516C23.0402 43.5447 22.1434 42.7169 22.0744 42.579C22.1434 42.372 23.1781 41.3374 23.1781 41.3374L24.0749 46.9935L20.9707 45.8209C21.1087 45.476 21.3846 44.7862 21.5915 44.5103C21.7985 44.2344 23.1091 43.8206 23.1091 43.7516H23.0402ZM30.3523 59.6164C28.2828 60.3062 19.3841 59.6854 14.9692 56.9263C13.2446 55.8227 13.1757 52.8566 14.1414 50.7183C14.5553 49.7526 15.935 47.6143 17.5905 45.7519C18.9702 44.2344 20.2119 43.1998 21.3156 42.8549C21.3156 42.9928 21.5225 43.4067 21.6605 43.5447C21.1087 43.6826 20.7637 43.8206 20.5568 44.2344C20.2809 44.7863 19.66 45.7519 20.0049 46.3038C20.3498 46.8556 21.7295 47.0625 22.2814 47.2694C21.8675 47.2694 21.5225 47.2694 21.2466 47.4074C20.8327 47.5454 20.4188 47.8902 20.0049 48.3731C19.798 48.3731 18.9702 48.0972 18.0734 48.0972C16.1419 48.0972 15.3831 48.8559 15.1762 49.4767C14.8312 50.3045 15.0382 51.4771 15.659 52.6497C15.866 53.0636 16.2109 53.4774 16.5558 53.8913C16.4178 54.1672 16.3489 54.4431 16.2799 54.65C16.0729 55.2708 16.1419 55.6847 16.3489 56.0296C17.7975 57.961 24.8337 59.0646 30.8352 59.2715C30.7662 59.3405 30.6282 59.4785 30.3523 59.5474V59.6164ZM19.0392 49.4767C18.2804 50.5114 17.5216 51.684 17.0387 52.7876C16.9007 52.5807 16.7628 52.3738 16.6248 52.1668C16.1419 51.3391 16.0039 50.5114 16.2109 50.0285C16.4178 49.5457 17.1077 49.4077 17.8665 49.4077C18.6253 49.4077 18.7632 49.4077 19.1082 49.5457L19.0392 49.4767ZM45.3215 50.5804C43.8039 53.9603 40.6307 56.7883 38.4922 57.5471C37.2506 57.961 35.388 58.1679 33.1806 58.2369C32.9047 58.2369 32.6977 58.2369 32.4218 58.2369C32.1459 58.2369 31.9389 58.2369 31.663 58.2369C25.7995 58.1679 18.6943 56.9953 17.3836 55.4088C17.3836 55.2708 17.3836 55.0639 17.5216 54.788C17.5216 54.65 17.6595 54.4431 17.7285 54.2362C17.7975 54.0292 17.8665 53.8913 18.0044 53.6844C18.6253 52.4428 19.591 50.8563 20.4878 49.7526C20.6258 49.5457 20.8327 49.3388 20.9707 49.2008C21.1776 48.9939 21.4536 48.7869 21.5915 48.649C21.5915 48.649 21.6605 48.649 21.7295 48.649C22.5573 48.3041 25.1786 49.0629 27.1101 49.6837C27.593 49.8216 28.0069 49.9596 28.3518 50.0285C28.6277 50.0975 28.8347 50.1665 29.1106 50.2355C29.9384 50.4424 30.4903 50.5804 30.9732 50.5114C31.0421 50.5114 31.1111 50.5114 31.2491 50.5114C31.525 50.5114 31.8699 50.3045 32.2148 50.0975C32.4218 49.9596 32.6287 49.8216 32.8357 49.6147C33.0426 49.4767 33.1806 49.2698 33.3875 49.1318C34.3533 48.2351 34.7672 47.4074 34.9741 47.1315C35.1811 46.8556 35.457 46.1658 35.1811 45.9589C35.0431 45.8209 35.0431 46.4417 32.9047 47.8902C32.7667 47.6143 32.5597 47.4074 32.2838 47.2005C32.0079 46.9935 31.594 46.8556 30.9042 47.0625C30.0764 47.3384 29.1796 48.1661 28.6967 48.9249C28.2828 48.7869 27.8689 48.649 27.455 48.58C27.1101 48.511 26.8342 48.3731 26.4893 48.3041L34.4913 45.683L35.526 45.3381C35.8019 45.2691 35.9399 44.8552 35.9399 44.7173C35.9399 44.5793 35.7329 44.0275 35.595 43.7516C35.457 43.4757 35.388 43.1998 35.388 43.1998C35.388 43.1998 37.0436 44.1655 37.3885 44.2344C37.9404 44.3724 38.6302 43.9585 41.5965 41.7512C41.8724 41.5443 42.1483 41.3374 42.3553 41.1994C42.4932 41.1304 42.5622 41.0615 42.7002 40.9235C42.7692 40.9235 42.9071 41.0615 42.9761 41.0615C43.1831 41.1994 43.321 41.3374 43.528 41.4063C44.4937 42.1651 45.5974 43.0618 46.0803 44.3034C46.9771 46.6486 46.0803 48.9939 45.3905 50.5804H45.3215ZM29.8694 49.1318C30.2143 48.718 30.7662 48.2351 31.1801 48.0972C31.2491 48.0972 31.3181 48.0972 31.387 48.0972C31.525 48.2351 31.732 48.4421 31.8009 48.718C31.456 49.0629 31.1111 49.2698 30.8352 49.2698C30.6282 49.2698 30.2833 49.2698 29.8004 49.1318H29.8694Z" fill="black"/>
<path d="M43.3211 16.091C43.3211 16.022 43.3211 15.8151 43.3211 15.7461C43.3211 15.6771 43.2521 15.5392 43.1142 15.5392C42.6313 15.2633 42.0104 15.0563 41.5276 14.8494C40.7688 14.5045 40.2859 14.4355 40.01 14.5045C39.3891 14.7114 36.4918 16.5738 34.8363 17.6775C34.7673 17.6085 34.6293 17.5395 34.4914 17.5395C34.2844 16.9877 33.9395 16.5049 33.3186 16.022C32.3529 15.2633 30.9732 15.0563 30.1455 15.1253C27.5241 15.1253 26.0065 16.4359 25.7996 18.0224C25.3857 17.8154 24.9718 17.8844 24.6958 17.9534C24.5579 17.3326 24.144 16.7118 23.5921 16.2289C22.6953 15.4702 21.3847 15.3322 20.6259 15.3322C18.4184 15.3322 17.1078 16.4359 16.6939 17.7464C16.6939 17.7464 16.6939 17.7464 16.6249 17.7464C16.28 17.7464 15.9351 18.0913 15.9351 18.5052C15.9351 18.9191 16.211 19.264 16.6249 19.264C16.9008 20.8504 17.9356 22.299 19.6601 22.7818C21.5916 23.3336 23.7301 22.092 24.4199 20.5055C24.6958 19.9537 24.7648 19.3329 24.7648 18.7811C24.9718 18.7121 25.3857 18.6432 25.7996 18.9191C26.0065 20.5745 27.1102 22.23 29.1797 22.7818C31.3182 23.3336 33.5946 22.0231 34.3534 20.4366C34.5603 20.0227 34.6983 19.6088 34.6983 19.195C34.9742 19.126 35.1122 18.9191 35.1812 18.5742C37.4576 16.9877 39.872 15.4702 40.2859 15.4012C40.5618 15.4012 41.8035 15.8841 42.9072 16.6428C43.0452 16.7118 43.1831 16.6428 43.3211 16.5049C43.3211 16.5049 43.3901 16.3669 43.3901 16.2289L43.3211 16.091ZM20.4879 22.0231C18.9703 22.0231 17.4527 20.6435 17.3147 18.988C17.3147 18.7811 17.3147 18.5052 17.3147 18.2983C17.4527 18.2293 17.7286 18.0913 18.0735 18.0224C18.0735 17.9534 17.9356 17.6085 17.8666 17.4705C17.7976 17.4705 17.6596 17.4705 17.5906 17.5395C18.0735 16.7808 19.0393 16.2979 20.4879 16.2979C21.9365 16.2979 23.2472 16.6428 23.6611 18.6432C24.075 20.6435 22.2125 22.092 20.4189 22.092L20.4879 22.0231ZM30.0765 22.0231C28.4209 22.0231 26.8343 20.5745 26.6963 18.9191C26.5584 17.2636 27.8 16.091 30.1455 16.091C32.4909 16.091 33.1117 16.4359 33.5256 18.4362C33.9395 20.5055 31.939 21.9541 30.0765 21.9541V22.0231Z" fill="#C10017"/>
<path d="M68.4995 44.716C68.1546 44.716 68.0166 44.4401 68.0166 44.2332C68.0166 44.0262 68.0856 43.8193 68.7754 43.4054C73.2593 40.5774 75.6047 34.8522 75.6047 30.5756V30.2307C75.6047 29.8858 75.8806 29.7479 76.0876 29.7479C78.088 30.0238 79.0538 30.5066 79.0538 31.1274C79.0538 31.7482 78.9158 31.7482 78.226 32.0241C78.157 32.0241 78.0191 32.0241 78.0191 32.0931C78.0191 32.0931 77.8811 32.438 77.8121 32.7829C77.6052 33.7486 77.3982 34.5763 77.1223 35.3351C78.088 37.7493 80.0196 39.6117 82.4339 40.3704V27.3337H77.5362V28.0234C77.5362 28.7822 76.8464 29.403 76.0876 29.403C75.3287 29.403 75.0528 28.9202 75.0528 28.2304C75.1908 26.0231 75.3288 22.8501 75.3288 21.8155C75.3288 20.7808 75.1218 18.9184 74.9149 17.8148V17.5389C74.9149 17.194 75.1908 17.125 75.3288 17.125C75.6737 17.125 77.3292 17.8838 78.0881 18.2976H89.1942C89.2632 18.1597 89.3322 18.0907 89.4012 18.0217C89.5392 17.8148 89.6771 17.6768 89.8841 17.6078C89.953 17.6078 90.091 17.4699 90.3669 17.4699C90.9188 17.4699 92.5744 18.5735 92.8503 18.9874C92.9883 19.1253 93.1262 19.3323 93.1262 19.6082C93.1262 20.16 92.5054 20.4359 92.1605 20.5739H92.0915C91.7466 20.7808 91.7466 21.6775 91.7466 22.2293C91.7466 23.126 91.7466 24.2987 91.8846 25.4023C91.8846 26.1611 91.9535 26.9888 92.0225 27.7475C92.0225 28.6442 91.2637 29.334 90.5739 29.334C89.8841 29.334 89.6081 29.0581 89.6081 28.2304V27.6096H86.09C86.09 27.8165 85.9521 28.1614 85.4002 28.3683C85.1703 28.4603 85.0553 28.7592 85.0553 29.265V32.8519H89.7461C89.7461 32.8519 89.8841 32.8519 89.8841 32.7829C90.091 32.438 91.2637 30.9895 91.8156 30.9895C92.3674 30.9895 92.0225 30.9895 92.1605 31.0585C93.0573 31.4033 94.9198 32.8519 94.9198 33.6796C94.9198 34.5073 94.9198 34.4384 93.8851 34.4384H84.9863V41.0602C86.366 41.2671 87.7456 41.3361 89.2632 41.3361C92.4364 41.3361 95.8855 40.9222 98.2999 40.2325C98.5069 40.2325 98.6449 40.0945 98.7828 40.0945C99.0587 40.0945 99.2657 40.3014 99.2657 40.5084C99.2657 40.7153 98.9898 41.0602 97.6101 42.0949C97.0582 42.5087 96.1615 43.1295 96.0235 43.4054C95.8166 43.8193 95.5406 43.9573 91.4707 43.9573C87.4007 43.9573 85.5382 43.8193 82.365 42.6467C79.2608 41.543 77.4672 38.646 76.7084 36.9215C74.1561 42.5777 69.4652 44.716 68.7754 44.716H68.4995ZM89.3322 25.7472V19.8151H78.226C77.5362 20.298 77.5362 20.3669 77.5362 22.1604V25.6782H89.4702H89.4012L89.3322 25.7472Z" fill="black"/>
<path d="M107.061 43.8886C106.233 43.8886 105.129 42.3711 105.129 41.8192C105.129 41.2674 105.129 41.6123 105.267 41.5433C105.267 41.5433 105.405 41.4744 105.543 41.4744C108.854 41.8882 114.787 41.9572 116.58 41.9572H120.099C121.133 38.9912 124.307 30.369 124.444 26.8511V26.7132C124.444 26.5752 124.582 26.2993 124.858 26.2993C125.134 26.2993 127.204 26.9201 127.687 27.127C128.101 27.334 128.583 27.7478 128.583 28.2307C128.583 28.7135 128.445 29.0584 127.204 29.1274H126.928V29.2653C125.962 32.2314 122.996 38.8532 121.478 41.8882H128.721C128.79 41.8882 128.928 41.8882 128.928 41.8192C130.515 39.612 130.86 39.612 131.067 39.612C131.964 39.612 134.447 41.8882 134.447 42.716C134.447 43.5437 134.378 43.4747 133.412 43.4747H116.443C114.442 43.4747 109.889 43.5437 107.061 43.8196H106.923L107.061 43.8886ZM117.339 39.6809C116.994 39.6809 116.029 39.474 115.684 37.6116C115.201 34.5766 113.683 31.1967 111.614 28.4376C111.545 28.3686 111.545 28.1617 111.545 28.0927C111.545 27.8168 111.821 27.6099 112.097 27.6099C112.717 27.6099 116.649 31.3347 118.512 36.1631C118.719 36.7149 118.788 37.1288 118.788 37.5426C118.788 38.7153 118.167 39.6809 117.27 39.6809H117.339ZM109.268 26.0924C108.441 26.0924 107.475 24.5749 107.475 24.023C107.475 23.4712 107.475 23.8161 107.613 23.7471C107.613 23.7471 107.751 23.6782 107.889 23.6782C111.2 24.092 116.58 24.161 118.374 24.161H118.857V21.5399C118.857 20.2293 118.788 19.2636 118.581 18.5048V18.2289C118.581 17.953 118.788 17.7461 119.064 17.7461C119.34 17.7461 122.996 18.091 122.996 19.2636C122.996 20.4362 122.789 19.8844 122.375 20.0913C122.168 20.2293 122.03 20.2983 121.892 20.4362C121.708 20.5282 121.57 20.988 121.478 21.8158V24.23H126.928C126.997 24.23 127.135 24.23 127.135 24.161C127.48 23.6782 128.583 22.0917 129.204 22.0917C129.825 22.0917 129.411 22.0917 129.549 22.1607C130.722 22.5745 132.515 24.4369 132.515 25.0577C132.515 25.6785 132.446 25.8165 131.481 25.8165H118.443C116.443 25.8165 112.304 25.8854 109.475 26.1614H109.268V26.0924Z" fill="black"/>
<path d="M148.036 44.7855C147.622 44.7855 147.139 44.7855 147.139 44.3716C147.139 43.9578 147.484 43.8888 148.243 43.7508C150.037 43.4749 153.417 42.7162 156.452 40.9917C155.624 40.233 154.865 39.3363 154.452 38.4396C149.416 43.337 145.001 44.7855 144.656 44.7855C144.311 44.7855 144.104 44.5096 144.104 44.3716C144.104 44.0957 144.38 43.9578 144.587 43.8198C147.967 42.2333 151.347 39.4742 154.383 35.8184C153.486 35.6115 152.934 35.1976 152.934 34.163C152.934 33.1283 152.934 34.025 152.934 33.956V31.128C152.934 30.99 152.934 30.852 153.072 30.7831H148.381C147.484 41.2676 142.035 43.9578 141.828 44.0957H141.69C141.552 44.0957 141.276 43.9578 141.276 43.6819C141.276 43.406 141.276 43.337 141.966 42.5782C145.829 38.3016 146.312 31.6108 146.312 26.2306C146.312 20.8503 146.174 20.9883 145.829 19.3328V19.0569C145.829 18.712 146.036 18.574 146.243 18.574C146.45 18.574 146.519 18.574 146.726 18.712C146.726 18.712 146.863 18.781 147.001 18.85C147.484 19.1259 148.588 19.6087 149.14 20.0226H156.038V19.5397C156.038 18.781 156.038 18.4361 155.762 17.5394V17.2635C155.762 17.1255 155.762 16.8496 156.245 16.8496C156.728 16.8496 159.625 17.1255 159.625 18.2981C159.625 19.4708 159.349 18.9189 159.073 19.1259C158.797 19.3328 158.59 19.4018 158.453 19.4708C158.453 19.4708 158.315 19.4708 158.315 19.5397V20.0916H164.73C164.799 20.0916 164.937 20.0916 165.006 19.9536C166.041 18.3671 166.523 18.0912 166.868 18.0912H167.213C168.248 18.4361 169.973 20.0226 169.973 20.7813C169.973 21.5401 169.904 21.5401 168.938 21.5401H161.488C161.488 21.678 161.281 21.885 160.936 22.0229C160.798 22.0229 160.729 22.0919 160.729 23.1266H164.247C164.247 23.1266 164.661 22.5058 165.006 22.2988C165.144 22.2299 165.282 22.2299 165.42 22.2299C165.972 22.2299 167.972 23.3335 167.972 24.1612C167.972 24.989 167.489 24.851 167.213 24.989C167.213 24.989 167.075 24.989 167.006 25.0579C166.776 25.1959 166.661 25.2879 166.661 25.3338C166.661 25.5408 166.661 26.2306 166.799 26.8513C166.799 27.1962 166.799 27.5411 166.868 27.7481V27.886C166.868 28.5758 166.179 29.0586 165.489 29.0586C164.799 29.0586 164.523 28.6448 164.523 28.0929H148.726V29.4035H165.903C165.903 29.4035 166.11 29.3345 166.179 29.2656C166.386 28.9897 167.006 28.7137 167.213 28.7137C167.696 28.7137 169.835 30.1623 169.835 31.128C169.835 32.0936 169.697 32.0936 168.386 32.1626C167.351 32.1626 166.523 32.4385 165.765 32.7144C166.868 33.3352 167.558 34.163 167.558 35.0597C167.558 35.9564 167.006 36.5082 166.386 36.5082C165.765 36.5082 165.489 36.1633 165.213 35.6115C164.799 34.8527 163.833 33.5422 162.591 32.7144C162.454 32.6455 162.316 32.5075 162.316 32.3006C162.316 32.0936 162.316 31.8867 162.729 31.8867C163.143 31.8867 163.902 32.0247 164.523 32.2316C165.006 31.6798 165.42 31.2659 165.627 30.921H158.108C160.039 31.2659 160.108 32.3696 160.108 32.6455C160.108 33.2663 159.625 33.8181 159.004 33.8181C158.384 33.8181 158.246 33.6111 157.97 33.1973C157.625 32.6455 157.004 32.1626 156.245 31.7488C155.969 31.6108 155.9 31.4728 155.9 31.2659C155.9 31.059 155.9 30.99 156.107 30.921H154.452C155.555 31.1969 156.038 31.4728 156.038 31.8867C156.038 32.3006 155.624 32.5075 155.417 32.6455C155.141 32.7834 155.141 33.5422 155.141 34.025C155.141 34.5079 155.141 34.163 155.141 34.163C155.141 34.2319 155.624 34.4389 157.97 34.4389C160.315 34.4389 160.729 34.3009 161.074 32.0936C161.143 31.6108 161.488 31.5418 161.557 31.5418C161.764 31.5418 161.971 31.6798 162.04 32.0247V32.3695C162.178 32.9903 162.247 33.4042 162.66 33.6801C162.867 33.8181 163.005 34.025 163.005 34.3009C163.005 35.4735 161.281 36.0943 157.556 36.1633V36.4392C157.556 36.6462 157.487 37.06 156.728 37.06H156.107H160.591C160.591 37.06 160.798 37.06 160.867 36.9221H160.936C160.936 36.9221 161.074 36.7841 161.143 36.7841C161.281 36.6462 161.419 36.5772 161.626 36.5772H161.971C162.109 36.5772 164.04 37.3359 164.04 38.1637C164.04 38.9914 163.833 38.9224 163.143 39.0604C162.591 39.1983 162.522 39.1983 162.178 39.5432C161.488 40.233 160.66 40.8538 159.763 41.4746C161.626 42.0954 163.971 42.4403 166.661 42.4403C169.352 42.4403 169.145 42.4403 170.249 42.2333H170.524C170.869 42.2333 171.076 42.3713 171.076 42.6472C171.076 42.9231 170.8 43.0611 169.904 43.5439C169.283 43.8888 168.317 44.3027 167.972 44.6476C167.834 44.7855 167.558 44.9235 167.282 44.9235C164.73 44.9235 160.867 44.1647 158.108 42.3713C153.486 44.8545 148.933 44.9924 148.105 44.9924V44.7855H148.036ZM155.762 38.1637C156.245 38.9224 156.866 39.6812 157.763 40.164C158.935 39.4053 159.763 38.5775 160.108 38.1637H155.762ZM164.385 26.2995V24.5061C164.385 24.4371 160.66 24.4371 160.66 24.4371V26.2995H164.385ZM158.453 26.2995V24.4371H154.59V26.2995H158.453ZM152.52 26.2995V24.4371H148.519V26.2995H152.52ZM158.522 22.9196V21.3331H155.486C155.417 21.5401 155.21 21.747 154.934 21.885H154.796C154.796 21.9539 154.796 22.4368 154.727 22.8507H158.59L158.522 22.9196ZM152.589 22.9196V21.3331H149.209L149.002 21.4711C148.795 21.6091 148.726 21.678 148.726 22.5058V22.9196H152.727H152.658H152.589ZM149.071 36.5082C148.381 36.5082 147.898 36.0943 147.898 35.4735C147.898 34.8527 148.243 34.5079 148.864 34.094C149.278 33.8871 150.864 32.9903 151.692 31.6798C151.761 31.5418 151.968 31.4039 152.175 31.4039C152.382 31.4039 152.589 31.6108 152.589 31.8177C152.589 32.5075 151.209 36.4392 149.071 36.4392V36.5082Z" fill="black"/>
<path d="M181.838 44.8545C181.355 44.8545 181.286 44.5786 181.286 44.4406C181.286 44.1647 181.424 44.0268 182.321 43.6819C186.598 42.3023 190.047 40.164 192.599 37.267C191.082 35.1976 190.047 32.8524 189.564 30.5072C187.494 36.9221 184.114 41.1987 179.286 43.8198C178.596 44.1647 178.389 44.2337 178.251 44.2337C178.113 44.2337 177.837 44.0268 177.837 43.8198C177.837 43.6129 177.837 43.5439 178.665 42.9231C184.873 38.4396 187.563 30.3692 188.736 24.1612C187.288 24.1612 183.769 24.1612 181.079 24.5061C180.32 24.5061 179.217 23.0576 179.217 22.5058C179.217 21.9539 179.217 22.2988 179.355 22.2299C179.355 22.2299 179.492 22.1609 179.561 22.1609C182.459 22.5058 186.943 22.6437 189.012 22.6437V22.1609C189.288 20.9883 189.426 19.6087 189.426 18.2981C189.426 16.9876 189.426 17.7463 189.426 17.4704V17.3325C189.426 16.9876 189.633 16.8496 189.84 16.8496C190.047 16.8496 193.358 17.0565 193.358 18.2981C193.358 19.5397 193.151 19.0569 192.323 19.4018H192.185C191.955 19.5397 191.794 20.0226 191.702 20.8503C191.702 21.4021 191.564 22.0229 191.495 22.7127H200.877C200.946 22.7127 201.084 22.7127 201.084 22.6437C201.084 22.6437 202.395 20.7124 203.153 20.7124C203.912 20.7124 203.36 20.7124 203.498 20.7124C204.395 20.9883 206.327 22.6437 206.327 23.4715C206.327 24.2992 206.258 24.1612 205.292 24.1612H191.289C191.082 25.1959 190.875 26.3685 190.668 27.3342H197.773C197.98 27.1273 198.256 26.9203 198.394 26.7824C198.463 26.7824 198.532 26.7134 198.67 26.7134H198.946C199.084 26.7134 201.153 27.6101 201.153 28.4378C201.153 29.2656 200.325 29.4725 200.049 29.5415C199.911 29.5415 199.842 29.5415 199.842 29.6105C199.842 29.6794 199.704 29.9553 199.635 30.0933C198.601 32.8524 197.29 35.1976 195.703 37.129C198.601 39.8881 202.257 41.4746 205.775 41.4746C209.293 41.4746 206.258 41.4746 206.534 41.4746H206.879C207.085 41.4746 207.568 41.4746 207.568 41.8885C207.568 42.3023 207.292 42.3713 206.396 42.7852C205.706 43.13 204.671 43.5439 204.257 43.9578C204.05 44.1647 203.843 44.3027 203.567 44.3027C203.291 44.3027 198.256 43.337 194.117 38.8534C189.081 43.8888 182.045 44.7165 181.976 44.7165H181.838V44.8545ZM190.806 28.9207C191.082 31.128 192.254 33.4732 193.91 35.6115C195.91 32.8524 196.807 29.8864 197.083 28.9207H190.737H190.806Z" fill="black"/>
<path d="M224.952 44.1644C224.607 44.1644 222.882 42.4399 222.882 41.6812C222.882 40.9224 223.089 41.2673 223.434 41.2673C225.09 41.2673 225.711 41.1294 228.194 40.4396V22.4365C228.194 22.0916 228.125 19.4015 227.918 18.0909V17.9529C227.918 17.677 228.125 17.5391 228.332 17.5391H228.884C229.298 17.815 230.264 18.2288 230.815 18.5737H236.817C236.817 18.5047 236.886 18.3668 236.955 18.2978C237.093 18.1599 237.162 17.9529 237.3 17.884C237.369 17.815 237.576 17.746 237.783 17.746C238.197 17.746 239.714 18.7117 240.059 19.2635C240.197 19.4704 240.266 19.6774 240.266 19.8843C240.266 20.4361 239.645 20.712 239.369 20.85C239.162 20.9879 239.093 20.9879 239.093 22.4365C239.093 24.7127 239.231 29.2652 239.3 30.2309C239.3 30.9897 238.679 31.5415 237.99 31.5415C237.3 31.5415 237.024 31.1966 237.024 30.5068V30.1619H233.644C234.058 31.7484 234.609 33.197 235.368 34.5765C238.886 32.4382 239.231 31.8174 239.576 30.8517C239.714 30.5068 239.921 30.5068 239.99 30.5068C240.611 30.5068 242.611 32.7141 242.611 33.197C242.611 33.6798 242.335 33.9557 241.646 33.9557C240.956 33.9557 241.37 33.9557 241.163 33.9557H240.818C240.68 33.9557 240.542 33.9557 240.266 34.0937C239.852 34.2316 239.162 34.5765 238.334 34.8524C237.576 35.1973 236.679 35.5422 236.058 35.7491C237.99 38.9911 240.611 41.1294 243.922 41.9571C244.267 42.0261 244.612 42.164 244.612 42.5089C244.612 42.8538 244.198 42.9918 243.232 43.1297C242.542 43.2677 241.577 43.4056 241.232 43.6126C241.094 43.7505 240.887 43.8195 240.68 43.8195C240.197 43.8195 237.921 42.371 235.851 39.06C235.092 39.6119 232.609 40.9914 225.987 43.5436C225.987 43.5436 225.849 43.6815 225.78 43.7505C225.642 43.8885 225.435 44.0264 225.228 44.0264L224.952 44.1644ZM230.332 39.8878C231.988 39.4049 233.644 38.7841 235.023 38.1633C233.851 35.8871 232.885 33.2659 232.333 30.2309H230.332V39.8878ZM237.024 28.6444V25.2645H230.264V28.6444H237.024ZM237.024 23.6781V20.2982H230.953C230.884 20.3671 230.746 20.4361 230.677 20.5051H230.539C230.539 20.5741 230.401 20.712 230.401 21.2638V23.6091H237.162H237.093L237.024 23.6781ZM217.709 42.233C217.226 42.233 216.743 41.8881 216.743 40.9224C216.881 38.3703 216.881 34.0937 216.881 30.093C216.881 23.1262 216.881 19.9533 216.605 18.4358V18.1599C216.605 17.746 216.95 17.677 217.019 17.677C217.295 17.677 218.605 18.2288 219.64 19.0566H222.331C222.331 19.0566 222.4 19.0566 222.468 18.9186C222.606 18.6427 222.882 18.3668 223.089 18.1599H223.158C223.227 18.1599 223.296 18.0909 223.503 18.0909C223.986 18.0909 226.056 18.9876 226.056 20.0223C226.056 21.0569 225.573 20.781 225.297 20.919H225.228C225.159 20.919 225.09 21.0569 225.021 21.0569H224.952C224.952 21.0569 224.952 21.2638 224.883 21.6087C224.883 22.5054 224.814 24.0919 224.814 26.0233C224.814 30.7138 224.952 36.5769 225.09 38.9911C225.09 39.9568 224.4 40.6465 223.71 40.6465C223.02 40.6465 222.744 40.3016 222.744 39.267V38.5772H219.226V40.6465C219.226 41.4743 218.536 42.164 217.916 42.164L217.709 42.302V42.233ZM222.537 37.1977V32.2313H218.95V37.1977H222.537ZM222.537 30.5758V26.6441H218.881V30.5758H222.537ZM222.606 25.0576V20.6431H219.433C219.226 20.85 219.088 21.3328 219.019 22.2295V25.0576H222.675H222.606Z" fill="black"/>
<path d="M271.998 44.8545C271.308 44.8545 270.825 44.3716 270.825 43.6819V43.5439C271.032 41.1297 271.101 38.2326 271.17 35.2666L269.376 35.8184C267.721 36.3013 265.789 36.9221 263.582 37.8878H263.237C262.478 37.8878 261.374 37.06 261.236 36.5082V36.2323C261.236 36.1633 261.374 36.0943 261.512 36.0254C264.548 35.4735 267.859 34.5768 269.583 34.025L271.17 33.5422V23.1266C271.17 19.6777 271.17 18.4361 270.894 17.6084V17.2635C270.894 17.1255 270.894 16.8496 271.377 16.8496C271.86 16.8496 274.895 17.0565 274.895 18.2981C274.895 19.5397 274.757 18.9189 274.136 19.2638H274.067C273.86 19.4708 273.653 19.8156 273.584 20.2295C273.446 21.2642 273.446 23.4714 273.446 25.4718C273.446 27.4721 273.446 30.1623 273.515 32.8524L274.343 32.5765C274.481 32.5075 274.826 31.6108 275.378 30.3692C275.447 30.0933 275.723 29.9553 276.137 29.9553C276.137 29.9553 279.655 30.6451 279.655 31.8867C279.655 33.1283 279.586 32.5075 278.896 32.7144L273.515 34.4389L273.722 43.337C273.722 44.0268 273.17 44.8545 272.136 44.8545L271.929 44.9924L271.998 44.8545ZM257.718 44.7165C257.235 44.7165 256.615 44.3716 256.615 43.406C256.615 41.8884 256.822 37.06 256.891 32.3006C254.407 36.0254 250.406 38.4396 249.785 38.4396C249.165 38.4396 249.371 38.2326 249.371 38.0257C249.371 37.8188 249.44 37.6808 249.992 37.3359C251.648 36.3013 256.546 30.0243 256.96 27.4721V27.0583C256.063 27.0583 254.131 27.0583 252.476 27.3342H252.407C251.786 27.3342 250.751 25.9546 250.751 25.4718C250.751 24.989 250.751 25.2649 250.889 25.1959C250.889 25.1959 251.027 25.1269 251.096 25.1269C252.821 25.4028 255.373 25.4718 256.753 25.4718V20.7813C255.235 20.9193 253.993 21.0572 253.028 21.0572C252.062 21.0572 251.441 20.9883 251.441 20.5744C251.441 20.1605 251.993 20.0916 252.407 20.0916C255.097 19.8846 259.719 18.574 260.616 17.6084C260.685 17.4704 260.823 17.3325 261.03 17.3325C261.236 17.3325 261.236 17.3325 262.34 18.0912C263.375 18.85 263.444 19.1259 263.444 19.4018C263.444 19.7467 263.099 20.0226 262.547 20.0226C261.995 20.0226 262.202 20.0226 262.133 19.9536H261.512C261.236 20.0226 260.616 20.2295 259.719 20.3675C259.719 20.5744 259.512 20.7813 259.167 20.9883C259.029 21.0572 258.96 21.4021 258.96 21.885V22.2988C258.96 23.1266 258.891 24.2302 258.891 25.5408H260.409C260.547 25.2649 261.099 24.3682 261.512 23.8853C261.65 23.7474 261.788 23.6784 261.995 23.6784C262.202 23.6784 262.133 23.6784 262.202 23.6784C263.03 24.0233 264.617 25.5408 264.617 26.2306C264.617 26.9203 264.41 26.9203 263.72 26.9203H258.822V29.6104C261.099 29.6104 263.582 30.921 263.582 32.6455C263.582 34.3699 263.168 33.8181 262.616 33.8181C262.064 33.8181 261.719 33.5422 261.168 32.9903C260.409 32.0936 259.512 31.2659 258.822 30.7831C258.822 34.9217 258.96 39.4742 259.029 43.268C259.029 44.0957 258.27 44.7855 257.58 44.7855V44.5786L257.718 44.7165ZM267.859 31.6108C267.445 31.6108 267.1 31.4039 266.755 30.99C266.272 30.3692 265.1 29.4035 264.272 28.9897C263.927 28.8517 263.72 28.7137 263.72 28.4378C263.72 28.1619 263.858 27.955 265.237 27.955C266.617 27.955 269.238 28.0929 269.238 30.2312C269.238 32.3696 268.687 31.6798 267.928 31.6798L267.859 31.6108ZM268.687 25.4028C268.411 25.4028 267.859 25.2649 267.307 24.4371C266.893 23.6784 265.858 22.6437 265.031 22.0229C264.824 21.885 264.548 21.678 264.548 21.4021C264.548 20.9883 264.962 20.9883 265.168 20.9883C267.859 20.9883 269.997 22.2988 269.997 23.8853C269.997 25.4718 269.445 25.4028 268.687 25.4028Z" fill="black"/>
<path d="M83.0549 55.6167H80.2266L79.6747 57.2031H80.5025C80.5715 57.2031 80.7095 57.2031 80.7095 57.2031C80.7095 57.2031 80.7095 57.2721 80.7095 57.3411C80.7095 57.4101 80.7095 57.479 80.7095 57.479C80.7095 57.479 80.5715 57.479 80.5025 57.479H78.9159C78.847 57.479 78.709 57.479 78.709 57.479C78.709 57.479 78.709 57.4101 78.709 57.3411C78.709 57.2721 78.709 57.2031 78.709 57.2031C78.709 57.2031 78.847 57.2031 78.9159 57.2031H79.2608L81.1924 52.0298H79.9507C79.8817 52.0298 79.7437 52.0298 79.7437 52.0298C79.7437 52.0298 79.7437 51.9608 79.7437 51.8919C79.7437 51.8229 79.7437 51.7539 79.7437 51.7539C79.7437 51.7539 79.8817 51.7539 79.9507 51.7539H82.0891L84.2276 57.3411H84.5725C84.6415 57.3411 84.7794 57.3411 84.7794 57.3411C84.7794 57.3411 84.7794 57.4101 84.7794 57.479C84.7794 57.548 84.7794 57.617 84.7794 57.617C84.7794 57.617 84.6415 57.617 84.5725 57.617H82.9859C82.8479 57.617 82.7789 57.617 82.7789 57.617C82.7789 57.617 82.7789 57.548 82.7789 57.479C82.7789 57.4101 82.7789 57.3411 82.7789 57.3411C82.7789 57.3411 82.9169 57.3411 82.9859 57.3411H83.8137L83.1928 55.7546L83.0549 55.6167ZM82.9169 55.2028L81.7442 52.0988H81.6062L80.4335 55.2028H82.9169Z" fill="black"/>
<path d="M88.3663 57.2031V52.0298H88.0214C87.9524 52.0298 87.8145 52.0298 87.8145 52.0298C87.8145 52.0298 87.8145 51.9608 87.8145 51.8919C87.8145 51.8229 87.8145 51.7539 87.8145 51.7539C87.8145 51.7539 87.9524 51.7539 88.0214 51.7539H90.3668C90.7117 51.7539 91.0566 51.8229 91.3326 51.9608C91.6085 52.0988 91.8844 52.3057 92.0224 52.4437C92.2983 52.7886 92.5053 53.1335 92.6432 53.4783C92.7122 53.7543 92.7812 54.0302 92.7812 54.444V55.0648C92.7812 55.4787 92.7122 55.9615 92.5053 56.3754C92.2983 56.7893 91.9534 57.1342 91.5395 57.479C91.1946 57.686 90.7807 57.8239 90.3668 57.8239H88.0214C87.9524 57.8239 87.8145 57.8239 87.8145 57.8239C87.8145 57.8239 87.8145 57.755 87.8145 57.686C87.8145 57.617 87.8145 57.548 87.8145 57.548C87.8145 57.548 87.9524 57.548 88.0214 57.548H88.3663V57.2031ZM88.7802 57.2031H90.3668C90.7117 57.2031 91.0566 57.0652 91.4015 56.8582C91.7465 56.6513 91.9534 56.3064 92.0914 56.0305C92.2293 55.7546 92.2983 55.3407 92.2983 55.0648V54.3061C92.2983 54.0302 92.2983 53.8232 92.1604 53.6163C92.0224 53.3404 91.8844 52.9955 91.6085 52.7196C91.4705 52.5816 91.3326 52.4437 91.0566 52.3057C90.7807 52.1678 90.5738 52.0988 90.2978 52.0988H88.7112V57.2721L88.7802 57.2031Z" fill="black"/>
<path d="M99.8864 55.6167H97.0582L96.5063 57.2031H97.3341C97.4031 57.2031 97.541 57.2031 97.541 57.2031C97.541 57.2031 97.541 57.2721 97.541 57.3411C97.541 57.4101 97.541 57.479 97.541 57.479C97.541 57.479 97.4031 57.479 97.3341 57.479H95.7475C95.6785 57.479 95.5405 57.479 95.5405 57.479C95.5405 57.479 95.5405 57.4101 95.5405 57.3411C95.5405 57.2721 95.5405 57.2031 95.5405 57.2031C95.5405 57.2031 95.6785 57.2031 95.7475 57.2031H96.0924L98.0239 52.0298H96.7822C96.7132 52.0298 96.5753 52.0298 96.5753 52.0298C96.5753 52.0298 96.5753 51.9608 96.5753 51.8919C96.5753 51.8229 96.5753 51.7539 96.5753 51.7539C96.5753 51.7539 96.7132 51.7539 96.7822 51.7539H98.9207L101.059 57.3411H101.404C101.473 57.3411 101.611 57.3411 101.611 57.3411C101.611 57.3411 101.611 57.4101 101.611 57.479C101.611 57.548 101.611 57.617 101.611 57.617C101.611 57.617 101.473 57.617 101.404 57.617H99.8175C99.6795 57.617 99.6105 57.617 99.6105 57.617C99.6105 57.617 99.6105 57.548 99.6105 57.479C99.6105 57.4101 99.6105 57.3411 99.6105 57.3411C99.6105 57.3411 99.7485 57.3411 99.8175 57.3411H100.645L100.024 55.7546L99.8864 55.6167ZM99.7485 55.2028L98.5758 52.0988H98.4378L97.2651 55.2028H99.7485Z" fill="black"/>
<path d="M108.786 52.2358V51.9599C108.786 51.8909 108.786 51.753 108.786 51.753C108.786 51.753 108.855 51.753 108.924 51.753C108.992 51.753 109.061 51.753 109.061 51.753C109.061 51.753 109.061 51.8909 109.061 51.9599V53.1325C109.061 53.2705 109.061 53.3395 109.061 53.3395C109.061 53.3395 108.992 53.3395 108.924 53.3395C108.855 53.3395 108.786 53.3395 108.786 53.3395C108.786 53.3395 108.786 53.2015 108.717 53.1325C108.717 52.8566 108.51 52.5807 108.234 52.3738C107.82 52.0979 107.406 51.8909 106.854 51.8909C106.302 51.8909 106.233 51.9599 105.888 52.0979C105.681 52.2358 105.474 52.3048 105.336 52.5117C105.129 52.7877 104.923 53.0636 104.785 53.4085C104.716 53.6154 104.647 53.8913 104.647 54.2362V54.9949C104.647 55.6157 104.854 56.1676 105.336 56.6504C105.819 57.1332 106.371 57.3402 106.992 57.3402C107.613 57.3402 107.682 57.2712 107.958 57.1332C108.234 56.9953 108.51 56.7194 108.786 56.3745C108.786 56.3055 108.923 56.2365 108.992 56.2365C109.061 56.2365 109.13 56.2365 109.13 56.2365C109.13 56.2365 109.13 56.3055 109.13 56.3745C109.13 56.4435 109.061 56.5814 108.924 56.7194C108.648 57.0643 108.303 57.2712 107.958 57.4091C107.613 57.5471 107.268 57.6161 106.923 57.6161C106.578 57.6161 106.302 57.6161 105.957 57.4091C105.681 57.3402 105.474 57.2022 105.336 57.0643C105.198 56.9263 104.991 56.7194 104.716 56.4435C104.44 56.1676 104.302 55.8916 104.233 55.6157C104.164 55.3398 104.095 55.0639 104.095 54.788V53.8913C104.095 53.4774 104.233 53.0636 104.44 52.5807C104.647 52.0979 104.991 51.822 105.405 51.5461C105.819 51.2701 106.233 51.2012 106.716 51.2012C107.406 51.2012 108.027 51.4771 108.579 51.9599L108.786 52.2358Z" fill="black"/>
<path d="M116.787 54.7199H113.959V57.2031H114.511C114.58 57.2031 114.718 57.2031 114.718 57.2031C114.718 57.2031 114.718 57.2721 114.718 57.3411C114.718 57.4101 114.718 57.479 114.718 57.479C114.718 57.479 114.58 57.479 114.511 57.479H112.993C112.924 57.479 112.786 57.479 112.786 57.479C112.786 57.479 112.786 57.4101 112.786 57.3411C112.786 57.2721 112.786 57.2031 112.786 57.2031C112.786 57.2031 112.924 57.2031 112.993 57.2031H113.476V52.0298H113.2C113.062 52.0298 112.993 52.0298 112.993 52.0298C112.993 52.0298 112.993 51.9608 112.993 51.8919C112.993 51.8229 112.993 51.7539 112.993 51.7539C112.993 51.7539 113.131 51.7539 113.2 51.7539H114.511C114.58 51.7539 114.718 51.7539 114.718 51.7539C114.718 51.7539 114.718 51.8229 114.718 51.8919C114.718 51.9608 114.718 52.0298 114.718 52.0298C114.718 52.0298 114.58 52.0298 114.511 52.0298H113.959V54.2371H116.787V52.0298H116.235C116.166 52.0298 116.028 52.0298 116.028 52.0298C116.028 52.0298 116.028 51.9608 116.028 51.8919C116.028 51.8229 116.028 51.7539 116.028 51.7539C116.028 51.7539 116.166 51.7539 116.235 51.7539H117.546C117.684 51.7539 117.753 51.7539 117.753 51.7539C117.753 51.7539 117.753 51.8229 117.753 51.8919C117.753 51.9608 117.753 52.0298 117.753 52.0298C117.753 52.0298 117.615 52.0298 117.546 52.0298H117.27V57.2031H117.753C117.822 57.2031 117.96 57.2031 117.96 57.2031C117.96 57.2031 117.96 57.2721 117.96 57.3411C117.96 57.4101 117.96 57.479 117.96 57.479C117.96 57.479 117.822 57.479 117.753 57.479H116.235C116.166 57.479 116.028 57.479 116.028 57.479C116.028 57.479 116.028 57.4101 116.028 57.3411C116.028 57.2721 116.028 57.2031 116.028 57.2031C116.028 57.2031 116.166 57.2031 116.235 57.2031H116.787V54.7199Z" fill="black"/>
<path d="M123.892 52.0298V57.2031H125.341C125.41 57.2031 125.548 57.2031 125.548 57.2031C125.548 57.2031 125.548 57.2721 125.548 57.3411C125.548 57.4101 125.548 57.479 125.548 57.479C125.548 57.479 125.41 57.479 125.341 57.479H121.961C121.892 57.479 121.754 57.479 121.754 57.479C121.754 57.479 121.754 57.4101 121.754 57.3411C121.754 57.2721 121.754 57.2031 121.754 57.2031C121.754 57.2031 121.892 57.2031 121.961 57.2031H123.409V52.0298H121.961C121.892 52.0298 121.754 52.0298 121.754 52.0298C121.754 52.0298 121.754 51.9608 121.754 51.8919C121.754 51.8229 121.754 51.7539 121.754 51.7539C121.754 51.7539 121.892 51.7539 121.961 51.7539H125.341C125.41 51.7539 125.548 51.7539 125.548 51.7539C125.548 51.7539 125.548 51.8229 125.548 51.8919C125.548 51.9608 125.548 52.0298 125.548 52.0298C125.548 52.0298 125.41 52.0298 125.341 52.0298H123.892Z" fill="black"/>
<path d="M139.138 55.2718V57.2031H139.965C140.103 57.2031 140.172 57.2031 140.172 57.2031C140.172 57.2031 140.172 57.2721 140.172 57.3411C140.172 57.4101 140.172 57.479 140.172 57.479C140.172 57.479 140.034 57.479 139.965 57.479H138.172C138.103 57.479 137.965 57.479 137.965 57.479C137.965 57.479 137.965 57.4101 137.965 57.3411C137.965 57.2721 137.965 57.2031 137.965 57.2031C137.965 57.2031 138.103 57.2031 138.172 57.2031H138.724V52.0298H138.172C138.103 52.0298 137.965 52.0298 137.965 52.0298C137.965 52.0298 137.965 51.9608 137.965 51.8919C137.965 51.8229 137.965 51.7539 137.965 51.7539C137.965 51.7539 138.103 51.7539 138.172 51.7539H139.965C140.103 51.7539 140.172 51.7539 140.172 51.7539C140.172 51.7539 140.172 51.8229 140.172 51.8919C140.172 51.9608 140.172 52.0298 140.172 52.0298C140.172 52.0298 140.034 52.0298 139.965 52.0298H139.138V54.651L142.104 52.0298H141.621C141.483 52.0298 141.414 52.0298 141.414 52.0298C141.414 52.0298 141.414 51.9608 141.414 51.8919C141.414 51.8229 141.414 51.7539 141.414 51.7539C141.414 51.7539 141.552 51.7539 141.621 51.7539H142.863C142.932 51.7539 143.07 51.7539 143.07 51.7539C143.07 51.7539 143.07 51.8229 143.07 51.8919C143.07 51.9608 143.07 52.0298 143.07 52.0298C143.07 52.0298 142.932 52.0298 142.863 52.0298H142.656L140.31 54.1681C140.655 54.3061 140.931 54.513 141.207 54.7199C141.483 54.9269 141.69 55.2718 141.897 55.6167C142.035 55.8236 142.242 56.3754 142.587 57.2031H143.139C143.276 57.2031 143.345 57.2031 143.345 57.2031C143.345 57.2031 143.345 57.2721 143.345 57.3411C143.345 57.4101 143.345 57.479 143.345 57.479C143.345 57.479 143.208 57.479 143.139 57.479H142.311C141.828 56.2374 141.483 55.4787 141.138 55.0648C140.793 54.651 140.448 54.444 139.965 54.3061L139.069 55.0648L139.138 55.2718Z" fill="black"/>
<path d="M147.553 54.7181V57.2013H150.865V55.9597C150.865 55.8907 150.865 55.7527 150.865 55.7527C150.865 55.7527 150.934 55.7527 151.003 55.7527C151.072 55.7527 151.141 55.7527 151.141 55.7527C151.141 55.7527 151.141 55.8907 151.141 55.9597V57.6841H146.381C146.312 57.6841 146.174 57.6841 146.174 57.6841C146.174 57.6841 146.174 57.6151 146.174 57.5462C146.174 57.4772 146.174 57.4082 146.174 57.4082C146.174 57.4082 146.312 57.4082 146.381 57.4082H146.933V52.2349H146.381C146.312 52.2349 146.174 52.2349 146.174 52.2349C146.174 52.2349 146.174 52.1659 146.174 52.0969C146.174 52.028 146.174 51.959 146.174 51.959C146.174 51.959 146.312 51.959 146.381 51.959H150.934V53.4765C150.934 53.5455 150.934 53.6834 150.934 53.6834C150.934 53.6834 150.865 53.6834 150.796 53.6834C150.727 53.6834 150.658 53.6834 150.658 53.6834C150.658 53.6834 150.658 53.5455 150.658 53.4765V52.4418H147.553V54.7181H149.071V54.2352C149.071 54.1663 149.071 54.0283 149.071 54.0283C149.071 54.0283 149.14 54.0283 149.209 54.0283C149.278 54.0283 149.347 54.0283 149.347 54.0283C149.347 54.0283 149.347 54.1663 149.347 54.2352V55.6148C149.347 55.6838 149.347 55.8217 149.347 55.8217C149.347 55.8217 149.278 55.8217 149.209 55.8217C149.14 55.8217 149.071 55.8217 149.071 55.8217C149.071 55.8217 149.071 55.6838 149.071 55.6148V55.1319H147.553V54.7181Z" fill="black"/>
<path d="M157.556 52.0298V57.2031H159.005C159.074 57.2031 159.212 57.2031 159.212 57.2031C159.212 57.2031 159.212 57.2721 159.212 57.3411C159.212 57.4101 159.212 57.479 159.212 57.479C159.212 57.479 159.074 57.479 159.005 57.479H155.624C155.555 57.479 155.417 57.479 155.417 57.479C155.417 57.479 155.417 57.4101 155.417 57.3411C155.417 57.2721 155.417 57.2031 155.417 57.2031C155.417 57.2031 155.555 57.2031 155.624 57.2031H157.073V52.0298H155.624C155.555 52.0298 155.417 52.0298 155.417 52.0298C155.417 52.0298 155.417 51.9608 155.417 51.8919C155.417 51.8229 155.417 51.7539 155.417 51.7539C155.417 51.7539 155.555 51.7539 155.624 51.7539H159.005C159.074 51.7539 159.212 51.7539 159.212 51.7539C159.212 51.7539 159.212 51.8229 159.212 51.8919C159.212 51.9608 159.212 52.0298 159.212 52.0298C159.212 52.0298 159.074 52.0298 159.005 52.0298H157.556Z" fill="black"/>
<path d="M165.972 54.9269V57.2031H167.076C167.145 57.2031 167.283 57.2031 167.283 57.2031C167.283 57.2031 167.283 57.2721 167.283 57.3411C167.283 57.4101 167.283 57.479 167.283 57.479C167.283 57.479 167.145 57.479 167.076 57.479H164.385C164.316 57.479 164.178 57.479 164.178 57.479C164.178 57.479 164.178 57.4101 164.178 57.3411C164.178 57.2721 164.178 57.2031 164.178 57.2031C164.178 57.2031 164.316 57.2031 164.385 57.2031H165.489V54.9269L163.626 52.0298H163.351C163.282 52.0298 163.144 52.0298 163.144 52.0298C163.144 52.0298 163.144 51.9608 163.144 51.8919C163.144 51.8229 163.144 51.7539 163.144 51.7539C163.144 51.7539 163.282 51.7539 163.351 51.7539H164.523C164.592 51.7539 164.73 51.7539 164.73 51.7539C164.73 51.7539 164.73 51.8229 164.73 51.8919C164.73 51.9608 164.73 52.0298 164.73 52.0298C164.73 52.0298 164.592 52.0298 164.523 52.0298H164.109L165.696 54.444L167.283 52.0298H166.869C166.731 52.0298 166.662 52.0298 166.662 52.0298C166.662 52.0298 166.662 51.9608 166.662 51.8919C166.662 51.8229 166.662 51.7539 166.662 51.7539C166.662 51.7539 166.8 51.7539 166.869 51.7539H168.041C168.11 51.7539 168.248 51.7539 168.248 51.7539C168.248 51.7539 168.248 51.8229 168.248 51.8919C168.248 51.9608 168.248 52.0298 168.248 52.0298C168.248 52.0298 168.11 52.0298 168.041 52.0298H167.765L165.903 54.9269H165.972Z" fill="black"/>
<path d="M176.25 52.0298V55.6167C176.25 56.2374 176.043 56.7203 175.629 57.1342C175.215 57.548 174.732 57.755 174.181 57.755C173.629 57.755 173.491 57.686 173.146 57.479C172.801 57.2721 172.594 57.0652 172.387 56.7203C172.18 56.3754 172.042 56.0305 172.042 55.6167V52.0298H171.697C171.628 52.0298 171.49 52.0298 171.49 52.0298C171.49 52.0298 171.49 51.9608 171.49 51.8919C171.49 51.8229 171.49 51.7539 171.559 51.7539C171.559 51.7539 171.697 51.7539 171.766 51.7539H173.353C173.422 51.7539 173.56 51.7539 173.56 51.7539C173.56 51.7539 173.56 51.8229 173.56 51.8919C173.56 51.9608 173.56 52.0298 173.56 52.0298C173.56 52.0298 173.422 52.0298 173.353 52.0298H172.525V55.6167C172.525 56.0995 172.663 56.5134 173.008 56.8582C173.353 57.2031 173.698 57.3411 174.181 57.3411C174.663 57.3411 174.732 57.3411 174.939 57.1342C175.146 56.9272 175.353 56.7893 175.56 56.5134C175.767 56.2374 175.836 55.9615 175.836 55.6167V52.0298H175.008C174.939 52.0298 174.801 52.0298 174.801 52.0298C174.801 52.0298 174.801 51.9608 174.801 51.8919C174.801 51.8229 174.801 51.7539 174.801 51.7539C174.801 51.7539 174.939 51.7539 175.008 51.7539H176.595C176.664 51.7539 176.802 51.7539 176.802 51.7539C176.802 51.7539 176.802 51.8229 176.802 51.8919C176.802 51.9608 176.802 52.0298 176.802 52.0298C176.802 52.0298 176.664 52.0298 176.595 52.0298H176.25Z" fill="black"/>
<path d="M189.564 54.7181V57.2013H192.875V55.9597C192.875 55.8907 192.875 55.7527 192.875 55.7527C192.875 55.7527 192.944 55.7527 193.013 55.7527C193.082 55.7527 193.151 55.7527 193.151 55.7527C193.151 55.7527 193.151 55.8907 193.151 55.9597V57.6841H188.391C188.322 57.6841 188.184 57.6841 188.184 57.6841C188.184 57.6841 188.184 57.6151 188.184 57.5462C188.184 57.4772 188.184 57.4082 188.184 57.4082C188.184 57.4082 188.322 57.4082 188.391 57.4082H188.943V52.2349H188.391C188.322 52.2349 188.184 52.2349 188.184 52.2349C188.184 52.2349 188.184 52.1659 188.184 52.0969C188.184 52.028 188.184 51.959 188.184 51.959C188.184 51.959 188.322 51.959 188.391 51.959H192.944V53.4765C192.944 53.5455 192.944 53.6834 192.944 53.6834C192.944 53.6834 192.875 53.6834 192.806 53.6834C192.737 53.6834 192.668 53.6834 192.668 53.6834C192.668 53.6834 192.668 53.5455 192.668 53.4765V52.4418H189.564V54.7181H191.081V54.2352C191.081 54.1663 191.081 54.0283 191.081 54.0283C191.081 54.0283 191.15 54.0283 191.219 54.0283C191.288 54.0283 191.357 54.0283 191.357 54.0283C191.357 54.0283 191.357 54.1663 191.357 54.2352V55.6148C191.357 55.6838 191.357 55.8217 191.357 55.8217C191.357 55.8217 191.288 55.8217 191.219 55.8217C191.15 55.8217 191.081 55.8217 191.081 55.8217C191.081 55.8217 191.081 55.6838 191.081 55.6148V55.1319H189.564V54.7181Z" fill="black"/>
<path d="M199.635 54.9269V57.2031H200.739C200.808 57.2031 200.946 57.2031 200.946 57.2031C200.946 57.2031 200.946 57.2721 200.946 57.3411C200.946 57.4101 200.946 57.479 200.946 57.479C200.946 57.479 200.808 57.479 200.739 57.479H198.049C197.98 57.479 197.842 57.479 197.842 57.479C197.842 57.479 197.842 57.4101 197.842 57.3411C197.842 57.2721 197.842 57.2031 197.842 57.2031C197.842 57.2031 197.98 57.2031 198.049 57.2031H199.153V54.9269L197.29 52.0298H197.014C196.945 52.0298 196.807 52.0298 196.807 52.0298C196.807 52.0298 196.807 51.9608 196.807 51.8919C196.807 51.8229 196.807 51.7539 196.807 51.7539C196.807 51.7539 196.945 51.7539 197.014 51.7539H198.187C198.256 51.7539 198.394 51.7539 198.394 51.7539C198.394 51.7539 198.394 51.8229 198.394 51.8919C198.394 51.9608 198.394 52.0298 198.394 52.0298C198.394 52.0298 198.256 52.0298 198.187 52.0298H197.773L199.359 54.444L200.946 52.0298H200.532C200.394 52.0298 200.325 52.0298 200.325 52.0298C200.325 52.0298 200.325 51.9608 200.325 51.8919C200.325 51.8229 200.325 51.7539 200.325 51.7539C200.325 51.7539 200.463 51.7539 200.532 51.7539H201.705C201.774 51.7539 201.912 51.7539 201.912 51.7539C201.912 51.7539 201.912 51.8229 201.912 51.8919C201.912 51.9608 201.912 52.0298 201.912 52.0298C201.912 52.0298 201.774 52.0298 201.705 52.0298H201.429L199.566 54.9269H199.635Z" fill="black"/>
<path d="M206.396 54.7181V57.2013H209.707V55.9597C209.707 55.8907 209.707 55.7527 209.707 55.7527C209.707 55.7527 209.776 55.7527 209.845 55.7527C209.914 55.7527 209.983 55.7527 209.983 55.7527C209.983 55.7527 209.983 55.8907 209.983 55.9597V57.6841H205.223C205.154 57.6841 205.016 57.6841 205.016 57.6841C205.016 57.6841 205.016 57.6151 205.016 57.5462C205.016 57.4772 205.016 57.4082 205.016 57.4082C205.016 57.4082 205.154 57.4082 205.223 57.4082H205.775V52.2349H205.223C205.154 52.2349 205.016 52.2349 205.016 52.2349C205.016 52.2349 205.016 52.1659 205.016 52.0969C205.016 52.028 205.016 51.959 205.016 51.959C205.016 51.959 205.154 51.959 205.223 51.959H209.776V53.4765C209.776 53.5455 209.776 53.6834 209.776 53.6834C209.776 53.6834 209.707 53.6834 209.638 53.6834C209.569 53.6834 209.5 53.6834 209.5 53.6834C209.5 53.6834 209.5 53.5455 209.5 53.4765V52.4418H206.396V54.7181H207.913V54.2352C207.913 54.1663 207.913 54.0283 207.913 54.0283C207.913 54.0283 207.982 54.0283 208.051 54.0283C208.12 54.0283 208.189 54.0283 208.189 54.0283C208.189 54.0283 208.189 54.1663 208.189 54.2352V55.6148C208.189 55.6838 208.189 55.8217 208.189 55.8217C208.189 55.8217 208.12 55.8217 208.051 55.8217C207.982 55.8217 207.913 55.8217 207.913 55.8217C207.913 55.8217 207.913 55.6838 207.913 55.6148V55.1319H206.396V54.7181Z" fill="black"/>
<path d="M226.538 52.2358V51.9599C226.538 51.8909 226.538 51.753 226.538 51.753C226.538 51.753 226.607 51.753 226.676 51.753C226.745 51.753 226.814 51.753 226.814 51.753C226.814 51.753 226.814 51.8909 226.814 51.9599V53.1325C226.814 53.2705 226.814 53.3395 226.814 53.3395C226.814 53.3395 226.745 53.3395 226.676 53.3395C226.607 53.3395 226.538 53.3395 226.538 53.3395C226.538 53.3395 226.538 53.2015 226.469 53.1325C226.469 52.8566 226.263 52.5807 225.987 52.3738C225.573 52.0979 225.159 51.8909 224.607 51.8909C224.055 51.8909 223.986 51.9599 223.641 52.0979C223.434 52.2358 223.227 52.3048 223.089 52.5117C222.882 52.7877 222.675 53.0636 222.537 53.4085C222.468 53.6154 222.4 53.8913 222.4 54.2362V54.9949C222.4 55.6157 222.606 56.1676 223.089 56.6504C223.572 57.1332 224.124 57.3402 224.745 57.3402C225.366 57.3402 225.435 57.2712 225.711 57.1332C225.987 56.9953 226.263 56.7194 226.538 56.3745C226.538 56.3055 226.676 56.2365 226.745 56.2365C226.814 56.2365 226.883 56.2365 226.883 56.2365C226.883 56.2365 226.883 56.3055 226.883 56.3745C226.883 56.4435 226.814 56.5814 226.676 56.7194C226.401 57.0643 226.056 57.2712 225.711 57.4091C225.366 57.5471 225.021 57.6161 224.676 57.6161C224.331 57.6161 224.055 57.6161 223.71 57.4091C223.434 57.3402 223.227 57.2022 223.089 57.0643C222.951 56.9263 222.744 56.7194 222.468 56.4435C222.193 56.1676 222.055 55.8916 221.986 55.6157C221.917 55.3398 221.848 55.0639 221.848 54.788V53.8913C221.848 53.4774 221.986 53.0636 222.193 52.5807C222.4 52.0979 222.744 51.822 223.158 51.5461C223.572 51.2701 223.986 51.2012 224.469 51.2012C225.159 51.2012 225.78 51.4771 226.332 51.9599L226.538 52.2358Z" fill="black"/>
<path d="M232.264 52.0286V57.2019H235.162V55.4775C235.162 55.4085 235.162 55.2705 235.162 55.2705C235.162 55.2705 235.23 55.2705 235.299 55.2705C235.368 55.2705 235.437 55.2705 235.437 55.2705C235.437 55.2705 235.437 55.4085 235.437 55.4775V57.6158H230.678C230.609 57.6158 230.471 57.6158 230.471 57.6158C230.471 57.6158 230.471 57.5468 230.471 57.4778C230.471 57.4088 230.471 57.3398 230.471 57.3398C230.471 57.3398 230.609 57.3398 230.678 57.3398H231.712V52.1665H230.678C230.609 52.1665 230.471 52.1665 230.471 52.1665C230.471 52.1665 230.471 52.0976 230.471 52.0286C230.471 51.9596 230.471 51.8906 230.471 51.8906C230.471 51.8906 230.609 51.8906 230.678 51.8906H233.161C233.23 51.8906 233.368 51.8906 233.368 51.8906C233.368 51.8906 233.368 51.9596 233.368 52.0286C233.368 52.0976 233.368 52.1665 233.368 52.1665C233.368 52.1665 233.23 52.1665 233.161 52.1665H232.126L232.264 52.0286Z" fill="black"/>
<path d="M241.646 52.0298V57.2031H243.094C243.163 57.2031 243.301 57.2031 243.301 57.2031C243.301 57.2031 243.301 57.2721 243.301 57.3411C243.301 57.4101 243.301 57.479 243.301 57.479C243.301 57.479 243.163 57.479 243.094 57.479H239.714C239.645 57.479 239.507 57.479 239.507 57.479C239.507 57.479 239.507 57.4101 239.507 57.3411C239.507 57.2721 239.507 57.2031 239.507 57.2031C239.507 57.2031 239.645 57.2031 239.714 57.2031H241.163V52.0298H239.714C239.645 52.0298 239.507 52.0298 239.507 52.0298C239.507 52.0298 239.507 51.9608 239.507 51.8919C239.507 51.8229 239.507 51.7539 239.507 51.7539C239.507 51.7539 239.645 51.7539 239.714 51.7539H243.094C243.163 51.7539 243.301 51.7539 243.301 51.7539C243.301 51.7539 243.301 51.8229 243.301 51.8919C243.301 51.9608 243.301 52.0298 243.301 52.0298C243.301 52.0298 243.163 52.0298 243.094 52.0298H241.646Z" fill="black"/>
<path d="M251.993 57.617H251.441L248.268 52.2368V57.2031H249.096C249.234 57.2031 249.303 57.2031 249.303 57.2031C249.303 57.2031 249.303 57.2721 249.303 57.3411C249.303 57.4101 249.303 57.479 249.303 57.479C249.303 57.479 249.165 57.479 249.096 57.479H247.509C247.371 57.479 247.302 57.479 247.302 57.479C247.302 57.479 247.302 57.4101 247.302 57.3411C247.302 57.2721 247.302 57.2031 247.302 57.2031C247.302 57.2031 247.44 57.2031 247.509 57.2031H247.854V52.0298H247.302C247.233 52.0298 247.095 52.0298 247.095 52.0298C247.095 52.0298 247.095 51.9608 247.095 51.8919C247.095 51.8229 247.095 51.7539 247.095 51.7539C247.095 51.7539 247.233 51.7539 247.302 51.7539H248.406L251.579 57.1342V52.1678H250.751C250.682 52.1678 250.544 52.1678 250.544 52.1678C250.544 52.1678 250.544 52.0988 250.544 52.0298C250.544 51.9608 250.544 51.8919 250.544 51.8919C250.544 51.8919 250.682 51.8919 250.751 51.8919H252.338C252.407 51.8919 252.545 51.8919 252.545 51.8919C252.545 51.8919 252.545 51.9608 252.545 52.0298C252.545 52.0988 252.545 52.1678 252.545 52.1678C252.545 52.1678 252.407 52.1678 252.338 52.1678H251.993V57.755V57.617Z" fill="black"/>
<path d="M258.477 52.0298V57.2031H259.926C259.995 57.2031 260.133 57.2031 260.133 57.2031C260.133 57.2031 260.133 57.2721 260.133 57.3411C260.133 57.4101 260.133 57.479 260.133 57.479C260.133 57.479 259.995 57.479 259.926 57.479H256.546C256.477 57.479 256.339 57.479 256.339 57.479C256.339 57.479 256.339 57.4101 256.339 57.3411C256.339 57.2721 256.339 57.2031 256.339 57.2031C256.339 57.2031 256.477 57.2031 256.546 57.2031H257.994V52.0298H256.546C256.477 52.0298 256.339 52.0298 256.339 52.0298C256.339 52.0298 256.339 51.9608 256.339 51.8919C256.339 51.8229 256.339 51.7539 256.339 51.7539C256.339 51.7539 256.477 51.7539 256.546 51.7539H259.926C259.995 51.7539 260.133 51.7539 260.133 51.7539C260.133 51.7539 260.133 51.8229 260.133 51.8919C260.133 51.9608 260.133 52.0298 260.133 52.0298C260.133 52.0298 259.995 52.0298 259.926 52.0298H258.477Z" fill="black"/>
<path d="M268.549 52.2358V51.9599C268.549 51.8909 268.549 51.753 268.549 51.753C268.549 51.753 268.618 51.753 268.687 51.753C268.756 51.753 268.825 51.753 268.825 51.753C268.825 51.753 268.825 51.8909 268.825 51.9599V53.1325C268.825 53.2705 268.825 53.3395 268.825 53.3395C268.825 53.3395 268.756 53.3395 268.687 53.3395C268.618 53.3395 268.549 53.3395 268.549 53.3395C268.549 53.3395 268.549 53.2015 268.48 53.1325C268.48 52.8566 268.273 52.5807 267.997 52.3738C267.583 52.0979 267.169 51.8909 266.617 51.8909C266.065 51.8909 265.996 51.9599 265.651 52.0979C265.445 52.2358 265.238 52.3048 265.1 52.5117C264.893 52.7877 264.686 53.0636 264.548 53.4085C264.479 53.6154 264.41 53.8913 264.41 54.2362V54.9949C264.41 55.6157 264.617 56.1676 265.1 56.6504C265.582 57.1332 266.134 57.3402 266.755 57.3402C267.376 57.3402 267.445 57.2712 267.721 57.1332C267.997 56.9953 268.273 56.7194 268.549 56.3745C268.549 56.3055 268.687 56.2365 268.756 56.2365C268.825 56.2365 268.894 56.2365 268.894 56.2365C268.894 56.2365 268.894 56.3055 268.894 56.3745C268.894 56.4435 268.825 56.5814 268.687 56.7194C268.411 57.0643 268.066 57.2712 267.721 57.4091C267.376 57.5471 267.031 57.6161 266.686 57.6161C266.341 57.6161 266.065 57.6161 265.72 57.4091C265.445 57.3402 265.238 57.2022 265.1 57.0643C264.962 56.9263 264.755 56.7194 264.479 56.4435C264.203 56.1676 264.065 55.8916 263.996 55.6157C263.927 55.3398 263.858 55.0639 263.858 54.788V53.8913C263.858 53.4774 263.996 53.0636 264.203 52.5807C264.41 52.0979 264.755 51.822 265.169 51.5461C265.582 51.2701 265.996 51.2012 266.479 51.2012C267.169 51.2012 267.79 51.4771 268.342 51.9599L268.549 52.2358Z" fill="black"/>
</g>
<defs>
<clipPath id="clip0_134_1679">
<rect width="280" height="61" fill="white" transform="translate(0 0.634766)"/>
</clipPath>
</defs>
</svg>
