<svg width="80" height="80" viewBox="0 0 80 80" fill="none" xmlns="http://www.w3.org/2000/svg">
<rect width="80" height="80" rx="40" fill="#B5B5B5"/>
<path d="M53.8396 38.7534L37.229 16.8182C36.5409 15.9095 35.2459 15.7302 34.3373 16.419C33.4278 17.1072 33.2491 18.4028 33.9373 19.3123L36.1733 22.2639C31.3935 24.3831 25.7426 22.7726 25.7426 22.7726C28.357 27.0659 32.9933 28.0928 34.4259 28.3125C31.7755 31.4789 30.1707 35.5532 30.17 40.0007C30.1721 46.27 33.3515 51.81 38.1759 55.0916L33.9373 60.6878C33.2491 61.5973 33.4278 62.8928 34.3373 63.5818C35.2459 64.2692 36.5409 64.0905 37.229 63.1826L53.8396 41.246C54.3967 40.5095 54.3967 39.4891 53.8396 38.7534ZM40.6684 51.7999C39.3872 50.9539 38.2529 49.9077 37.3068 48.7028C39.1349 47.7797 40.4962 44.2373 40.4962 39.9979C40.4962 35.7614 39.1349 32.2197 37.3082 31.2959C38.2529 30.0917 39.3872 29.0461 40.6684 28.2015L49.6046 40.0007L40.6684 51.7999Z" fill="white"/>
</svg>
