<svg width="80" height="80" viewBox="0 0 80 80" fill="none" xmlns="http://www.w3.org/2000/svg">
<rect width="80" height="80" rx="40" fill="#19275B"/>
<path d="M53.8397 38.7534L37.2291 16.8182C36.5409 15.9095 35.246 15.7302 34.3373 16.419C33.4279 17.1072 33.2492 18.4028 33.9374 19.3123L36.1733 22.2639C31.3936 24.3831 25.7426 22.7726 25.7426 22.7726C28.357 27.0659 32.9933 28.0928 34.4259 28.3125C31.7755 31.4789 30.1708 35.5532 30.1701 40.0007C30.1722 46.27 33.3516 51.81 38.1759 55.0916L33.9374 60.6878C33.2492 61.5973 33.4279 62.8928 34.3373 63.5818C35.246 64.2692 36.5409 64.0905 37.2291 63.1826L53.8397 41.246C54.3967 40.5095 54.3967 39.4891 53.8397 38.7534ZM40.6685 51.7999C39.3873 50.9539 38.253 49.9077 37.3069 48.7028C39.135 47.7797 40.4962 44.2373 40.4962 39.9979C40.4962 35.7614 39.135 32.2197 37.3083 31.2959C38.253 30.0917 39.3873 29.0461 40.6685 28.2015L49.6047 40.0007L40.6685 51.7999Z" fill="white"/>
</svg>
