<svg width="80" height="80" viewBox="0 0 80 80" fill="none" xmlns="http://www.w3.org/2000/svg">
<rect width="80" height="80" rx="40" fill="#B5B5B5"/>
<path d="M40.3093 56.5034C40.2063 56.5048 40.1032 56.5058 40 56.5058C40.1032 56.5058 40.2063 56.5048 40.3093 56.5034ZM40.8235 56.4908C40.7112 56.4948 40.5987 56.4981 40.4861 56.5005C40.5987 56.4981 40.7112 56.4948 40.8235 56.4908ZM41.2362 56.4724C41.1227 56.4785 41.0092 56.4841 40.8955 56.4885C41.0092 56.4841 41.1227 56.4785 41.2362 56.4724ZM41.9198 56.4258C41.8013 56.4357 41.6826 56.4449 41.5638 56.4529C41.6826 56.4449 41.8013 56.4357 41.9198 56.4258ZM40 23.9629C49.4022 23.9629 58.2722 29.8143 63.1161 39.2997L63.4737 40.0001L63.1161 40.7005C58.2723 50.1858 49.4022 56.037 40 56.037C30.6741 56.037 21.8692 50.2768 16.9985 40.9219L16.8842 40.7003L16.5264 40.0001L16.8842 39.2997L16.9985 39.0781C21.8692 29.7232 30.6742 23.9629 40 23.9629ZM40 27.0406C31.8967 27.0406 24.5397 31.8072 20.119 39.7726L19.9927 40.0001L20.119 40.2275C24.5397 48.1928 31.8967 52.9595 40 52.9595C48.1061 52.9595 55.4632 48.1929 59.8813 40.2274L60.0075 40.0001L59.8813 39.7727C55.4632 31.8073 48.1061 27.0406 40 27.0406ZM24.6131 50.9659C24.7342 51.0617 24.856 51.1562 24.9783 51.2497C24.856 51.1562 24.7342 51.0617 24.6131 50.9659ZM30.3646 50.0312C30.4725 50.0895 30.5809 50.1467 30.6897 50.203C30.5809 50.1467 30.4725 50.0895 30.3646 50.0312ZM49.149 50.2867C49.2581 50.2314 49.3669 50.1751 49.4753 50.1179C49.3669 50.1751 49.2581 50.2314 49.149 50.2867ZM28.9319 49.1861C29.0882 49.2865 29.2455 49.3847 29.4038 49.4808V49.4809C29.351 49.4489 29.2984 49.4166 29.2458 49.3841C29.1407 49.319 29.0361 49.2531 28.9319 49.1861ZM50.7563 49.3841H50.7564H50.7563ZM26.9564 47.7607C27.1529 47.9191 27.3514 48.0736 27.5517 48.2245V48.2246C27.4515 48.1492 27.3519 48.0728 27.2527 47.9955C27.1535 47.9182 27.0547 47.8399 26.9564 47.7607ZM26.5176 47.3983H26.5177H26.5176ZM53.6291 47.2748C53.5329 47.3576 53.4361 47.4395 53.3389 47.5205C53.3875 47.48 53.436 47.4392 53.4844 47.3983L53.6291 47.2748ZM25.9431 46.8959C26.0378 46.9815 26.1331 47.0661 26.2289 47.1498C26.1331 47.0661 26.0378 46.9815 25.9431 46.8959ZM54.6209 46.3719C54.5283 46.461 54.4352 46.5493 54.3415 46.6367C54.4352 46.5493 54.5283 46.461 54.6209 46.3719ZM23.0154 43.7531C23.7156 44.6431 24.4596 45.4724 25.2425 46.2375V46.2376C25.1964 46.1926 25.1505 46.1474 25.1047 46.1019C24.83 45.8292 24.5602 45.5485 24.2954 45.26C24.2513 45.2119 24.2073 45.1636 24.1635 45.1151C24.032 44.9696 23.9019 44.8221 23.7729 44.6727C23.73 44.6229 23.6871 44.5729 23.6444 44.5226C23.4737 44.3217 23.3054 44.1173 23.1394 43.9096L23.0154 43.7531ZM55.4398 45.5459C55.3058 45.6875 55.1706 45.8273 55.0341 45.9649C55.1251 45.8732 55.2155 45.7804 55.3054 45.6869L55.4398 45.5459ZM55.8381 45.1151C55.7943 45.1637 55.7503 45.212 55.7062 45.2601L55.5734 45.4036C55.6178 45.356 55.6621 45.3081 55.7062 45.26L55.8381 45.1151ZM18.6336 44.5474C18.6801 44.6147 18.7267 44.6817 18.7735 44.7485C18.6798 44.6149 18.587 44.4805 18.495 44.345L18.6336 44.5474ZM56.6113 44.2187C56.4851 44.3719 56.3575 44.5233 56.2287 44.6727C56.3146 44.5731 56.3998 44.4726 56.4846 44.3713L56.6113 44.2187ZM57.1089 43.5955C57.0681 43.6482 57.0271 43.7008 56.9859 43.7532L56.8619 43.9096C56.9034 43.8576 56.9447 43.8055 56.9859 43.7531L57.1089 43.5955ZM22.2907 42.7882C22.448 43.0076 22.6079 43.2237 22.7702 43.4365C22.6485 43.277 22.5281 43.1155 22.4092 42.9522L22.2907 42.7882ZM57.7104 42.7882C57.5924 42.9528 57.4731 43.1156 57.3523 43.2764C57.4328 43.1692 57.5126 43.0611 57.5919 42.9522L57.7104 42.7882ZM62.7141 42.4191C62.9154 42.0714 63.1112 41.7183 63.3012 41.36L63.3003 41.3618C63.1106 41.7196 62.915 42.0719 62.7141 42.4191ZM21.3778 41.4326C21.5982 41.7812 21.8246 42.1226 22.0567 42.4566L22.1732 42.6231C22.0172 42.402 21.8637 42.1777 21.7128 41.9502C21.6751 41.8933 21.6375 41.8362 21.6001 41.7789C21.5627 41.7216 21.5256 41.6641 21.4885 41.6064L21.3778 41.4326ZM59.1609 40.5462C58.8808 41.0269 58.5896 41.495 58.288 41.9502C58.5896 41.495 58.8807 41.0269 59.1609 40.5461V40.5462ZM16.6454 41.2578C16.6636 41.2925 16.6818 41.3272 16.7001 41.3618C16.6818 41.3272 16.6636 41.2925 16.6454 41.2578ZM20.7349 40.3653C20.839 40.5467 20.9446 40.7265 21.0517 40.9044C20.9803 40.7858 20.9096 40.6664 20.8395 40.5462L20.7349 40.3653ZM59.2671 39.6377C59.3359 39.7577 59.404 39.8785 59.4715 40.0001C59.4375 40.0614 59.4033 40.1224 59.369 40.1833L59.2655 40.3653C59.3348 40.2443 59.4035 40.1226 59.4715 40.0001C59.4375 39.9388 59.4033 39.8777 59.3689 39.8168L59.2671 39.6377ZM21.2622 38.752C21.1914 38.8659 21.1212 38.9805 21.0517 39.0958C21.1212 38.9805 21.1914 38.8659 21.2622 38.752ZM58.9496 39.0974C58.9631 39.1198 58.9765 39.1423 58.9899 39.1648C58.9765 39.1423 58.9631 39.1198 58.9496 39.0974ZM16.7769 38.4948C16.7375 38.568 16.6984 38.6415 16.6596 38.7152C16.6984 38.6415 16.7375 38.568 16.7769 38.4948ZM58.0641 37.7174C58.2361 37.969 58.4046 38.2247 58.5699 38.4844C58.4046 38.2247 58.2361 37.969 58.0641 37.7174ZM21.9412 37.7111C21.8761 37.8062 21.8115 37.9021 21.7473 37.9984C21.8493 37.8453 21.9524 37.6936 22.0567 37.5435L21.9412 37.7111ZM17.2895 37.5759C17.2481 37.6473 17.2069 37.719 17.166 37.7909C17.2069 37.719 17.2481 37.6473 17.2895 37.5759ZM57.9491 37.5505C57.9647 37.573 57.9802 37.5955 57.9957 37.6181C57.9802 37.5955 57.9647 37.573 57.9491 37.5505ZM57.8353 37.3877C57.849 37.4072 57.8626 37.4267 57.8763 37.4462C57.8626 37.4267 57.849 37.4072 57.8353 37.3877ZM57.7185 37.2233C57.731 37.2408 57.7434 37.2583 57.7559 37.2758C57.7434 37.2583 57.731 37.2408 57.7185 37.2233ZM57.5946 37.0518C57.617 37.0825 57.6392 37.1134 57.6615 37.1442C57.6392 37.1134 57.617 37.0825 57.5946 37.0518ZM17.7711 36.7719C17.7368 36.8274 17.7025 36.8829 17.6685 36.9387C17.7025 36.8829 17.7368 36.8274 17.7711 36.7719ZM22.7379 36.6063C22.685 36.676 22.6323 36.7459 22.5799 36.8163C22.6323 36.7459 22.685 36.676 22.7379 36.6063ZM57.3641 36.7397C57.3721 36.7504 57.3802 36.7612 57.3882 36.7719C57.3802 36.7612 57.3721 36.7504 57.3641 36.7397ZM57.2401 36.5755C57.2594 36.6007 57.2785 36.6262 57.2976 36.6516C57.2785 36.6262 57.2594 36.6007 57.2401 36.5755ZM18.006 36.3981C17.9792 36.4401 17.9525 36.4822 17.9258 36.5244C17.9525 36.4822 17.9792 36.4401 18.006 36.3981ZM57.1217 36.4212C57.1366 36.4405 57.1514 36.46 57.1664 36.4793C57.1514 36.46 57.1366 36.4405 57.1217 36.4212ZM56.9948 36.2583C57.016 36.2853 57.037 36.3124 57.0581 36.3395C57.037 36.3124 57.016 36.2853 56.9948 36.2583ZM23.2086 36.0045C23.1439 36.0849 23.0794 36.1656 23.0154 36.247C23.0794 36.1656 23.1439 36.0849 23.2086 36.0045ZM56.8786 36.1115C56.8862 36.1211 56.8938 36.1307 56.9014 36.1403C56.8938 36.1307 56.8862 36.1211 56.8786 36.1115ZM56.7473 35.9482C56.7664 35.9717 56.7853 35.9954 56.8044 36.019C56.7853 35.9954 56.7664 35.9717 56.7473 35.9482ZM56.6221 35.7947C56.6454 35.8231 56.6687 35.8517 56.6919 35.8802C56.6687 35.8517 56.6454 35.8231 56.6221 35.7947ZM56.4741 35.6165C56.5092 35.6584 56.5441 35.7005 56.579 35.7427C56.5441 35.7005 56.5092 35.6584 56.4741 35.6165ZM19.0173 34.9093C18.8255 35.1749 18.6374 35.4445 18.4527 35.7179C18.6374 35.4445 18.8255 35.1749 19.0173 34.9093ZM56.2448 35.3463C56.2636 35.3682 56.2823 35.3902 56.3011 35.4122C56.2823 35.3902 56.2636 35.3682 56.2448 35.3463ZM24.1635 34.885C24.0333 35.0292 23.9043 35.1753 23.7766 35.3232C23.9043 35.1753 24.0333 35.0292 24.1635 34.885ZM56.1193 35.2016C56.1337 35.2182 56.1481 35.2348 56.1626 35.2514C56.1481 35.2348 56.1337 35.2182 56.1193 35.2016ZM55.9873 35.0518C56.0019 35.0683 56.0164 35.0848 56.031 35.1013C56.0164 35.0848 56.0019 35.0683 55.9873 35.0518ZM55.8557 34.9046C55.8736 34.9245 55.8914 34.9445 55.9093 34.9645C55.8914 34.9445 55.8736 34.9245 55.8557 34.9046ZM55.7273 34.7634C55.7441 34.7817 55.7607 34.8 55.7774 34.8184C55.7607 34.8 55.7441 34.7817 55.7273 34.7634ZM55.5889 34.6132C55.6107 34.6367 55.6324 34.6603 55.6541 34.6838C55.6324 34.6603 55.6107 34.6367 55.5889 34.6132ZM55.4644 34.4804C55.482 34.499 55.4995 34.5178 55.517 34.5365C55.4995 34.5178 55.482 34.499 55.4644 34.4804ZM55.3221 34.3309C55.3415 34.3511 55.3609 34.3714 55.3802 34.3918C55.3609 34.3714 55.3415 34.3511 55.3221 34.3309ZM19.5656 34.1736C19.5201 34.2327 19.4748 34.292 19.4298 34.3516C19.4748 34.292 19.5201 34.2327 19.5656 34.1736ZM55.188 34.1921C55.2126 34.2174 55.2371 34.2427 55.2617 34.2682C55.2371 34.2427 55.2126 34.2174 55.188 34.1921ZM25.0641 33.9388C24.9863 34.0165 24.9087 34.0947 24.8317 34.1736C24.9087 34.0947 24.9863 34.0165 25.0641 33.9388ZM55.0635 34.0652C55.0774 34.0793 55.0914 34.0935 55.1053 34.1077C55.0914 34.0935 55.0774 34.0793 55.0635 34.0652ZM54.9196 33.9208C54.937 33.9381 54.9544 33.9555 54.9717 33.9729C54.9544 33.9555 54.937 33.9381 54.9196 33.9208ZM54.7807 33.7835C54.8029 33.8053 54.8251 33.8273 54.8473 33.8492C54.8251 33.8273 54.8029 33.8053 54.7807 33.7835ZM54.6395 33.6462C54.6654 33.6712 54.6911 33.6963 54.7169 33.7214C54.6911 33.6963 54.6654 33.6712 54.6395 33.6462ZM54.5005 33.5133C54.5269 33.5384 54.5533 33.5636 54.5796 33.5888C54.5533 33.5636 54.5269 33.5384 54.5005 33.5133ZM54.3568 33.3779C54.3865 33.4056 54.416 33.4335 54.4456 33.4614C54.416 33.4335 54.3865 33.4056 54.3568 33.3779ZM54.2258 33.2565C54.2511 33.2798 54.2764 33.3033 54.3017 33.3267C54.2764 33.3033 54.2511 33.2798 54.2258 33.2565ZM59.6038 33.1374C59.6272 33.1653 59.6503 33.1934 59.6736 33.2213C59.599 33.1318 59.5241 33.0427 59.4487 32.9543L59.6038 33.1374ZM54.0853 33.1282C54.1078 33.1486 54.1301 33.169 54.1525 33.1895C54.1301 33.169 54.1078 33.1486 54.0853 33.1282ZM26.1866 32.8875C26.1146 32.9508 26.0428 33.0146 25.9713 33.0789C26.0428 33.0146 26.1146 32.9508 26.1866 32.8875ZM53.9476 33.0045C53.9663 33.0212 53.9849 33.0378 54.0035 33.0545C53.9849 33.0378 53.9663 33.0212 53.9476 33.0045ZM53.8017 32.8754C53.8214 32.8927 53.841 32.9101 53.8607 32.9275C53.841 32.9101 53.8214 32.8927 53.8017 32.8754ZM53.6505 32.7439C53.6775 32.7672 53.7044 32.7907 53.7314 32.8141C53.7044 32.7907 53.6775 32.7672 53.6505 32.7439ZM26.5177 32.6018H26.5176H26.5177ZM53.5126 32.6259C53.5368 32.6465 53.5611 32.6672 53.5853 32.688C53.5611 32.6672 53.5368 32.6465 53.5126 32.6259ZM53.3776 32.5122C53.3934 32.5254 53.4091 32.5386 53.4249 32.5518C53.4091 32.5386 53.3934 32.5254 53.3776 32.5122ZM53.2277 32.3878C53.2427 32.4001 53.2576 32.4125 53.2726 32.4248C53.2576 32.4125 53.2427 32.4001 53.2277 32.3878ZM21.4977 31.8994C21.3522 32.0543 21.2082 32.2111 21.0656 32.3697C21.2082 32.2111 21.3522 32.0543 21.4977 31.8994ZM53.0881 32.2739C53.1028 32.2857 53.1174 32.2977 53.132 32.3096C53.1174 32.2977 53.1028 32.2857 53.0881 32.2739ZM26.9565 32.2393C26.937 32.2551 26.9175 32.271 26.898 32.2869C26.9665 32.2313 27.0352 32.176 27.1042 32.1213L26.9565 32.2393ZM52.9265 32.1441C52.9495 32.1624 52.9724 32.1808 52.9954 32.1992C52.9724 32.1808 52.9495 32.1624 52.9265 32.1441ZM52.7839 32.0317C52.8065 32.0494 52.829 32.0671 52.8515 32.0849C52.829 32.0671 52.8065 32.0494 52.7839 32.0317ZM52.6206 31.9051C52.6503 31.9279 52.68 31.9509 52.7097 31.9739C52.68 31.9509 52.6503 31.9279 52.6206 31.9051ZM52.4716 31.7917C52.5063 31.8179 52.541 31.8442 52.5756 31.8707C52.541 31.8442 52.5063 31.8179 52.4716 31.7917ZM52.3303 31.6858C52.3588 31.707 52.3873 31.7283 52.4158 31.7496C52.3873 31.7283 52.3588 31.707 52.3303 31.6858ZM22.1 31.2771C22.0117 31.3657 21.9237 31.4549 21.8363 31.5448C21.9237 31.4549 22.0117 31.3657 22.1 31.2771ZM52.1768 31.5728C52.205 31.5933 52.2331 31.6139 52.2611 31.6346C52.2331 31.6139 52.205 31.5933 52.1768 31.5728ZM52.0335 31.4689C52.0585 31.4868 52.0834 31.5048 52.1082 31.5229C52.0834 31.5048 52.0585 31.4868 52.0335 31.4689ZM51.8867 31.3644C51.9076 31.3792 51.9286 31.394 51.9495 31.4089C51.9286 31.394 51.9076 31.3792 51.8867 31.3644ZM51.7394 31.2612C51.756 31.2728 51.7726 31.2844 51.7893 31.296C51.7726 31.2844 51.756 31.2728 51.7394 31.2612ZM51.5736 31.1472C51.5961 31.1625 51.6186 31.1778 51.6411 31.1933C51.6186 31.1778 51.5961 31.1625 51.5736 31.1472ZM51.4167 31.0412C51.445 31.0601 51.4732 31.0792 51.5014 31.0982C51.4732 31.0792 51.445 31.0601 51.4167 31.0412ZM51.2646 30.9404C51.2908 30.9576 51.3169 30.9748 51.343 30.9921C51.3169 30.9748 51.2908 30.9576 51.2646 30.9404ZM51.1052 30.8367C51.1328 30.8545 51.1603 30.8723 51.1879 30.8902C51.1603 30.8723 51.1328 30.8545 51.1052 30.8367ZM50.9518 30.7386C50.98 30.7565 51.0082 30.7744 51.0363 30.7924C51.0082 30.7744 50.98 30.7565 50.9518 30.7386ZM23.0184 30.3947C22.9608 30.4476 22.9035 30.5008 22.8463 30.5542L22.6752 30.7153C22.7321 30.6613 22.7891 30.6076 22.8463 30.5541L23.0184 30.3947ZM50.8 30.6434C50.8243 30.6585 50.8485 30.6736 50.8727 30.6888C50.8485 30.6736 50.8243 30.6585 50.8 30.6434ZM50.6292 30.5381C50.6599 30.5568 50.6906 30.5756 50.7212 30.5945C50.6906 30.5756 50.6599 30.5568 50.6292 30.5381ZM50.4753 30.4452C50.5074 30.4644 50.5394 30.4837 50.5714 30.5031C50.5394 30.4837 50.5074 30.4644 50.4753 30.4452ZM50.3244 30.3557C50.3511 30.3714 50.3777 30.3872 50.4044 30.403C50.3777 30.3872 50.3511 30.3714 50.3244 30.3557ZM50.1634 30.2621C50.1902 30.2775 50.2169 30.293 50.2437 30.3086C50.2169 30.293 50.1902 30.2775 50.1634 30.2621ZM30.6897 29.7971C30.5809 29.8533 30.4725 29.9106 30.3646 29.9688C30.4725 29.9106 30.5809 29.8533 30.6897 29.7971ZM49.9998 30.1689C50.0284 30.185 50.057 30.2012 50.0856 30.2175C50.057 30.2012 50.0284 30.185 49.9998 30.1689ZM49.8421 30.0808C49.8704 30.0965 49.8987 30.1122 49.927 30.128C49.8987 30.1122 49.8704 30.0965 49.8421 30.0808ZM49.6878 29.9962C49.7121 30.0094 49.7364 30.0226 49.7607 30.0359C49.7364 30.0226 49.7121 30.0094 49.6878 29.9962ZM49.5175 29.9048C49.5459 29.9199 49.5743 29.935 49.6027 29.9503C49.5743 29.935 49.5459 29.9199 49.5175 29.9048ZM56.285 29.7734V29.7735V29.7734ZM49.3607 29.8224C49.3891 29.8371 49.4174 29.8519 49.4456 29.8668C49.4174 29.8519 49.3891 29.8371 49.3607 29.8224ZM49.1896 29.7343C49.219 29.7492 49.2483 29.7642 49.2776 29.7792C49.2483 29.7642 49.219 29.7492 49.1896 29.7343ZM49.0355 29.6566C49.0644 29.6711 49.0934 29.6856 49.1223 29.7001C49.0934 29.6856 49.0644 29.6711 49.0355 29.6566ZM48.8741 29.5769C48.8989 29.589 48.9238 29.6012 48.9486 29.6134C48.9238 29.6012 48.8989 29.589 48.8741 29.5769ZM48.6997 29.4929C48.7298 29.5072 48.7599 29.5216 48.7899 29.5361C48.7599 29.5216 48.7298 29.5072 48.6997 29.4929ZM55.7504 29.3249C55.8293 29.3894 55.9078 29.4546 55.9861 29.5201C55.9078 29.4546 55.8293 29.3894 55.7504 29.3249ZM48.5489 29.4216C48.574 29.4334 48.599 29.4451 48.6241 29.457C48.599 29.4451 48.574 29.4334 48.5489 29.4216ZM48.3809 29.344C48.4051 29.3551 48.4293 29.3662 48.4536 29.3773C48.4293 29.3662 48.4051 29.3551 48.3809 29.344ZM48.2018 29.2633C48.2327 29.2771 48.2635 29.2908 48.2943 29.3047C48.2635 29.2908 48.2327 29.2771 48.2018 29.2633ZM48.0347 29.1898C48.0668 29.2038 48.0989 29.2177 48.1309 29.2318C48.0989 29.2177 48.0668 29.2038 48.0347 29.1898ZM47.8782 29.1225C47.9069 29.1347 47.9356 29.1469 47.9642 29.1592C47.9356 29.1469 47.9069 29.1347 47.8782 29.1225ZM24.6131 29.0341V29.0342V29.0341ZM47.7012 29.0483C47.7308 29.0606 47.7605 29.0728 47.7901 29.0852C47.7605 29.0728 47.7308 29.0606 47.7012 29.0483ZM47.5457 28.9846C47.5731 28.9957 47.6005 29.0068 47.6278 29.018C47.6005 29.0068 47.5731 28.9957 47.5457 28.9846ZM47.3643 28.9121C47.3939 28.9238 47.4234 28.9355 47.453 28.9473C47.4234 28.9355 47.3939 28.9238 47.3643 28.9121ZM47.1915 28.845C47.2262 28.8583 47.2609 28.8717 47.2956 28.8852C47.2609 28.8717 47.2262 28.8583 47.1915 28.845ZM47.0331 28.7851C47.0624 28.796 47.0917 28.8069 47.1209 28.818C47.0917 28.8069 47.0624 28.796 47.0331 28.7851ZM46.8706 28.7251C46.8955 28.7342 46.9203 28.7432 46.9451 28.7524C46.9203 28.7432 46.8955 28.7342 46.8706 28.7251ZM46.7018 28.6644C46.7263 28.6731 46.7508 28.6817 46.7752 28.6905C46.7508 28.6817 46.7263 28.6731 46.7018 28.6644ZM46.5233 28.6021C46.5505 28.6115 46.5777 28.6208 46.6049 28.6302C46.5777 28.6208 46.5505 28.6115 46.5233 28.6021ZM46.3477 28.5426C46.3768 28.5523 46.4059 28.562 46.4349 28.5718C46.4059 28.562 46.3768 28.5523 46.3477 28.5426ZM46.1764 28.4862C46.206 28.4959 46.2357 28.5055 46.2654 28.5153C46.2357 28.5055 46.206 28.4959 46.1764 28.4862ZM45.9879 28.4262C46.0235 28.4373 46.0591 28.4485 46.0946 28.4599C46.0591 28.4485 46.0235 28.4373 45.9879 28.4262ZM45.8321 28.3781C45.8627 28.3874 45.8932 28.3967 45.9237 28.4061C45.8932 28.3967 45.8627 28.3874 45.8321 28.3781ZM45.6432 28.3215C45.6771 28.3315 45.711 28.3414 45.7449 28.3516C45.711 28.3414 45.6771 28.3315 45.6432 28.3215ZM45.4741 28.2726C45.5095 28.2827 45.545 28.2928 45.5804 28.3031C45.545 28.2928 45.5095 28.2827 45.4741 28.2726ZM45.3254 28.231C45.3487 28.2374 45.3721 28.2439 45.3954 28.2504C45.3721 28.2439 45.3487 28.2374 45.3254 28.231ZM45.1317 28.1786C45.1613 28.1865 45.1909 28.1943 45.2205 28.2022C45.1909 28.1943 45.1613 28.1865 45.1317 28.1786ZM44.9325 28.1268C44.9727 28.137 45.013 28.1473 45.0531 28.1577C45.013 28.1473 44.9727 28.137 44.9325 28.1268ZM44.7702 28.0862C44.8075 28.0954 44.8448 28.1045 44.882 28.1139C44.8448 28.1045 44.8075 28.0954 44.7702 28.0862ZM44.5864 28.042C44.6235 28.0508 44.6607 28.0595 44.6978 28.0685C44.6607 28.0595 44.6235 28.0508 44.5864 28.042ZM44.4004 27.9991C44.4435 28.0088 44.4866 28.0186 44.5296 28.0286C44.4866 28.0186 44.4435 28.0088 44.4004 27.9991ZM44.2541 27.9667C44.2864 27.9737 44.3187 27.9807 44.351 27.9879C44.3187 27.9807 44.2864 27.9737 44.2541 27.9667ZM44.0971 27.9331C44.1192 27.9377 44.1413 27.9423 44.1634 27.947C44.1413 27.9423 44.1192 27.9377 44.0971 27.9331ZM43.9135 27.8955C43.9385 27.9005 43.9636 27.9055 43.9886 27.9106C43.9636 27.9055 43.9385 27.9005 43.9135 27.8955ZM43.7312 27.8601C43.7567 27.865 43.7823 27.8697 43.8078 27.8747C43.7823 27.8697 43.7567 27.865 43.7312 27.8601ZM43.5422 27.8251C43.5741 27.8309 43.6061 27.8365 43.638 27.8424C43.6061 27.8365 43.5741 27.8309 43.5422 27.8251ZM43.3897 27.7983C43.4105 27.8019 43.4313 27.8053 43.452 27.8089C43.4313 27.8053 43.4105 27.8019 43.3897 27.7983ZM43.1787 27.7632C43.2104 27.7683 43.2421 27.7733 43.2738 27.7785C43.2421 27.7733 43.2104 27.7683 43.1787 27.7632ZM42.9933 27.7342C43.0296 27.7397 43.066 27.7452 43.1024 27.7509C43.066 27.7452 43.0296 27.7397 42.9933 27.7342ZM42.8237 27.7093C42.855 27.7138 42.8863 27.7182 42.9176 27.7228C42.8863 27.7182 42.855 27.7138 42.8237 27.7093ZM42.6339 27.6831C42.6692 27.6878 42.7045 27.6925 42.7397 27.6973C42.7045 27.6925 42.6692 27.6878 42.6339 27.6831ZM42.2463 27.6356C42.3509 27.6474 42.4553 27.6598 42.5596 27.6732C42.4553 27.6598 42.3509 27.6474 42.2463 27.6356ZM42.0705 27.6166C42.1131 27.621 42.1556 27.6254 42.1981 27.6301C42.1556 27.6254 42.1131 27.621 42.0705 27.6166ZM41.9005 27.5996C41.9398 27.6034 41.9791 27.6071 42.0184 27.6111C41.9791 27.6071 41.9398 27.6034 41.9005 27.5996ZM41.7545 27.5863C41.781 27.5886 41.8074 27.5908 41.8338 27.5932C41.8074 27.5908 41.781 27.5886 41.7545 27.5863ZM41.593 27.5727C41.6114 27.5742 41.6298 27.5755 41.6482 27.577C41.6298 27.5755 41.6114 27.5742 41.593 27.5727ZM41.3795 27.5569C41.4091 27.5589 41.4388 27.5608 41.4684 27.563C41.4388 27.5608 41.4091 27.5589 41.3795 27.5569ZM41.1656 27.5432C41.0933 27.539 41.0209 27.5351 40.9484 27.5317C41.0209 27.5351 41.0933 27.539 41.1656 27.5432ZM40.5635 27.5172C40.6831 27.5206 40.8025 27.525 40.9218 27.5304C40.8025 27.525 40.6831 27.5206 40.5635 27.5172ZM40.474 27.515C40.5009 27.5157 40.5278 27.5161 40.5547 27.5169C40.5278 27.5161 40.5009 27.5157 40.474 27.515ZM28.6236 26.4015C28.4905 26.4726 28.358 26.5449 28.226 26.6184C28.358 26.5449 28.4905 26.4726 28.6236 26.4015ZM61.6527 44.1267C61.6151 44.1832 61.5772 44.2394 61.5393 44.2956C61.5772 44.2394 61.6151 44.1832 61.6527 44.1267ZM62.1841 43.3018C62.1455 43.3638 62.1068 43.4255 62.0679 43.4871C62.1068 43.4255 62.1455 43.3638 62.1841 43.3018ZM62.4407 42.8826C62.4055 42.9412 62.37 42.9995 62.3345 43.0578C62.37 42.9995 62.4055 42.9412 62.4407 42.8826ZM58.7348 38.7463C58.7674 38.7987 58.7999 38.8512 58.8322 38.9039C58.7999 38.8512 58.7674 38.7987 58.7348 38.7463ZM58.8414 38.9189C58.8748 38.9735 58.9079 39.0283 58.941 39.0832C58.9079 39.0283 58.8748 38.9735 58.8414 38.9189ZM57.48 36.8954C57.5101 36.9361 57.54 36.9769 57.5698 37.0179C57.54 36.9769 57.5101 36.9361 57.48 36.8954ZM56.3705 35.4935C56.4051 35.5343 56.4397 35.5753 56.4741 35.6165C56.4397 35.5753 56.4051 35.5343 56.3705 35.4935ZM41.1656 27.5432C41.2058 27.5456 41.2461 27.5479 41.2863 27.5505C41.2461 27.5479 41.2058 27.5456 41.1656 27.5432Z" fill="white"/>
<path d="M40.0001 30.408C34.6415 30.408 30.2971 34.7523 30.2971 40.1111C30.2971 45.4696 34.6415 49.814 40.0001 49.814C45.3586 49.814 49.7032 45.4696 49.7032 40.1111C49.7032 34.7523 45.3586 30.408 40.0001 30.408Z" fill="#D6D6D6" fill-opacity="0.6"/>
<path d="M39.9697 33.2899C36.2419 33.2899 33.2197 36.3121 33.2197 40.04C33.2197 43.7677 36.2419 46.7899 39.9697 46.7899C43.6974 46.7899 46.7197 43.7677 46.7197 40.04C46.7197 36.3121 43.6974 33.2899 39.9697 33.2899Z" fill="white" fill-opacity="0.75"/>
</svg>
