<svg width="80" height="80" viewBox="0 0 80 80" fill="none" xmlns="http://www.w3.org/2000/svg">
<rect width="80" height="80" rx="40" fill="#B5B5B5"/>
<g clip-path="url(#clip0_1_2076)">
<path d="M61.7123 40.7495C60.9584 39.4952 59.8089 38.8554 58.8719 38.5464C58.5923 38.4549 58.3346 38.3936 58.091 38.3448C58.091 37.25 58.091 35.5539 58.091 34.0006C58.0852 31.6497 57.5688 27.6272 55.0079 24.0496C54.2986 23.0681 53.333 22.2074 52.2104 21.4325C50.5252 20.2755 48.4784 19.3192 46.3591 18.6349C44.2382 17.9533 42.0511 17.5435 40.0578 17.5426C37.4022 17.5477 34.3921 18.2663 31.6709 19.4065C28.9556 20.5635 26.5308 22.1 25.1069 24.0496C22.5461 27.6272 22.0296 31.6497 22.0238 34.0006C22.0238 35.4507 22.0238 37.0275 22.0238 38.1223C21.227 38.1526 20.2043 38.3171 19.2506 39.0208C18.7317 39.4079 18.2657 39.9635 17.9584 40.6605C17.6486 41.3574 17.489 42.1785 17.489 43.1257C17.489 43.7747 17.563 44.4858 17.7166 45.2741C18.2204 47.9021 19.5922 49.7502 21.0859 50.944C22.3328 51.9491 23.6376 52.5275 24.6627 52.9189C25.4754 55.1707 26.2848 56.8364 27.2202 58.1739C28.232 59.6256 29.3906 60.6634 30.6962 61.5987L30.7272 61.6206L30.7549 61.6391C30.8809 61.7138 34.4744 63.995 40.0579 64.0001C45.6406 63.995 49.2341 61.7138 49.3592 61.6391L49.391 61.6181L49.4188 61.5987C50.695 60.6835 51.8562 59.7272 52.8805 58.2982C53.8275 56.9793 54.642 55.2992 55.4614 52.9206C56.4883 52.536 57.8342 51.9709 59.1121 50.9718C59.8786 50.3706 60.6141 49.6117 61.2036 48.6537C61.7922 47.6956 62.2272 46.5436 62.4102 45.2028C62.474 44.7402 62.5051 44.3028 62.5051 43.888C62.5075 42.637 62.2144 41.5783 61.7123 40.7495ZM59.8358 44.8477C59.6972 45.8493 59.3916 46.6344 58.9887 47.2934C58.3857 48.2757 57.5361 48.987 56.6251 49.5268C55.7141 50.0667 54.7594 50.4193 53.9938 50.6913L53.3951 50.9054L53.1969 51.5107C52.3549 54.0758 51.5782 55.6593 50.7704 56.781C49.9686 57.8926 49.1172 58.6123 47.9325 59.466C47.632 59.6491 44.5749 61.4073 40.0578 61.4014C37.6296 61.4023 35.6254 60.8985 34.2392 60.3998C33.5465 60.1495 33.0093 59.9019 32.6523 59.7213C32.4736 59.6306 32.3408 59.5576 32.2569 59.5097L32.1856 59.4669C31.0286 58.6315 30.1671 57.8473 29.3501 56.6836C28.5289 55.5115 27.749 53.9145 26.9127 51.4915L26.7078 50.9012L26.121 50.6913C25.1235 50.3377 23.8287 49.8206 22.718 48.9222C21.6079 48.0154 20.6685 46.7854 20.2679 44.7762C20.1395 44.1247 20.0875 43.5764 20.0875 43.1256C20.0875 42.4639 20.1974 42.018 20.3326 41.7167C20.5392 41.2716 20.7776 41.0836 21.1161 40.9224C21.4502 40.7688 21.8936 40.7057 22.2747 40.7074C22.5048 40.7074 22.7088 40.7284 22.8472 40.7478L22.9992 40.7721L23.0295 40.7779L24.6214 41.1525V39.5119C24.6214 39.5119 24.6214 36.5589 24.6214 34.0006C24.6155 32.0258 25.1051 28.4826 27.2159 25.5675C27.6785 24.9227 28.4309 24.2241 29.3778 23.5735C30.7976 22.5953 32.6473 21.7204 34.5524 21.1084C36.4574 20.493 38.4256 20.1378 40.0577 20.1402C42.2356 20.1352 45.003 20.7733 47.4345 21.8009C48.6528 22.3148 49.7904 22.9226 50.7376 23.5734C51.6847 24.2241 52.4361 24.9226 52.8987 25.5674C55.0103 28.4825 55.499 32.0257 55.493 34.0005C55.493 36.5588 55.493 39.5118 55.493 39.5118V40.8836L56.8616 40.8098C57.0262 40.8056 57.9136 40.8585 58.5989 41.2497C58.9507 41.4462 59.2512 41.7032 59.4872 42.0893C59.718 42.4781 59.9036 43.0238 59.9062 43.8879C59.9063 44.1735 59.8853 44.4925 59.8358 44.8477Z" fill="white"/>
<path d="M43.7853 55.0838C43.0101 53.9959 41.7519 53.3184 40.3823 53.3188C39.0151 53.3184 37.7548 53.9963 36.9788 55.0842C36.7681 55.3792 36.3613 55.4455 36.0701 55.2324C35.7784 55.0187 35.7131 54.6069 35.9235 54.3115C36.9396 52.8867 38.5874 52 40.3823 52C42.1794 52 43.8257 52.8868 44.8414 54.312C45.0518 54.6075 44.9863 55.0193 44.6946 55.2324C44.4029 55.4456 43.9958 55.3792 43.7853 55.0838Z" fill="white"/>
<path d="M39.8907 16C41.2779 16 42.6677 16.1499 44.0404 16.5624C45.4131 16.9749 46.7593 17.6603 48.0378 18.6807C48.7977 19.286 49.5336 20.0073 50.2452 20.859C51.9267 21.3655 53.3211 22.1471 54.4332 23.1339C55.6369 24.1978 56.5006 25.4861 57.0941 26.8539C57.4922 27.7659 57.7696 28.7164 57.9626 29.6742C58.2183 30.9551 58.3147 32.2482 58.3147 33.5001C58.3147 35.4469 58.0783 37.2925 57.7936 38.8316C57.5884 39.9388 57.3569 40.887 57.1664 41.5891L56.1058 45.4897H56.0313L54.3749 44.493C54.373 44.4827 53.1164 37.5936 50.9154 34.6575C48.5922 31.56 48.4451 28.1801 48.4451 28.1801C48.4451 28.1801 36.2664 38.6476 29.2974 37.099C25.8204 43.863 25.1552 44.802 25.1552 44.802C24.9623 45.089 25.1432 45.2676 24.5642 44.6862C24.3832 44.51 23.896 43.8009 23.3025 42.9034L21.169 40.9074L20.9553 39.9388V39.7627C20.953 39.7386 20.9505 39.7071 20.9505 39.671C20.9432 39.5938 20.9336 39.4972 20.9215 39.391C20.8998 39.1738 20.8709 38.9156 20.8444 38.6671C20.8275 38.4984 20.8107 38.3343 20.8009 38.18C20.796 38.098 20.7913 38.0112 20.7913 37.9243C20.5838 36.6723 20.4825 35.4757 20.4825 34.3466C20.4825 32.5301 20.7333 30.8703 21.1676 29.3625C21.5995 27.8595 22.2123 26.5135 22.9311 25.3265C24.3641 22.9479 26.2072 21.189 27.8766 19.9466C28.9863 19.1167 30.0285 18.5138 30.8343 18.1085C31.2975 17.8746 31.6785 17.7056 31.9704 17.5898C32.7399 17.2883 33.3262 17.0421 33.9366 16.8323C34.5446 16.6225 35.1718 16.4537 35.9342 16.3258C36.4433 16.2389 37.0125 16.169 37.6977 16.1063C38.4311 16.0411 39.1598 16 39.8907 16Z" fill="white"/>
<path d="M47.6 43.6L47.6206 43.6005C47.8319 43.6112 48 43.786 48 44C48 44.214 47.8319 44.3888 47.6206 44.3995L47.6 44.4H43.4C43.1791 44.4 43 44.2209 43 44C43 43.7791 43.1791 43.6 43.4 43.6H47.6Z" fill="white"/>
<path d="M46.687 42.2171L46.7019 42.2029C46.8589 42.0611 47.1013 42.0658 47.2527 42.2171C47.404 42.3685 47.4087 42.6109 47.2669 42.7679L47.2527 42.7828L44.2828 45.7527C44.1266 45.9089 43.8733 45.9089 43.7171 45.7527C43.5609 45.5965 43.5609 45.3432 43.7171 45.187L46.687 42.2171Z" fill="white"/>
<path d="M44.3829 42.2171L44.3679 42.2029C44.2109 42.0611 43.9685 42.0658 43.8172 42.2171C43.6658 42.3685 43.6611 42.6109 43.8029 42.7679L43.8172 42.7828L46.787 45.7527C46.9432 45.9089 47.1965 45.9089 47.3527 45.7527C47.5089 45.5965 47.5089 45.3432 47.3527 45.187L44.3829 42.2171Z" fill="white"/>
<path d="M45.9 46.1L45.8995 46.1206C45.8888 46.3319 45.714 46.5 45.5 46.5C45.286 46.5 45.1112 46.3319 45.1005 46.1206L45.1 46.1V41.9C45.1 41.6791 45.2791 41.5 45.5 41.5C45.7209 41.5 45.9 41.6791 45.9 41.9V46.1Z" fill="white"/>
<path d="M36.5 43.6L36.5206 43.6005C36.7319 43.6112 36.9 43.786 36.9 44C36.9 44.214 36.7319 44.3888 36.5206 44.3995L36.5 44.4H32.3C32.079 44.4 31.9 44.2209 31.9 44C31.9 43.7791 32.079 43.6 32.3 43.6H36.5Z" fill="white"/>
<path d="M35.5869 42.2171L35.6018 42.2029C35.7589 42.0611 36.0013 42.0658 36.1526 42.2171C36.3039 42.3685 36.3087 42.6109 36.1668 42.7679L36.1526 42.7828L33.1828 45.7527C33.0266 45.9089 32.7733 45.9089 32.6171 45.7527C32.4609 45.5965 32.4609 45.3432 32.6171 45.187L35.5869 42.2171Z" fill="white"/>
<path d="M33.2828 42.2171L33.2679 42.2029C33.1109 42.0611 32.8685 42.0658 32.7171 42.2171C32.5658 42.3685 32.5611 42.6109 32.7029 42.7679L32.7171 42.7828L35.687 45.7527C35.8432 45.9089 36.0965 45.9089 36.2527 45.7527C36.4089 45.5965 36.4089 45.3432 36.2527 45.187L33.2828 42.2171Z" fill="white"/>
<path d="M34.8 46.1L34.7995 46.1206C34.7888 46.3319 34.614 46.5 34.4 46.5C34.186 46.5 34.0112 46.3319 34.0005 46.1206L34 46.1V41.9C34 41.6791 34.179 41.5 34.4 41.5C34.6209 41.5 34.8 41.6791 34.8 41.9V46.1Z" fill="white"/>
</g>
<defs>
<clipPath id="clip0_1_2076">
<rect width="48" height="48" fill="white" transform="translate(16 16)"/>
</clipPath>
</defs>
</svg>
