<svg width="80" height="80" viewBox="0 0 80 80" fill="none" xmlns="http://www.w3.org/2000/svg">
<rect width="80" height="80" rx="40" fill="#19275B"/>
<g clip-path="url(#clip0_1_2209)">
<path d="M61.7124 40.7495C60.9585 39.4952 59.809 38.8554 58.872 38.5464C58.5924 38.4549 58.3346 38.3936 58.0911 38.3448C58.0911 37.25 58.0911 35.5539 58.0911 34.0006C58.0853 31.6497 57.5689 27.6272 55.008 24.0496C54.2986 23.0681 53.3331 22.2074 52.2105 21.4325C50.5253 20.2755 48.4784 19.3192 46.3592 18.6349C44.2383 17.9533 42.0511 17.5435 40.0578 17.5426C37.4022 17.5477 34.3922 18.2663 31.671 19.4065C28.9557 20.5635 26.5309 22.1 25.1069 24.0496C22.5461 27.6272 22.0297 31.6497 22.0239 34.0006C22.0239 35.4507 22.0239 37.0275 22.0239 38.1223C21.2271 38.1526 20.2044 38.3171 19.2507 39.0208C18.7317 39.4079 18.2658 39.9635 17.9585 40.6605C17.6487 41.3574 17.4891 42.1785 17.4891 43.1257C17.4891 43.7747 17.563 44.4858 17.7166 45.2741C18.2204 47.9021 19.5923 49.7502 21.086 50.944C22.3328 51.9491 23.6376 52.5275 24.6628 52.9189C25.4755 55.1707 26.2849 56.8364 27.2203 58.1739C28.232 59.6256 29.3906 60.6634 30.6963 61.5987L30.7273 61.6206L30.755 61.6391C30.8809 61.7138 34.4745 63.995 40.0579 64.0001C45.6406 63.995 49.2342 61.7138 49.3592 61.6391L49.3911 61.6181L49.4188 61.5987C50.6951 60.6835 51.8562 59.7272 52.8806 58.2982C53.8276 56.9793 54.6421 55.2992 55.4615 52.9206C56.4884 52.536 57.8343 51.9709 59.1121 50.9718C59.8787 50.3706 60.6142 49.6117 61.2036 48.6537C61.7922 47.6956 62.2272 46.5436 62.4103 45.2028C62.4741 44.7402 62.5052 44.3028 62.5052 43.888C62.5075 42.637 62.2145 41.5783 61.7124 40.7495ZM59.8359 44.8477C59.6973 45.8493 59.3917 46.6344 58.9887 47.2934C58.3858 48.2757 57.5361 48.987 56.6252 49.5268C55.7142 50.0667 54.7595 50.4193 53.9938 50.6913L53.3951 50.9054L53.197 51.5107C52.3549 54.0758 51.5782 55.6593 50.7705 56.781C49.9686 57.8926 49.1172 58.6123 47.9326 59.466C47.632 59.6491 44.5749 61.4073 40.0578 61.4014C37.6297 61.4023 35.6255 60.8985 34.2393 60.3998C33.5466 60.1495 33.0093 59.9019 32.6524 59.7213C32.4736 59.6306 32.3409 59.5576 32.257 59.5097L32.1856 59.4669C31.0286 58.6315 30.1672 57.8473 29.3502 56.6836C28.529 55.5115 27.749 53.9145 26.9128 51.4915L26.7079 50.9012L26.121 50.6913C25.1235 50.3377 23.8288 49.8206 22.7181 48.9222C21.608 48.0154 20.6686 46.7854 20.268 44.7762C20.1395 44.1247 20.0875 43.5764 20.0875 43.1256C20.0875 42.4639 20.1975 42.018 20.3327 41.7167C20.5393 41.2716 20.7777 41.0836 21.1161 40.9224C21.4502 40.7688 21.8937 40.7057 22.2747 40.7074C22.5049 40.7074 22.7088 40.7284 22.8473 40.7478L22.9993 40.7721L23.0296 40.7779L24.6215 41.1525V39.5119C24.6215 39.5119 24.6215 36.5589 24.6215 34.0006C24.6156 32.0258 25.1051 28.4826 27.2159 25.5675C27.6785 24.9227 28.4309 24.2241 29.3779 23.5735C30.7976 22.5953 32.6474 21.7204 34.5524 21.1084C36.4575 20.493 38.4256 20.1378 40.0577 20.1402C42.2357 20.1352 45.0031 20.7733 47.4346 21.8009C48.6528 22.3148 49.7905 22.9226 50.7376 23.5734C51.6847 24.2241 52.4361 24.9226 52.8988 25.5674C55.0104 28.4825 55.4991 32.0257 55.4931 34.0005C55.4931 36.5588 55.4931 39.5118 55.4931 39.5118V40.8836L56.8617 40.8098C57.0263 40.8056 57.9137 40.8585 58.5989 41.2497C58.9507 41.4462 59.2512 41.7032 59.4872 42.0893C59.7181 42.4781 59.9036 43.0238 59.9063 43.8879C59.9064 44.1735 59.8853 44.4925 59.8359 44.8477Z" fill="white"/>
<path d="M43.79 52.2735C43.0148 53.3614 41.7566 54.0389 40.387 54.0385C39.0198 54.0389 37.7595 53.361 36.9835 52.2731C36.7728 51.9781 36.366 51.9118 36.0748 52.1249C35.7831 52.3386 35.7178 52.7504 35.9282 53.0458C36.9443 54.4706 38.5921 55.3573 40.387 55.3573C42.1841 55.3573 43.8304 54.4705 44.8461 53.0453C45.0565 52.7498 44.991 52.338 44.6993 52.1249C44.4076 51.9117 44.0005 51.9781 43.79 52.2735Z" fill="white"/>
<path d="M36.2281 43.2444C35.7205 44.2165 34.8968 44.8219 34.0001 44.8215C33.105 44.8219 32.2799 44.2161 31.7718 43.2441C31.6339 42.9805 31.3675 42.9212 31.1769 43.1116C30.9859 43.3025 30.9432 43.6706 31.0809 43.9345C31.7462 45.2076 32.825 46 34.0001 46C35.1767 46 36.2545 45.2076 36.9195 43.9341C37.0573 43.67 37.0144 43.302 36.8234 43.1116C36.6324 42.9211 36.3659 42.9804 36.2281 43.2444Z" fill="white"/>
<path d="M48.2281 43.2444C47.7205 44.2165 46.8968 44.8219 46.0001 44.8215C45.105 44.8219 44.2799 44.2161 43.7718 43.2441C43.6339 42.9805 43.3675 42.9212 43.1769 43.1116C42.9859 43.3025 42.9432 43.6706 43.0809 43.9345C43.7462 45.2076 44.825 46 46.0001 46C47.1767 46 48.2545 45.2076 48.9195 43.9341C49.0573 43.67 49.0144 43.302 48.8234 43.1116C48.6324 42.9211 48.3659 42.9804 48.2281 43.2444Z" fill="white"/>
<path d="M39.8907 16C41.2779 16 42.6677 16.1499 44.0404 16.5624C45.4131 16.9749 46.7593 17.6603 48.0378 18.6807C48.7977 19.286 49.5336 20.0073 50.2452 20.859C51.9267 21.3655 53.3211 22.1471 54.4332 23.1339C55.6369 24.1978 56.5006 25.4861 57.0941 26.8539C57.4922 27.7659 57.7696 28.7164 57.9626 29.6742C58.2183 30.9551 58.3147 32.2482 58.3147 33.5001C58.3147 35.4469 58.0783 37.2925 57.7936 38.8316C57.5884 39.9388 57.3569 40.887 57.1664 41.589L56.1058 45.4897H56.0313L54.3749 44.493C54.373 44.4827 53.1164 37.5936 50.9154 34.6575C48.5922 31.56 48.4451 28.1801 48.4451 28.1801C48.4451 28.1801 36.2664 38.6476 29.2974 37.099C25.8204 43.863 25.1552 44.802 25.1552 44.802C24.9623 45.089 25.1432 45.2676 24.5642 44.6862C24.3832 44.51 23.896 43.8008 23.3025 42.9034L21.169 40.9074L20.9553 39.9388V39.7627C20.953 39.7386 20.9505 39.7071 20.9505 39.671C20.9432 39.5938 20.9336 39.4972 20.9215 39.391C20.8998 39.1738 20.8709 38.9156 20.8444 38.6671C20.8275 38.4984 20.8107 38.3343 20.8009 38.18C20.796 38.098 20.7913 38.0112 20.7913 37.9243C20.5838 36.6723 20.4825 35.4757 20.4825 34.3466C20.4825 32.5301 20.7333 30.8703 21.1676 29.3625C21.5995 27.8595 22.2123 26.5135 22.9311 25.3265C24.3641 22.9479 26.2072 21.189 27.8766 19.9466C28.9863 19.1167 30.0285 18.5138 30.8343 18.1085C31.2975 17.8746 31.6785 17.7056 31.9704 17.5898C32.7399 17.2883 33.3262 17.0421 33.9366 16.8323C34.5446 16.6225 35.1718 16.4537 35.9342 16.3258C36.4433 16.2389 37.0125 16.169 37.6977 16.1063C38.4311 16.0411 39.1598 16 39.8907 16Z" fill="white"/>
</g>
<defs>
<clipPath id="clip0_1_2209">
<rect width="48" height="48" fill="white" transform="translate(16 16)"/>
</clipPath>
</defs>
</svg>
