<svg width="48" height="48" viewBox="0 0 48 48" fill="none" xmlns="http://www.w3.org/2000/svg">
<path d="M37.8397 22.7534L21.2291 0.81823C20.541 -0.0904883 19.246 -0.269832 18.3374 0.419043C17.4279 1.10717 17.2492 2.40279 17.9375 3.31226L20.1734 6.26389C15.3936 8.38311 9.74268 6.77257 9.74268 6.77257C12.3571 11.0659 16.9934 12.0928 18.426 12.3125C15.7756 15.4789 14.1709 19.5532 14.1701 24.0007C14.1723 30.27 17.3516 35.81 22.176 39.0916L17.9375 44.6878C17.2492 45.5973 17.4279 46.8928 18.3374 47.5818C19.246 48.2692 20.541 48.0905 21.2291 47.1826L37.8397 25.246C38.3968 24.5095 38.3968 23.4891 37.8397 22.7534ZM24.6685 35.7999C23.3873 34.9539 22.253 33.9077 21.3069 32.7028C23.135 31.7797 24.4963 28.2373 24.4963 23.9979C24.4963 19.7614 23.135 16.2197 21.3083 15.2959C22.253 14.0917 23.3873 13.0461 24.6685 12.2015L33.6048 24.0007L24.6685 35.7999Z" fill="white"/>
</svg>
