<svg width="80" height="80" viewBox="0 0 80 80" fill="none" xmlns="http://www.w3.org/2000/svg">
<rect width="80" height="80" rx="40" fill="#19275B"/>
<g clip-path="url(#clip0_1_2224)">
<path d="M44.5991 23.6723C43.9521 23.0254 42.9035 23.0254 42.2566 23.6723C41.6096 24.3193 41.6096 25.3679 42.2566 26.0148L42.9707 26.7277L30.5476 39.1509C29.0815 40.6145 28.3479 42.5408 28.3479 44.4573C28.3479 45.562 28.5933 46.6716 29.0803 47.6909L26.9148 49.8565C26.7121 50.0579 26.5534 50.2886 26.4424 50.5388C26.3337 50.7866 26.269 51.0552 26.269 51.3335C26.269 51.5288 26.3007 51.7315 26.3752 51.9256C26.4387 52.0952 26.5388 52.2588 26.6657 52.4041L19.8005 59.2669H22.2797L27.9047 53.6431C28.0488 53.7688 28.2124 53.869 28.382 53.9324C28.5773 54.0069 28.7799 54.0386 28.9728 54.0386C29.2536 54.0386 29.5197 53.9739 29.7699 53.8652C30.019 53.7541 30.2484 53.5955 30.4523 53.3928L32.6178 51.2285C33.6359 51.7156 34.7455 51.9622 35.8502 51.9622C37.768 51.9622 39.6942 51.2261 41.1566 49.7625L53.5798 37.3382L54.2927 38.0511C54.9396 38.6981 55.9882 38.6981 56.6352 38.0511C57.2821 37.4041 57.2821 36.3543 56.6352 35.7098L44.5991 23.6723ZM29.2109 52.1538C29.1596 52.2051 29.1034 52.2417 29.0583 52.2613C29.0412 52.2698 29.0253 52.2723 29.0119 52.2771L28.0316 51.2945C28.0353 51.2834 28.039 51.2664 28.0463 51.2493C28.0659 51.2041 28.1013 51.148 28.1538 51.0979L30.0422 49.2082C30.1984 49.3998 30.3645 49.5842 30.5415 49.76V49.7624C30.5513 49.7698 30.561 49.7783 30.5695 49.7893L30.5745 49.7917C30.7429 49.959 30.9175 50.1177 31.0994 50.2654L29.2109 52.1538ZM39.9177 48.521C38.7909 49.6453 37.3261 50.2044 35.8502 50.2068C34.3769 50.2044 32.912 49.6477 31.7865 48.5247C31.2238 47.9631 30.8026 47.315 30.5218 46.6228C30.241 45.9319 30.1006 45.197 30.1006 44.4573C30.1031 42.9827 30.6622 41.5166 31.7864 40.3898L44.2095 27.968L52.3395 36.0979L39.9177 48.521Z" fill="white"/>
<path d="M59.3159 27.3625L52.945 20.9917C52.2981 20.3447 51.2495 20.3447 50.6025 20.9917C49.9556 21.6399 49.9556 22.6872 50.6025 23.3342L52.6387 25.3728L50.4121 27.5993L52.7083 29.8967L54.9361 27.6689L56.9734 29.7062C57.6204 30.3532 58.669 30.3532 59.3159 29.7062C59.9629 29.0593 59.9628 28.0096 59.3159 27.3625Z" fill="white"/>
<path d="M48.2343 34.428L45.8808 32.0745L45.3291 32.625L47.6826 34.9785L48.2343 34.428Z" fill="white"/>
<path d="M42.0685 35.8868L44.4209 38.239L44.9726 37.6897L42.6191 35.335L42.0685 35.8868Z" fill="white"/>
<path d="M39.5832 37.6935C39.1108 37.221 38.8263 36.817 38.6274 36.4447L33.2331 41.8377C31.7891 43.2831 31.7891 45.6317 33.2307 47.0758C34.6748 48.5199 37.0259 48.5187 38.4712 47.0745L44.4856 41.0589C44.3256 40.8465 44.1316 40.6195 43.8862 40.3729C42.1406 38.6273 41.3288 39.4378 39.5832 37.6935Z" fill="white"/>
</g>
<defs>
<clipPath id="clip0_1_2224">
<rect width="40" height="40" fill="white" transform="translate(19.8008 19.8867)"/>
</clipPath>
</defs>
</svg>
