<svg width="48" height="48" viewBox="0 0 48 48" fill="none" xmlns="http://www.w3.org/2000/svg">
<path d="M21.1034 0C22.0326 0 22.8413 0.364483 23.2598 0.902227C25.4928 1.24649 27.5346 2.37967 29.0096 4.10391L30.5528 5.90789C30.9373 6.35732 31.2793 6.84136 31.5747 7.35375L32.9604 9.7575C33.801 11.2156 34.2434 12.869 34.2434 14.552V15.1211L34.6434 18.9487C35.3136 20.4187 35.6872 22.0524 35.6872 23.7734C35.6872 30.2036 30.4737 35.4169 24.0434 35.4169C21.4233 35.4169 19.0053 34.5512 17.0596 33.0905L16.0731 33.8327C16.134 35.0454 16.4816 36.2284 17.0899 37.2836L18.4755 39.6873C18.7118 40.0972 18.9855 40.4845 19.2931 40.8441L20.8363 42.648C21.9957 44.0033 23.5944 44.9006 25.3454 45.1884C25.7957 44.7816 26.4963 44.52 27.2834 44.52C28.642 44.52 29.7434 45.299 29.7434 46.26C29.7434 47.221 28.642 48 27.2834 48C26.3543 48 25.5456 47.6355 25.1271 47.0978C22.894 46.7535 20.8522 45.6203 19.3772 43.8961L17.834 42.0921C17.4496 41.6427 17.1075 41.1586 16.8121 40.6462L15.4264 38.2425C14.5859 36.7844 14.1434 35.131 14.1434 33.448V32.8789L13.7637 29.2457C12.8934 27.6143 12.3999 25.7514 12.3999 23.7734C12.3999 17.3429 17.6131 12.1296 24.0434 12.1296C26.8651 12.1296 29.4525 13.1335 31.4678 14.8035L32.3137 14.1673C32.2529 12.9546 31.9052 11.7716 31.297 10.7164L29.9113 8.3127C29.675 7.90278 29.4013 7.51549 29.0937 7.15594L27.5505 5.35195C26.3911 3.99666 24.7924 3.09942 23.0415 2.81156C22.5912 3.2184 21.8905 3.48 21.1034 3.48C19.7448 3.48 18.6434 2.70098 18.6434 1.74C18.6434 0.779024 19.7448 0 21.1034 0ZM23.9871 14.6399C19.0478 14.6399 15.0434 18.6443 15.0434 23.5837C15.0434 28.523 19.0478 32.5274 23.9871 32.5274C28.9263 32.5274 32.9309 28.523 32.9309 23.5837C32.9309 18.6443 28.9263 14.6399 23.9871 14.6399Z" fill="white"/>
<path d="M24.0434 15.4891C19.542 15.4891 15.8926 19.1386 15.8926 23.6402C15.8926 28.1416 19.542 31.791 24.0434 31.791C28.5449 31.791 32.1945 28.1416 32.1945 23.6402C32.1945 19.1386 28.5449 15.4891 24.0434 15.4891Z" fill="white"/>
<path d="M24.1348 18.2969C21.1339 18.2969 18.7009 20.7298 18.7009 23.7309C18.7009 26.7318 21.1339 29.1648 24.1348 29.1648C27.1358 29.1648 29.5689 26.7318 29.5689 23.7309C29.5689 20.7298 27.1358 18.2969 24.1348 18.2969Z" fill="white" fill-opacity="0.7"/>
</svg>
