<svg width="48" height="48" viewBox="0 0 48 48" fill="none" xmlns="http://www.w3.org/2000/svg">
<path d="M24.3093 40.5034C24.2063 40.5048 24.1032 40.5058 24 40.5058C24.1032 40.5058 24.2063 40.5048 24.3093 40.5034ZM24.8235 40.4908C24.7112 40.4948 24.5987 40.4981 24.4861 40.5005C24.5987 40.4981 24.7112 40.4948 24.8235 40.4908ZM25.2362 40.4724C25.1227 40.4785 25.0092 40.4841 24.8955 40.4885C25.0092 40.4841 25.1227 40.4785 25.2362 40.4724ZM25.9198 40.4258C25.8013 40.4357 25.6826 40.4449 25.5638 40.4529C25.6826 40.4449 25.8013 40.4357 25.9198 40.4258ZM24 7.96289C33.4022 7.96289 42.2722 13.8143 47.1161 23.2997L47.4737 24.0001L47.1161 24.7005C42.2723 34.1858 33.4022 40.037 24 40.037C14.6741 40.037 5.86921 34.2768 0.998505 24.9219L0.884155 24.7003L0.526367 24.0001L0.884155 23.2997L0.998505 23.0781C5.86921 13.7232 14.6742 7.96289 24 7.96289ZM24 11.0406C15.8967 11.0406 8.53966 15.8072 4.11899 23.7726L3.99274 24.0001L4.11899 24.2275C8.53966 32.1928 15.8967 36.9595 24 36.9595C32.1061 36.9595 39.4632 32.1929 43.8813 24.2274L44.0075 24.0001L43.8813 23.7727C39.4632 15.8073 32.1061 11.0406 24 11.0406ZM8.61313 34.9659C8.73422 35.0617 8.85598 35.1562 8.97833 35.2497C8.85598 35.1562 8.73422 35.0617 8.61313 34.9659ZM14.3646 34.0312C14.4725 34.0895 14.5809 34.1467 14.6897 34.203C14.5809 34.1467 14.4725 34.0895 14.3646 34.0312ZM33.149 34.2867C33.2581 34.2314 33.3669 34.1751 33.4753 34.1179C33.3669 34.1751 33.2581 34.2314 33.149 34.2867ZM12.9319 33.1861C13.0882 33.2865 13.2455 33.3847 13.4038 33.4808V33.4809C13.351 33.4489 13.2984 33.4166 13.2458 33.3841C13.1407 33.319 13.0361 33.2531 12.9319 33.1861ZM34.7563 33.3841H34.7564H34.7563ZM10.9564 31.7607C11.1529 31.9191 11.3514 32.0736 11.5517 32.2245V32.2246C11.4515 32.1492 11.3519 32.0728 11.2527 31.9955C11.1535 31.9182 11.0547 31.8399 10.9564 31.7607ZM10.5176 31.3983H10.5177H10.5176ZM37.6291 31.2748C37.5329 31.3576 37.4361 31.4395 37.3389 31.5205C37.3875 31.48 37.436 31.4392 37.4844 31.3983L37.6291 31.2748ZM9.94312 30.8959C10.0378 30.9815 10.1331 31.0661 10.2289 31.1498C10.1331 31.0661 10.0378 30.9815 9.94312 30.8959ZM38.6209 30.3719C38.5283 30.461 38.4352 30.5493 38.3415 30.6367C38.4352 30.5493 38.5283 30.461 38.6209 30.3719ZM7.01544 27.7531C7.71557 28.6431 8.45962 29.4724 9.24246 30.2375V30.2376C9.19641 30.1926 9.15046 30.1474 9.10468 30.1019C8.82998 29.8292 8.56017 29.5485 8.29544 29.26C8.25133 29.2119 8.20734 29.1636 8.16351 29.1151C8.03202 28.9696 7.90185 28.8221 7.77295 28.6727C7.72997 28.6229 7.6871 28.5729 7.64441 28.5226C7.4737 28.3217 7.30535 28.1173 7.1394 27.9096L7.01544 27.7531ZM39.4398 29.5459C39.3058 29.6875 39.1706 29.8273 39.0341 29.9649C39.1251 29.8732 39.2155 29.7804 39.3054 29.6869L39.4398 29.5459ZM39.8381 29.1151C39.7943 29.1637 39.7503 29.212 39.7062 29.2601L39.5734 29.4036C39.6178 29.356 39.6621 29.3081 39.7062 29.26L39.8381 29.1151ZM2.63364 28.5474C2.68006 28.6147 2.72667 28.6817 2.77353 28.7485C2.67981 28.6149 2.58697 28.4805 2.49503 28.345L2.63364 28.5474ZM40.6113 28.2187C40.4851 28.3719 40.3575 28.5233 40.2287 28.6727C40.3146 28.5731 40.3998 28.4726 40.4846 28.3713L40.6113 28.2187ZM41.1089 27.5955C41.0681 27.6482 41.0271 27.7008 40.9859 27.7532L40.8619 27.9096C40.9034 27.8576 40.9447 27.8055 40.9859 27.7531L41.1089 27.5955ZM6.29071 26.7882C6.44802 27.0076 6.60787 27.2237 6.77017 27.4365C6.64845 27.277 6.5281 27.1155 6.40918 26.9522L6.29071 26.7882ZM41.7104 26.7882C41.5924 26.9528 41.4731 27.1156 41.3523 27.2764C41.4328 27.1692 41.5126 27.0611 41.5919 26.9522L41.7104 26.7882ZM46.7141 26.4191C46.9154 26.0714 47.1112 25.7183 47.3012 25.36L47.3003 25.3618C47.1106 25.7196 46.915 26.0719 46.7141 26.4191ZM5.37784 25.4326C5.59821 25.7812 5.82458 26.1226 6.0567 26.4566L6.17325 26.6231C6.01722 26.402 5.8637 26.1777 5.71283 25.9502C5.67511 25.8933 5.63752 25.8362 5.60013 25.7789C5.56275 25.7216 5.52558 25.6641 5.48853 25.6064L5.37784 25.4326ZM43.1609 24.5462C42.8808 25.0269 42.5896 25.495 42.288 25.9502C42.5896 25.495 42.8807 25.0269 43.1609 24.5461V24.5462ZM0.645386 25.2578C0.663642 25.2925 0.68177 25.3272 0.700134 25.3618C0.68177 25.3272 0.663642 25.2925 0.645386 25.2578ZM4.73486 24.3653C4.83895 24.5467 4.94456 24.7265 5.05173 24.9044C4.98029 24.7858 4.90958 24.6664 4.83951 24.5462L4.73486 24.3653ZM43.2671 23.6377C43.3359 23.7577 43.404 23.8785 43.4715 24.0001C43.4375 24.0614 43.4033 24.1224 43.369 24.1833L43.2655 24.3653C43.3348 24.2443 43.4035 24.1226 43.4715 24.0001C43.4375 23.9388 43.4033 23.8777 43.3689 23.8168L43.2671 23.6377ZM5.26221 22.752C5.19144 22.8659 5.12122 22.9805 5.05173 23.0958C5.12122 22.9805 5.19144 22.8659 5.26221 22.752ZM42.9496 23.0974C42.9631 23.1198 42.9765 23.1423 42.9899 23.1648C42.9765 23.1423 42.9631 23.1198 42.9496 23.0974ZM0.776855 22.4948C0.73752 22.568 0.698427 22.6415 0.659576 22.7152C0.698427 22.6415 0.73752 22.568 0.776855 22.4948ZM42.0641 21.7174C42.2361 21.969 42.4046 22.2247 42.5699 22.4844C42.4046 22.2247 42.2361 21.969 42.0641 21.7174ZM5.94116 21.7111C5.87606 21.8062 5.81151 21.9021 5.74734 21.9984C5.84933 21.8453 5.95237 21.6936 6.0567 21.5435L5.94116 21.7111ZM1.28946 21.5759C1.24806 21.6473 1.20688 21.719 1.16595 21.7909C1.20688 21.719 1.24806 21.6473 1.28946 21.5759ZM41.9491 21.5505C41.9647 21.573 41.9802 21.5955 41.9957 21.6181C41.9802 21.5955 41.9647 21.573 41.9491 21.5505ZM41.8353 21.3877C41.849 21.4072 41.8626 21.4267 41.8763 21.4462C41.8626 21.4267 41.849 21.4072 41.8353 21.3877ZM41.7185 21.2233C41.731 21.2408 41.7434 21.2583 41.7559 21.2758C41.7434 21.2583 41.731 21.2408 41.7185 21.2233ZM41.5946 21.0518C41.617 21.0825 41.6392 21.1134 41.6615 21.1442C41.6392 21.1134 41.617 21.0825 41.5946 21.0518ZM1.77112 20.7719C1.73679 20.8274 1.70252 20.8829 1.66849 20.9387C1.70252 20.8829 1.73679 20.8274 1.77112 20.7719ZM6.73785 20.6063C6.68496 20.676 6.63229 20.7459 6.57993 20.8163C6.63229 20.7459 6.68496 20.676 6.73785 20.6063ZM41.3641 20.7397C41.3721 20.7504 41.3802 20.7612 41.3882 20.7719C41.3802 20.7612 41.3721 20.7504 41.3641 20.7397ZM41.2401 20.5755C41.2594 20.6007 41.2785 20.6262 41.2976 20.6516C41.2785 20.6262 41.2594 20.6007 41.2401 20.5755ZM2.00604 20.3981C1.97923 20.4401 1.95249 20.4822 1.92584 20.5244C1.95249 20.4822 1.97923 20.4401 2.00604 20.3981ZM41.1217 20.4212C41.1366 20.4405 41.1514 20.46 41.1664 20.4793C41.1514 20.46 41.1366 20.4405 41.1217 20.4212ZM40.9948 20.2583C41.016 20.2853 41.037 20.3124 41.0581 20.3395C41.037 20.3124 41.016 20.2853 40.9948 20.2583ZM7.20862 20.0045C7.1439 20.0849 7.07943 20.1656 7.01544 20.247C7.07943 20.1656 7.1439 20.0849 7.20862 20.0045ZM40.8786 20.1115C40.8862 20.1211 40.8938 20.1307 40.9014 20.1403C40.8938 20.1307 40.8862 20.1211 40.8786 20.1115ZM40.7473 19.9482C40.7664 19.9717 40.7853 19.9954 40.8044 20.019C40.7853 19.9954 40.7664 19.9717 40.7473 19.9482ZM40.6221 19.7947C40.6454 19.8231 40.6687 19.8517 40.6919 19.8802C40.6687 19.8517 40.6454 19.8231 40.6221 19.7947ZM40.4741 19.6165C40.5092 19.6584 40.5441 19.7005 40.579 19.7427C40.5441 19.7005 40.5092 19.6584 40.4741 19.6165ZM3.01733 18.9093C2.82554 19.1749 2.63736 19.4445 2.45273 19.7179C2.63736 19.4445 2.82554 19.1749 3.01733 18.9093ZM40.2448 19.3463C40.2636 19.3682 40.2823 19.3902 40.3011 19.4122C40.2823 19.3902 40.2636 19.3682 40.2448 19.3463ZM8.16351 18.885C8.03327 19.0292 7.90431 19.1753 7.77661 19.3232C7.90431 19.1753 8.03327 19.0292 8.16351 18.885ZM40.1193 19.2016C40.1337 19.2182 40.1481 19.2348 40.1626 19.2514C40.1481 19.2348 40.1337 19.2182 40.1193 19.2016ZM39.9873 19.0518C40.0019 19.0683 40.0164 19.0848 40.031 19.1013C40.0164 19.0848 40.0019 19.0683 39.9873 19.0518ZM39.8557 18.9046C39.8736 18.9245 39.8914 18.9445 39.9093 18.9645C39.8914 18.9445 39.8736 18.9245 39.8557 18.9046ZM39.7273 18.7634C39.7441 18.7817 39.7607 18.8 39.7774 18.8184C39.7607 18.8 39.7441 18.7817 39.7273 18.7634ZM39.5889 18.6132C39.6107 18.6367 39.6324 18.6603 39.6541 18.6838C39.6324 18.6603 39.6107 18.6367 39.5889 18.6132ZM39.4644 18.4804C39.482 18.499 39.4995 18.5178 39.517 18.5365C39.4995 18.5178 39.482 18.499 39.4644 18.4804ZM39.3221 18.3309C39.3415 18.3511 39.3609 18.3714 39.3802 18.3918C39.3609 18.3714 39.3415 18.3511 39.3221 18.3309ZM3.56555 18.1736C3.52012 18.2327 3.47485 18.292 3.42978 18.3516C3.47485 18.292 3.52012 18.2327 3.56555 18.1736ZM39.188 18.1921C39.2126 18.2174 39.2371 18.2427 39.2617 18.2682C39.2371 18.2427 39.2126 18.2174 39.188 18.1921ZM9.06412 17.9388C8.98627 18.0165 8.90872 18.0947 8.83167 18.1736C8.90872 18.0947 8.98627 18.0165 9.06412 17.9388ZM39.0635 18.0652C39.0774 18.0793 39.0914 18.0935 39.1053 18.1077C39.0914 18.0935 39.0774 18.0793 39.0635 18.0652ZM38.9196 17.9208C38.937 17.9381 38.9544 17.9555 38.9717 17.9729C38.9544 17.9555 38.937 17.9381 38.9196 17.9208ZM38.7807 17.7835C38.8029 17.8053 38.8251 17.8273 38.8473 17.8492C38.8251 17.8273 38.8029 17.8053 38.7807 17.7835ZM38.6395 17.6462C38.6654 17.6712 38.6911 17.6963 38.7169 17.7214C38.6911 17.6963 38.6654 17.6712 38.6395 17.6462ZM38.5005 17.5133C38.5269 17.5384 38.5533 17.5636 38.5796 17.5888C38.5533 17.5636 38.5269 17.5384 38.5005 17.5133ZM38.3568 17.3779C38.3865 17.4056 38.416 17.4335 38.4456 17.4614C38.416 17.4335 38.3865 17.4056 38.3568 17.3779ZM38.2258 17.2565C38.2511 17.2798 38.2764 17.3033 38.3017 17.3267C38.2764 17.3033 38.2511 17.2798 38.2258 17.2565ZM43.6038 17.1374C43.6272 17.1653 43.6503 17.1934 43.6736 17.2213C43.599 17.1318 43.5241 17.0427 43.4487 16.9543L43.6038 17.1374ZM38.0853 17.1282C38.1078 17.1486 38.1301 17.169 38.1525 17.1895C38.1301 17.169 38.1078 17.1486 38.0853 17.1282ZM10.1866 16.8875C10.1146 16.9508 10.0428 17.0146 9.97131 17.0789C10.0428 17.0146 10.1146 16.9508 10.1866 16.8875ZM37.9476 17.0045C37.9663 17.0212 37.9849 17.0378 38.0035 17.0545C37.9849 17.0378 37.9663 17.0212 37.9476 17.0045ZM37.8017 16.8754C37.8214 16.8927 37.841 16.9101 37.8607 16.9275C37.841 16.9101 37.8214 16.8927 37.8017 16.8754ZM37.6505 16.7439C37.6775 16.7672 37.7044 16.7907 37.7314 16.8141C37.7044 16.7907 37.6775 16.7672 37.6505 16.7439ZM10.5177 16.6018H10.5176H10.5177ZM37.5126 16.6259C37.5368 16.6465 37.5611 16.6672 37.5853 16.688C37.5611 16.6672 37.5368 16.6465 37.5126 16.6259ZM37.3776 16.5122C37.3934 16.5254 37.4091 16.5386 37.4249 16.5518C37.4091 16.5386 37.3934 16.5254 37.3776 16.5122ZM37.2277 16.3878C37.2427 16.4001 37.2576 16.4125 37.2726 16.4248C37.2576 16.4125 37.2427 16.4001 37.2277 16.3878ZM5.49768 15.8994C5.35221 16.0543 5.20825 16.2111 5.06555 16.3697C5.20825 16.2111 5.35221 16.0543 5.49768 15.8994ZM37.0881 16.2739C37.1028 16.2857 37.1174 16.2977 37.132 16.3096C37.1174 16.2977 37.1028 16.2857 37.0881 16.2739ZM10.9565 16.2393C10.937 16.2551 10.9175 16.271 10.898 16.2869C10.9665 16.2313 11.0352 16.176 11.1042 16.1213L10.9565 16.2393ZM36.9265 16.1441C36.9495 16.1624 36.9724 16.1808 36.9954 16.1992C36.9724 16.1808 36.9495 16.1624 36.9265 16.1441ZM36.7839 16.0317C36.8065 16.0494 36.829 16.0671 36.8515 16.0849C36.829 16.0671 36.8065 16.0494 36.7839 16.0317ZM36.6206 15.9051C36.6503 15.9279 36.68 15.9509 36.7097 15.9739C36.68 15.9509 36.6503 15.9279 36.6206 15.9051ZM36.4716 15.7917C36.5063 15.8179 36.541 15.8442 36.5756 15.8707C36.541 15.8442 36.5063 15.8179 36.4716 15.7917ZM36.3303 15.6858C36.3588 15.707 36.3873 15.7283 36.4158 15.7496C36.3873 15.7283 36.3588 15.707 36.3303 15.6858ZM6.10001 15.2771C6.0117 15.3657 5.9237 15.4549 5.83633 15.5448C5.9237 15.4549 6.0117 15.3657 6.10001 15.2771ZM36.1768 15.5728C36.205 15.5933 36.2331 15.6139 36.2611 15.6346C36.2331 15.6139 36.205 15.5933 36.1768 15.5728ZM36.0335 15.4689C36.0585 15.4868 36.0834 15.5048 36.1082 15.5229C36.0834 15.5048 36.0585 15.4868 36.0335 15.4689ZM35.8867 15.3644C35.9076 15.3792 35.9286 15.394 35.9495 15.4089C35.9286 15.394 35.9076 15.3792 35.8867 15.3644ZM35.7394 15.2612C35.756 15.2728 35.7726 15.2844 35.7893 15.296C35.7726 15.2844 35.756 15.2728 35.7394 15.2612ZM35.5736 15.1472C35.5961 15.1625 35.6186 15.1778 35.6411 15.1933C35.6186 15.1778 35.5961 15.1625 35.5736 15.1472ZM35.4167 15.0412C35.445 15.0601 35.4732 15.0792 35.5014 15.0982C35.4732 15.0792 35.445 15.0601 35.4167 15.0412ZM35.2646 14.9404C35.2908 14.9576 35.3169 14.9748 35.343 14.9921C35.3169 14.9748 35.2908 14.9576 35.2646 14.9404ZM35.1052 14.8367C35.1328 14.8545 35.1603 14.8723 35.1879 14.8902C35.1603 14.8723 35.1328 14.8545 35.1052 14.8367ZM34.9518 14.7386C34.98 14.7565 35.0082 14.7744 35.0363 14.7924C35.0082 14.7744 34.98 14.7565 34.9518 14.7386ZM7.01837 14.3947C6.96082 14.4476 6.90345 14.5008 6.84625 14.5542L6.67523 14.7153C6.73207 14.6613 6.78906 14.6076 6.84625 14.5541L7.01837 14.3947ZM34.8 14.6434C34.8243 14.6585 34.8485 14.6736 34.8727 14.6888C34.8485 14.6736 34.8243 14.6585 34.8 14.6434ZM34.6292 14.5381C34.6599 14.5568 34.6906 14.5756 34.7212 14.5945C34.6906 14.5756 34.6599 14.5568 34.6292 14.5381ZM34.4753 14.4452C34.5074 14.4644 34.5394 14.4837 34.5714 14.5031C34.5394 14.4837 34.5074 14.4644 34.4753 14.4452ZM34.3244 14.3557C34.3511 14.3714 34.3777 14.3872 34.4044 14.403C34.3777 14.3872 34.3511 14.3714 34.3244 14.3557ZM34.1634 14.2621C34.1902 14.2775 34.2169 14.293 34.2437 14.3086C34.2169 14.293 34.1902 14.2775 34.1634 14.2621ZM14.6897 13.7971C14.5809 13.8533 14.4725 13.9106 14.3646 13.9688C14.4725 13.9106 14.5809 13.8533 14.6897 13.7971ZM33.9998 14.1689C34.0284 14.185 34.057 14.2012 34.0856 14.2175C34.057 14.2012 34.0284 14.185 33.9998 14.1689ZM33.8421 14.0808C33.8704 14.0965 33.8987 14.1122 33.927 14.128C33.8987 14.1122 33.8704 14.0965 33.8421 14.0808ZM33.6878 13.9962C33.7121 14.0094 33.7364 14.0226 33.7607 14.0359C33.7364 14.0226 33.7121 14.0094 33.6878 13.9962ZM33.5175 13.9048C33.5459 13.9199 33.5743 13.935 33.6027 13.9503C33.5743 13.935 33.5459 13.9199 33.5175 13.9048ZM40.285 13.7734V13.7735V13.7734ZM33.3607 13.8224C33.3891 13.8371 33.4174 13.8519 33.4456 13.8668C33.4174 13.8519 33.3891 13.8371 33.3607 13.8224ZM33.1896 13.7343C33.219 13.7492 33.2483 13.7642 33.2776 13.7792C33.2483 13.7642 33.219 13.7492 33.1896 13.7343ZM33.0355 13.6566C33.0644 13.6711 33.0934 13.6856 33.1223 13.7001C33.0934 13.6856 33.0644 13.6711 33.0355 13.6566ZM32.8741 13.5769C32.8989 13.589 32.9238 13.6012 32.9486 13.6134C32.9238 13.6012 32.8989 13.589 32.8741 13.5769ZM32.6997 13.4929C32.7298 13.5072 32.7599 13.5216 32.7899 13.5361C32.7599 13.5216 32.7298 13.5072 32.6997 13.4929ZM39.7504 13.3249C39.8293 13.3894 39.9078 13.4546 39.9861 13.5201C39.9078 13.4546 39.8293 13.3894 39.7504 13.3249ZM32.5489 13.4216C32.574 13.4334 32.599 13.4451 32.6241 13.457C32.599 13.4451 32.574 13.4334 32.5489 13.4216ZM32.3809 13.344C32.4051 13.3551 32.4293 13.3662 32.4536 13.3773C32.4293 13.3662 32.4051 13.3551 32.3809 13.344ZM32.2018 13.2633C32.2327 13.2771 32.2635 13.2908 32.2943 13.3047C32.2635 13.2908 32.2327 13.2771 32.2018 13.2633ZM32.0347 13.1898C32.0668 13.2038 32.0989 13.2177 32.1309 13.2318C32.0989 13.2177 32.0668 13.2038 32.0347 13.1898ZM31.8782 13.1225C31.9069 13.1347 31.9356 13.1469 31.9642 13.1592C31.9356 13.1469 31.9069 13.1347 31.8782 13.1225ZM8.61313 13.0341V13.0342V13.0341ZM31.7012 13.0483C31.7308 13.0606 31.7605 13.0728 31.7901 13.0852C31.7605 13.0728 31.7308 13.0606 31.7012 13.0483ZM31.5457 12.9846C31.5731 12.9957 31.6005 13.0068 31.6278 13.018C31.6005 13.0068 31.5731 12.9957 31.5457 12.9846ZM31.3643 12.9121C31.3939 12.9238 31.4234 12.9355 31.453 12.9473C31.4234 12.9355 31.3939 12.9238 31.3643 12.9121ZM31.1915 12.845C31.2262 12.8583 31.2609 12.8717 31.2956 12.8852C31.2609 12.8717 31.2262 12.8583 31.1915 12.845ZM31.0331 12.7851C31.0624 12.796 31.0917 12.8069 31.1209 12.818C31.0917 12.8069 31.0624 12.796 31.0331 12.7851ZM30.8706 12.7251C30.8955 12.7342 30.9203 12.7432 30.9451 12.7524C30.9203 12.7432 30.8955 12.7342 30.8706 12.7251ZM30.7018 12.6644C30.7263 12.6731 30.7508 12.6817 30.7752 12.6905C30.7508 12.6817 30.7263 12.6731 30.7018 12.6644ZM30.5233 12.6021C30.5505 12.6115 30.5777 12.6208 30.6049 12.6302C30.5777 12.6208 30.5505 12.6115 30.5233 12.6021ZM30.3477 12.5426C30.3768 12.5523 30.4059 12.562 30.4349 12.5718C30.4059 12.562 30.3768 12.5523 30.3477 12.5426ZM30.1764 12.4862C30.206 12.4959 30.2357 12.5055 30.2654 12.5153C30.2357 12.5055 30.206 12.4959 30.1764 12.4862ZM29.9879 12.4262C30.0235 12.4373 30.0591 12.4485 30.0946 12.4599C30.0591 12.4485 30.0235 12.4373 29.9879 12.4262ZM29.8321 12.3781C29.8627 12.3874 29.8932 12.3967 29.9237 12.4061C29.8932 12.3967 29.8627 12.3874 29.8321 12.3781ZM29.6432 12.3215C29.6771 12.3315 29.711 12.3414 29.7449 12.3516C29.711 12.3414 29.6771 12.3315 29.6432 12.3215ZM29.4741 12.2726C29.5095 12.2827 29.545 12.2928 29.5804 12.3031C29.545 12.2928 29.5095 12.2827 29.4741 12.2726ZM29.3254 12.231C29.3487 12.2374 29.3721 12.2439 29.3954 12.2504C29.3721 12.2439 29.3487 12.2374 29.3254 12.231ZM29.1317 12.1786C29.1613 12.1865 29.1909 12.1943 29.2205 12.2022C29.1909 12.1943 29.1613 12.1865 29.1317 12.1786ZM28.9325 12.1268C28.9727 12.137 29.013 12.1473 29.0531 12.1577C29.013 12.1473 28.9727 12.137 28.9325 12.1268ZM28.7702 12.0862C28.8075 12.0954 28.8448 12.1045 28.882 12.1139C28.8448 12.1045 28.8075 12.0954 28.7702 12.0862ZM28.5864 12.042C28.6235 12.0508 28.6607 12.0595 28.6978 12.0685C28.6607 12.0595 28.6235 12.0508 28.5864 12.042ZM28.4004 11.9991C28.4435 12.0088 28.4866 12.0186 28.5296 12.0286C28.4866 12.0186 28.4435 12.0088 28.4004 11.9991ZM28.2541 11.9667C28.2864 11.9737 28.3187 11.9807 28.351 11.9879C28.3187 11.9807 28.2864 11.9737 28.2541 11.9667ZM28.0971 11.9331C28.1192 11.9377 28.1413 11.9423 28.1634 11.947C28.1413 11.9423 28.1192 11.9377 28.0971 11.9331ZM27.9135 11.8955C27.9385 11.9005 27.9636 11.9055 27.9886 11.9106C27.9636 11.9055 27.9385 11.9005 27.9135 11.8955ZM27.7312 11.8601C27.7567 11.865 27.7823 11.8697 27.8078 11.8747C27.7823 11.8697 27.7567 11.865 27.7312 11.8601ZM27.5422 11.8251C27.5741 11.8309 27.6061 11.8365 27.638 11.8424C27.6061 11.8365 27.5741 11.8309 27.5422 11.8251ZM27.3897 11.7983C27.4105 11.8019 27.4313 11.8053 27.452 11.8089C27.4313 11.8053 27.4105 11.8019 27.3897 11.7983ZM27.1787 11.7632C27.2104 11.7683 27.2421 11.7733 27.2738 11.7785C27.2421 11.7733 27.2104 11.7683 27.1787 11.7632ZM26.9933 11.7342C27.0296 11.7397 27.066 11.7452 27.1024 11.7509C27.066 11.7452 27.0296 11.7397 26.9933 11.7342ZM26.8237 11.7093C26.855 11.7138 26.8863 11.7182 26.9176 11.7228C26.8863 11.7182 26.855 11.7138 26.8237 11.7093ZM26.6339 11.6831C26.6692 11.6878 26.7045 11.6925 26.7397 11.6973C26.7045 11.6925 26.6692 11.6878 26.6339 11.6831ZM26.2463 11.6356C26.3509 11.6474 26.4553 11.6598 26.5596 11.6732C26.4553 11.6598 26.3509 11.6474 26.2463 11.6356ZM26.0705 11.6166C26.1131 11.621 26.1556 11.6254 26.1981 11.6301C26.1556 11.6254 26.1131 11.621 26.0705 11.6166ZM25.9005 11.5996C25.9398 11.6034 25.9791 11.6071 26.0184 11.6111C25.9791 11.6071 25.9398 11.6034 25.9005 11.5996ZM25.7545 11.5863C25.781 11.5886 25.8074 11.5908 25.8338 11.5932C25.8074 11.5908 25.781 11.5886 25.7545 11.5863ZM25.593 11.5727C25.6114 11.5742 25.6298 11.5755 25.6482 11.577C25.6298 11.5755 25.6114 11.5742 25.593 11.5727ZM25.3795 11.5569C25.4091 11.5589 25.4388 11.5608 25.4684 11.563C25.4388 11.5608 25.4091 11.5589 25.3795 11.5569ZM25.1656 11.5432C25.0933 11.539 25.0209 11.5351 24.9484 11.5317C25.0209 11.5351 25.0933 11.539 25.1656 11.5432ZM24.5635 11.5172C24.6831 11.5206 24.8025 11.525 24.9218 11.5304C24.8025 11.525 24.6831 11.5206 24.5635 11.5172ZM24.474 11.515C24.5009 11.5157 24.5278 11.5161 24.5547 11.5169C24.5278 11.5161 24.5009 11.5157 24.474 11.515ZM12.6236 10.4015C12.4905 10.4726 12.358 10.5449 12.226 10.6184C12.358 10.5449 12.4905 10.4726 12.6236 10.4015ZM45.6527 28.1267C45.6151 28.1832 45.5772 28.2394 45.5393 28.2956C45.5772 28.2394 45.6151 28.1832 45.6527 28.1267ZM46.1841 27.3018C46.1455 27.3638 46.1068 27.4255 46.0679 27.4871C46.1068 27.4255 46.1455 27.3638 46.1841 27.3018ZM46.4407 26.8826C46.4055 26.9412 46.37 26.9995 46.3345 27.0578C46.37 26.9995 46.4055 26.9412 46.4407 26.8826ZM42.7348 22.7463C42.7674 22.7987 42.7999 22.8512 42.8322 22.9039C42.7999 22.8512 42.7674 22.7987 42.7348 22.7463ZM42.8414 22.9189C42.8748 22.9735 42.9079 23.0283 42.941 23.0832C42.9079 23.0283 42.8748 22.9735 42.8414 22.9189ZM41.48 20.8954C41.5101 20.9361 41.54 20.9769 41.5698 21.0179C41.54 20.9769 41.5101 20.9361 41.48 20.8954ZM40.3705 19.4935C40.4051 19.5343 40.4397 19.5753 40.4741 19.6165C40.4397 19.5753 40.4051 19.5343 40.3705 19.4935ZM25.1656 11.5432C25.2058 11.5456 25.2461 11.5479 25.2863 11.5505C25.2461 11.5479 25.2058 11.5456 25.1656 11.5432Z" fill="white"/>
<path d="M24.0001 14.408C18.6415 14.408 14.2971 18.7523 14.2971 24.1111C14.2971 29.4696 18.6415 33.814 24.0001 33.814C29.3586 33.814 33.7032 29.4696 33.7032 24.1111C33.7032 18.7523 29.3586 14.408 24.0001 14.408Z" fill="#D6D6D6" fill-opacity="0.6"/>
<path d="M23.9697 17.2899C20.2419 17.2899 17.2197 20.3121 17.2197 24.04C17.2197 27.7677 20.2419 30.7899 23.9697 30.7899C27.6974 30.7899 30.7197 27.7677 30.7197 24.04C30.7197 20.3121 27.6974 17.2899 23.9697 17.2899Z" fill="white" fill-opacity="0.75"/>
</svg>
