<svg width="80" height="80" viewBox="0 0 80 80" fill="none" xmlns="http://www.w3.org/2000/svg">
<rect width="80" height="80" rx="40" fill="#B5B5B5"/>
<g clip-path="url(#clip0_1_2106)">
<path d="M44.599 23.6723C43.9521 23.0254 42.9035 23.0254 42.2565 23.6723C41.6096 24.3193 41.6096 25.3679 42.2565 26.0148L42.9707 26.7277L30.5475 39.1509C29.0814 40.6145 28.3478 42.5408 28.3478 44.4573C28.3478 45.562 28.5932 46.6716 29.0803 47.6909L26.9147 49.8565C26.7121 50.0579 26.5534 50.2886 26.4423 50.5388C26.3336 50.7866 26.2689 51.0552 26.2689 51.3335C26.2689 51.5288 26.3006 51.7315 26.3751 51.9256C26.4386 52.0952 26.5387 52.2588 26.6656 52.4041L19.8004 59.2669H22.2796L27.9046 53.6431C28.0487 53.7688 28.2123 53.869 28.3819 53.9324C28.5772 54.0069 28.7799 54.0386 28.9728 54.0386C29.2535 54.0386 29.5196 53.9739 29.7699 53.8652C30.0189 53.7541 30.2484 53.5955 30.4522 53.3928L32.6178 51.2285C33.6358 51.7156 34.7454 51.9622 35.8502 51.9622C37.7679 51.9622 39.6942 51.2261 41.1566 49.7625L53.5797 37.3382L54.2926 38.0511C54.9396 38.6981 55.9882 38.6981 56.6351 38.0511C57.2821 37.4041 57.2821 36.3543 56.6351 35.7098L44.599 23.6723ZM29.2108 52.1538C29.1596 52.2051 29.1034 52.2417 29.0582 52.2613C29.0411 52.2698 29.0253 52.2723 29.0118 52.2771L28.0316 51.2945C28.0353 51.2834 28.0389 51.2664 28.0463 51.2493C28.0658 51.2041 28.1012 51.148 28.1537 51.0979L30.0421 49.2082C30.1984 49.3998 30.3644 49.5842 30.5414 49.76V49.7624C30.5512 49.7698 30.561 49.7783 30.5695 49.7893L30.5744 49.7917C30.7428 49.959 30.9174 50.1177 31.0993 50.2654L29.2108 52.1538ZM39.9176 48.521C38.7909 49.6453 37.326 50.2044 35.8502 50.2068C34.3768 50.2044 32.912 49.6477 31.7864 48.5247C31.2237 47.9631 30.8025 47.315 30.5217 46.6228C30.241 45.9319 30.1006 45.197 30.1006 44.4573C30.103 42.9827 30.6621 41.5166 31.7864 40.3898L44.2095 27.968L52.3394 36.0979L39.9176 48.521Z" fill="white"/>
<path d="M59.3158 27.3625L52.945 20.9917C52.298 20.3447 51.2494 20.3447 50.6025 20.9917C49.9555 21.6399 49.9555 22.6872 50.6025 23.3342L52.6386 25.3728L50.4121 27.5993L52.7082 29.8967L54.9361 27.6689L56.9734 29.7062C57.6204 30.3532 58.6689 30.3532 59.3159 29.7062C59.9629 29.0593 59.9628 28.0096 59.3158 27.3625Z" fill="white"/>
<path d="M48.2342 34.428L45.8807 32.0745L45.329 32.625L47.6825 34.9785L48.2342 34.428Z" fill="white"/>
<path d="M42.0685 35.8868L44.4208 38.239L44.9725 37.6897L42.619 35.335L42.0685 35.8868Z" fill="white"/>
<path d="M39.5831 37.6935C39.1107 37.221 38.8263 36.817 38.6274 36.4447L33.2331 41.8377C31.789 43.2831 31.789 45.6317 33.2306 47.0758C34.6747 48.5199 37.0258 48.5187 38.4711 47.0745L44.4855 41.0589C44.3256 40.8465 44.1315 40.6195 43.8861 40.3729C42.1405 38.6273 41.3288 39.4378 39.5831 37.6935Z" fill="white"/>
</g>
<defs>
<clipPath id="clip0_1_2106">
<rect width="40" height="40" fill="white" transform="translate(19.8008 19.8867)"/>
</clipPath>
</defs>
</svg>
