<svg width="80" height="80" viewBox="0 0 80 80" fill="none" xmlns="http://www.w3.org/2000/svg">
<rect width="80" height="80" rx="40" fill="#19275B"/>
<g clip-path="url(#clip0_1_2218)">
<path d="M48.8536 41.4895L48.2024 40.1677L47.8172 39.3835V36.8525C47.8172 36.3943 47.6377 35.9692 47.3389 35.6503L47.3588 35.6304C47.6509 35.3314 47.8171 34.9396 47.8171 34.5277V33.8369L47.7707 33.7305C47.6712 33.3253 47.4185 32.98 47.0731 32.7675L46.9333 30.562L46.8407 29.1467L46.7208 27.2735L46.6412 25.9782C46.6144 25.5199 46.568 24.7756 46.0767 24.3972C46.0235 24.3371 45.9635 24.2708 45.9236 24.2111L45.9171 24.1514H45.8708C44.7344 22.8426 44.0237 21.195 43.9043 19.5676C43.8381 18.6241 43.0409 17.8867 42.0975 17.8867H38.8891C38.8359 17.8867 38.7827 17.8936 38.7364 17.9001C38.7096 17.9001 38.6901 17.9066 38.6633 17.9135C38.6498 17.9135 38.643 17.9135 38.6299 17.92C37.8063 18.0464 37.1554 18.7237 37.0953 19.5741C36.9823 21.1884 36.2717 22.8361 35.1356 24.1513H35.0893L35.0824 24.211C34.9963 24.3106 34.9032 24.4101 34.8101 24.51C34.4449 24.8684 34.438 24.9282 34.1592 29.1466L34.0662 30.5618H34.0727L33.9333 32.7673C33.5814 32.9798 33.3222 33.3251 33.2292 33.7372L33.1893 33.8368L33.1828 34.109V34.5276C33.1828 34.9395 33.349 35.3313 33.6412 35.6303L33.6676 35.6502C33.3686 35.9692 33.1828 36.3942 33.1828 36.8525V39.3834L32.7973 40.1676L32.1529 41.4894C31.9607 41.8745 31.8543 42.3133 31.8543 42.7449V58.4093C31.8543 61.4851 34.1061 62.8866 36.1991 62.8866H44.8014C46.8939 62.8866 49.1461 61.4851 49.1461 58.4093V42.745C49.1459 42.3135 49.0463 41.8747 48.8536 41.4895ZM36.7434 26.124V27.9045V30.0901V30.296H36.1323V30.0901V30.0766V29.4257V29.2331V28.5689V26.124H36.2915H36.7434ZM41.6192 26.124V30.2961H41.008V26.124H41.6192ZM38.3711 26.124V30.2961H37.7531V26.124H38.3711ZM39.9984 26.124V30.2961H39.3808V26.124H39.9984ZM42.6289 30.2961V26.124H43.2468V30.2961H42.6289ZM44.8747 26.124V28.5689V29.2331V29.4257V30.0766V30.0901V30.296H44.2567V30.0901V27.9045V26.124H44.7085H44.8747ZM44.8012 61.5581H36.1989C34.7703 61.5581 33.1827 60.6547 33.1827 58.4094V56.7834H47.8172V58.4094C47.8172 60.6548 46.2293 61.5581 44.8012 61.5581ZM47.8172 44.8513V56.1191H33.1827V44.8513H47.8172ZM46.502 34.3615C46.502 34.3813 46.502 34.4016 46.4886 34.4215C46.4751 34.4878 46.4288 34.5409 46.3692 34.5674C46.3358 34.5873 46.3029 34.5942 46.2631 34.5942H45.7048H45.0409H35.9662H35.3019H34.7371C34.7041 34.5942 34.6643 34.5873 34.6375 34.5674C34.5647 34.5409 34.5181 34.4678 34.5115 34.3883C34.5046 34.3814 34.5046 34.3683 34.5046 34.3615V33.9433C34.5046 33.9299 34.5046 33.9166 34.5115 33.9031C34.5248 33.7902 34.6179 33.704 34.737 33.704H35.2022H35.9661H45.0408H45.7979H46.2631C46.3825 33.704 46.4821 33.7902 46.4955 33.9031C46.502 33.9166 46.502 33.9299 46.502 33.9433V34.3615ZM46.502 39.7224L47.0136 40.7589L47.658 42.0742C47.764 42.2802 47.8172 42.5126 47.8172 42.7451V44.1867H33.1827V42.7451C33.1827 42.5126 33.2425 42.2802 33.3421 42.0742L33.993 40.7589L34.498 39.7224H46.502Z" fill="white"/>
</g>
<defs>
<clipPath id="clip0_1_2218">
<rect width="45" height="45" fill="white" transform="translate(18 17.8867)"/>
</clipPath>
</defs>
</svg>
