<svg width="80" height="80" viewBox="0 0 80 80" fill="none" xmlns="http://www.w3.org/2000/svg">
<rect width="80" height="80" rx="40" fill="#19275B"/>
<path d="M38.0429 56.4227C38.5445 56.4652 39.0483 56.4917 39.554 56.5015L39.7751 56.5047C39.1952 56.499 38.6175 56.4714 38.0429 56.4227ZM40 24.0905C49.3473 24.0905 58.1771 29.9085 63.0025 39.3577L63.3304 40L63.0025 40.6424C58.1771 50.0916 49.3473 55.9096 40 55.9096C30.6555 55.9096 21.8256 50.0917 16.9976 40.6423L16.6695 40L16.9976 39.3577C21.8256 29.9084 30.6555 24.0905 40 24.0905ZM49.9637 54.2994C49.8273 54.3617 49.6904 54.4228 49.5532 54.4826C49.6218 54.4527 49.6903 54.4225 49.7587 54.3919L49.9637 54.2994ZM52.5621 52.9261C52.3671 53.0436 52.1711 53.1585 51.9738 53.2706C52.0395 53.2332 52.1051 53.1954 52.1706 53.1575C52.3016 53.0815 52.4321 53.0045 52.5621 52.9261ZM40 26.9131C31.8429 26.9131 24.4467 31.7118 20.0074 39.7107L19.8468 40.0001L20.0074 40.2894C24.4467 48.2882 31.8429 53.087 40 53.087C48.1598 53.087 55.5559 48.2884 59.9928 40.2893L60.1532 40.0001L59.9928 39.7109C55.5559 31.7119 48.1598 26.9131 40 26.9131ZM56.8105 49.7631C56.6369 49.9201 56.4617 50.0747 56.285 50.2268C56.4028 50.1254 56.5198 50.0229 56.6363 49.9193L56.8105 49.7631ZM57.9998 48.6244C57.8891 48.7366 57.7777 48.8477 57.6655 48.9578C57.7216 48.9028 57.7774 48.8474 57.8332 48.7918L57.9998 48.6244ZM60.0616 46.3041C59.9611 46.4298 59.8597 46.5544 59.7575 46.6781C59.8086 46.6162 59.8595 46.5541 59.9102 46.4918L60.0616 46.3041ZM54.6209 46.3719C54.5283 46.4611 54.4351 46.5494 54.3414 46.6367L54.2005 46.767C54.3418 46.6374 54.482 46.5057 54.6209 46.3719ZM55.7062 45.26C55.6621 45.3081 55.6178 45.3561 55.5734 45.4037L55.4398 45.546C55.4845 45.4987 55.529 45.4514 55.5734 45.4037L55.7062 45.26ZM61.9135 43.7289C61.7797 43.9364 61.6439 44.1419 61.506 44.3451C61.5519 44.2774 61.5977 44.2093 61.6431 44.1412C61.7342 44.0047 61.8243 43.8673 61.9135 43.7289ZM56.9859 43.7532C56.9036 43.8579 56.8207 43.9619 56.7371 44.0649C56.7789 44.0134 56.8204 43.9615 56.8619 43.9096L56.9859 43.7532ZM63.5334 40.9136C63.1497 41.665 62.741 42.3942 62.3089 43.1C62.6978 42.4648 63.0677 41.8106 63.4175 41.1384L63.5334 40.9136ZM59.2655 40.3654C59.0227 40.7888 58.7716 41.2025 58.5123 41.6064L58.4006 41.7789C58.6622 41.3779 58.9157 40.9668 59.1608 40.5462L59.2655 40.3654ZM59.0577 39.2787C59.1632 39.4568 59.2674 39.6367 59.3699 39.8183L59.4715 40.0001C59.3364 39.7566 59.1983 39.5161 59.0577 39.2787ZM62.1784 36.6891C62.2433 36.7933 62.3076 36.8981 62.3715 37.0034C62.3505 36.9689 62.3297 36.9345 62.3087 36.9001L62.1784 36.6891ZM19.4928 34.2682L19.4929 34.2683C19.4439 34.3326 19.3951 34.3971 19.3465 34.4619C19.2979 34.5267 19.2495 34.5918 19.2013 34.6571L19.0574 34.8538C19.2006 34.6564 19.3457 34.4611 19.4928 34.2682ZM22.5053 30.878C22.3923 30.987 22.2801 31.097 22.1686 31.2082C22.2243 31.1526 22.2803 31.0973 22.3364 31.0422L22.5053 30.878Z" fill="white"/>
<path d="M40 30.4081C45.3586 30.4081 49.7031 34.7525 49.7031 40.1112C49.7031 45.4698 45.3586 49.8141 40 49.8141C34.6414 49.8141 30.2971 45.4698 30.2971 40.1112C30.2971 34.7525 34.6414 30.4081 40 30.4081ZM39.953 32.5C35.837 32.5 32.5 35.837 32.5 39.9532C32.5 44.0692 35.837 47.4062 39.953 47.4062C44.0691 47.4062 47.4062 44.0692 47.4062 39.9532C47.4062 35.837 44.0691 32.5 39.953 32.5Z" fill="#D6D6D6"/>
<path d="M39.9999 33.2076C36.2487 33.2076 33.2075 36.2489 33.2075 40.0002C33.2075 43.7513 36.2487 46.7925 39.9999 46.7925C43.7511 46.7925 46.7924 43.7513 46.7924 40.0002C46.7924 36.2489 43.7511 33.2076 39.9999 33.2076Z" fill="#9A9A9A"/>
<path d="M40.076 35.5474C37.5753 35.5474 35.5478 37.5748 35.5478 40.0757C35.5478 42.5765 37.5753 44.604 40.076 44.604C42.5768 44.604 44.6044 42.5765 44.6044 40.0757C44.6044 37.5748 42.5768 35.5474 40.076 35.5474Z" fill="white"/>
</svg>
