<svg width="48" height="48" viewBox="0 0 48 48" fill="none" xmlns="http://www.w3.org/2000/svg">
<path d="M44.7562 15.5766L44.5165 15.5618C44.4169 15.5558 44.32 15.5532 44.2249 15.5532C42.9656 15.5532 41.7566 16.0421 40.84 16.911L40.8365 16.9076L31.647 24.8024C30.1801 23.0204 28.2111 21.6582 25.9894 21.144C26.2569 21.2046 26.5251 21.2643 25.954 21.1345C25.5265 21.0393 25.6961 21.0783 25.9211 21.1285C22.3164 20.3444 19.019 22.4716 18.4088 26.13C17.2734 25.5796 15.5563 25.8254 15.2092 24.6934C14.6008 22.708 13.4463 20.8889 11.9344 19.4694C11.2861 18.861 10.5175 18.315 9.68848 17.8761L17.7407 12.3709L17.7537 12.3614C18.1864 12.048 18.7039 11.8828 19.2302 11.8828C19.3989 11.8828 19.5668 11.901 19.7347 11.9347L22.5726 12.7258L23.1905 10.5066L20.2601 9.68967L20.2247 9.68273C19.8949 9.61261 19.5617 9.57886 19.2302 9.57886C18.2331 9.57886 17.2525 9.89039 16.4287 10.479L16.4278 10.4772L6.99514 16.9267C5.0202 16.5727 3.0132 16.9846 1.54789 18.7018C-4.13908 25.3667 7.18207 39.2428 13.8912 32.448C14.6952 31.6344 15.2171 30.5819 15.4706 29.4733C15.6515 28.6822 15.288 27.8687 16.2711 27.9285C18.0973 28.0245 18.241 28.619 18.6945 30.2227C19.8654 34.3588 23.6787 38.3278 28.1878 38.4195C32.8743 38.5147 34.9972 33.9156 34.1092 29.8064C33.8799 28.7453 33.4801 27.7041 32.946 26.7253L42.3658 18.6315L42.3934 18.6055C42.8712 18.1381 43.5056 17.8785 44.1668 17.8629L46.9492 19.2883L48 17.2374L44.7562 15.5766ZM11.9585 30.6286C6.86876 35.1343 -1.17658 24.6578 3.67348 20.282C4.84526 19.2166 6.1842 18.9708 7.48845 19.2668L7.54114 19.3439L7.61126 19.2962C11.9006 20.3816 15.7485 27.3131 11.9585 30.6286ZM30.4829 34.9594C25.2027 39.4409 17.0128 28.9099 22.0681 24.4725C27.3041 19.8588 35.6472 30.5282 30.4829 34.9594Z" fill="white"/>
</svg>
