<svg width="80" height="80" viewBox="0 0 80 80" fill="none" xmlns="http://www.w3.org/2000/svg">
<rect width="80" height="80" rx="40" fill="#19275B"/>
<g clip-path="url(#clip0_1_2185)">
<path d="M55.7304 38.5389L55.767 38.5789C56.5231 39.4255 56.4701 40.7255 55.6381 41.5073C54.8061 42.2891 53.5053 42.2613 52.7073 41.4541L52.6697 41.415L32.7697 20.238C31.9755 19.3928 32.0168 18.0638 32.862 17.2696C33.7071 16.4754 35.0361 16.5167 35.8304 17.3619L55.7304 38.5389Z" fill="white"/>
<path d="M55.7304 41.4151L55.767 41.3751C56.5231 40.5285 56.4701 39.2285 55.6381 38.4467C54.8061 37.6649 53.5053 37.6927 52.7073 38.4999L52.6697 38.539L32.7697 59.716C31.9755 60.5611 32.0168 61.8901 32.862 62.6844C33.7071 63.4786 35.0361 63.4373 35.8304 62.5921L55.7304 41.4151Z" fill="white"/>
<path d="M41.5435 26.3757C35.053 27.0767 30 32.5732 30 39.25C30 46.4021 35.7979 52.2 42.95 52.2C43.1634 52.2 43.3756 52.1946 43.5865 52.1844L40.0928 56.1628C31.9811 54.8025 25.8 47.7482 25.8 39.25C25.8 31.3756 31.107 24.741 38.3394 22.7272L41.5435 26.3757Z" fill="white"/>
<path d="M38.1 39.4C38.1 44.3153 35.7943 48.3 32.95 48.3C30.1057 48.3 27.8 44.3153 27.8 39.4C27.8 34.4847 30.1057 30.5 32.95 30.5C35.7943 30.5 38.1 34.4847 38.1 39.4Z" fill="white"/>
<path d="M42.0388 42.541L42.5513 42.1467L42.6312 42.0845C43.119 41.7047 43.9073 41.7921 44.2562 42.2645C44.3362 42.3729 44.444 42.4655 44.5721 42.5359L45.1406 42.8483C45.2025 42.8823 45.2692 42.91 45.3392 42.9306C46.0005 43.1253 46.1559 43.8381 45.6182 44.2104L45.405 44.3581C44.7798 44.7876 43.9072 44.8746 43.1757 44.5805L42.3997 44.2685C42.1636 44.1735 41.8987 44.1383 41.6384 44.1673L41.0282 44.2353C40.4714 44.2973 39.9941 43.9078 40.0638 43.4482C40.1159 43.1047 40.4623 42.8431 40.8819 42.8303L41.2254 42.8198C41.5284 42.8105 41.8172 42.7116 42.0388 42.541Z" fill="white" fill-opacity="0.7"/>
<path d="M43.1507 44.6228C43.8788 44.9156 44.7432 44.8407 45.3806 44.4345L45.4416 44.3942L45.6549 44.2464C46.2263 43.8507 46.0612 43.0932 45.3584 42.8863C45.2928 42.867 45.2302 42.841 45.1722 42.8092L44.6037 42.4967C44.4826 42.4302 44.3807 42.3425 44.305 42.2401C43.9372 41.742 43.1062 41.65 42.592 42.0503L42.512 42.1125L41.9999 42.5066C41.7883 42.6694 41.5126 42.7639 41.2233 42.7727L40.8797 42.7833C40.4322 42.7969 40.0628 43.076 40.0072 43.4423C39.9329 43.9326 40.4419 44.348 41.0359 44.2819L41.646 44.2139C41.8952 44.1861 42.1487 44.2199 42.3747 44.3107L43.1507 44.6228ZM45.3684 44.3219C44.7605 44.7395 43.9119 44.8242 43.2007 44.5382L42.4248 44.2261C42.1785 44.1271 41.9022 44.0905 41.6307 44.1207L41.0206 44.1886C40.5009 44.2465 40.0555 43.883 40.1205 43.454C40.1691 43.1335 40.4924 42.8892 40.884 42.8773L41.2275 42.8668C41.5442 42.8571 41.8461 42.7536 42.0777 42.5754L42.5902 42.1811L42.6704 42.1187C43.1318 41.7595 43.8775 41.8421 44.2074 42.289C44.2918 42.4032 44.4054 42.5009 44.5404 42.575L45.1089 42.8875C45.1746 42.9236 45.2455 42.953 45.3199 42.9749C45.9397 43.1573 46.0854 43.8254 45.5815 44.1744L45.3684 44.3219Z" fill="white" fill-opacity="0.7"/>
</g>
<defs>
<clipPath id="clip0_1_2185">
<rect width="48" height="48" fill="white" transform="translate(16 16)"/>
</clipPath>
</defs>
</svg>
