<svg width="80" height="80" viewBox="0 0 80 80" fill="none" xmlns="http://www.w3.org/2000/svg">
<rect width="80" height="80" rx="40" fill="#19275B"/>
<path d="M35.2178 40.6504C35.2178 39.672 34.4251 38.8795 33.4467 38.8795C32.4691 38.8795 31.6756 39.672 31.6756 40.6504C31.6756 41.628 32.4691 42.4211 33.4467 42.4211C34.4251 42.4211 35.2178 41.628 35.2178 40.6504Z" fill="white"/>
<path d="M46.5533 38.8795C45.5757 38.8795 44.7822 39.672 44.7822 40.6504C44.7822 41.628 45.5757 42.4211 46.5533 42.4211C47.5317 42.4211 48.3244 41.628 48.3244 40.6504C48.3244 39.672 47.5316 38.8795 46.5533 38.8795Z" fill="white"/>
<path d="M62.3141 37.642C61.3686 36.6941 60.0802 36.0788 58.6584 35.977C57.7727 31.8173 55.5616 28.1488 52.4698 25.4601C49.0921 22.5209 44.6668 20.7379 39.8374 20.7386C35.0152 20.7379 30.5954 22.5156 27.2193 25.4479C24.1116 28.1441 21.892 31.8296 21.01 36.0096C19.7206 36.1779 18.5577 36.7688 17.6858 37.642C16.6463 38.68 15.9993 40.1272 16 41.7128C15.9993 43.2976 16.6463 44.7461 17.686 45.7828C18.7237 46.8229 20.1712 47.4695 21.7564 47.4688C21.8688 47.4688 21.9746 47.4525 22.0846 47.4458C23.4707 50.7465 25.7367 53.5819 28.6032 55.6451C31.7625 57.9207 35.6494 59.2619 39.8375 59.2613C44.0444 59.2619 47.9459 57.9077 51.1129 55.6152C53.9652 53.5506 56.2201 50.72 57.5988 47.4275C57.8103 47.4519 58.0244 47.4688 58.2436 47.4688C59.8291 47.4695 61.2769 46.8229 62.314 45.7828C63.3537 44.7461 64.0007 43.2976 63.9999 41.7128C64.0007 40.1272 63.3538 38.68 62.3141 37.642ZM42.7009 23.6493C42.7959 23.7592 42.895 23.8834 42.9933 24.032C43.413 24.6684 43.836 25.6684 43.8384 27.2506C43.8388 28.4454 43.5853 29.9808 42.877 31.9109C40.6405 30.1103 39.3568 28.4507 38.6349 27.0836C37.8485 25.5924 37.7064 24.4397 37.7054 23.772C37.7054 23.6859 37.7094 23.616 37.7135 23.5467C38.4103 23.4572 39.1157 23.3954 39.8374 23.3954C40.8155 23.3955 41.7705 23.4871 42.7009 23.6493ZM37.2251 27.8279C37.6271 28.5898 38.1767 29.4108 38.8927 30.2677C38.1749 29.9773 37.455 29.7059 36.7787 29.4196C35.6229 28.9325 34.6096 28.3884 33.9223 27.6631C33.5763 27.2995 33.3052 26.8931 33.1115 26.4011C32.9527 25.9941 32.851 25.5178 32.8184 24.9574C33.8615 24.4703 34.9653 24.0951 36.1134 23.8318C36.1205 24.7342 36.3322 26.1386 37.2251 27.8279ZM60.4354 43.9042C59.8706 44.4672 59.1042 44.8112 58.2437 44.8126C57.8884 44.8119 57.5468 44.7489 57.2171 44.6336L55.9596 44.1912L55.5224 45.4505C54.3951 48.6942 52.2878 51.4855 49.5553 53.4631C46.8214 55.4402 43.4725 56.6037 39.8376 56.6044C36.2187 56.6037 32.8827 55.4503 30.1553 53.4889C27.4293 51.5275 25.3212 48.7572 24.1824 45.5359L23.7699 44.3703L22.5779 44.698C22.3058 44.7719 22.034 44.8127 21.7565 44.8127C20.8959 44.8113 20.1303 44.4673 19.5648 43.9043C19.002 43.3391 18.658 42.5731 18.6573 41.7128C18.658 40.8525 19.002 40.0864 19.5648 39.5206C20.1303 38.9581 20.8959 38.6141 21.7565 38.6135C21.8108 38.6128 21.8916 38.6176 22.0035 38.6264L23.2359 38.7235L23.4212 37.5002C24.0227 33.5101 26.0455 29.9848 28.9608 27.4541C29.6895 26.8226 30.4727 26.2533 31.3028 25.7546C31.3748 26.2044 31.4856 26.6264 31.6407 27.0145C31.8853 27.6298 32.2286 28.1631 32.6357 28.6183C33.3491 29.4176 34.2412 29.9794 35.1724 30.4401C36.5724 31.128 38.0837 31.6036 39.3538 32.1966C39.9888 32.4917 40.5607 32.812 41.0289 33.1811C41.4991 33.5522 41.8657 33.964 42.1269 34.464C42.2673 34.7347 42.5476 34.9002 42.8529 34.8934C43.1576 34.886 43.4303 34.7076 43.5575 34.43C44.9358 31.4448 45.4321 29.0959 45.4328 27.2505C45.4349 26.0007 45.2011 24.9865 44.8711 24.1879C47.05 24.8813 49.0392 25.998 50.7269 27.4648C53.6436 30.0023 55.6645 33.5378 56.2591 37.536L56.4548 38.8556L57.7733 38.6541C57.949 38.6276 58.1044 38.6134 58.2436 38.6134C59.1042 38.6141 59.8705 38.958 60.4353 39.5205C60.9984 40.0863 61.3424 40.8523 61.3434 41.7127C61.3425 42.5731 60.9985 43.3391 60.4354 43.9042Z" fill="white"/>
<path d="M44.8602 46.69C43.753 48.224 41.956 49.1793 40 49.1787C38.0474 49.1794 36.2474 48.2234 35.1392 46.6895C34.8382 46.2735 34.2572 46.1799 33.8413 46.4805C33.4247 46.7817 33.3315 47.3625 33.6319 47.779C35.0832 49.788 37.4365 51.0383 40 51.0383C42.5666 51.0383 44.9178 49.7879 46.3684 47.7783C46.669 47.3616 46.5754 46.781 46.1588 46.4804C45.7422 46.1798 45.1607 46.2734 44.8602 46.69Z" fill="white"/>
<path d="M35.2178 40.6504C35.2178 39.672 34.4251 38.8795 33.4467 38.8795C32.4691 38.8795 31.6756 39.672 31.6756 40.6504C31.6756 41.628 32.4691 42.4211 33.4467 42.4211C34.4251 42.4211 35.2178 41.628 35.2178 40.6504Z" fill="white"/>
<path d="M46.5533 38.8795C45.5757 38.8795 44.7822 39.672 44.7822 40.6504C44.7822 41.628 45.5757 42.4211 46.5533 42.4211C47.5317 42.4211 48.3244 41.628 48.3244 40.6504C48.3244 39.672 47.5316 38.8795 46.5533 38.8795Z" fill="white"/>
<path d="M62.3141 37.642C61.3686 36.6941 60.0802 36.0788 58.6584 35.977C57.7727 31.8173 55.5616 28.1488 52.4698 25.4601C49.0921 22.5209 44.6668 20.7379 39.8374 20.7386C35.0152 20.7379 30.5954 22.5156 27.2193 25.4479C24.1116 28.1441 21.892 31.8296 21.01 36.0096C19.7206 36.1779 18.5577 36.7688 17.6858 37.642C16.6463 38.68 15.9993 40.1272 16 41.7128C15.9993 43.2976 16.6463 44.7461 17.686 45.7828C18.7237 46.8229 20.1712 47.4695 21.7564 47.4688C21.8688 47.4688 21.9746 47.4525 22.0846 47.4458C23.4707 50.7465 25.7367 53.5819 28.6032 55.6451C31.7625 57.9207 35.6494 59.2619 39.8375 59.2613C44.0444 59.2619 47.9459 57.9077 51.1129 55.6152C53.9652 53.5506 56.2201 50.72 57.5988 47.4275C57.8103 47.4519 58.0244 47.4688 58.2436 47.4688C59.8291 47.4695 61.2769 46.8229 62.314 45.7828C63.3537 44.7461 64.0007 43.2976 63.9999 41.7128C64.0007 40.1272 63.3538 38.68 62.3141 37.642ZM42.7009 23.6493C42.7959 23.7592 42.895 23.8834 42.9933 24.032C43.413 24.6684 43.836 25.6684 43.8384 27.2506C43.8388 28.4454 43.5853 29.9808 42.877 31.9109C40.6405 30.1103 39.3568 28.4507 38.6349 27.0836C37.8485 25.5924 37.7064 24.4397 37.7054 23.772C37.7054 23.6859 37.7094 23.616 37.7135 23.5467C38.4103 23.4572 39.1157 23.3954 39.8374 23.3954C40.8155 23.3955 41.7705 23.4871 42.7009 23.6493ZM37.2251 27.8279C37.6271 28.5898 38.1767 29.4108 38.8927 30.2677C38.1749 29.9773 37.455 29.7059 36.7787 29.4196C35.6229 28.9325 34.6096 28.3884 33.9223 27.6631C33.5763 27.2995 33.3052 26.8931 33.1115 26.4011C32.9527 25.9941 32.851 25.5178 32.8184 24.9574C33.8615 24.4703 34.9653 24.0951 36.1134 23.8318C36.1205 24.7342 36.3322 26.1386 37.2251 27.8279ZM60.4354 43.9042C59.8706 44.4672 59.1042 44.8112 58.2437 44.8126C57.8884 44.8119 57.5468 44.7489 57.2171 44.6336L55.9596 44.1912L55.5224 45.4505C54.3951 48.6942 52.2878 51.4855 49.5553 53.4631C46.8214 55.4402 43.4725 56.6037 39.8376 56.6044C36.2187 56.6037 32.8827 55.4503 30.1553 53.4889C27.4293 51.5275 25.3212 48.7572 24.1824 45.5359L23.7699 44.3703L22.5779 44.698C22.3058 44.7719 22.034 44.8127 21.7565 44.8127C20.8959 44.8113 20.1303 44.4673 19.5648 43.9043C19.002 43.3391 18.658 42.5731 18.6573 41.7128C18.658 40.8525 19.002 40.0864 19.5648 39.5206C20.1303 38.9581 20.8959 38.6141 21.7565 38.6135C21.8108 38.6128 21.8916 38.6176 22.0035 38.6264L23.2359 38.7235L23.4212 37.5002C24.0227 33.5101 26.0455 29.9848 28.9608 27.4541C29.6895 26.8226 30.4727 26.2533 31.3028 25.7546C31.3748 26.2044 31.4856 26.6264 31.6407 27.0145C31.8853 27.6298 32.2286 28.1631 32.6357 28.6183C33.3491 29.4176 34.2412 29.9794 35.1724 30.4401C36.5724 31.128 38.0837 31.6036 39.3538 32.1966C39.9888 32.4917 40.5607 32.812 41.0289 33.1811C41.4991 33.5522 41.8657 33.964 42.1269 34.464C42.2673 34.7347 42.5476 34.9002 42.8529 34.8934C43.1576 34.886 43.4303 34.7076 43.5575 34.43C44.9358 31.4448 45.4321 29.0959 45.4328 27.2505C45.4349 26.0007 45.2011 24.9865 44.8711 24.1879C47.05 24.8813 49.0392 25.998 50.7269 27.4648C53.6436 30.0023 55.6645 33.5378 56.2591 37.536L56.4548 38.8556L57.7733 38.6541C57.949 38.6276 58.1044 38.6134 58.2436 38.6134C59.1042 38.6141 59.8705 38.958 60.4353 39.5205C60.9984 40.0863 61.3424 40.8523 61.3434 41.7127C61.3425 42.5731 60.9985 43.3391 60.4354 43.9042Z" fill="white"/>
<path d="M44.8602 46.69C43.753 48.224 41.956 49.1793 40 49.1787C38.0474 49.1794 36.2474 48.2234 35.1392 46.6895C34.8382 46.2735 34.2572 46.1799 33.8413 46.4805C33.4247 46.7817 33.3315 47.3625 33.6319 47.779C35.0832 49.788 37.4365 51.0383 40 51.0383C42.5666 51.0383 44.9178 49.7879 46.3684 47.7783C46.669 47.3616 46.5754 46.781 46.1588 46.4804C45.7422 46.1798 45.1607 46.2734 44.8602 46.69Z" fill="white"/>
</svg>
