<svg width="80" height="80" viewBox="0 0 80 80" fill="none" xmlns="http://www.w3.org/2000/svg">
<rect width="80" height="80" rx="40" fill="#B5B5B5"/>
<path d="M37.1035 16C38.0327 16 38.8414 16.3645 39.2599 16.9022C41.4929 17.2465 43.5348 18.3797 45.0097 20.1039L46.553 21.9079C46.9374 22.3573 47.2794 22.8414 47.5748 23.3537L48.9606 25.7575C49.8011 27.2156 50.2435 28.869 50.2435 30.552V31.1211L50.6435 34.9487C51.3137 36.4187 51.6873 38.0524 51.6873 39.7734C51.6873 46.2036 46.4738 51.4169 40.0435 51.4169C37.4234 51.4169 35.0054 50.5512 33.0598 49.0905L32.0733 49.8327C32.1341 51.0454 32.4817 52.2284 33.09 53.2836L34.4756 55.6873C34.7119 56.0972 34.9857 56.4845 35.2932 56.8441L36.8365 58.648C37.9958 60.0033 39.5945 60.9006 41.3455 61.1884C41.7958 60.7816 42.4964 60.52 43.2835 60.52C44.6422 60.52 45.7435 61.299 45.7435 62.26C45.7435 63.221 44.6422 64 43.2835 64C42.3544 64 41.5457 63.6355 41.1272 63.0978C38.8942 62.7535 36.8523 61.6203 35.3774 59.8961L33.8341 58.0921C33.4497 57.6427 33.1076 57.1586 32.8123 56.6462L31.4265 54.2425C30.586 52.7844 30.1435 51.131 30.1435 49.448V48.8789L29.7639 45.2457C28.8935 43.6143 28.4 41.7514 28.4 39.7734C28.4 33.3429 33.6133 28.1296 40.0435 28.1296C42.8652 28.1296 45.4526 29.1335 47.468 30.8035L48.3138 30.1673C48.253 28.9546 47.9053 27.7716 47.2971 26.7164L45.9115 24.3127C45.6752 23.9028 45.4014 23.5155 45.0939 23.1559L43.5506 21.352C42.3913 19.9967 40.7926 19.0994 39.0416 18.8116C38.5913 19.2184 37.8906 19.48 37.1035 19.48C35.7449 19.48 34.6435 18.701 34.6435 17.74C34.6435 16.779 35.7449 16 37.1035 16ZM39.9872 30.6399C35.0479 30.6399 31.0435 34.6443 31.0435 39.5837C31.0436 44.523 35.048 48.5274 39.9872 48.5274C44.9264 48.5274 48.931 44.523 48.931 39.5837C48.931 34.6443 44.9264 30.6399 39.9872 30.6399Z" fill="white"/>
<path d="M40.0434 31.4891C35.542 31.4891 31.8926 35.1386 31.8926 39.6402C31.8926 44.1416 35.542 47.791 40.0434 47.791C44.5449 47.791 48.1945 44.1416 48.1945 39.6402C48.1945 35.1386 44.5449 31.4891 40.0434 31.4891Z" fill="white"/>
<path d="M40.1348 34.2969C37.1339 34.2969 34.7009 36.7298 34.7009 39.7309C34.7009 42.7318 37.1339 45.1648 40.1348 45.1648C43.1358 45.1648 45.5689 42.7318 45.5689 39.7309C45.5689 36.7298 43.1358 34.2969 40.1348 34.2969Z" fill="white" fill-opacity="0.7"/>
</svg>
