<svg width="80" height="80" viewBox="0 0 80 80" fill="none" xmlns="http://www.w3.org/2000/svg">
<rect width="80" height="80" rx="40" fill="#B5B5B5"/>
<circle cx="40.3008" cy="39.8867" r="15.5" stroke="white" stroke-width="2"/>
<path d="M25.3008 33.1367C25.8028 33.1367 26.4899 33.6024 27.0957 34.9004C27.6731 36.1377 28.0508 37.9 28.0508 39.8867C28.0508 41.8735 27.6731 43.6357 27.0957 44.873C26.4899 46.1711 25.8028 46.6367 25.3008 46.6367C24.7988 46.6367 24.1117 46.1711 23.5059 44.873C22.9284 43.6357 22.5508 41.8735 22.5508 39.8867C22.5508 37.9 22.9284 36.1377 23.5059 34.9004C24.1117 33.6024 24.7988 33.1367 25.3008 33.1367Z" fill="white" stroke="white" stroke-width="1.5"/>
<path d="M17.8008 32.8867H25.3008L55.3008 40.3867L25.3008 47.3867H17.8008" stroke="white" stroke-dasharray="2 2"/>
</svg>
