<svg width="48" height="48" viewBox="0 0 48 48" fill="none" xmlns="http://www.w3.org/2000/svg">
<path d="M5.59798 13.8876L10.1455 13.8876C11.9296 13.8876 13.534 12.8012 14.1964 11.1446V11.1446C15.1939 8.6497 18.1879 7.64087 20.4919 9.02328L21.0039 9.33047C22.5929 10.2838 24.5851 10.2531 26.1439 9.25118L30.5996 6.38726" stroke="white" stroke-width="2"/>
<path d="M44.1412 42.6082L40.4875 39.9007C39.0541 38.8384 38.4118 37.0104 38.866 35.285V35.285C39.5499 32.6866 37.745 30.0935 35.0708 29.8324L34.4766 29.7744C32.6323 29.5943 31.05 28.3835 30.3941 26.6504L28.5193 21.6966" stroke="white" stroke-width="2"/>
<circle cx="15.0996" cy="27.3867" r="1.5" fill="white"/>
<circle cx="7.09961" cy="32.3867" r="1.5" fill="white"/>
<circle cx="17.0996" cy="40.3867" r="1.5" fill="white"/>
</svg>
