<svg width="80" height="80" viewBox="0 0 80 80" fill="none" xmlns="http://www.w3.org/2000/svg">
<rect width="80" height="80" rx="40" fill="#19275B"/>
<path d="M53.9637 37.6252C56.1438 38.9907 59.4913 40.5603 64 41.1871C60.9767 38.8197 58.9452 36.6091 57.6726 34.9974C59.013 33.8639 60.2442 32.6049 61.3335 31.228L57.8164 28.4429C55.8188 30.9662 53.2757 33.0378 50.3699 34.4772C47.4626 35.9159 44.1962 36.7245 40.7245 36.7258C37.2532 36.7245 33.9865 35.9159 31.0792 34.4772C28.173 33.0378 25.6296 30.9662 23.6327 28.4429L20.115 31.228C20.9656 32.3025 21.9026 33.3049 22.9079 34.2343C21.7125 35.867 19.534 38.4195 16 41.1871C21.0203 40.489 24.6014 38.623 26.7331 37.1701C27.4935 37.6502 28.2776 38.0967 29.0882 38.4975C29.2052 38.5551 29.3239 38.6107 29.442 38.6664C29.0987 40.7054 28.2553 44.3385 26.2967 47.5442C30.1061 45.8538 32.7902 42.448 34.1506 40.3791C35.1708 40.6423 36.2147 40.8452 37.2783 40.9848L39.9996 51.557L42.683 41.1367C43.8246 41.0526 44.9476 40.8973 46.0455 40.6714C47.4587 42.7566 50.0689 45.9311 53.704 47.5441C51.9234 44.63 51.0647 41.3633 50.6652 39.2612C51.2403 39.0258 51.8074 38.7721 52.3617 38.4974C52.9075 38.2269 53.4393 37.9311 53.9637 37.6252Z" fill="white"/>
</svg>
