<svg width="48" height="48" viewBox="0 0 48 48" fill="none" xmlns="http://www.w3.org/2000/svg">
<path d="M32.8536 24.6028L32.2023 23.281L31.8171 22.4968V19.9658C31.8171 19.5076 31.6376 19.0825 31.3388 18.7636L31.3588 18.7437C31.6509 18.4447 31.817 18.0529 31.817 17.6409V16.9502L31.7707 16.8438C31.6711 16.4386 31.4184 16.0933 31.073 15.8808L30.9333 13.6752L30.8407 12.26L30.7208 10.3868L30.6411 9.09147C30.6143 8.63321 30.568 7.88887 30.0767 7.5105C30.0234 7.45038 29.9634 7.38411 29.9236 7.32435L29.9171 7.26467H29.8708C28.7344 5.95589 28.0237 4.30829 27.9042 2.68091C27.838 1.7374 27.0409 1 26.0975 1H22.8891C22.8358 1 22.7827 1.00686 22.7363 1.01336C22.7095 1.01336 22.69 1.01986 22.6632 1.02681C22.6498 1.02681 22.643 1.02681 22.6299 1.03331C21.8063 1.1597 21.1554 1.83698 21.0953 2.68741C20.9823 4.3017 20.2716 5.94938 19.1356 7.26458H19.0892L19.0824 7.32426C18.9963 7.42384 18.9032 7.52342 18.8101 7.62326C18.4448 7.98168 18.438 8.04145 18.1592 12.2598L18.0662 13.6751H18.0727L17.9333 15.8806C17.5814 16.0931 17.3222 16.4384 17.2292 16.8505L17.1893 16.95L17.1828 17.2223V17.6409C17.1828 18.0528 17.349 18.4446 17.6412 18.7436L17.6676 18.7635C17.3686 19.0824 17.1828 19.5075 17.1828 19.9657V22.4967L16.7973 23.2809L16.1529 24.6027C15.9607 24.9878 15.8542 25.4266 15.8542 25.8582V41.5226C15.8542 44.5984 18.1061 45.9999 20.199 45.9999H28.8013C30.8938 45.9999 33.1461 44.5984 33.1461 41.5226V25.8583C33.1459 25.4267 33.0463 24.988 32.8536 24.6028ZM20.7433 9.23729V11.0178V13.2033V13.4093H20.1322V13.2033V13.1899V12.539V12.3464V11.6821V9.23729H20.2915H20.7433ZM25.6192 9.23729V13.4094H25.008V9.23729H25.6192ZM22.3711 9.23729V13.4094H21.753V9.23729H22.3711ZM23.9984 9.23729V13.4094H23.3808V9.23729H23.9984ZM26.6288 13.4094V9.23729H27.2468V13.4094H26.6288ZM28.8746 9.23729V11.6821V12.3464V12.539V13.1899V13.2033V13.4093H28.2567V13.2033V11.0178V9.23729H28.7084H28.8746ZM28.8012 44.6714H20.1989C18.7703 44.6714 17.1827 43.768 17.1827 41.5227V39.8967H31.8172V41.5227C31.8172 43.7681 30.2293 44.6714 28.8012 44.6714ZM31.8172 27.9646V39.2324H17.1827V27.9646H31.8172ZM30.5019 17.4747C30.5019 17.4946 30.5019 17.5149 30.4886 17.5348C30.4751 17.601 30.4288 17.6542 30.3691 17.6807C30.3358 17.7006 30.3029 17.7075 30.263 17.7075H29.7048H29.0408H19.9661H19.3018H18.7371C18.7041 17.7075 18.6643 17.7006 18.6375 17.6807C18.5647 17.6542 18.518 17.5811 18.5114 17.5016C18.5046 17.4947 18.5046 17.4816 18.5046 17.4747V17.0566C18.5046 17.0432 18.5046 17.0298 18.5114 17.0164C18.5248 16.9035 18.6179 16.8172 18.737 16.8172H19.2022H19.966H29.0407H29.7978H30.263C30.3825 16.8172 30.4821 16.9035 30.4954 17.0164C30.5019 17.0298 30.5019 17.0432 30.5019 17.0566V17.4747ZM30.5019 22.8357L31.0135 23.8722L31.6579 25.1875C31.7639 25.3935 31.8172 25.6259 31.8172 25.8584V27.2999H17.1827V25.8584C17.1827 25.6259 17.2425 25.3935 17.3421 25.1875L17.993 23.8722L18.498 22.8357H30.5019Z" fill="white"/>
</svg>
