<svg width="48" height="48" viewBox="0 0 48 48" fill="none" xmlns="http://www.w3.org/2000/svg">
<circle cx="24.3008" cy="23.8867" r="15.5" stroke="white" stroke-width="2"/>
<path d="M9.30078 17.1367C9.80277 17.1367 10.4899 17.6024 11.0957 18.9004C11.6731 20.1377 12.0508 21.9 12.0508 23.8867C12.0508 25.8735 11.6731 27.6357 11.0957 28.873C10.4899 30.1711 9.80277 30.6367 9.30078 30.6367C8.7988 30.6367 8.11166 30.1711 7.50586 28.873C6.92844 27.6357 6.55078 25.8735 6.55078 23.8867C6.55078 21.9 6.92844 20.1377 7.50586 18.9004C8.11166 17.6024 8.7988 17.1367 9.30078 17.1367Z" fill="white" stroke="white" stroke-width="1.5"/>
<path d="M1.80078 16.8867H9.30078L39.3008 24.3867L9.30078 31.3867H1.80078" stroke="white" stroke-dasharray="2 2"/>
</svg>
