<svg width="48" height="48" viewBox="0 0 48 48" fill="none" xmlns="http://www.w3.org/2000/svg">
<g clip-path="url(#clip0_11_3057)">
<path d="M45.7123 24.7495C44.9584 23.4952 43.8089 22.8554 42.8719 22.5464C42.5923 22.4549 42.3346 22.3936 42.091 22.3448C42.091 21.25 42.091 19.5539 42.091 18.0006C42.0852 15.6497 41.5688 11.6272 39.0079 8.04956C38.2986 7.06806 37.333 6.20741 36.2104 5.43252C34.5252 4.27552 32.4784 3.31924 30.3591 2.6349C28.2382 1.95328 26.0511 1.54351 24.0578 1.5426C21.4022 1.54768 18.3921 2.26632 15.6709 3.40653C12.9556 4.56352 10.5308 6.09998 9.10687 8.04956C6.54608 11.6272 6.0296 15.6497 6.0238 18.0006C6.0238 19.4507 6.0238 21.0275 6.0238 22.1223C5.22703 22.1526 4.20433 22.3171 3.25059 23.0208C2.73166 23.4079 2.26573 23.9635 1.9584 24.6605C1.64862 25.3574 1.48901 26.1785 1.48901 27.1257C1.48901 27.7747 1.56296 28.4858 1.71658 29.2741C2.22036 31.9021 3.59222 33.7502 5.08594 34.944C6.33276 35.9491 7.63756 36.5275 8.66271 36.9189C9.47545 39.1707 10.2848 40.8364 11.2202 42.1739C12.232 43.6256 13.3906 44.6634 14.6962 45.5987L14.7272 45.6206L14.7549 45.6391C14.8809 45.7138 18.4744 47.995 24.0579 48.0001C29.6406 47.995 33.2341 45.7138 33.3592 45.6391L33.391 45.6181L33.4188 45.5987C34.695 44.6835 35.8562 43.7272 36.8805 42.2982C37.8275 40.9793 38.642 39.2992 39.4614 36.9206C40.4883 36.536 41.8342 35.9709 43.1121 34.9718C43.8786 34.3706 44.6141 33.6117 45.2036 32.6537C45.7922 31.6956 46.2272 30.5436 46.4102 29.2028C46.474 28.7402 46.5051 28.3028 46.5051 27.888C46.5075 26.637 46.2144 25.5783 45.7123 24.7495ZM43.8358 28.8477C43.6972 29.8493 43.3916 30.6344 42.9887 31.2934C42.3857 32.2757 41.5361 32.987 40.6251 33.5268C39.7141 34.0667 38.7594 34.4193 37.9938 34.6913L37.3951 34.9054L37.1969 35.5107C36.3549 38.0758 35.5782 39.6593 34.7704 40.781C33.9686 41.8926 33.1172 42.6123 31.9325 43.466C31.632 43.6491 28.5749 45.4073 24.0578 45.4014C21.6296 45.4023 19.6254 44.8985 18.2392 44.3998C17.5465 44.1495 17.0093 43.9019 16.6523 43.7213C16.4736 43.6306 16.3408 43.5576 16.2569 43.5097L16.1856 43.4669C15.0286 42.6315 14.1671 41.8473 13.3501 40.6836C12.5289 39.5115 11.749 37.9145 10.9127 35.4915L10.7078 34.9012L10.121 34.6913C9.12348 34.3377 7.82875 33.8206 6.71803 32.9222C5.60795 32.0154 4.66854 30.7854 4.26794 28.7762C4.13945 28.1247 4.08746 27.5764 4.08746 27.1256C4.08746 26.4639 4.19743 26.018 4.33263 25.7167C4.53924 25.2716 4.77761 25.0836 5.11606 24.9224C5.45016 24.7688 5.89359 24.7057 6.27469 24.7074C6.5048 24.7074 6.70877 24.7284 6.84724 24.7478L6.99922 24.7721L7.02953 24.7779L8.62143 25.1525V23.5119C8.62143 23.5119 8.62143 20.5589 8.62143 18.0006C8.61553 16.0258 9.10506 12.4826 11.2159 9.56751C11.6785 8.92273 12.4309 8.22414 13.3778 7.57347C14.7976 6.59532 16.6473 5.72043 18.5524 5.1084C20.4574 4.49302 22.4256 4.13778 24.0577 4.14023C26.2356 4.13515 29.003 4.77331 31.4345 5.80091C32.6528 6.31476 33.7904 6.92261 34.7376 7.57337C35.6847 8.22405 36.4361 8.92264 36.8987 9.56742C39.0103 12.4825 39.499 16.0257 39.493 18.0005C39.493 20.5588 39.493 23.5118 39.493 23.5118V24.8836L40.8616 24.8098C41.0262 24.8056 41.9136 24.8585 42.5989 25.2497C42.9507 25.4462 43.2512 25.7032 43.4872 26.0893C43.718 26.4781 43.9036 27.0238 43.9062 27.8879C43.9063 28.1735 43.8853 28.4925 43.8358 28.8477Z" fill="white"/>
<path d="M27.7854 39.0838C27.0102 37.9959 25.752 37.3184 24.3824 37.3188C23.0152 37.3184 21.7549 37.9963 20.9789 39.0842C20.7682 39.3792 20.3614 39.4455 20.0702 39.2324C19.7785 39.0187 19.7132 38.6069 19.9236 38.3115C20.9398 36.8867 22.5875 36 24.3824 36C26.1795 36 27.8258 36.8868 28.8415 38.312C29.0519 38.6075 28.9864 39.0193 28.6947 39.2324C28.403 39.4456 27.9959 39.3792 27.7854 39.0838Z" fill="white"/>
<path d="M29.4114 26.5503C28.6591 26.5503 28.0503 27.1591 28.0503 27.9114C28.0503 28.6636 28.6591 29.2724 29.4114 29.2724C30.1636 29.2724 30.7724 28.6636 30.7724 27.9114C30.7724 27.1591 30.1636 26.5503 29.4114 26.5503Z" fill="white"/>
<path d="M23.8906 0C25.2778 4.96892e-06 26.6676 0.14986 28.0403 0.5624C29.413 0.974948 30.7592 1.66028 32.0377 2.68067C32.7977 3.28605 33.5335 4.00733 34.2451 4.85896C35.9267 5.36553 37.321 6.14714 38.4331 7.13389C39.6368 8.19783 40.5006 9.48608 41.0941 10.8539C41.4921 11.7659 41.7696 12.7164 41.9626 13.6742C42.2182 14.9551 42.3146 16.2482 42.3146 17.5001C42.3146 19.4469 42.0783 21.2925 41.7935 22.8316C41.5883 23.9388 41.3568 24.887 41.1663 25.5891L40.1057 29.4897H40.0312L38.3748 28.493C38.3729 28.4827 37.1163 21.5936 34.9153 18.6575C32.5922 15.56 32.445 12.1801 32.445 12.1801C32.445 12.1801 20.2663 22.6476 13.2974 21.099C9.82034 27.863 9.15519 28.802 9.15519 28.802C8.96219 29.089 9.14313 29.2676 8.56414 28.6862C8.38317 28.51 7.89591 27.8009 7.30243 26.9034L5.16893 24.9074L4.95526 23.9388V23.7627C4.95295 23.7386 4.95044 23.7071 4.95044 23.671C4.94318 23.5938 4.93353 23.4972 4.92149 23.391C4.89972 23.1738 4.87085 22.9156 4.84429 22.6671C4.82746 22.4984 4.81059 22.3343 4.80087 22.18C4.79592 22.098 4.79122 22.0112 4.79122 21.9243C4.58371 20.6723 4.48242 19.4757 4.48242 18.3466C4.48242 16.5301 4.73324 14.8703 5.16756 13.3625C5.5994 11.8595 6.2122 10.5135 6.93106 9.32649C8.36402 6.94787 10.2071 5.18903 11.8766 3.9466C12.9862 3.11673 14.0285 2.51376 14.8343 2.10847C15.2974 1.87458 15.6784 1.70559 15.9704 1.5898C16.7399 1.28826 17.3262 1.04212 17.9365 0.832292C18.5445 0.62247 19.1718 0.453669 19.9342 0.32583C20.4432 0.23891 21.0125 0.168981 21.6977 0.106298C22.431 0.0411452 23.1597 0 23.8906 0Z" fill="white"/>
<path d="M18.2734 26.0995L21.1998 27.4645L21.2233 27.4763L21.2262 27.4792C21.3977 27.5713 21.4907 27.7395 21.5074 27.9098V27.9244C21.509 27.9331 21.5129 27.9497 21.5133 27.9684V27.9742C21.5129 27.992 21.509 28.0087 21.5074 28.0182C21.5068 28.0223 21.505 28.0251 21.5045 28.027C21.4885 28.2015 21.3947 28.3717 21.2233 28.4634L21.2174 28.4664L21.1998 28.481L21.1969 28.4781L18.2734 29.8402C17.9988 29.9679 17.6697 29.8488 17.541 29.5736C17.4143 29.2989 17.5337 28.9724 17.8076 28.8442L19.6795 27.9684L17.8105 27.0984C17.5369 26.9705 17.4126 26.6422 17.541 26.3661C17.6696 26.0913 17.999 25.9724 18.2734 26.0995Z" fill="white"/>
</g>
<defs>
<clipPath id="clip0_11_3057">
<rect width="48" height="48" fill="white"/>
</clipPath>
</defs>
</svg>
