<svg width="48" height="48" viewBox="0 0 48 48" fill="none" xmlns="http://www.w3.org/2000/svg">
<g clip-path="url(#clip0_11_3120)">
<path d="M28.7982 7.78563C28.1513 7.13868 27.1027 7.13868 26.4557 7.78563C25.8088 8.43258 25.8088 9.48118 26.4557 10.1281L27.1699 10.841L14.7467 23.2641C13.2806 24.7277 12.5471 26.6541 12.5471 28.5706C12.5471 29.6753 12.7924 30.7849 13.2795 31.8042L11.1139 33.9698C10.9113 34.1712 10.7526 34.4019 10.6415 34.6521C10.5328 34.8999 10.4681 35.1684 10.4681 35.4468C10.4681 35.6421 10.4999 35.8448 10.5743 36.0388C10.6378 36.2085 10.7379 36.3721 10.8649 36.5173L3.99963 43.3802H6.47885L12.1039 37.7564C12.2479 37.8821 12.4115 37.9823 12.5811 38.0457C12.7764 38.1202 12.9791 38.1519 13.172 38.1519C13.4528 38.1519 13.7189 38.0872 13.9691 37.9785C14.2181 37.8674 14.4476 37.7088 14.6514 37.5061L16.817 35.3418C17.835 35.8288 18.9446 36.0755 20.0494 36.0755C21.9671 36.0755 23.8934 35.3394 25.3558 33.8758L37.7789 21.4515L38.4918 22.1644C39.1388 22.8113 40.1874 22.8113 40.8343 22.1644C41.4813 21.5174 41.4813 20.4676 40.8343 19.8231L28.7982 7.78563ZM13.41 36.2671C13.3588 36.3184 13.3026 36.355 13.2574 36.3745C13.2403 36.3831 13.2245 36.3856 13.211 36.3904L12.2308 35.4077C12.2345 35.3967 12.2381 35.3797 12.2455 35.3626C12.265 35.3174 12.3004 35.2613 12.3529 35.2112L14.2414 33.3215C14.3976 33.5131 14.5636 33.6975 14.7406 33.8733V33.8757C14.7504 33.8831 14.7602 33.8916 14.7687 33.9026L14.7736 33.905C14.9421 34.0723 15.1167 34.2309 15.2985 34.3787L13.41 36.2671ZM24.1168 32.6343C22.9901 33.7586 21.5253 34.3177 20.0494 34.3201C18.576 34.3177 17.1112 33.761 15.9856 32.638C15.4229 32.0764 15.0017 31.4283 14.721 30.7361C14.4402 30.0452 14.2998 29.3103 14.2998 28.5706C14.3022 27.0959 14.8614 25.6298 15.9856 24.5031L28.4087 12.0813L36.5386 20.2112L24.1168 32.6343Z" fill="white"/>
<path d="M43.515 11.4758L37.1441 5.10497C36.4972 4.45801 35.4486 4.45801 34.8016 5.10497C34.1547 5.75317 34.1547 6.80051 34.8016 7.44747L36.8378 9.48606L34.6112 11.7126L36.9074 14.01L39.1352 11.7822L41.1726 13.8195C41.8195 14.4664 42.8681 14.4664 43.5151 13.8195C44.162 13.1725 44.1619 12.1229 43.515 11.4758Z" fill="white"/>
<path d="M32.4334 18.5413L30.0799 16.1877L29.5282 16.7383L31.8817 19.0918L32.4334 18.5413Z" fill="white"/>
<path d="M26.2677 20L28.62 22.3523L29.1718 21.803L26.8182 19.4482L26.2677 20Z" fill="white"/>
<path d="M23.7824 21.8067C23.31 21.3343 23.0256 20.9302 22.8266 20.558L17.4323 25.951C15.9883 27.3963 15.9883 29.745 17.4299 31.1891C18.874 32.6331 21.2251 32.632 22.6704 31.1878L28.6848 25.1722C28.5248 24.9598 28.3308 24.7327 28.0854 24.4862C26.3398 22.7406 25.5281 23.5511 23.7824 21.8067Z" fill="white"/>
</g>
<defs>
<clipPath id="clip0_11_3120">
<rect width="40" height="40" fill="white" transform="translate(4 4)"/>
</clipPath>
</defs>
</svg>
