<svg width="80" height="80" viewBox="0 0 80 80" fill="none" xmlns="http://www.w3.org/2000/svg">
<rect width="80" height="80" rx="40" fill="#19275B"/>
<path d="M60.7562 31.5766L60.5165 31.5618C60.4169 31.5558 60.32 31.5532 60.2249 31.5532C58.9656 31.5532 57.7566 32.0421 56.84 32.911L56.8365 32.9076L47.647 40.8024C46.1801 39.0204 44.2111 37.6582 41.9894 37.144C42.2569 37.2046 42.5251 37.2643 41.954 37.1345C41.5265 37.0393 41.6961 37.0783 41.9211 37.1285C38.3164 36.3444 35.019 38.4716 34.4088 42.13C33.2734 41.5796 31.5563 41.8254 31.2092 40.6934C30.6008 38.708 29.4463 36.8889 27.9344 35.4694C27.2861 34.861 26.5175 34.315 25.6885 33.8761L33.7407 28.3709L33.7537 28.3614C34.1864 28.048 34.7039 27.8828 35.2302 27.8828C35.3989 27.8828 35.5668 27.901 35.7347 27.9347L38.5726 28.7258L39.1905 26.5066L36.2601 25.6897L36.2247 25.6827C35.8949 25.6126 35.5617 25.5789 35.2302 25.5789C34.2331 25.5789 33.2525 25.8904 32.4287 26.479L32.4278 26.4772L22.9951 32.9267C21.0202 32.5727 19.0132 32.9846 17.5479 34.7018C11.8609 41.3667 23.1821 55.2428 29.8912 48.448C30.6952 47.6344 31.2171 46.5819 31.4706 45.4733C31.6515 44.6822 31.288 43.8687 32.2711 43.9285C34.0973 44.0245 34.241 44.619 34.6945 46.2227C35.8654 50.3588 39.6787 54.3278 44.1878 54.4195C48.8743 54.5147 50.9972 49.9156 50.1092 45.8064C49.8799 44.7453 49.4801 43.7041 48.946 42.7253L58.3658 34.6315L58.3934 34.6055C58.8712 34.1381 59.5056 33.8785 60.1668 33.8629L62.9492 35.2883L64 33.2374L60.7562 31.5766ZM27.9585 46.6286C22.8688 51.1343 14.8234 40.6578 19.6735 36.282C20.8453 35.2166 22.1842 34.9708 23.4884 35.2668L23.5411 35.3439L23.6113 35.2962C27.9006 36.3816 31.7485 43.3131 27.9585 46.6286ZM46.4829 50.9594C41.2027 55.4409 33.0128 44.9099 38.0681 40.4725C43.3041 35.8588 51.6472 46.5282 46.4829 50.9594Z" fill="white"/>
</svg>
