<svg width="48" height="48" viewBox="0 0 48 48" fill="none" xmlns="http://www.w3.org/2000/svg">
<path d="M19.2178 24.6504C19.2178 23.672 18.425 22.8795 17.4467 22.8795C16.469 22.8795 15.6755 23.672 15.6755 24.6504C15.6755 25.628 16.469 26.4211 17.4467 26.4211C18.425 26.4211 19.2178 25.628 19.2178 24.6504Z" fill="white"/>
<path d="M30.5534 22.8795C29.5757 22.8795 28.7822 23.672 28.7822 24.6504C28.7822 25.628 29.5757 26.4211 30.5534 26.4211C31.5317 26.4211 32.3245 25.628 32.3245 24.6504C32.3245 23.672 31.5316 22.8795 30.5534 22.8795Z" fill="white"/>
<path d="M46.3141 21.642C45.3686 20.6941 44.0802 20.0788 42.6584 19.977C41.7727 15.8173 39.5616 12.1488 36.4698 9.46009C33.0921 6.52093 28.6668 4.7379 23.8374 4.73865C19.0152 4.7379 14.5954 6.51559 11.2193 9.4479C8.11163 12.1441 5.892 15.8296 5.01 20.0096C3.72056 20.1779 2.55769 20.7688 1.68581 21.642C0.646313 22.68 -0.000655751 24.1272 4.98776e-07 25.7128C-0.000655751 27.2976 0.646313 28.7461 1.686 29.7828C2.72372 30.8229 4.17122 31.4695 5.75644 31.4688C5.86875 31.4688 5.97459 31.4525 6.08456 31.4458C7.47066 34.7465 9.73669 37.5819 12.6032 39.6451C15.7625 41.9207 19.6494 43.2619 23.8375 43.2613C28.0444 43.2619 31.9459 41.9077 35.1129 39.6152C37.9652 37.5506 40.2201 34.72 41.5988 31.4275C41.8103 31.4519 42.0244 31.4688 42.2436 31.4688C43.8291 31.4695 45.2769 30.8229 46.314 29.7828C47.3537 28.7461 48.0007 27.2976 47.9999 25.7128C48.0007 24.1272 47.3538 22.68 46.3141 21.642ZM26.7009 7.6493C26.7959 7.75918 26.895 7.8834 26.9933 8.03199C27.413 8.66837 27.836 9.6684 27.8384 11.2506C27.8388 12.4454 27.5853 13.9808 26.877 15.9109C24.6405 14.1103 23.3568 12.4507 22.6349 11.0836C21.8485 9.59237 21.7064 8.43971 21.7054 7.77202C21.7054 7.68587 21.7094 7.61602 21.7135 7.54674C22.4103 7.45721 23.1157 7.39543 23.8374 7.39543C24.8155 7.39552 25.7705 7.48712 26.7009 7.6493ZM21.2251 11.8279C21.6271 12.5898 22.1767 13.4108 22.8927 14.2677C22.1749 13.9773 21.455 13.7059 20.7787 13.4196C19.6229 12.9325 18.6096 12.3884 17.9223 11.6631C17.5763 11.2995 17.3052 10.8931 17.1115 10.4011C16.9527 9.99409 16.851 9.51784 16.8184 8.9574C17.8615 8.47027 18.9653 8.09509 20.1134 7.83184C20.1205 8.73418 20.3322 10.1386 21.2251 11.8279ZM44.4354 27.9042C43.8706 28.4672 43.1042 28.8112 42.2437 28.8126C41.8884 28.8119 41.5468 28.7489 41.2171 28.6336L39.9596 28.1912L39.5224 29.4505C38.3951 32.6942 36.2878 35.4855 33.5553 37.4631C30.8214 39.4402 27.4725 40.6037 23.8376 40.6044C20.2187 40.6037 16.8827 39.4503 14.1553 37.4889C11.4293 35.5275 9.32119 32.7572 8.18241 29.5359L7.76991 28.3703L6.57788 28.698C6.30581 28.7719 6.03403 28.8127 5.75653 28.8127C4.89591 28.8113 4.13025 28.4673 3.56475 27.9043C3.00197 27.3391 2.658 26.5731 2.65734 25.7128C2.658 24.8525 3.00197 24.0864 3.56475 23.5206C4.13025 22.9581 4.89591 22.6141 5.75653 22.6135C5.81081 22.6128 5.89163 22.6176 6.00347 22.6264L7.23591 22.7235L7.42116 21.5002C8.02266 17.5101 10.0455 13.9848 12.9608 11.4541C13.6895 10.8226 14.4727 10.2533 15.3028 9.75455C15.3748 10.2044 15.4856 10.6264 15.6407 11.0145C15.8853 11.6298 16.2286 12.1631 16.6357 12.6183C17.3491 13.4176 18.2412 13.9794 19.1724 14.4401C20.5724 15.128 22.0837 15.6036 23.3538 16.1966C23.9888 16.4917 24.5607 16.812 25.0289 17.1811C25.4991 17.5522 25.8657 17.964 26.1269 18.464C26.2673 18.7347 26.5476 18.9002 26.8529 18.8934C27.1576 18.886 27.4303 18.7076 27.5575 18.43C28.9358 15.4448 29.4321 13.0959 29.4328 11.2505C29.4349 10.0007 29.2011 8.98646 28.8711 8.1879C31.05 8.88127 33.0392 9.99802 34.7269 11.4648C37.6436 14.0023 39.6645 17.5378 40.2591 21.536L40.4548 22.8556L41.7733 22.6541C41.949 22.6276 42.1044 22.6134 42.2436 22.6134C43.1042 22.6141 43.8705 22.958 44.4353 23.5205C44.9984 24.0863 45.3424 24.8523 45.3434 25.7127C45.3425 26.5731 44.9985 27.3391 44.4354 27.9042Z" fill="white"/>
<path d="M28.8602 30.69C27.753 32.224 25.956 33.1793 24 33.1787C22.0474 33.1794 20.2474 32.2234 19.1392 30.6895C18.8382 30.2735 18.2572 30.1799 17.8413 30.4805C17.4247 30.7817 17.3315 31.3625 17.6319 31.779C19.0832 33.788 21.4365 35.0383 24 35.0383C26.5666 35.0383 28.9178 33.7879 30.3684 31.7783C30.669 31.3616 30.5754 30.781 30.1588 30.4804C29.7422 30.1798 29.1607 30.2734 28.8602 30.69Z" fill="white"/>
<path d="M19.2178 24.6504C19.2178 23.672 18.425 22.8795 17.4467 22.8795C16.469 22.8795 15.6755 23.672 15.6755 24.6504C15.6755 25.628 16.469 26.4211 17.4467 26.4211C18.425 26.4211 19.2178 25.628 19.2178 24.6504Z" fill="white"/>
<path d="M30.5534 22.8795C29.5757 22.8795 28.7822 23.672 28.7822 24.6504C28.7822 25.628 29.5757 26.4211 30.5534 26.4211C31.5317 26.4211 32.3245 25.628 32.3245 24.6504C32.3245 23.672 31.5316 22.8795 30.5534 22.8795Z" fill="white"/>
<path d="M46.3141 21.642C45.3686 20.6941 44.0802 20.0788 42.6584 19.977C41.7727 15.8173 39.5616 12.1488 36.4698 9.46009C33.0921 6.52093 28.6668 4.7379 23.8374 4.73865C19.0152 4.7379 14.5954 6.51559 11.2193 9.4479C8.11163 12.1441 5.892 15.8296 5.01 20.0096C3.72056 20.1779 2.55769 20.7688 1.68581 21.642C0.646313 22.68 -0.000655751 24.1272 4.98776e-07 25.7128C-0.000655751 27.2976 0.646313 28.7461 1.686 29.7828C2.72372 30.8229 4.17122 31.4695 5.75644 31.4688C5.86875 31.4688 5.97459 31.4525 6.08456 31.4458C7.47066 34.7465 9.73669 37.5819 12.6032 39.6451C15.7625 41.9207 19.6494 43.2619 23.8375 43.2613C28.0444 43.2619 31.9459 41.9077 35.1129 39.6152C37.9652 37.5506 40.2201 34.72 41.5988 31.4275C41.8103 31.4519 42.0244 31.4688 42.2436 31.4688C43.8291 31.4695 45.2769 30.8229 46.314 29.7828C47.3537 28.7461 48.0007 27.2976 47.9999 25.7128C48.0007 24.1272 47.3538 22.68 46.3141 21.642ZM26.7009 7.6493C26.7959 7.75918 26.895 7.8834 26.9933 8.03199C27.413 8.66837 27.836 9.6684 27.8384 11.2506C27.8388 12.4454 27.5853 13.9808 26.877 15.9109C24.6405 14.1103 23.3568 12.4507 22.6349 11.0836C21.8485 9.59237 21.7064 8.43971 21.7054 7.77202C21.7054 7.68587 21.7094 7.61602 21.7135 7.54674C22.4103 7.45721 23.1157 7.39543 23.8374 7.39543C24.8155 7.39552 25.7705 7.48712 26.7009 7.6493ZM21.2251 11.8279C21.6271 12.5898 22.1767 13.4108 22.8927 14.2677C22.1749 13.9773 21.455 13.7059 20.7787 13.4196C19.6229 12.9325 18.6096 12.3884 17.9223 11.6631C17.5763 11.2995 17.3052 10.8931 17.1115 10.4011C16.9527 9.99409 16.851 9.51784 16.8184 8.9574C17.8615 8.47027 18.9653 8.09509 20.1134 7.83184C20.1205 8.73418 20.3322 10.1386 21.2251 11.8279ZM44.4354 27.9042C43.8706 28.4672 43.1042 28.8112 42.2437 28.8126C41.8884 28.8119 41.5468 28.7489 41.2171 28.6336L39.9596 28.1912L39.5224 29.4505C38.3951 32.6942 36.2878 35.4855 33.5553 37.4631C30.8214 39.4402 27.4725 40.6037 23.8376 40.6044C20.2187 40.6037 16.8827 39.4503 14.1553 37.4889C11.4293 35.5275 9.32119 32.7572 8.18241 29.5359L7.76991 28.3703L6.57788 28.698C6.30581 28.7719 6.03403 28.8127 5.75653 28.8127C4.89591 28.8113 4.13025 28.4673 3.56475 27.9043C3.00197 27.3391 2.658 26.5731 2.65734 25.7128C2.658 24.8525 3.00197 24.0864 3.56475 23.5206C4.13025 22.9581 4.89591 22.6141 5.75653 22.6135C5.81081 22.6128 5.89163 22.6176 6.00347 22.6264L7.23591 22.7235L7.42116 21.5002C8.02266 17.5101 10.0455 13.9848 12.9608 11.4541C13.6895 10.8226 14.4727 10.2533 15.3028 9.75455C15.3748 10.2044 15.4856 10.6264 15.6407 11.0145C15.8853 11.6298 16.2286 12.1631 16.6357 12.6183C17.3491 13.4176 18.2412 13.9794 19.1724 14.4401C20.5724 15.128 22.0837 15.6036 23.3538 16.1966C23.9888 16.4917 24.5607 16.812 25.0289 17.1811C25.4991 17.5522 25.8657 17.964 26.1269 18.464C26.2673 18.7347 26.5476 18.9002 26.8529 18.8934C27.1576 18.886 27.4303 18.7076 27.5575 18.43C28.9358 15.4448 29.4321 13.0959 29.4328 11.2505C29.4349 10.0007 29.2011 8.98646 28.8711 8.1879C31.05 8.88127 33.0392 9.99802 34.7269 11.4648C37.6436 14.0023 39.6645 17.5378 40.2591 21.536L40.4548 22.8556L41.7733 22.6541C41.949 22.6276 42.1044 22.6134 42.2436 22.6134C43.1042 22.6141 43.8705 22.958 44.4353 23.5205C44.9984 24.0863 45.3424 24.8523 45.3434 25.7127C45.3425 26.5731 44.9985 27.3391 44.4354 27.9042Z" fill="white"/>
<path d="M28.8602 30.69C27.753 32.224 25.956 33.1793 24 33.1787C22.0474 33.1794 20.2474 32.2234 19.1392 30.6895C18.8382 30.2735 18.2572 30.1799 17.8413 30.4805C17.4247 30.7817 17.3315 31.3625 17.6319 31.779C19.0832 33.788 21.4365 35.0383 24 35.0383C26.5666 35.0383 28.9178 33.7879 30.3684 31.7783C30.669 31.3616 30.5754 30.781 30.1588 30.4804C29.7422 30.1798 29.1607 30.2734 28.8602 30.69Z" fill="white"/>
</svg>
