<svg width="80" height="80" viewBox="0 0 80 80" fill="none" xmlns="http://www.w3.org/2000/svg">
<rect width="80" height="80" rx="40" fill="#B5B5B5"/>
<path d="M38.043 56.4227C38.5445 56.4652 39.0484 56.4917 39.554 56.5015L39.7751 56.5047C39.1952 56.499 38.6176 56.4714 38.043 56.4227ZM40.0001 24.0905C49.3474 24.0905 58.1772 29.9085 63.0026 39.3577L63.3304 40L63.0026 40.6424C58.1772 50.0916 49.3474 55.9096 40.0001 55.9096C30.6556 55.9096 21.8256 50.0917 16.9977 40.6423L16.6696 40L16.9977 39.3577C21.8256 29.9084 30.6556 24.0905 40.0001 24.0905ZM49.9638 54.2994C49.8274 54.3617 49.6905 54.4228 49.5532 54.4826C49.6219 54.4527 49.6904 54.4225 49.7588 54.3919L49.9638 54.2994ZM52.5621 52.9261C52.3672 53.0436 52.1711 53.1585 51.9739 53.2706C52.0396 53.2332 52.1052 53.1954 52.1707 53.1575C52.3017 53.0815 52.4322 53.0045 52.5621 52.9261ZM40.0001 26.9131C31.843 26.9131 24.4467 31.7118 20.0074 39.7107L19.8469 40.0001L20.0074 40.2894C24.4467 48.2882 31.843 53.087 40.0001 53.087C48.1599 53.087 55.556 48.2884 59.9928 40.2893L60.1532 40.0001L59.9928 39.7109C55.556 31.7119 48.1599 26.9131 40.0001 26.9131ZM56.8106 49.7631C56.6369 49.9201 56.4618 50.0747 56.285 50.2268C56.4028 50.1254 56.5199 50.0229 56.6363 49.9193L56.8106 49.7631ZM57.9999 48.6244C57.8892 48.7366 57.7777 48.8477 57.6655 48.9578C57.7216 48.9028 57.7775 48.8474 57.8332 48.7918L57.9999 48.6244ZM60.0617 46.3041C59.9611 46.4298 59.8598 46.5544 59.7576 46.6781C59.8087 46.6162 59.8596 46.5541 59.9103 46.4918L60.0617 46.3041ZM54.621 46.3719C54.5283 46.4611 54.4352 46.5494 54.3415 46.6367L54.2006 46.767C54.3419 46.6374 54.482 46.5057 54.621 46.3719ZM55.7062 45.26C55.6621 45.3081 55.6179 45.3561 55.5735 45.4037L55.4398 45.546C55.4845 45.4987 55.5291 45.4514 55.5735 45.4037L55.7062 45.26ZM61.9135 43.7289C61.7797 43.9364 61.644 44.1419 61.5061 44.3451C61.552 44.2774 61.5977 44.2093 61.6432 44.1412C61.7342 44.0047 61.8243 43.8673 61.9135 43.7289ZM56.986 43.7532C56.9036 43.8579 56.8208 43.9619 56.7372 44.0649C56.779 44.0134 56.8205 43.9615 56.862 43.9096L56.986 43.7532ZM63.5335 40.9136C63.1498 41.665 62.7411 42.3942 62.3089 43.1C62.6979 42.4648 63.0678 41.8106 63.4176 41.1384L63.5335 40.9136ZM59.2655 40.3654C59.0228 40.7888 58.7716 41.2025 58.5123 41.6064L58.4007 41.7789C58.6623 41.3779 58.9157 40.9668 59.1609 40.5462L59.2655 40.3654ZM59.0578 39.2787C59.1633 39.4568 59.2675 39.6367 59.3699 39.8183L59.4715 40.0001C59.3364 39.7566 59.1984 39.5161 59.0578 39.2787ZM62.1785 36.6891C62.2434 36.7933 62.3076 36.8981 62.3715 37.0034C62.3506 36.9689 62.3298 36.9345 62.3088 36.9001L62.1785 36.6891ZM19.4928 34.2682L19.493 34.2683C19.444 34.3326 19.3951 34.3971 19.3465 34.4619C19.2979 34.5267 19.2496 34.5918 19.2014 34.6571L19.0574 34.8538C19.2006 34.6564 19.3457 34.4611 19.4928 34.2682ZM22.5053 30.878C22.3924 30.987 22.2801 31.097 22.1686 31.2082C22.2244 31.1526 22.2804 31.0973 22.3365 31.0422L22.5053 30.878Z" fill="white"/>
<path d="M40.0001 30.4081C45.3586 30.4081 49.7032 34.7525 49.7032 40.1112C49.7032 45.4698 45.3586 49.8141 40.0001 49.8141C34.6415 49.8141 30.2971 45.4698 30.2971 40.1112C30.2971 34.7525 34.6415 30.4081 40.0001 30.4081ZM39.9531 32.5C35.8371 32.5 32.5001 35.837 32.5001 39.9532C32.5001 44.0692 35.8371 47.4062 39.9531 47.4062C44.0691 47.4062 47.4063 44.0692 47.4063 39.9532C47.4063 35.837 44.0691 32.5 39.9531 32.5Z" fill="#D6D6D6"/>
<path d="M40 33.2076C36.2489 33.2076 33.2076 36.2489 33.2076 40.0002C33.2076 43.7513 36.2489 46.7925 40 46.7925C43.7512 46.7925 46.7925 43.7513 46.7925 40.0002C46.7925 36.2489 43.7512 33.2076 40 33.2076Z" fill="#9A9A9A"/>
<path d="M40.0761 35.5474C37.5753 35.5474 35.5479 37.5748 35.5479 40.0757C35.5479 42.5765 37.5753 44.604 40.0761 44.604C42.5769 44.604 44.6045 42.5765 44.6045 40.0757C44.6045 37.5748 42.5769 35.5474 40.0761 35.5474Z" fill="white"/>
</svg>
