<svg width="48" height="48" viewBox="0 0 48 48" fill="none" xmlns="http://www.w3.org/2000/svg">
<path d="M37.9637 21.6252C40.1438 22.9907 43.4913 24.5603 48 25.1871C44.9767 22.8197 42.9452 20.6091 41.6726 18.9974C43.013 17.8639 44.2442 16.6049 45.3335 15.228L41.8164 12.4429C39.8188 14.9662 37.2757 17.0378 34.3699 18.4772C31.4626 19.9159 28.1962 20.7245 24.7245 20.7258C21.2532 20.7245 17.9865 19.9159 15.0792 18.4772C12.173 17.0378 9.62963 14.9662 7.63266 12.4429L4.11497 15.228C4.96556 16.3025 5.90259 17.3049 6.90787 18.2343C5.71247 19.867 3.534 22.4195 0 25.1871C5.02031 24.489 8.60137 22.623 10.7331 21.1701C11.4935 21.6502 12.2776 22.0967 13.0882 22.4975C13.2052 22.5551 13.3239 22.6107 13.442 22.6664C13.0987 24.7054 12.2553 28.3385 10.2967 31.5442C14.1061 29.8538 16.7902 26.448 18.1506 24.3791C19.1708 24.6423 20.2147 24.8452 21.2783 24.9848L23.9996 35.557L26.683 25.1367C27.8246 25.0526 28.9476 24.8973 30.0455 24.6714C31.4587 26.7566 34.0689 29.9311 37.704 31.5441C35.9234 28.63 35.0647 25.3633 34.6652 23.2612C35.2403 23.0258 35.8074 22.7721 36.3617 22.4974C36.9075 22.2269 37.4393 21.9311 37.9637 21.6252Z" fill="white"/>
</svg>
