<svg width="80" height="80" viewBox="0 0 80 80" fill="none" xmlns="http://www.w3.org/2000/svg">
<rect width="80" height="80" rx="40" fill="#19275B"/>
<path d="M21.598 29.8876L26.1455 29.8876C27.9296 29.8876 29.534 28.8012 30.1964 27.1446V27.1446C31.1939 24.6497 34.1879 23.6409 36.4919 25.0233L37.0039 25.3305C38.5929 26.2838 40.5851 26.2531 42.1439 25.2512L46.5996 22.3873" stroke="white" stroke-width="2"/>
<path d="M60.1412 58.6082L56.4875 55.9007C55.0541 54.8384 54.4118 53.0104 54.866 51.285V51.285C55.5499 48.6866 53.745 46.0935 51.0708 45.8324L50.4766 45.7744C48.6323 45.5943 47.05 44.3835 46.3941 42.6504L44.5193 37.6966" stroke="white" stroke-width="2"/>
<circle cx="31.0996" cy="43.3867" r="1.5" fill="white"/>
<circle cx="23.0996" cy="48.3867" r="1.5" fill="white"/>
<circle cx="33.0996" cy="56.3867" r="1.5" fill="white"/>
</svg>
