<svg width="48" height="48" viewBox="0 0 48 48" fill="none" xmlns="http://www.w3.org/2000/svg">
<g clip-path="url(#clip0_11_3076)">
<path d="M39.7304 22.5389L39.767 22.5789C40.5231 23.4255 40.4701 24.7255 39.6381 25.5073C38.8061 26.2891 37.5053 26.2613 36.7073 25.4541L36.6697 25.415L16.7697 4.23802C15.9755 3.39284 16.0168 2.06383 16.862 1.26961C17.7072 0.475387 19.0362 0.516703 19.8304 1.36189L39.7304 22.5389Z" fill="white"/>
<path d="M39.7304 25.4151L39.767 25.3751C40.5231 24.5285 40.4701 23.2285 39.6381 22.4467C38.8061 21.6649 37.5053 21.6927 36.7073 22.4999L36.6697 22.539L16.7697 43.716C15.9755 44.5611 16.0168 45.8901 16.862 46.6844C17.7072 47.4786 19.0362 47.4373 19.8304 46.5921L39.7304 25.4151Z" fill="white"/>
<path d="M25.5436 10.3757C19.0531 11.0767 14 16.5732 14 23.25C14 30.4021 19.798 36.2 26.95 36.2C27.1635 36.2 27.3757 36.1946 27.5866 36.1844L24.0928 40.1628C15.9812 38.8025 9.80005 31.7482 9.80005 23.25C9.80005 15.3756 15.1071 8.74102 22.3395 6.72717L25.5436 10.3757Z" fill="white"/>
<path d="M22.1 23.4C22.1 28.3153 19.7943 32.3 16.95 32.3C14.1058 32.3 11.8 28.3153 11.8 23.4C11.8 18.4847 14.1058 14.5 16.95 14.5C19.7943 14.5 22.1 18.4847 22.1 23.4Z" fill="white"/>
<path d="M26.0388 26.541L26.5513 26.1467L26.6312 26.0845C27.119 25.7047 27.9073 25.7921 28.2562 26.2645C28.3362 26.3729 28.444 26.4655 28.5721 26.5359L29.1406 26.8483C29.2025 26.8823 29.2692 26.91 29.3392 26.9306C30.0005 27.1253 30.1559 27.8381 29.6182 28.2104L29.405 28.3581C28.7798 28.7876 27.9072 28.8746 27.1757 28.5805L26.3997 28.2685C26.1636 28.1735 25.8987 28.1383 25.6384 28.1673L25.0282 28.2353C24.4714 28.2973 23.9941 27.9078 24.0638 27.4482C24.1159 27.1047 24.4623 26.8431 24.8819 26.8303L25.2254 26.8198C25.5284 26.8105 25.8172 26.7116 26.0388 26.541Z" fill="white" fill-opacity="0.7"/>
<path d="M27.1507 28.6228C27.8788 28.9156 28.7432 28.8407 29.3806 28.4345L29.4416 28.3942L29.6549 28.2464C30.2263 27.8507 30.0612 27.0932 29.3584 26.8863C29.2928 26.867 29.2302 26.841 29.1722 26.8092L28.6037 26.4967C28.4826 26.4302 28.3807 26.3425 28.305 26.2401C27.9372 25.742 27.1062 25.65 26.592 26.0503L26.512 26.1125L25.9999 26.5066C25.7883 26.6694 25.5126 26.7639 25.2233 26.7727L24.8797 26.7833C24.4322 26.7969 24.0628 27.076 24.0072 27.4423C23.9329 27.9326 24.4419 28.348 25.0359 28.2819L25.646 28.2139C25.8952 28.1861 26.1487 28.2199 26.3747 28.3107L27.1507 28.6228ZM29.3684 28.3219C28.7605 28.7395 27.9119 28.8242 27.2007 28.5382L26.4248 28.2261C26.1785 28.1271 25.9022 28.0905 25.6307 28.1207L25.0206 28.1886C24.5009 28.2465 24.0555 27.883 24.1205 27.454C24.1691 27.1335 24.4924 26.8892 24.884 26.8773L25.2275 26.8668C25.5442 26.8571 25.8461 26.7536 26.0777 26.5754L26.5902 26.1811L26.6704 26.1187C27.1318 25.7595 27.8775 25.8421 28.2074 26.289C28.2918 26.4032 28.4054 26.5009 28.5404 26.575L29.1089 26.8875C29.1746 26.9236 29.2455 26.953 29.3199 26.9749C29.9397 27.1573 30.0854 27.8254 29.5815 28.1744L29.3684 28.3219Z" fill="white" fill-opacity="0.7"/>
</g>
<defs>
<clipPath id="clip0_11_3076">
<rect width="48" height="48" fill="white"/>
</clipPath>
</defs>
</svg>
