<svg width="48" height="48" viewBox="0 0 48 48" fill="none" xmlns="http://www.w3.org/2000/svg">
<path d="M22.0428 40.4227C22.5444 40.4652 23.0483 40.4917 23.5539 40.5015L23.775 40.5047C23.1951 40.499 22.6175 40.4714 22.0428 40.4227ZM23.9999 8.09045C33.3473 8.09045 42.1771 13.9085 47.0025 23.3577L47.3303 24L47.0025 24.6424C42.1771 34.0916 33.3473 39.9096 23.9999 39.9096C14.6555 39.9096 5.82551 34.0917 0.997559 24.6423L0.669434 24L0.997559 23.3577C5.82552 13.9084 14.6555 8.09045 23.9999 8.09045ZM33.9636 38.2994C33.8273 38.3617 33.6904 38.4228 33.5531 38.4826C33.6217 38.4527 33.6903 38.4225 33.7587 38.3919L33.9636 38.2994ZM36.562 36.9261C36.3671 37.0436 36.171 37.1585 35.9737 37.2706C36.0395 37.2332 36.1051 37.1954 36.1705 37.1575C36.3016 37.0815 36.4321 37.0045 36.562 36.9261ZM23.9999 10.9131C15.8429 10.9131 8.44662 15.7118 4.00731 23.7107L3.84674 24.0001L4.00731 24.2894C8.44662 32.2882 15.8429 37.087 23.9999 37.087C32.1598 37.087 39.5559 32.2884 43.9927 24.2893L44.1531 24.0001L43.9927 23.7109C39.5559 15.7119 32.1598 10.9131 23.9999 10.9131ZM40.8104 33.7631C40.6368 33.9201 40.4616 34.0747 40.2849 34.2268C40.4027 34.1254 40.5198 34.0229 40.6362 33.9193L40.8104 33.7631ZM41.9998 32.6244C41.8891 32.7366 41.7776 32.8477 41.6654 32.9578C41.7215 32.9028 41.7774 32.8474 41.8331 32.7918L41.9998 32.6244ZM44.0616 30.3041C43.961 30.4298 43.8596 30.5544 43.7575 30.6781C43.8086 30.6162 43.8595 30.5541 43.9102 30.4918L44.0616 30.3041ZM38.6209 30.3719C38.5282 30.4611 38.4351 30.5494 38.3414 30.6367L38.2004 30.767C38.3418 30.6374 38.4819 30.5057 38.6209 30.3719ZM39.7061 29.26C39.662 29.3081 39.6178 29.3561 39.5734 29.4037L39.4397 29.546C39.4844 29.4987 39.5289 29.4514 39.5734 29.4037L39.7061 29.26ZM45.9134 27.7289C45.7796 27.9364 45.6438 28.1419 45.5059 28.3451C45.5519 28.2774 45.5976 28.2093 45.6431 28.1412C45.7341 28.0047 45.8242 27.8673 45.9134 27.7289ZM40.9859 27.7532C40.9035 27.8579 40.8206 27.9619 40.7371 28.0649C40.7789 28.0134 40.8203 27.9615 40.8618 27.9096L40.9859 27.7532ZM47.5334 24.9136C47.1497 25.665 46.7409 26.3942 46.3088 27.1C46.6977 26.4648 47.0677 25.8106 47.4175 25.1384L47.5334 24.9136ZM43.2654 24.3654C43.0227 24.7888 42.7715 25.2025 42.5122 25.6064L42.4006 25.7789C42.6622 25.3779 42.9156 24.9668 43.1607 24.5462L43.2654 24.3654ZM43.0577 23.2787C43.1632 23.4568 43.2674 23.6367 43.3698 23.8183L43.4714 24.0001C43.3363 23.7566 43.1982 23.5161 43.0577 23.2787ZM46.1784 20.6891C46.2433 20.7933 46.3075 20.8981 46.3714 21.0034C46.3505 20.9689 46.3297 20.9345 46.3086 20.9001L46.1784 20.6891ZM3.49271 18.2682L3.49285 18.2683C3.44384 18.3326 3.39499 18.3971 3.3464 18.4619C3.2978 18.5267 3.24944 18.5918 3.20127 18.6571L3.05729 18.8538C3.20052 18.6564 3.34562 18.4611 3.49271 18.2682ZM6.50523 14.878C6.39228 14.987 6.28 15.097 6.16851 15.2082C6.22427 15.1526 6.28023 15.0973 6.33636 15.0422L6.50523 14.878Z" fill="white"/>
<path d="M23.9998 14.4081C29.3584 14.4081 33.7029 18.7525 33.7029 24.1112C33.7029 29.4698 29.3584 33.8141 23.9998 33.8141C18.6413 33.8141 14.2969 29.4698 14.2969 24.1112C14.2969 18.7525 18.6413 14.4081 23.9998 14.4081ZM23.9529 16.5C19.8368 16.5 16.4998 19.837 16.4998 23.9532C16.4998 28.0692 19.8368 31.4062 23.9529 31.4062C28.0689 31.4062 31.4061 28.0692 31.4061 23.9532C31.4061 19.837 28.0689 16.5 23.9529 16.5Z" fill="#D6D6D6"/>
<path d="M23.9999 17.2076C20.2487 17.2076 17.2075 20.2489 17.2075 24.0002C17.2075 27.7513 20.2487 30.7925 23.9999 30.7925C27.7511 30.7925 30.7924 27.7513 30.7924 24.0002C30.7924 20.2489 27.7511 17.2076 23.9999 17.2076Z" fill="#9A9A9A"/>
<path d="M24.0759 19.5474C21.5751 19.5474 19.5476 21.5748 19.5476 24.0757C19.5476 26.5765 21.5751 28.604 24.0759 28.604C26.5767 28.604 28.6042 26.5765 28.6042 24.0757C28.6042 21.5748 26.5767 19.5474 24.0759 19.5474Z" fill="white"/>
</svg>
