<svg width="240" height="112" viewBox="0 0 240 112" fill="none" xmlns="http://www.w3.org/2000/svg">
<g clip-path="url(#clip0_296_2066)">
<path d="M0 6C0 2.68629 2.68629 0 6 0H234C237.314 0 240 2.68629 240 6V106C240 109.314 237.314 112 234 112H5.99999C2.68629 112 0 109.314 0 106V6Z" fill="white"/>
<rect x="63.5" y="12" width="113" height="28" rx="14" fill="#9B7714" fill-opacity="0.3"/>
<path d="M81.564 21.34C81.548 21.412 81.536 21.504 81.528 21.616C81.52 21.72 81.508 21.832 81.492 21.952C81.484 22.064 81.476 22.168 81.468 22.264C81.46 22.472 81.448 22.72 81.432 23.008C81.424 23.288 81.412 23.596 81.396 23.932C81.388 24.26 81.38 24.592 81.372 24.928C81.372 25.256 81.372 25.572 81.372 25.876C81.372 26.188 81.376 26.536 81.384 26.92C81.392 27.304 81.4 27.684 81.408 28.06C81.416 28.428 81.424 28.772 81.432 29.092C81.44 29.404 81.444 29.652 81.444 29.836C81.444 30.26 81.392 30.592 81.288 30.832C81.192 31.072 81.056 31.24 80.88 31.336C80.712 31.432 80.508 31.48 80.268 31.48C80.012 31.48 79.732 31.424 79.428 31.312C79.124 31.2 78.836 31.048 78.564 30.856C78.292 30.664 78.068 30.44 77.892 30.184C77.716 29.928 77.628 29.656 77.628 29.368C77.628 29 77.768 28.636 78.048 28.276C78.336 27.908 78.712 27.572 79.176 27.268C79.64 26.964 80.132 26.716 80.652 26.524C81.196 26.324 81.752 26.172 82.32 26.068C82.888 25.964 83.404 25.912 83.868 25.912C84.468 25.912 85.004 26.012 85.476 26.212C85.948 26.412 86.32 26.7 86.592 27.076C86.864 27.452 87 27.896 87 28.408C87 28.88 86.904 29.304 86.712 29.68C86.528 30.056 86.244 30.376 85.86 30.64C85.476 30.904 84.992 31.108 84.408 31.252C84.136 31.308 83.868 31.348 83.604 31.372C83.348 31.396 83.108 31.416 82.884 31.432L82.452 30.208C82.692 30.216 82.936 30.216 83.184 30.208C83.432 30.2 83.668 30.172 83.892 30.124C84.228 30.06 84.54 29.96 84.828 29.824C85.116 29.68 85.344 29.492 85.512 29.26C85.688 29.02 85.776 28.732 85.776 28.396C85.776 28.084 85.692 27.824 85.524 27.616C85.356 27.4 85.128 27.236 84.84 27.124C84.552 27.012 84.224 26.956 83.856 26.956C83.336 26.956 82.82 27.012 82.308 27.124C81.796 27.228 81.292 27.376 80.796 27.568C80.428 27.712 80.092 27.884 79.788 28.084C79.484 28.284 79.244 28.492 79.068 28.708C78.892 28.916 78.804 29.116 78.804 29.308C78.804 29.428 78.844 29.544 78.924 29.656C79.004 29.76 79.1 29.852 79.212 29.932C79.332 30.012 79.456 30.076 79.584 30.124C79.712 30.172 79.828 30.196 79.932 30.196C80.052 30.196 80.148 30.156 80.22 30.076C80.3 29.988 80.34 29.844 80.34 29.644C80.34 29.42 80.332 29.104 80.316 28.696C80.308 28.288 80.3 27.84 80.292 27.352C80.284 26.856 80.28 26.38 80.28 25.924C80.28 25.58 80.28 25.224 80.28 24.856C80.288 24.48 80.292 24.12 80.292 23.776C80.3 23.432 80.304 23.128 80.304 22.864C80.312 22.6 80.316 22.408 80.316 22.288C80.316 22.2 80.312 22.096 80.304 21.976C80.296 21.856 80.288 21.74 80.28 21.628C80.272 21.508 80.26 21.412 80.244 21.34H81.564ZM85.152 22.66C85.448 22.804 85.776 22.984 86.136 23.2C86.504 23.408 86.852 23.62 87.18 23.836C87.516 24.044 87.784 24.228 87.984 24.388L87.396 25.348C87.252 25.212 87.06 25.064 86.82 24.904C86.588 24.744 86.336 24.58 86.064 24.412C85.8 24.244 85.54 24.088 85.284 23.944C85.036 23.792 84.816 23.668 84.624 23.572L85.152 22.66ZM77.88 23.416C78.224 23.456 78.52 23.484 78.768 23.5C79.016 23.508 79.252 23.512 79.476 23.512C79.772 23.512 80.108 23.496 80.484 23.464C80.86 23.432 81.24 23.392 81.624 23.344C82.016 23.296 82.396 23.236 82.764 23.164C83.14 23.084 83.48 23 83.784 22.912L83.808 24.088C83.488 24.16 83.132 24.228 82.74 24.292C82.356 24.356 81.964 24.416 81.564 24.472C81.172 24.52 80.796 24.56 80.436 24.592C80.084 24.616 79.772 24.628 79.5 24.628C79.14 24.628 78.836 24.624 78.588 24.616C78.34 24.6 78.116 24.584 77.916 24.568L77.88 23.416ZM91.428 28.12H98.46V28.828H91.428V28.12ZM91.452 26.632H99.108V30.328H91.452V29.536H97.992V27.412H91.452V26.632ZM94.332 27.04H95.424V30.544C95.424 30.76 95.48 30.9 95.592 30.964C95.704 31.02 95.944 31.048 96.312 31.048C96.384 31.048 96.5 31.048 96.66 31.048C96.828 31.048 97.016 31.048 97.224 31.048C97.432 31.048 97.64 31.048 97.848 31.048C98.056 31.048 98.248 31.048 98.424 31.048C98.6 31.048 98.736 31.048 98.832 31.048C99.04 31.048 99.196 31.016 99.3 30.952C99.412 30.888 99.488 30.764 99.528 30.58C99.576 30.388 99.612 30.104 99.636 29.728C99.756 29.808 99.908 29.884 100.092 29.956C100.276 30.02 100.444 30.068 100.596 30.1C100.548 30.58 100.468 30.952 100.356 31.216C100.252 31.488 100.084 31.676 99.852 31.78C99.628 31.884 99.312 31.936 98.904 31.936C98.84 31.936 98.716 31.936 98.532 31.936C98.356 31.936 98.152 31.936 97.92 31.936C97.688 31.936 97.456 31.936 97.224 31.936C96.992 31.936 96.784 31.936 96.6 31.936C96.424 31.936 96.3 31.936 96.228 31.936C95.74 31.936 95.356 31.896 95.076 31.816C94.804 31.744 94.612 31.604 94.5 31.396C94.388 31.196 94.332 30.912 94.332 30.544V27.04ZM90.876 26.632H91.956V30.904H90.876V26.632ZM90.552 21.34H99.384V22.204H90.552V21.34ZM91.38 24.148H93.852V24.808H91.38V24.148ZM91.152 25.36H93.852V26.032H91.152V25.36ZM96.06 25.36H98.832V26.032H96.06V25.36ZM96.06 24.148H98.544V24.808H96.06V24.148ZM94.392 21.688H95.496V26.26H94.392V21.688ZM89.808 22.816H100.176V25.204H99.108V23.608H90.828V25.204H89.808V22.816ZM107.16 27.268H112.56V31.96H111.42V28.3H108.24V32.02H107.16V27.268ZM111.888 21.028L112.704 21.976C112.192 22.128 111.616 22.26 110.976 22.372C110.336 22.484 109.68 22.58 109.008 22.66C108.336 22.74 107.684 22.804 107.052 22.852C107.036 22.724 106.996 22.568 106.932 22.384C106.868 22.192 106.8 22.032 106.728 21.904C107.184 21.856 107.648 21.804 108.12 21.748C108.6 21.692 109.068 21.628 109.524 21.556C109.988 21.476 110.42 21.396 110.82 21.316C111.228 21.228 111.584 21.132 111.888 21.028ZM109.2 22.036H110.364V27.784H109.2V22.036ZM106.488 24.364H113.088V25.432H106.488V24.364ZM107.868 30.388H111.972V31.42H107.868V30.388ZM102.444 24.592H106.008V25.48H102.444V24.592ZM102.516 21.268H105.996V22.156H102.516V21.268ZM102.444 26.248H106.008V27.136H102.444V26.248ZM101.88 22.9H106.404V23.824H101.88V22.9ZM103.02 27.928H106.056V31.492H103.02V30.568H105.072V28.84H103.02V27.928ZM102.42 27.928H103.392V32.008H102.42V27.928ZM118.68 23.788C119.024 23.82 119.364 23.848 119.7 23.872C120.044 23.888 120.396 23.896 120.756 23.896C121.476 23.896 122.196 23.864 122.916 23.8C123.636 23.736 124.304 23.644 124.92 23.524V24.688C124.28 24.792 123.6 24.868 122.88 24.916C122.168 24.964 121.456 24.992 120.744 25C120.392 25 120.048 24.992 119.712 24.976C119.384 24.96 119.044 24.94 118.692 24.916L118.68 23.788ZM123.036 21.688C123.02 21.808 123.004 21.932 122.988 22.06C122.98 22.188 122.972 22.312 122.964 22.432C122.956 22.568 122.948 22.748 122.94 22.972C122.94 23.196 122.936 23.44 122.928 23.704C122.928 23.96 122.928 24.216 122.928 24.472C122.928 24.976 122.936 25.46 122.952 25.924C122.976 26.388 123 26.828 123.024 27.244C123.048 27.66 123.068 28.052 123.084 28.42C123.1 28.78 123.108 29.108 123.108 29.404C123.108 29.676 123.072 29.936 123 30.184C122.928 30.432 122.808 30.652 122.64 30.844C122.472 31.036 122.244 31.184 121.956 31.288C121.676 31.4 121.328 31.456 120.912 31.456C120.096 31.456 119.464 31.296 119.016 30.976C118.568 30.656 118.344 30.208 118.344 29.632C118.344 29.264 118.444 28.936 118.644 28.648C118.852 28.36 119.144 28.132 119.52 27.964C119.904 27.796 120.364 27.712 120.9 27.712C121.436 27.712 121.924 27.772 122.364 27.892C122.804 28.004 123.212 28.16 123.588 28.36C123.964 28.552 124.3 28.764 124.596 28.996C124.9 29.228 125.176 29.452 125.424 29.668L124.776 30.676C124.344 30.26 123.912 29.9 123.48 29.596C123.056 29.292 122.624 29.056 122.184 28.888C121.744 28.72 121.284 28.636 120.804 28.636C120.396 28.636 120.064 28.716 119.808 28.876C119.56 29.036 119.436 29.244 119.436 29.5C119.436 29.78 119.56 29.992 119.808 30.136C120.056 30.272 120.372 30.34 120.756 30.34C121.052 30.34 121.284 30.292 121.452 30.196C121.62 30.1 121.74 29.96 121.812 29.776C121.884 29.592 121.92 29.376 121.92 29.128C121.92 28.92 121.912 28.64 121.896 28.288C121.88 27.928 121.86 27.536 121.836 27.112C121.812 26.68 121.792 26.24 121.776 25.792C121.76 25.336 121.752 24.9 121.752 24.484C121.752 24.052 121.752 23.656 121.752 23.296C121.752 22.928 121.752 22.648 121.752 22.456C121.752 22.352 121.744 22.228 121.728 22.084C121.72 21.932 121.704 21.8 121.68 21.688H123.036ZM117.144 21.796C117.12 21.86 117.092 21.952 117.06 22.072C117.028 22.192 116.996 22.312 116.964 22.432C116.94 22.552 116.92 22.648 116.904 22.72C116.864 22.912 116.816 23.16 116.76 23.464C116.712 23.76 116.66 24.088 116.604 24.448C116.556 24.8 116.508 25.16 116.46 25.528C116.42 25.896 116.384 26.248 116.352 26.584C116.328 26.92 116.316 27.216 116.316 27.472C116.316 27.68 116.324 27.892 116.34 28.108C116.356 28.316 116.38 28.532 116.412 28.756C116.468 28.588 116.532 28.416 116.604 28.24C116.676 28.056 116.748 27.876 116.82 27.7C116.9 27.524 116.972 27.364 117.036 27.22L117.636 27.688C117.532 27.992 117.42 28.32 117.3 28.672C117.18 29.016 117.072 29.344 116.976 29.656C116.888 29.968 116.82 30.228 116.772 30.436C116.756 30.516 116.74 30.612 116.724 30.724C116.716 30.828 116.712 30.916 116.712 30.988C116.72 31.044 116.724 31.112 116.724 31.192C116.732 31.28 116.74 31.36 116.748 31.432L115.68 31.516C115.552 31.092 115.44 30.556 115.344 29.908C115.256 29.252 115.212 28.516 115.212 27.7C115.212 27.252 115.232 26.788 115.272 26.308C115.312 25.82 115.36 25.344 115.416 24.88C115.48 24.416 115.54 23.992 115.596 23.608C115.652 23.224 115.7 22.912 115.74 22.672C115.756 22.52 115.772 22.356 115.788 22.18C115.812 22.004 115.828 21.836 115.836 21.676L117.144 21.796ZM129.144 22.444C129.584 22.5 130.076 22.54 130.62 22.564C131.172 22.588 131.752 22.6 132.36 22.6C132.752 22.6 133.148 22.592 133.548 22.576C133.948 22.56 134.332 22.54 134.7 22.516C135.076 22.484 135.412 22.456 135.708 22.432V23.68C135.436 23.704 135.108 23.728 134.724 23.752C134.348 23.776 133.956 23.796 133.548 23.812C133.14 23.82 132.748 23.824 132.372 23.824C131.756 23.824 131.184 23.812 130.656 23.788C130.128 23.756 129.624 23.724 129.144 23.692V22.444ZM129.864 27.388C129.792 27.612 129.736 27.832 129.696 28.048C129.656 28.264 129.636 28.476 129.636 28.684C129.636 29.108 129.852 29.456 130.284 29.728C130.724 30 131.4 30.136 132.312 30.136C132.864 30.136 133.392 30.116 133.896 30.076C134.408 30.036 134.884 29.98 135.324 29.908C135.764 29.836 136.144 29.752 136.464 29.656L136.476 30.976C136.164 31.056 135.792 31.128 135.36 31.192C134.936 31.256 134.468 31.304 133.956 31.336C133.452 31.376 132.92 31.396 132.36 31.396C131.504 31.396 130.78 31.3 130.188 31.108C129.596 30.924 129.148 30.652 128.844 30.292C128.54 29.932 128.388 29.492 128.388 28.972C128.388 28.644 128.416 28.34 128.472 28.06C128.528 27.772 128.58 27.512 128.628 27.28L129.864 27.388ZM144.132 21.532C144.076 21.708 144.028 21.892 143.988 22.084C143.956 22.276 143.92 22.46 143.88 22.636C143.848 22.828 143.804 23.06 143.748 23.332C143.692 23.596 143.628 23.884 143.556 24.196C143.492 24.5 143.424 24.808 143.352 25.12C143.28 25.432 143.204 25.732 143.124 26.02C143.044 26.3 142.964 26.552 142.884 26.776C143.396 26.456 143.912 26.228 144.432 26.092C144.952 25.948 145.504 25.876 146.088 25.876C146.736 25.876 147.288 25.98 147.744 26.188C148.208 26.388 148.568 26.672 148.824 27.04C149.08 27.408 149.208 27.84 149.208 28.336C149.208 28.976 149.052 29.52 148.74 29.968C148.436 30.416 148.004 30.764 147.444 31.012C146.884 31.268 146.216 31.432 145.44 31.504C144.672 31.576 143.816 31.564 142.872 31.468L142.548 30.256C143.228 30.352 143.888 30.396 144.528 30.388C145.176 30.38 145.756 30.308 146.268 30.172C146.78 30.028 147.188 29.808 147.492 29.512C147.796 29.216 147.948 28.832 147.948 28.36C147.948 27.952 147.776 27.608 147.432 27.328C147.096 27.04 146.604 26.896 145.956 26.896C145.252 26.896 144.596 27.016 143.988 27.256C143.38 27.496 142.884 27.852 142.5 28.324C142.436 28.412 142.376 28.5 142.32 28.588C142.264 28.668 142.208 28.76 142.152 28.864L141.024 28.468C141.256 28.02 141.468 27.52 141.66 26.968C141.852 26.416 142.02 25.86 142.164 25.3C142.316 24.732 142.44 24.208 142.536 23.728C142.632 23.248 142.696 22.856 142.728 22.552C142.76 22.336 142.78 22.148 142.788 21.988C142.804 21.82 142.804 21.648 142.788 21.472L144.132 21.532ZM140.208 23.008C140.552 23.064 140.94 23.112 141.372 23.152C141.804 23.192 142.204 23.212 142.572 23.212C142.956 23.212 143.38 23.2 143.844 23.176C144.316 23.152 144.808 23.116 145.32 23.068C145.832 23.02 146.344 22.96 146.856 22.888C147.376 22.808 147.876 22.716 148.356 22.612L148.38 23.764C147.972 23.828 147.52 23.892 147.024 23.956C146.528 24.02 146.02 24.08 145.5 24.136C144.98 24.184 144.468 24.224 143.964 24.256C143.46 24.28 143 24.292 142.584 24.292C142.152 24.292 141.736 24.284 141.336 24.268C140.936 24.244 140.56 24.216 140.208 24.184V23.008ZM155.388 21.484C155.66 21.564 156.008 21.652 156.432 21.748C156.856 21.844 157.3 21.94 157.764 22.036C158.228 22.124 158.668 22.204 159.084 22.276C159.5 22.34 159.84 22.384 160.104 22.408L159.828 23.572C159.588 23.54 159.304 23.496 158.976 23.44C158.648 23.376 158.296 23.308 157.92 23.236C157.544 23.164 157.172 23.092 156.804 23.02C156.444 22.948 156.116 22.876 155.82 22.804C155.524 22.732 155.28 22.672 155.088 22.624L155.388 21.484ZM155.28 23.764C155.24 23.948 155.196 24.18 155.148 24.46C155.108 24.74 155.064 25.032 155.016 25.336C154.976 25.64 154.936 25.932 154.896 26.212C154.856 26.484 154.824 26.712 154.8 26.896C155.36 26.44 155.952 26.104 156.576 25.888C157.208 25.672 157.864 25.564 158.544 25.564C159.2 25.564 159.764 25.684 160.236 25.924C160.708 26.156 161.072 26.472 161.328 26.872C161.592 27.264 161.724 27.7 161.724 28.18C161.724 28.716 161.604 29.212 161.364 29.668C161.124 30.116 160.744 30.496 160.224 30.808C159.704 31.112 159.028 31.328 158.196 31.456C157.372 31.584 156.376 31.6 155.208 31.504L154.848 30.268C156.08 30.42 157.108 30.424 157.932 30.28C158.764 30.136 159.388 29.88 159.804 29.512C160.22 29.136 160.428 28.684 160.428 28.156C160.428 27.86 160.34 27.6 160.164 27.376C159.996 27.144 159.764 26.964 159.468 26.836C159.172 26.7 158.832 26.632 158.448 26.632C157.712 26.632 157.036 26.768 156.42 27.04C155.812 27.304 155.308 27.676 154.908 28.156C154.804 28.276 154.72 28.388 154.656 28.492C154.6 28.588 154.548 28.688 154.5 28.792L153.396 28.528C153.444 28.304 153.492 28.036 153.54 27.724C153.596 27.404 153.648 27.064 153.696 26.704C153.744 26.336 153.788 25.968 153.828 25.6C153.868 25.224 153.904 24.864 153.936 24.52C153.968 24.168 153.992 23.86 154.008 23.596L155.28 23.764Z" fill="#333333"/>
<g clip-path="url(#clip1_296_2066)">
<path d="M46.6282 51.0972C45.1284 52.0699 44.8338 55.1104 45.4 57.5885C45.841 59.5183 46.7785 62.1069 48.3595 64.5446C49.8468 66.8378 51.9217 68.894 53.5039 70.0837C55.5356 71.6114 58.4319 72.5823 59.9317 71.6096C60.6901 71.1177 61.8168 69.7739 61.8682 69.5328C61.8682 69.5328 61.2074 68.514 61.0625 68.2905L58.8467 64.8742C58.6821 64.6203 57.6495 64.8524 57.125 65.1495C56.4174 65.5504 55.7658 66.6261 55.7658 66.6261C55.2806 66.9064 54.8742 66.6271 54.0252 66.2364C52.9817 65.7563 51.8084 64.2645 50.8747 62.9133C50.0218 61.5097 49.1382 59.83 49.1253 58.6815C49.1148 57.7469 49.0256 57.262 49.4793 56.9333C49.4793 56.9333 50.7273 56.777 51.3819 56.2945C51.8671 55.9367 52.5001 55.0886 52.3354 54.8347L50.1198 51.4184C49.9748 51.1948 49.3141 50.1761 49.3141 50.1761C49.073 50.1246 47.3865 50.6053 46.6282 51.0972Z" fill="#9B7714"/>
<path d="M59.1896 53.6464C60.0913 49.9713 57.9489 46.2132 54.3271 45.1168L54.633 44C58.8706 45.2655 61.3764 49.6611 60.3064 53.9522L59.1896 53.6464Z" fill="#9B7714"/>
<path d="M56.769 52.9837C57.3074 50.6429 55.9525 48.2662 53.6641 47.537L53.97 46.4199C56.8742 47.3186 58.5924 50.3326 57.8862 53.2896L56.769 52.9837Z" fill="#9B7714"/>
<path d="M54.3461 52.3201C54.5259 51.3153 53.9572 50.3176 53.001 49.9605L53.3075 48.8411C54.8783 49.3713 55.8095 51.0048 55.4654 52.6266L54.3461 52.3201Z" fill="#9B7714"/>
</g>
<path d="M77.026 66.216C76.234 66.216 75.502 65.958 74.83 65.442C74.158 64.926 73.612 64.17 73.192 63.174C72.784 62.166 72.58 60.93 72.58 59.466C72.58 58.002 72.784 56.772 73.192 55.776C73.612 54.768 74.158 54.006 74.83 53.49C75.502 52.974 76.234 52.716 77.026 52.716C77.818 52.716 78.55 52.974 79.222 53.49C79.894 54.006 80.434 54.768 80.842 55.776C81.262 56.772 81.472 58.002 81.472 59.466C81.472 60.93 81.262 62.166 80.842 63.174C80.434 64.17 79.894 64.926 79.222 65.442C78.55 65.958 77.818 66.216 77.026 66.216ZM77.026 65.424C77.722 65.424 78.256 65.172 78.628 64.668C79.012 64.152 79.282 63.45 79.438 62.562C79.594 61.662 79.672 60.63 79.672 59.466C79.672 58.302 79.594 57.276 79.438 56.388C79.282 55.488 79.012 54.786 78.628 54.282C78.256 53.766 77.722 53.508 77.026 53.508C76.342 53.508 75.808 53.766 75.424 54.282C75.04 54.786 74.77 55.488 74.614 56.388C74.458 57.288 74.38 58.314 74.38 59.466C74.38 60.618 74.458 61.644 74.614 62.544C74.77 63.444 75.04 64.152 75.424 64.668C75.808 65.172 76.342 65.424 77.026 65.424ZM87.7222 66.216C86.6302 66.216 85.7602 66.03 85.1122 65.658C84.4642 65.286 84.1402 64.836 84.1402 64.308C84.1402 64.068 84.2122 63.858 84.3562 63.678C84.5002 63.498 84.7042 63.408 84.9682 63.408C85.1482 63.408 85.3042 63.462 85.4362 63.57C85.5682 63.678 85.6942 63.87 85.8142 64.146C85.9702 64.494 86.2102 64.776 86.5342 64.992C86.7022 65.112 86.8822 65.208 87.0742 65.28C87.2782 65.34 87.4942 65.37 87.7222 65.37C88.3942 65.37 88.9342 65.214 89.3422 64.902C89.7502 64.59 90.0502 64.206 90.2422 63.75C90.4342 63.294 90.5302 62.862 90.5302 62.454C90.5302 61.878 90.4402 61.404 90.2602 61.032C90.0922 60.66 89.8762 60.378 89.6122 60.186C89.3602 59.982 89.1022 59.844 88.8382 59.772C88.5742 59.688 88.3462 59.646 88.1542 59.646C87.9262 59.646 87.6622 59.658 87.3622 59.682C87.0622 59.694 86.8642 59.7 86.7682 59.7C86.4802 59.7 86.3362 59.532 86.3362 59.196C86.3362 58.848 86.4802 58.674 86.7682 58.674C86.9002 58.674 87.0682 58.68 87.2722 58.692C87.4762 58.692 87.6622 58.692 87.8302 58.692C87.9622 58.692 88.1542 58.632 88.4062 58.512C88.6582 58.392 88.9162 58.206 89.1802 57.954C89.4442 57.702 89.6662 57.384 89.8462 57C90.0382 56.616 90.1342 56.16 90.1342 55.632C90.1342 54.924 89.9182 54.396 89.4862 54.048C89.0542 53.688 88.5562 53.508 87.9922 53.508C87.5842 53.508 87.1882 53.598 86.8042 53.778C86.4322 53.958 86.1622 54.252 85.9942 54.66C85.9102 54.864 85.8802 55.044 85.9042 55.2C85.9282 55.344 85.9582 55.476 85.9942 55.596C86.0062 55.656 86.0182 55.716 86.0302 55.776C86.0422 55.824 86.0482 55.872 86.0482 55.92C86.0482 56.172 85.9522 56.37 85.7602 56.514C85.5802 56.658 85.3882 56.73 85.1842 56.73C84.9322 56.73 84.7342 56.64 84.5902 56.46C84.4462 56.28 84.3562 56.058 84.3202 55.794C84.2962 55.518 84.3142 55.236 84.3742 54.948C84.5062 54.456 84.7582 54.048 85.1302 53.724C85.5142 53.388 85.9702 53.136 86.4982 52.968C87.0382 52.8 87.5902 52.716 88.1542 52.716C88.8982 52.716 89.5402 52.854 90.0802 53.13C90.6202 53.406 91.0402 53.766 91.3402 54.21C91.6402 54.654 91.7902 55.14 91.7902 55.668C91.7902 56.436 91.5202 57.12 90.9802 57.72C90.4402 58.308 89.7742 58.74 88.9822 59.016C88.9342 59.028 88.9102 59.058 88.9102 59.106C88.9222 59.142 88.9582 59.16 89.0182 59.16C89.6302 59.16 90.1822 59.31 90.6742 59.61C91.1782 59.898 91.5742 60.294 91.8622 60.798C92.1622 61.29 92.3122 61.836 92.3122 62.436C92.3122 63.252 92.0902 63.942 91.6462 64.506C91.2142 65.07 90.6442 65.496 89.9362 65.784C89.2402 66.072 88.5022 66.216 87.7222 66.216ZM95.1853 62.688C95.0053 62.688 94.9153 62.604 94.9153 62.436V61.824C94.9153 61.656 95.0053 61.572 95.1853 61.572H100.297C100.477 61.572 100.567 61.656 100.567 61.824V62.436C100.567 62.604 100.477 62.688 100.297 62.688H95.1853ZM106.51 66.216C105.91 66.216 105.346 66.132 104.818 65.964C104.29 65.796 103.864 65.568 103.54 65.28C103.216 64.98 103.054 64.656 103.054 64.308C103.054 64.068 103.12 63.858 103.252 63.678C103.396 63.498 103.6 63.408 103.864 63.408C104.056 63.408 104.212 63.462 104.332 63.57C104.464 63.666 104.59 63.858 104.71 64.146C104.914 64.614 105.202 64.938 105.574 65.118C105.946 65.298 106.288 65.388 106.6 65.388C106.924 65.388 107.26 65.334 107.608 65.226C107.956 65.118 108.286 64.932 108.598 64.668C108.91 64.404 109.162 64.032 109.354 63.552C109.546 63.072 109.642 62.46 109.642 61.716C109.642 61.02 109.564 60.462 109.408 60.042C109.252 59.61 109.042 59.28 108.778 59.052C108.526 58.824 108.25 58.668 107.95 58.584C107.65 58.5 107.362 58.458 107.086 58.458C106.786 58.458 106.42 58.548 105.988 58.728C105.556 58.896 105.19 59.232 104.89 59.736C104.842 59.808 104.77 59.844 104.674 59.844H104.242C104.134 59.844 104.08 59.79 104.08 59.682V53.04C104.08 52.848 104.194 52.77 104.422 52.806C104.77 52.854 105.22 52.896 105.772 52.932C106.324 52.956 106.9 52.968 107.5 52.968C108.1 52.956 108.652 52.938 109.156 52.914C109.66 52.878 110.044 52.824 110.308 52.752C110.44 52.716 110.53 52.722 110.578 52.77C110.59 52.782 110.59 52.824 110.578 52.896C110.566 52.92 110.56 52.938 110.56 52.95C110.56 52.998 110.53 53.094 110.47 53.238C110.422 53.37 110.362 53.508 110.29 53.652C110.23 53.784 110.176 53.886 110.128 53.958C110.056 54.078 109.96 54.168 109.84 54.228C109.72 54.288 109.558 54.336 109.354 54.372C109.15 54.396 108.868 54.42 108.508 54.444C108.16 54.456 107.782 54.462 107.374 54.462C106.966 54.462 106.57 54.456 106.186 54.444C105.802 54.432 105.472 54.408 105.196 54.372C105.028 54.348 104.944 54.414 104.944 54.57V58.602C104.944 58.638 104.956 58.662 104.98 58.674C105.016 58.674 105.052 58.662 105.088 58.638C105.304 58.434 105.598 58.224 105.97 58.008C106.342 57.792 106.816 57.684 107.392 57.684C108.1 57.684 108.76 57.834 109.372 58.134C109.984 58.434 110.476 58.878 110.848 59.466C111.232 60.054 111.424 60.774 111.424 61.626C111.424 62.418 111.238 63.168 110.866 63.876C110.506 64.572 109.96 65.136 109.228 65.568C108.508 66 107.602 66.216 106.51 66.216ZM118.593 66.216C117.813 66.216 117.093 66.066 116.433 65.766C115.773 65.466 115.245 65.046 114.849 64.506C114.453 63.966 114.255 63.342 114.255 62.634C114.255 62.118 114.375 61.626 114.615 61.158C114.855 60.69 115.203 60.282 115.659 59.934C116.127 59.586 116.685 59.34 117.333 59.196C116.865 59.052 116.427 58.83 116.019 58.53C115.623 58.23 115.299 57.87 115.047 57.45C114.795 57.03 114.669 56.562 114.669 56.046C114.669 55.35 114.855 54.756 115.227 54.264C115.611 53.772 116.103 53.394 116.703 53.13C117.303 52.854 117.933 52.716 118.593 52.716C119.253 52.716 119.883 52.854 120.483 53.13C121.083 53.394 121.575 53.772 121.959 54.264C122.343 54.756 122.535 55.35 122.535 56.046C122.535 56.55 122.415 57.012 122.175 57.432C121.935 57.852 121.611 58.212 121.203 58.512C120.807 58.812 120.369 59.04 119.889 59.196C120.549 59.34 121.101 59.592 121.545 59.952C122.001 60.3 122.343 60.708 122.571 61.176C122.811 61.644 122.931 62.13 122.931 62.634C122.931 63.342 122.733 63.966 122.337 64.506C121.941 65.046 121.413 65.466 120.753 65.766C120.093 66.066 119.373 66.216 118.593 66.216ZM118.593 65.424C119.457 65.424 120.099 65.142 120.519 64.578C120.939 64.014 121.149 63.324 121.149 62.508C121.149 61.572 120.915 60.864 120.447 60.384C119.991 59.904 119.373 59.664 118.593 59.664C117.825 59.664 117.207 59.904 116.739 60.384C116.271 60.864 116.037 61.572 116.037 62.508C116.037 63.324 116.253 64.014 116.685 64.578C117.117 65.142 117.753 65.424 118.593 65.424ZM118.593 58.764C119.169 58.764 119.619 58.632 119.943 58.368C120.267 58.104 120.489 57.762 120.609 57.342C120.741 56.922 120.807 56.484 120.807 56.028C120.807 55.392 120.699 54.894 120.483 54.534C120.279 54.162 120.009 53.904 119.673 53.76C119.337 53.604 118.977 53.526 118.593 53.526C118.233 53.526 117.885 53.604 117.549 53.76C117.213 53.904 116.937 54.162 116.721 54.534C116.505 54.894 116.397 55.392 116.397 56.028C116.397 56.496 116.457 56.94 116.577 57.36C116.709 57.768 116.931 58.104 117.243 58.368C117.567 58.632 118.017 58.764 118.593 58.764ZM128.72 66C128.624 66 128.558 65.946 128.522 65.838C128.498 65.73 128.504 65.628 128.54 65.532C128.576 65.424 128.636 65.37 128.72 65.37C129.284 65.31 129.71 65.214 129.998 65.082C130.298 64.95 130.448 64.68 130.448 64.272V62.364H125.678C125.462 62.364 125.354 62.268 125.354 62.076V61.788C125.354 61.728 125.366 61.68 125.39 61.644C125.414 61.608 125.432 61.566 125.444 61.518C125.444 61.518 125.546 61.368 125.75 61.068C125.954 60.756 126.224 60.354 126.56 59.862C126.896 59.358 127.262 58.806 127.658 58.206C128.066 57.606 128.468 57.006 128.864 56.406C129.272 55.806 129.644 55.254 129.98 54.75C130.316 54.246 130.586 53.838 130.79 53.526C130.994 53.214 131.102 53.052 131.114 53.04C131.174 52.932 131.306 52.878 131.51 52.878H131.762C131.918 52.878 131.996 52.968 131.996 53.148V61.518H134.174C134.306 61.518 134.39 61.59 134.426 61.734C134.462 61.866 134.456 62.004 134.408 62.148C134.36 62.292 134.27 62.364 134.138 62.364H131.996V64.272C131.996 64.68 132.122 64.95 132.374 65.082C132.638 65.214 133.046 65.31 133.598 65.37C133.682 65.37 133.736 65.424 133.76 65.532C133.784 65.628 133.784 65.73 133.76 65.838C133.736 65.946 133.682 66 133.598 66H128.72ZM126.884 61.518H130.448V55.56C130.448 55.464 130.424 55.452 130.376 55.524L126.65 61.158C126.59 61.242 126.578 61.326 126.614 61.41C126.662 61.482 126.752 61.518 126.884 61.518ZM140.293 66.216C139.693 66.216 139.129 66.132 138.601 65.964C138.073 65.796 137.647 65.568 137.323 65.28C136.999 64.98 136.837 64.656 136.837 64.308C136.837 64.068 136.903 63.858 137.035 63.678C137.179 63.498 137.383 63.408 137.647 63.408C137.839 63.408 137.995 63.462 138.115 63.57C138.247 63.666 138.373 63.858 138.493 64.146C138.697 64.614 138.985 64.938 139.357 65.118C139.729 65.298 140.071 65.388 140.383 65.388C140.707 65.388 141.043 65.334 141.391 65.226C141.739 65.118 142.069 64.932 142.381 64.668C142.693 64.404 142.945 64.032 143.137 63.552C143.329 63.072 143.425 62.46 143.425 61.716C143.425 61.02 143.347 60.462 143.191 60.042C143.035 59.61 142.825 59.28 142.561 59.052C142.309 58.824 142.033 58.668 141.733 58.584C141.433 58.5 141.145 58.458 140.869 58.458C140.569 58.458 140.203 58.548 139.771 58.728C139.339 58.896 138.973 59.232 138.673 59.736C138.625 59.808 138.553 59.844 138.457 59.844H138.025C137.917 59.844 137.863 59.79 137.863 59.682V53.04C137.863 52.848 137.977 52.77 138.205 52.806C138.553 52.854 139.003 52.896 139.555 52.932C140.107 52.956 140.683 52.968 141.283 52.968C141.883 52.956 142.435 52.938 142.939 52.914C143.443 52.878 143.827 52.824 144.091 52.752C144.223 52.716 144.313 52.722 144.361 52.77C144.373 52.782 144.373 52.824 144.361 52.896C144.349 52.92 144.343 52.938 144.343 52.95C144.343 52.998 144.313 53.094 144.253 53.238C144.205 53.37 144.145 53.508 144.073 53.652C144.013 53.784 143.959 53.886 143.911 53.958C143.839 54.078 143.743 54.168 143.623 54.228C143.503 54.288 143.341 54.336 143.137 54.372C142.933 54.396 142.651 54.42 142.291 54.444C141.943 54.456 141.565 54.462 141.157 54.462C140.749 54.462 140.353 54.456 139.969 54.444C139.585 54.432 139.255 54.408 138.979 54.372C138.811 54.348 138.727 54.414 138.727 54.57V58.602C138.727 58.638 138.739 58.662 138.763 58.674C138.799 58.674 138.835 58.662 138.871 58.638C139.087 58.434 139.381 58.224 139.753 58.008C140.125 57.792 140.599 57.684 141.175 57.684C141.883 57.684 142.543 57.834 143.155 58.134C143.767 58.434 144.259 58.878 144.631 59.466C145.015 60.054 145.207 60.774 145.207 61.626C145.207 62.418 145.021 63.168 144.649 63.876C144.289 64.572 143.743 65.136 143.011 65.568C142.291 66 141.385 66.216 140.293 66.216ZM148.092 62.688C147.912 62.688 147.822 62.604 147.822 62.436V61.824C147.822 61.656 147.912 61.572 148.092 61.572H153.204C153.384 61.572 153.474 61.656 153.474 61.824V62.436C153.474 62.604 153.384 62.688 153.204 62.688H148.092ZM160.479 66.216C159.699 66.216 158.979 66.066 158.319 65.766C157.659 65.466 157.131 65.046 156.735 64.506C156.339 63.966 156.141 63.342 156.141 62.634C156.141 62.118 156.261 61.626 156.501 61.158C156.741 60.69 157.089 60.282 157.545 59.934C158.013 59.586 158.571 59.34 159.219 59.196C158.751 59.052 158.313 58.83 157.905 58.53C157.509 58.23 157.185 57.87 156.933 57.45C156.681 57.03 156.555 56.562 156.555 56.046C156.555 55.35 156.741 54.756 157.113 54.264C157.497 53.772 157.989 53.394 158.589 53.13C159.189 52.854 159.819 52.716 160.479 52.716C161.139 52.716 161.769 52.854 162.369 53.13C162.969 53.394 163.461 53.772 163.845 54.264C164.229 54.756 164.421 55.35 164.421 56.046C164.421 56.55 164.301 57.012 164.061 57.432C163.821 57.852 163.497 58.212 163.089 58.512C162.693 58.812 162.255 59.04 161.775 59.196C162.435 59.34 162.987 59.592 163.431 59.952C163.887 60.3 164.229 60.708 164.457 61.176C164.697 61.644 164.817 62.13 164.817 62.634C164.817 63.342 164.619 63.966 164.223 64.506C163.827 65.046 163.299 65.466 162.639 65.766C161.979 66.066 161.259 66.216 160.479 66.216ZM160.479 65.424C161.343 65.424 161.985 65.142 162.405 64.578C162.825 64.014 163.035 63.324 163.035 62.508C163.035 61.572 162.801 60.864 162.333 60.384C161.877 59.904 161.259 59.664 160.479 59.664C159.711 59.664 159.093 59.904 158.625 60.384C158.157 60.864 157.923 61.572 157.923 62.508C157.923 63.324 158.139 64.014 158.571 64.578C159.003 65.142 159.639 65.424 160.479 65.424ZM160.479 58.764C161.055 58.764 161.505 58.632 161.829 58.368C162.153 58.104 162.375 57.762 162.495 57.342C162.627 56.922 162.693 56.484 162.693 56.028C162.693 55.392 162.585 54.894 162.369 54.534C162.165 54.162 161.895 53.904 161.559 53.76C161.223 53.604 160.863 53.526 160.479 53.526C160.119 53.526 159.771 53.604 159.435 53.76C159.099 53.904 158.823 54.162 158.607 54.534C158.391 54.894 158.283 55.392 158.283 56.028C158.283 56.496 158.343 56.94 158.463 57.36C158.595 57.768 158.817 58.104 159.129 58.368C159.453 58.632 159.903 58.764 160.479 58.764ZM167.726 66C167.522 66 167.42 65.898 167.42 65.694V65.136C167.42 64.848 167.57 64.506 167.87 64.11C168.182 63.714 168.578 63.276 169.058 62.796C169.55 62.304 170.066 61.788 170.606 61.248C171.146 60.696 171.656 60.126 172.136 59.538C172.628 58.95 173.024 58.356 173.324 57.756C173.636 57.144 173.792 56.544 173.792 55.956C173.792 55.5 173.726 55.086 173.594 54.714C173.474 54.342 173.258 54.048 172.946 53.832C172.646 53.616 172.22 53.508 171.668 53.508C170.996 53.508 170.45 53.658 170.03 53.958C169.622 54.258 169.418 54.708 169.418 55.308C169.418 55.476 169.442 55.62 169.49 55.74C169.538 55.86 169.604 55.986 169.688 56.118C169.772 56.238 169.814 56.37 169.814 56.514C169.814 56.778 169.724 56.994 169.544 57.162C169.364 57.318 169.142 57.396 168.878 57.396C168.638 57.396 168.434 57.306 168.266 57.126C168.11 56.946 167.99 56.724 167.906 56.46C167.822 56.196 167.78 55.938 167.78 55.686C167.78 55.098 167.966 54.582 168.338 54.138C168.722 53.694 169.22 53.346 169.832 53.094C170.456 52.842 171.134 52.716 171.866 52.716C172.25 52.716 172.652 52.776 173.072 52.896C173.504 53.016 173.906 53.208 174.278 53.472C174.662 53.724 174.974 54.06 175.214 54.48C175.454 54.888 175.574 55.392 175.574 55.992C175.574 56.484 175.436 56.994 175.16 57.522C174.896 58.038 174.542 58.56 174.098 59.088C173.666 59.604 173.198 60.114 172.694 60.618C172.19 61.11 171.692 61.578 171.2 62.022C170.72 62.466 170.294 62.874 169.922 63.246C169.562 63.606 169.31 63.912 169.166 64.164C169.07 64.428 169.124 64.56 169.328 64.56H173.954C174.278 64.56 174.488 64.458 174.584 64.254C174.656 64.122 174.752 63.936 174.872 63.696C174.992 63.456 175.076 63.294 175.124 63.21C175.172 63.126 175.25 63.084 175.358 63.084C175.466 63.072 175.562 63.096 175.646 63.156C175.73 63.204 175.76 63.276 175.736 63.372L175.07 65.586C175.022 65.73 174.944 65.838 174.836 65.91C174.728 65.97 174.614 66 174.494 66H167.726ZM183.068 66.216C182.276 66.216 181.544 65.958 180.872 65.442C180.2 64.926 179.654 64.17 179.234 63.174C178.826 62.166 178.622 60.93 178.622 59.466C178.622 58.002 178.826 56.772 179.234 55.776C179.654 54.768 180.2 54.006 180.872 53.49C181.544 52.974 182.276 52.716 183.068 52.716C183.86 52.716 184.592 52.974 185.264 53.49C185.936 54.006 186.476 54.768 186.884 55.776C187.304 56.772 187.514 58.002 187.514 59.466C187.514 60.93 187.304 62.166 186.884 63.174C186.476 64.17 185.936 64.926 185.264 65.442C184.592 65.958 183.86 66.216 183.068 66.216ZM183.068 65.424C183.764 65.424 184.298 65.172 184.67 64.668C185.054 64.152 185.324 63.45 185.48 62.562C185.636 61.662 185.714 60.63 185.714 59.466C185.714 58.302 185.636 57.276 185.48 56.388C185.324 55.488 185.054 54.786 184.67 54.282C184.298 53.766 183.764 53.508 183.068 53.508C182.384 53.508 181.85 53.766 181.466 54.282C181.082 54.786 180.812 55.488 180.656 56.388C180.5 57.288 180.422 58.314 180.422 59.466C180.422 60.618 180.5 61.644 180.656 62.544C180.812 63.444 181.082 64.152 181.466 64.668C181.85 65.172 182.384 65.424 183.068 65.424ZM194.862 66.216C194.07 66.216 193.338 65.958 192.666 65.442C191.994 64.926 191.448 64.17 191.028 63.174C190.62 62.166 190.416 60.93 190.416 59.466C190.416 58.002 190.62 56.772 191.028 55.776C191.448 54.768 191.994 54.006 192.666 53.49C193.338 52.974 194.07 52.716 194.862 52.716C195.654 52.716 196.386 52.974 197.058 53.49C197.73 54.006 198.27 54.768 198.678 55.776C199.098 56.772 199.308 58.002 199.308 59.466C199.308 60.93 199.098 62.166 198.678 63.174C198.27 64.17 197.73 64.926 197.058 65.442C196.386 65.958 195.654 66.216 194.862 66.216ZM194.862 65.424C195.558 65.424 196.092 65.172 196.464 64.668C196.848 64.152 197.118 63.45 197.274 62.562C197.43 61.662 197.508 60.63 197.508 59.466C197.508 58.302 197.43 57.276 197.274 56.388C197.118 55.488 196.848 54.786 196.464 54.282C196.092 53.766 195.558 53.508 194.862 53.508C194.178 53.508 193.644 53.766 193.26 54.282C192.876 54.786 192.606 55.488 192.45 56.388C192.294 57.288 192.216 58.314 192.216 59.466C192.216 60.618 192.294 61.644 192.45 62.544C192.606 63.444 192.876 64.152 193.26 64.668C193.644 65.172 194.178 65.424 194.862 65.424Z" fill="#9B7714"/>
<rect width="240" height="28" transform="translate(0 84)" fill="#9B7714"/>
<path d="M32.72 96.49H41.29V98.53H40.55V97.15H33.43V98.53H32.72V96.49ZM33.94 98.28H39.53V98.98H33.94V98.28ZM40.2 93.56L40.72 94.17C40.22 94.27 39.66 94.3633 39.04 94.45C38.42 94.5367 37.7667 94.6133 37.08 94.68C36.4 94.74 35.71 94.7933 35.01 94.84C34.3167 94.8867 33.6433 94.9233 32.99 94.95C32.9833 94.85 32.96 94.74 32.92 94.62C32.8867 94.4933 32.8533 94.3867 32.82 94.3C33.4667 94.2733 34.13 94.2367 34.81 94.19C35.4967 94.1433 36.17 94.09 36.83 94.03C37.4967 93.97 38.1167 93.9 38.69 93.82C39.2633 93.74 39.7667 93.6533 40.2 93.56ZM33.66 95.16L34.31 94.97C34.4567 95.17 34.5967 95.3967 34.73 95.65C34.8633 95.9033 34.9567 96.1167 35.01 96.29L34.33 96.52C34.2767 96.3333 34.1833 96.1133 34.05 95.86C33.9233 95.6 33.7933 95.3667 33.66 95.16ZM36.32 94.94L36.99 94.79C37.11 95.0233 37.22 95.2767 37.32 95.55C37.4267 95.8167 37.4933 96.05 37.52 96.25L36.82 96.43C36.7867 96.2367 36.7233 96 36.63 95.72C36.5367 95.4333 36.4333 95.1733 36.32 94.94ZM39.73 94.77L40.5 95C40.38 95.2133 40.25 95.4333 40.11 95.66C39.9767 95.88 39.84 96.0933 39.7 96.3C39.56 96.5067 39.43 96.69 39.31 96.85L38.71 96.64C38.8233 96.4733 38.9433 96.2833 39.07 96.07C39.1967 95.85 39.32 95.6267 39.44 95.4C39.56 95.1667 39.6567 94.9567 39.73 94.77ZM39.26 98.28H39.42L39.56 98.25L40.06 98.57C39.7533 99.2033 39.3533 99.7567 38.86 100.23C38.3733 100.703 37.8167 101.107 37.19 101.44C36.5633 101.767 35.89 102.037 35.17 102.25C34.4567 102.47 33.7167 102.643 32.95 102.77C32.9233 102.71 32.8833 102.637 32.83 102.55C32.7833 102.463 32.73 102.38 32.67 102.3C32.6167 102.22 32.5667 102.153 32.52 102.1C33.2667 101.993 33.9867 101.847 34.68 101.66C35.38 101.467 36.0267 101.223 36.62 100.93C37.2133 100.637 37.7367 100.283 38.19 99.87C38.6433 99.45 39 98.9633 39.26 98.41V98.28ZM34.91 98.75C35.2967 99.3633 35.81 99.8967 36.45 100.35C37.0967 100.797 37.8433 101.163 38.69 101.45C39.5433 101.737 40.4733 101.943 41.48 102.07C41.4267 102.123 41.37 102.19 41.31 102.27C41.2567 102.357 41.2033 102.443 41.15 102.53C41.0967 102.617 41.0533 102.697 41.02 102.77C40.0067 102.617 39.07 102.38 38.21 102.06C37.35 101.74 36.5833 101.327 35.91 100.82C35.2433 100.313 34.6933 99.7133 34.26 99.02L34.91 98.75ZM45.45 95.82H51.54V96.58H45.45V95.82ZM49.51 93.72H50.28V101.77C50.28 102.057 50.2367 102.267 50.15 102.4C50.0633 102.533 49.9267 102.63 49.74 102.69C49.5467 102.75 49.2733 102.787 48.92 102.8C48.5667 102.813 48.12 102.817 47.58 102.81C47.5667 102.743 47.5433 102.663 47.51 102.57C47.4767 102.483 47.44 102.393 47.4 102.3C47.36 102.213 47.32 102.133 47.28 102.06C47.56 102.073 47.83 102.08 48.09 102.08C48.3567 102.087 48.5867 102.087 48.78 102.08C48.9733 102.08 49.1067 102.08 49.18 102.08C49.3 102.073 49.3833 102.047 49.43 102C49.4833 101.96 49.51 101.883 49.51 101.77V93.72ZM46.08 97.94L46.73 97.63C46.9033 97.89 47.0833 98.17 47.27 98.47C47.4633 98.77 47.6467 99.06 47.82 99.34C47.9933 99.62 48.1333 99.8633 48.24 100.07L47.54 100.45C47.44 100.237 47.3067 99.9867 47.14 99.7C46.98 99.4133 46.8067 99.1167 46.62 98.81C46.4333 98.4967 46.2533 98.2067 46.08 97.94ZM43.86 96.32L44.61 95.57V95.58V102.78H43.86V96.32ZM44.95 93.66L45.68 93.89C45.4533 94.47 45.19 95.04 44.89 95.6C44.59 96.16 44.2667 96.6867 43.92 97.18C43.5733 97.6667 43.2133 98.1 42.84 98.48C42.8133 98.42 42.77 98.3433 42.71 98.25C42.6567 98.15 42.6 98.0533 42.54 97.96C42.48 97.8667 42.4233 97.79 42.37 97.73C42.7167 97.4033 43.05 97.0233 43.37 96.59C43.69 96.1567 43.9833 95.69 44.25 95.19C44.5233 94.69 44.7567 94.18 44.95 93.66ZM56.21 94.79H61.22V95.46H56.21V94.79ZM55.79 96.73H61.64V97.41H55.79V96.73ZM55.84 98.54H61.54V99.21H55.84V98.54ZM58.31 93.59H59.05V97.15H58.31V93.59ZM59.63 97.3H60.37V101.91C60.37 102.123 60.34 102.287 60.28 102.4C60.22 102.52 60.1133 102.607 59.96 102.66C59.8 102.72 59.59 102.757 59.33 102.77C59.07 102.783 58.7367 102.79 58.33 102.79C58.3167 102.69 58.2833 102.57 58.23 102.43C58.1833 102.297 58.1333 102.18 58.08 102.08C58.3867 102.087 58.6667 102.09 58.92 102.09C59.1733 102.097 59.34 102.097 59.42 102.09C59.5 102.09 59.5533 102.077 59.58 102.05C59.6133 102.023 59.63 101.973 59.63 101.9V97.3ZM56.45 99.91L57.05 99.56C57.2167 99.7267 57.3867 99.9133 57.56 100.12C57.7333 100.327 57.89 100.53 58.03 100.73C58.1767 100.93 58.2867 101.113 58.36 101.28L57.72 101.67C57.6467 101.503 57.54 101.32 57.4 101.12C57.2667 100.913 57.1167 100.707 56.95 100.5C56.7833 100.287 56.6167 100.09 56.45 99.91ZM53.12 94.25H55.62V100.83H53.12V100.15H54.91V94.94H53.12V94.25ZM53.15 97.16H55.24V97.84H53.15V97.16ZM52.76 94.25H53.46V101.65H52.76V94.25ZM65.48 99.73H68.51V100.31H65.48V99.73ZM65.44 98.22H68.85V101.87H65.44V101.28H68.15V98.81H65.44V98.22ZM65.12 98.22H65.8V102.38H65.12V98.22ZM63.27 95.45H66.05V96H63.27V95.45ZM67.88 95.45H70.72V96H67.88V95.45ZM70.4 94.03H71.16V101.81C71.16 102.043 71.1267 102.227 71.06 102.36C71 102.493 70.8867 102.593 70.72 102.66C70.56 102.727 70.34 102.767 70.06 102.78C69.7867 102.793 69.4433 102.8 69.03 102.8C69.0167 102.727 68.9967 102.643 68.97 102.55C68.9433 102.457 68.91 102.363 68.87 102.27C68.8367 102.177 68.8033 102.097 68.77 102.03C68.97 102.037 69.1633 102.04 69.35 102.04C69.5433 102.04 69.7133 102.04 69.86 102.04C70.0067 102.04 70.11 102.04 70.17 102.04C70.2567 102.033 70.3167 102.013 70.35 101.98C70.3833 101.947 70.4 101.887 70.4 101.8V94.03ZM63.33 94.03H66.53V97.46H63.33V96.89H65.83V94.61H63.33V94.03ZM70.78 94.03V94.61H68.15V96.9H70.78V97.48H67.44V94.03H70.78ZM62.9 94.03H63.65V102.81H62.9V94.03Z" fill="white"/>
<path d="M78.82 103.156C78.34 103.156 77.924 103.072 77.572 102.904C77.228 102.728 76.936 102.512 76.696 102.256L77.296 101.572C77.488 101.78 77.712 101.944 77.968 102.064C78.232 102.184 78.504 102.244 78.784 102.244C79.08 102.244 79.36 102.176 79.624 102.04C79.888 101.904 80.12 101.68 80.32 101.368C80.528 101.048 80.688 100.632 80.8 100.12C80.92 99.608 80.98 98.976 80.98 98.224C80.98 97.504 80.904 96.896 80.752 96.4C80.608 95.904 80.392 95.532 80.104 95.284C79.816 95.028 79.468 94.9 79.06 94.9C78.78 94.9 78.528 94.984 78.304 95.152C78.08 95.32 77.9 95.552 77.764 95.848C77.628 96.144 77.56 96.496 77.56 96.904C77.56 97.296 77.616 97.64 77.728 97.936C77.848 98.224 78.024 98.448 78.256 98.608C78.496 98.768 78.788 98.848 79.132 98.848C79.428 98.848 79.736 98.756 80.056 98.572C80.384 98.38 80.696 98.068 80.992 97.636L81.04 98.512C80.864 98.736 80.66 98.936 80.428 99.112C80.204 99.288 79.964 99.424 79.708 99.52C79.46 99.616 79.208 99.664 78.952 99.664C78.464 99.664 78.036 99.56 77.668 99.352C77.308 99.144 77.028 98.836 76.828 98.428C76.628 98.012 76.528 97.504 76.528 96.904C76.528 96.328 76.644 95.828 76.876 95.404C77.108 94.972 77.412 94.64 77.788 94.408C78.172 94.168 78.592 94.048 79.048 94.048C79.472 94.048 79.864 94.136 80.224 94.312C80.584 94.48 80.896 94.74 81.16 95.092C81.424 95.436 81.632 95.868 81.784 96.388C81.936 96.908 82.012 97.52 82.012 98.224C82.012 99.112 81.924 99.872 81.748 100.504C81.572 101.128 81.332 101.636 81.028 102.028C80.724 102.42 80.38 102.708 79.996 102.892C79.62 103.068 79.228 103.156 78.82 103.156ZM84.3243 98.32C84.1083 98.32 83.9203 98.244 83.7603 98.092C83.6083 97.932 83.5323 97.728 83.5323 97.48C83.5323 97.232 83.6083 97.032 83.7603 96.88C83.9203 96.72 84.1083 96.64 84.3243 96.64C84.5403 96.64 84.7243 96.72 84.8763 96.88C85.0363 97.032 85.1163 97.232 85.1163 97.48C85.1163 97.728 85.0363 97.932 84.8763 98.092C84.7243 98.244 84.5403 98.32 84.3243 98.32ZM84.3243 103.156C84.1083 103.156 83.9203 103.08 83.7603 102.928C83.6083 102.768 83.5323 102.568 83.5323 102.328C83.5323 102.072 83.6083 101.868 83.7603 101.716C83.9203 101.564 84.1083 101.488 84.3243 101.488C84.5403 101.488 84.7243 101.564 84.8763 101.716C85.0363 101.868 85.1163 102.072 85.1163 102.328C85.1163 102.568 85.0363 102.768 84.8763 102.928C84.7243 103.08 84.5403 103.156 84.3243 103.156ZM89.3321 103.156C88.7801 103.156 88.2961 102.988 87.8801 102.652C87.4721 102.316 87.1561 101.808 86.9321 101.128C86.7081 100.448 86.5961 99.596 86.5961 98.572C86.5961 97.548 86.7081 96.704 86.9321 96.04C87.1561 95.368 87.4721 94.868 87.8801 94.54C88.2961 94.212 88.7801 94.048 89.3321 94.048C89.8921 94.048 90.3761 94.216 90.7841 94.552C91.1921 94.88 91.5081 95.376 91.7321 96.04C91.9561 96.704 92.0681 97.548 92.0681 98.572C92.0681 99.596 91.9561 100.448 91.7321 101.128C91.5081 101.808 91.1921 102.316 90.7841 102.652C90.3761 102.988 89.8921 103.156 89.3321 103.156ZM89.3321 102.268C89.6681 102.268 89.9601 102.14 90.2081 101.884C90.4641 101.628 90.6601 101.228 90.7961 100.684C90.9401 100.132 91.0121 99.428 91.0121 98.572C91.0121 97.716 90.9401 97.02 90.7961 96.484C90.6601 95.94 90.4641 95.544 90.2081 95.296C89.9601 95.04 89.6681 94.912 89.3321 94.912C89.0041 94.912 88.7121 95.04 88.4561 95.296C88.2001 95.544 88.0001 95.94 87.8561 96.484C87.7201 97.02 87.6521 97.716 87.6521 98.572C87.6521 99.428 87.7201 100.132 87.8561 100.684C88.0001 101.228 88.2001 101.628 88.4561 101.884C88.7121 102.14 89.0041 102.268 89.3321 102.268ZM95.9883 103.156C95.4363 103.156 94.9523 102.988 94.5363 102.652C94.1283 102.316 93.8123 101.808 93.5883 101.128C93.3643 100.448 93.2523 99.596 93.2523 98.572C93.2523 97.548 93.3643 96.704 93.5883 96.04C93.8123 95.368 94.1283 94.868 94.5363 94.54C94.9523 94.212 95.4363 94.048 95.9883 94.048C96.5483 94.048 97.0323 94.216 97.4403 94.552C97.8483 94.88 98.1643 95.376 98.3883 96.04C98.6123 96.704 98.7243 97.548 98.7243 98.572C98.7243 99.596 98.6123 100.448 98.3883 101.128C98.1643 101.808 97.8483 102.316 97.4403 102.652C97.0323 102.988 96.5483 103.156 95.9883 103.156ZM95.9883 102.268C96.3243 102.268 96.6163 102.14 96.8643 101.884C97.1203 101.628 97.3163 101.228 97.4523 100.684C97.5963 100.132 97.6683 99.428 97.6683 98.572C97.6683 97.716 97.5963 97.02 97.4523 96.484C97.3163 95.94 97.1203 95.544 96.8643 95.296C96.6163 95.04 96.3243 94.912 95.9883 94.912C95.6603 94.912 95.3683 95.04 95.1123 95.296C94.8563 95.544 94.6563 95.94 94.5123 96.484C94.3763 97.02 94.3083 97.716 94.3083 98.572C94.3083 99.428 94.3763 100.132 94.5123 100.684C94.6563 101.228 94.8563 101.628 95.1123 101.884C95.3683 102.14 95.6603 102.268 95.9883 102.268ZM99.8606 100.06V99.22H102.945V100.06H99.8606ZM104.525 103V102.088H106.493V95.524H104.921V94.828C105.313 94.756 105.653 94.668 105.941 94.564C106.237 94.46 106.505 94.34 106.745 94.204H107.585V102.088H109.349V103H104.525ZM113.281 103.156C112.825 103.156 112.421 103.1 112.069 102.988C111.725 102.876 111.421 102.728 111.157 102.544C110.893 102.36 110.665 102.16 110.473 101.944L111.037 101.236C111.293 101.5 111.593 101.736 111.937 101.944C112.289 102.144 112.713 102.244 113.209 102.244C113.561 102.244 113.869 102.18 114.133 102.052C114.405 101.916 114.617 101.728 114.769 101.488C114.921 101.24 114.997 100.948 114.997 100.612C114.997 100.26 114.909 99.952 114.733 99.688C114.565 99.424 114.281 99.22 113.881 99.076C113.481 98.924 112.941 98.848 112.261 98.848V98.008C112.869 98.008 113.349 97.936 113.701 97.792C114.053 97.64 114.305 97.436 114.457 97.18C114.617 96.924 114.697 96.64 114.697 96.328C114.697 95.904 114.565 95.568 114.301 95.32C114.037 95.064 113.673 94.936 113.209 94.936C112.857 94.936 112.525 95.016 112.213 95.176C111.909 95.336 111.633 95.54 111.385 95.788L110.797 95.092C111.133 94.788 111.497 94.54 111.889 94.348C112.289 94.148 112.741 94.048 113.245 94.048C113.741 94.048 114.181 94.136 114.565 94.312C114.957 94.48 115.261 94.728 115.477 95.056C115.701 95.384 115.813 95.78 115.813 96.244C115.813 96.78 115.669 97.224 115.381 97.576C115.093 97.928 114.717 98.188 114.253 98.356V98.416C114.597 98.496 114.909 98.636 115.189 98.836C115.469 99.036 115.693 99.288 115.861 99.592C116.029 99.896 116.113 100.248 116.113 100.648C116.113 101.168 115.985 101.616 115.729 101.992C115.473 102.368 115.133 102.656 114.709 102.856C114.285 103.056 113.809 103.156 113.281 103.156ZM118.449 98.32C118.233 98.32 118.045 98.244 117.885 98.092C117.733 97.932 117.657 97.728 117.657 97.48C117.657 97.232 117.733 97.032 117.885 96.88C118.045 96.72 118.233 96.64 118.449 96.64C118.665 96.64 118.849 96.72 119.001 96.88C119.161 97.032 119.241 97.232 119.241 97.48C119.241 97.728 119.161 97.932 119.001 98.092C118.849 98.244 118.665 98.32 118.449 98.32ZM118.449 103.156C118.233 103.156 118.045 103.08 117.885 102.928C117.733 102.768 117.657 102.568 117.657 102.328C117.657 102.072 117.733 101.868 117.885 101.716C118.045 101.564 118.233 101.488 118.449 101.488C118.665 101.488 118.849 101.564 119.001 101.716C119.161 101.868 119.241 102.072 119.241 102.328C119.241 102.568 119.161 102.768 119.001 102.928C118.849 103.08 118.665 103.156 118.449 103.156ZM123.457 103.156C122.905 103.156 122.421 102.988 122.005 102.652C121.597 102.316 121.281 101.808 121.057 101.128C120.833 100.448 120.721 99.596 120.721 98.572C120.721 97.548 120.833 96.704 121.057 96.04C121.281 95.368 121.597 94.868 122.005 94.54C122.421 94.212 122.905 94.048 123.457 94.048C124.017 94.048 124.501 94.216 124.909 94.552C125.317 94.88 125.633 95.376 125.857 96.04C126.081 96.704 126.193 97.548 126.193 98.572C126.193 99.596 126.081 100.448 125.857 101.128C125.633 101.808 125.317 102.316 124.909 102.652C124.501 102.988 124.017 103.156 123.457 103.156ZM123.457 102.268C123.793 102.268 124.085 102.14 124.333 101.884C124.589 101.628 124.785 101.228 124.921 100.684C125.065 100.132 125.137 99.428 125.137 98.572C125.137 97.716 125.065 97.02 124.921 96.484C124.785 95.94 124.589 95.544 124.333 95.296C124.085 95.04 123.793 94.912 123.457 94.912C123.129 94.912 122.837 95.04 122.581 95.296C122.325 95.544 122.125 95.94 121.981 96.484C121.845 97.02 121.777 97.716 121.777 98.572C121.777 99.428 121.845 100.132 121.981 100.684C122.125 101.228 122.325 101.628 122.581 101.884C122.837 102.14 123.129 102.268 123.457 102.268ZM130.113 103.156C129.561 103.156 129.077 102.988 128.661 102.652C128.253 102.316 127.937 101.808 127.713 101.128C127.489 100.448 127.377 99.596 127.377 98.572C127.377 97.548 127.489 96.704 127.713 96.04C127.937 95.368 128.253 94.868 128.661 94.54C129.077 94.212 129.561 94.048 130.113 94.048C130.673 94.048 131.157 94.216 131.565 94.552C131.973 94.88 132.289 95.376 132.513 96.04C132.737 96.704 132.849 97.548 132.849 98.572C132.849 99.596 132.737 100.448 132.513 101.128C132.289 101.808 131.973 102.316 131.565 102.652C131.157 102.988 130.673 103.156 130.113 103.156ZM130.113 102.268C130.449 102.268 130.741 102.14 130.989 101.884C131.245 101.628 131.441 101.228 131.577 100.684C131.721 100.132 131.793 99.428 131.793 98.572C131.793 97.716 131.721 97.02 131.577 96.484C131.441 95.94 131.245 95.544 130.989 95.296C130.741 95.04 130.449 94.912 130.113 94.912C129.785 94.912 129.493 95.04 129.237 95.296C128.981 95.544 128.781 95.94 128.637 96.484C128.501 97.02 128.433 97.716 128.433 98.572C128.433 99.428 128.501 100.132 128.637 100.684C128.781 101.228 128.981 101.628 129.237 101.884C129.493 102.14 129.785 102.268 130.113 102.268ZM136.249 105.148L139.849 93.472H140.641L137.053 105.148H136.249ZM144.556 103V102.088H146.524V95.524H144.952V94.828C145.344 94.756 145.684 94.668 145.972 94.564C146.268 94.46 146.536 94.34 146.776 94.204H147.616V102.088H149.38V103H144.556ZM154.236 103V97C154.236 96.784 154.244 96.52 154.26 96.208C154.276 95.896 154.288 95.628 154.296 95.404H154.248C154.136 95.612 154.02 95.828 153.9 96.052C153.788 96.268 153.668 96.484 153.54 96.7L151.536 99.7H156.444V100.576H150.396V99.856L154.056 94.204H155.268V103H154.236ZM158.481 98.32C158.265 98.32 158.077 98.244 157.917 98.092C157.765 97.932 157.689 97.728 157.689 97.48C157.689 97.232 157.765 97.032 157.917 96.88C158.077 96.72 158.265 96.64 158.481 96.64C158.697 96.64 158.881 96.72 159.033 96.88C159.193 97.032 159.273 97.232 159.273 97.48C159.273 97.728 159.193 97.932 159.033 98.092C158.881 98.244 158.697 98.32 158.481 98.32ZM158.481 103.156C158.265 103.156 158.077 103.08 157.917 102.928C157.765 102.768 157.689 102.568 157.689 102.328C157.689 102.072 157.765 101.868 157.917 101.716C158.077 101.564 158.265 101.488 158.481 101.488C158.697 101.488 158.881 101.564 159.033 101.716C159.193 101.868 159.273 102.072 159.273 102.328C159.273 102.568 159.193 102.768 159.033 102.928C158.881 103.08 158.697 103.156 158.481 103.156ZM163.488 103.156C162.936 103.156 162.452 102.988 162.036 102.652C161.628 102.316 161.312 101.808 161.088 101.128C160.864 100.448 160.752 99.596 160.752 98.572C160.752 97.548 160.864 96.704 161.088 96.04C161.312 95.368 161.628 94.868 162.036 94.54C162.452 94.212 162.936 94.048 163.488 94.048C164.048 94.048 164.532 94.216 164.94 94.552C165.348 94.88 165.664 95.376 165.888 96.04C166.112 96.704 166.224 97.548 166.224 98.572C166.224 99.596 166.112 100.448 165.888 101.128C165.664 101.808 165.348 102.316 164.94 102.652C164.532 102.988 164.048 103.156 163.488 103.156ZM163.488 102.268C163.824 102.268 164.116 102.14 164.364 101.884C164.62 101.628 164.816 101.228 164.952 100.684C165.096 100.132 165.168 99.428 165.168 98.572C165.168 97.716 165.096 97.02 164.952 96.484C164.816 95.94 164.62 95.544 164.364 95.296C164.116 95.04 163.824 94.912 163.488 94.912C163.16 94.912 162.868 95.04 162.612 95.296C162.356 95.544 162.156 95.94 162.012 96.484C161.876 97.02 161.808 97.716 161.808 98.572C161.808 99.428 161.876 100.132 162.012 100.684C162.156 101.228 162.356 101.628 162.612 101.884C162.868 102.14 163.16 102.268 163.488 102.268ZM170.145 103.156C169.593 103.156 169.109 102.988 168.693 102.652C168.285 102.316 167.969 101.808 167.745 101.128C167.521 100.448 167.409 99.596 167.409 98.572C167.409 97.548 167.521 96.704 167.745 96.04C167.969 95.368 168.285 94.868 168.693 94.54C169.109 94.212 169.593 94.048 170.145 94.048C170.705 94.048 171.189 94.216 171.597 94.552C172.005 94.88 172.321 95.376 172.545 96.04C172.769 96.704 172.881 97.548 172.881 98.572C172.881 99.596 172.769 100.448 172.545 101.128C172.321 101.808 172.005 102.316 171.597 102.652C171.189 102.988 170.705 103.156 170.145 103.156ZM170.145 102.268C170.481 102.268 170.773 102.14 171.021 101.884C171.277 101.628 171.473 101.228 171.609 100.684C171.753 100.132 171.825 99.428 171.825 98.572C171.825 97.716 171.753 97.02 171.609 96.484C171.473 95.94 171.277 95.544 171.021 95.296C170.773 95.04 170.481 94.912 170.145 94.912C169.817 94.912 169.525 95.04 169.269 95.296C169.013 95.544 168.813 95.94 168.669 96.484C168.533 97.02 168.465 97.716 168.465 98.572C168.465 99.428 168.533 100.132 168.669 100.684C168.813 101.228 169.013 101.628 169.269 101.884C169.525 102.14 169.817 102.268 170.145 102.268ZM174.017 100.06V99.22H177.101V100.06H174.017ZM178.681 103V102.088H180.649V95.524H179.077V94.828C179.469 94.756 179.809 94.668 180.097 94.564C180.393 94.46 180.661 94.34 180.901 94.204H181.741V102.088H183.505V103H178.681ZM187.641 103.156C187.097 103.156 186.613 103.056 186.189 102.856C185.765 102.656 185.433 102.38 185.193 102.028C184.953 101.676 184.833 101.272 184.833 100.816C184.833 100.424 184.909 100.072 185.061 99.76C185.221 99.44 185.425 99.168 185.673 98.944C185.921 98.712 186.177 98.524 186.441 98.38V98.332C186.121 98.108 185.841 97.832 185.601 97.504C185.369 97.168 185.253 96.768 185.253 96.304C185.253 95.856 185.357 95.468 185.565 95.14C185.781 94.804 186.069 94.544 186.429 94.36C186.797 94.168 187.209 94.072 187.665 94.072C188.169 94.072 188.601 94.172 188.961 94.372C189.321 94.572 189.597 94.844 189.789 95.188C189.981 95.532 190.077 95.932 190.077 96.388C190.077 96.692 190.013 96.98 189.885 97.252C189.765 97.524 189.617 97.768 189.441 97.984C189.265 98.192 189.089 98.368 188.913 98.512V98.572C189.169 98.716 189.409 98.892 189.633 99.1C189.857 99.3 190.037 99.548 190.173 99.844C190.317 100.132 190.389 100.48 190.389 100.888C190.389 101.304 190.273 101.688 190.041 102.04C189.817 102.384 189.497 102.656 189.081 102.856C188.673 103.056 188.193 103.156 187.641 103.156ZM188.241 98.224C188.537 97.96 188.761 97.68 188.913 97.384C189.065 97.08 189.141 96.768 189.141 96.448C189.141 96.152 189.081 95.888 188.961 95.656C188.849 95.424 188.681 95.24 188.457 95.104C188.233 94.96 187.965 94.888 187.653 94.888C187.245 94.888 186.909 95.016 186.645 95.272C186.381 95.528 186.249 95.872 186.249 96.304C186.249 96.648 186.341 96.94 186.525 97.18C186.717 97.412 186.965 97.612 187.269 97.78C187.573 97.94 187.897 98.088 188.241 98.224ZM187.653 102.34C187.997 102.34 188.293 102.276 188.541 102.148C188.797 102.02 188.993 101.844 189.129 101.62C189.273 101.396 189.345 101.14 189.345 100.852C189.345 100.556 189.281 100.304 189.153 100.096C189.025 99.88 188.853 99.692 188.637 99.532C188.429 99.372 188.185 99.228 187.905 99.1C187.625 98.972 187.329 98.848 187.017 98.728C186.665 98.952 186.373 99.236 186.141 99.58C185.917 99.916 185.805 100.296 185.805 100.72C185.805 101.024 185.885 101.3 186.045 101.548C186.205 101.796 186.425 101.992 186.705 102.136C186.993 102.272 187.309 102.34 187.653 102.34ZM192.606 98.32C192.39 98.32 192.202 98.244 192.042 98.092C191.89 97.932 191.814 97.728 191.814 97.48C191.814 97.232 191.89 97.032 192.042 96.88C192.202 96.72 192.39 96.64 192.606 96.64C192.822 96.64 193.006 96.72 193.158 96.88C193.318 97.032 193.398 97.232 193.398 97.48C193.398 97.728 193.318 97.932 193.158 98.092C193.006 98.244 192.822 98.32 192.606 98.32ZM192.606 103.156C192.39 103.156 192.202 103.08 192.042 102.928C191.89 102.768 191.814 102.568 191.814 102.328C191.814 102.072 191.89 101.868 192.042 101.716C192.202 101.564 192.39 101.488 192.606 101.488C192.822 101.488 193.006 101.564 193.158 101.716C193.318 101.868 193.398 102.072 193.398 102.328C193.398 102.568 193.318 102.768 193.158 102.928C193.006 103.08 192.822 103.156 192.606 103.156ZM197.613 103.156C197.061 103.156 196.577 102.988 196.161 102.652C195.753 102.316 195.437 101.808 195.213 101.128C194.989 100.448 194.877 99.596 194.877 98.572C194.877 97.548 194.989 96.704 195.213 96.04C195.437 95.368 195.753 94.868 196.161 94.54C196.577 94.212 197.061 94.048 197.613 94.048C198.173 94.048 198.657 94.216 199.065 94.552C199.473 94.88 199.789 95.376 200.013 96.04C200.237 96.704 200.349 97.548 200.349 98.572C200.349 99.596 200.237 100.448 200.013 101.128C199.789 101.808 199.473 102.316 199.065 102.652C198.657 102.988 198.173 103.156 197.613 103.156ZM197.613 102.268C197.949 102.268 198.241 102.14 198.489 101.884C198.745 101.628 198.941 101.228 199.077 100.684C199.221 100.132 199.293 99.428 199.293 98.572C199.293 97.716 199.221 97.02 199.077 96.484C198.941 95.94 198.745 95.544 198.489 95.296C198.241 95.04 197.949 94.912 197.613 94.912C197.285 94.912 196.993 95.04 196.737 95.296C196.481 95.544 196.281 95.94 196.137 96.484C196.001 97.02 195.933 97.716 195.933 98.572C195.933 99.428 196.001 100.132 196.137 100.684C196.281 101.228 196.481 101.628 196.737 101.884C196.993 102.14 197.285 102.268 197.613 102.268ZM204.27 103.156C203.718 103.156 203.234 102.988 202.818 102.652C202.41 102.316 202.094 101.808 201.87 101.128C201.646 100.448 201.534 99.596 201.534 98.572C201.534 97.548 201.646 96.704 201.87 96.04C202.094 95.368 202.41 94.868 202.818 94.54C203.234 94.212 203.718 94.048 204.27 94.048C204.83 94.048 205.314 94.216 205.722 94.552C206.13 94.88 206.446 95.376 206.67 96.04C206.894 96.704 207.006 97.548 207.006 98.572C207.006 99.596 206.894 100.448 206.67 101.128C206.446 101.808 206.13 102.316 205.722 102.652C205.314 102.988 204.83 103.156 204.27 103.156ZM204.27 102.268C204.606 102.268 204.898 102.14 205.146 101.884C205.402 101.628 205.598 101.228 205.734 100.684C205.878 100.132 205.95 99.428 205.95 98.572C205.95 97.716 205.878 97.02 205.734 96.484C205.598 95.94 205.402 95.544 205.146 95.296C204.898 95.04 204.606 94.912 204.27 94.912C203.942 94.912 203.65 95.04 203.394 95.296C203.138 95.544 202.938 95.94 202.794 96.484C202.658 97.02 202.59 97.716 202.59 98.572C202.59 99.428 202.658 100.132 202.794 100.684C202.938 101.228 203.138 101.628 203.394 101.884C203.65 102.14 203.942 102.268 204.27 102.268Z" fill="white"/>
</g>
<path d="M6 0.5H234C237.038 0.5 239.5 2.96243 239.5 6V106C239.5 109.038 237.038 111.5 234 111.5H6C2.96243 111.5 0.5 109.038 0.5 106V6C0.5 2.96243 2.96243 0.5 6 0.5Z" stroke="#9B7714"/>
<defs>
<clipPath id="clip0_296_2066">
<path d="M0 6C0 2.68629 2.68629 0 6 0H234C237.314 0 240 2.68629 240 6V106C240 109.314 237.314 112 234 112H5.99999C2.68629 112 0 109.314 0 106V6Z" fill="white"/>
</clipPath>
<clipPath id="clip1_296_2066">
<rect width="28" height="28" fill="white" transform="translate(39.5 44)"/>
</clipPath>
</defs>
</svg>
