<svg width="240" height="112" viewBox="0 0 240 112" fill="none" xmlns="http://www.w3.org/2000/svg">
<g clip-path="url(#clip0_296_2082)">
<path d="M0 6C0 2.68629 2.68629 0 6 0H234C237.314 0 240 2.68629 240 6V106C240 109.314 237.314 112 234 112H5.99999C2.68629 112 0 109.314 0 106V6Z" fill="#9B7714"/>
<rect x="53" y="12" width="134" height="28" rx="14" fill="white" fill-opacity="0.25"/>
<path d="M61.02 31V29.86H62.964V23.716H61.38V22.84C61.796 22.768 62.156 22.676 62.46 22.564C62.772 22.452 63.056 22.316 63.312 22.156H64.356V29.86H66.072V31H61.02ZM69.6158 25.348H76.3118V26.452H69.6158V25.348ZM75.9398 25.348H77.1278C77.1278 25.348 77.1238 25.384 77.1158 25.456C77.1158 25.52 77.1158 25.592 77.1158 25.672C77.1158 25.752 77.1118 25.816 77.1038 25.864C77.0638 26.784 77.0198 27.572 76.9718 28.228C76.9318 28.884 76.8838 29.428 76.8278 29.86C76.7798 30.292 76.7158 30.636 76.6358 30.892C76.5638 31.14 76.4758 31.32 76.3718 31.432C76.2358 31.608 76.0878 31.728 75.9278 31.792C75.7758 31.864 75.5878 31.908 75.3638 31.924C75.1638 31.948 74.8918 31.96 74.5478 31.96C74.2118 31.96 73.8598 31.952 73.4918 31.936C73.4838 31.76 73.4438 31.564 73.3718 31.348C73.3078 31.14 73.2238 30.952 73.1198 30.784C73.4878 30.816 73.8278 30.84 74.1398 30.856C74.4598 30.864 74.6918 30.868 74.8358 30.868C74.9558 30.868 75.0518 30.856 75.1238 30.832C75.2038 30.808 75.2758 30.764 75.3398 30.7C75.4438 30.596 75.5318 30.364 75.6038 30.004C75.6758 29.636 75.7358 29.092 75.7838 28.372C75.8398 27.652 75.8918 26.716 75.9398 25.564V25.348ZM71.1278 21.076L72.3398 21.424C72.0438 22.112 71.6958 22.772 71.2958 23.404C70.8958 24.028 70.4598 24.604 69.9878 25.132C69.5158 25.66 69.0238 26.116 68.5118 26.5C68.4478 26.42 68.3558 26.324 68.2358 26.212C68.1158 26.092 67.9918 25.976 67.8638 25.864C67.7358 25.752 67.6278 25.664 67.5398 25.6C68.0438 25.264 68.5198 24.86 68.9678 24.388C69.4238 23.916 69.8358 23.4 70.2038 22.84C70.5798 22.272 70.8878 21.684 71.1278 21.076ZM75.4838 21.052C75.6758 21.444 75.9078 21.844 76.1798 22.252C76.4598 22.66 76.7598 23.06 77.0798 23.452C77.4078 23.836 77.7438 24.196 78.0878 24.532C78.4318 24.86 78.7678 25.144 79.0958 25.384C78.9998 25.464 78.8878 25.564 78.7598 25.684C78.6398 25.804 78.5238 25.928 78.4118 26.056C78.2998 26.176 78.2078 26.288 78.1358 26.392C77.8078 26.104 77.4678 25.776 77.1158 25.408C76.7718 25.032 76.4318 24.628 76.0958 24.196C75.7678 23.764 75.4558 23.32 75.1598 22.864C74.8718 22.4 74.6118 21.944 74.3798 21.496L75.4838 21.052ZM71.9678 25.672H73.2038C73.1398 26.336 73.0398 26.984 72.9038 27.616C72.7678 28.24 72.5518 28.832 72.2558 29.392C71.9598 29.952 71.5438 30.46 71.0078 30.916C70.4798 31.372 69.7838 31.76 68.9198 32.08C68.8718 31.976 68.8078 31.86 68.7278 31.732C68.6478 31.604 68.5598 31.48 68.4638 31.36C68.3678 31.24 68.2718 31.14 68.1758 31.06C68.9758 30.796 69.6118 30.472 70.0838 30.088C70.5638 29.704 70.9278 29.276 71.1758 28.804C71.4318 28.324 71.6118 27.82 71.7158 27.292C71.8278 26.764 71.9118 26.224 71.9678 25.672ZM80.7037 22.96C80.9357 22.952 81.1477 22.944 81.3397 22.936C81.5397 22.92 81.6997 22.908 81.8197 22.9C82.0357 22.876 82.3237 22.848 82.6837 22.816C83.0517 22.776 83.4677 22.736 83.9317 22.696C84.3957 22.656 84.8917 22.612 85.4197 22.564C85.9477 22.516 86.4877 22.468 87.0397 22.42C87.4637 22.388 87.8757 22.36 88.2757 22.336C88.6837 22.304 89.0637 22.28 89.4157 22.264C89.7677 22.24 90.0797 22.224 90.3517 22.216V23.428C90.1277 23.42 89.8717 23.42 89.5837 23.428C89.3037 23.436 89.0237 23.452 88.7437 23.476C88.4717 23.5 88.2277 23.54 88.0117 23.596C87.6197 23.716 87.2597 23.904 86.9317 24.16C86.6037 24.416 86.3197 24.712 86.0797 25.048C85.8477 25.384 85.6677 25.74 85.5397 26.116C85.4197 26.492 85.3597 26.856 85.3597 27.208C85.3597 27.648 85.4317 28.032 85.5757 28.36C85.7277 28.68 85.9357 28.956 86.1997 29.188C86.4637 29.412 86.7677 29.6 87.1117 29.752C87.4557 29.896 87.8197 30.004 88.2037 30.076C88.5957 30.148 88.9877 30.192 89.3797 30.208L88.9477 31.492C88.4757 31.468 88.0077 31.396 87.5437 31.276C87.0797 31.164 86.6437 31.004 86.2357 30.796C85.8277 30.58 85.4637 30.312 85.1437 29.992C84.8317 29.672 84.5837 29.304 84.3997 28.888C84.2237 28.472 84.1357 28 84.1357 27.472C84.1357 26.864 84.2357 26.304 84.4357 25.792C84.6437 25.28 84.9037 24.836 85.2157 24.46C85.5277 24.076 85.8477 23.78 86.1757 23.572C85.9357 23.596 85.6397 23.628 85.2877 23.668C84.9357 23.7 84.5557 23.74 84.1477 23.788C83.7477 23.836 83.3437 23.888 82.9357 23.944C82.5277 23.992 82.1397 24.044 81.7717 24.1C81.4117 24.156 81.0957 24.212 80.8237 24.268L80.7037 22.96ZM88.6237 24.76C88.7197 24.896 88.8277 25.064 88.9477 25.264C89.0677 25.456 89.1877 25.656 89.3077 25.864C89.4277 26.064 89.5277 26.248 89.6077 26.416L88.8637 26.752C88.7197 26.448 88.5677 26.156 88.4077 25.876C88.2557 25.596 88.0877 25.328 87.9037 25.072L88.6237 24.76ZM89.9557 24.244C90.0517 24.38 90.1637 24.544 90.2917 24.736C90.4197 24.92 90.5437 25.112 90.6637 25.312C90.7837 25.512 90.8877 25.7 90.9757 25.876L90.2437 26.224C90.0837 25.92 89.9237 25.636 89.7637 25.372C89.6037 25.1 89.4277 24.832 89.2357 24.568L89.9557 24.244ZM98.4997 21.484C98.4917 21.62 98.4797 21.788 98.4637 21.988C98.4557 22.18 98.4477 22.348 98.4397 22.492C98.3997 23.708 98.2917 24.776 98.1157 25.696C97.9397 26.608 97.6917 27.416 97.3717 28.12C97.0597 28.816 96.6677 29.432 96.1957 29.968C95.7317 30.496 95.1877 30.98 94.5637 31.42L93.4597 30.52C93.6757 30.408 93.9077 30.264 94.1557 30.088C94.4037 29.912 94.6317 29.72 94.8397 29.512C95.2237 29.152 95.5597 28.748 95.8477 28.3C96.1357 27.852 96.3757 27.352 96.5677 26.8C96.7677 26.24 96.9197 25.608 97.0237 24.904C97.1277 24.192 97.1797 23.396 97.1797 22.516C97.1797 22.428 97.1757 22.32 97.1677 22.192C97.1677 22.064 97.1597 21.936 97.1437 21.808C97.1277 21.68 97.1117 21.572 97.0957 21.484H98.4997ZM102.64 24.004C102.624 24.108 102.608 24.216 102.592 24.328C102.576 24.44 102.564 24.536 102.556 24.616C102.548 24.856 102.536 25.172 102.52 25.564C102.504 25.956 102.476 26.384 102.436 26.848C102.404 27.312 102.36 27.772 102.304 28.228C102.248 28.684 102.184 29.108 102.112 29.5C102.04 29.884 101.948 30.196 101.836 30.436C101.716 30.716 101.544 30.92 101.32 31.048C101.104 31.184 100.812 31.252 100.444 31.252C100.124 31.252 99.7917 31.244 99.4477 31.228C99.1117 31.212 98.7917 31.192 98.4877 31.168L98.3437 29.908C98.6557 29.948 98.9597 29.984 99.2557 30.016C99.5597 30.04 99.8357 30.052 100.084 30.052C100.268 30.052 100.412 30.024 100.516 29.968C100.62 29.904 100.704 29.796 100.768 29.644C100.848 29.476 100.92 29.244 100.984 28.948C101.048 28.644 101.1 28.312 101.14 27.952C101.188 27.584 101.224 27.208 101.248 26.824C101.28 26.432 101.3 26.064 101.308 25.72C101.324 25.368 101.332 25.06 101.332 24.796H95.2117C94.9877 24.796 94.7437 24.8 94.4797 24.808C94.2237 24.816 93.9797 24.828 93.7477 24.844V23.596C93.9797 23.612 94.2237 23.628 94.4797 23.644C94.7357 23.66 94.9797 23.668 95.2117 23.668H100.972C101.132 23.668 101.28 23.664 101.416 23.656C101.552 23.64 101.68 23.62 101.8 23.596L102.64 24.004ZM107.56 22.06C107.776 22.204 108.024 22.384 108.304 22.6C108.584 22.808 108.868 23.032 109.156 23.272C109.452 23.512 109.732 23.744 109.996 23.968C110.26 24.192 110.472 24.392 110.632 24.568L109.684 25.54C109.532 25.38 109.332 25.188 109.084 24.964C108.836 24.732 108.568 24.496 108.28 24.256C108 24.008 107.72 23.776 107.44 23.56C107.16 23.336 106.908 23.148 106.684 22.996L107.56 22.06ZM106.324 30.088C106.996 29.984 107.616 29.848 108.184 29.68C108.752 29.504 109.272 29.308 109.744 29.092C110.224 28.868 110.656 28.64 111.04 28.408C111.68 28.016 112.268 27.564 112.804 27.052C113.348 26.54 113.824 26.012 114.232 25.468C114.64 24.924 114.964 24.396 115.204 23.884L115.936 25.192C115.648 25.712 115.292 26.232 114.868 26.752C114.452 27.272 113.98 27.772 113.452 28.252C112.924 28.724 112.348 29.152 111.724 29.536C111.324 29.784 110.884 30.024 110.404 30.256C109.932 30.488 109.42 30.696 108.868 30.88C108.324 31.064 107.744 31.212 107.128 31.324L106.324 30.088ZM122.296 25.444C122.672 25.668 123.076 25.92 123.508 26.2C123.94 26.472 124.372 26.76 124.804 27.064C125.236 27.36 125.644 27.648 126.028 27.928C126.42 28.208 126.756 28.468 127.036 28.708L126.148 29.764C125.876 29.516 125.548 29.24 125.164 28.936C124.788 28.632 124.38 28.32 123.94 28C123.508 27.68 123.076 27.376 122.644 27.088C122.22 26.792 121.828 26.528 121.468 26.296L122.296 25.444ZM127.852 23.32C127.796 23.416 127.736 23.536 127.672 23.68C127.616 23.816 127.568 23.944 127.528 24.064C127.408 24.448 127.244 24.872 127.036 25.336C126.836 25.8 126.592 26.272 126.304 26.752C126.024 27.224 125.708 27.68 125.356 28.12C124.804 28.8 124.124 29.452 123.316 30.076C122.516 30.692 121.548 31.216 120.412 31.648L119.32 30.688C120.104 30.448 120.8 30.156 121.408 29.812C122.024 29.468 122.568 29.096 123.04 28.696C123.512 28.288 123.924 27.876 124.276 27.46C124.572 27.108 124.844 26.724 125.092 26.308C125.348 25.892 125.568 25.476 125.752 25.06C125.944 24.644 126.08 24.268 126.16 23.932H121.876L122.332 22.852H125.98C126.148 22.852 126.312 22.84 126.472 22.816C126.632 22.792 126.768 22.76 126.88 22.72L127.852 23.32ZM123.844 21.544C123.724 21.72 123.604 21.912 123.484 22.12C123.372 22.328 123.284 22.492 123.22 22.612C122.964 23.06 122.636 23.552 122.236 24.088C121.844 24.624 121.392 25.152 120.88 25.672C120.368 26.184 119.808 26.652 119.2 27.076L118.18 26.284C118.876 25.852 119.472 25.388 119.968 24.892C120.472 24.396 120.892 23.912 121.228 23.44C121.564 22.968 121.828 22.552 122.02 22.192C122.092 22.072 122.172 21.908 122.26 21.7C122.356 21.484 122.428 21.288 122.476 21.112L123.844 21.544ZM132.52 22.06C132.736 22.204 132.984 22.384 133.264 22.6C133.544 22.808 133.828 23.032 134.116 23.272C134.412 23.512 134.692 23.744 134.956 23.968C135.22 24.192 135.432 24.392 135.592 24.568L134.644 25.54C134.492 25.38 134.292 25.188 134.044 24.964C133.796 24.732 133.528 24.496 133.24 24.256C132.96 24.008 132.68 23.776 132.4 23.56C132.12 23.336 131.868 23.148 131.644 22.996L132.52 22.06ZM131.284 30.088C131.956 29.984 132.576 29.848 133.144 29.68C133.712 29.504 134.232 29.308 134.704 29.092C135.184 28.868 135.616 28.64 136 28.408C136.64 28.016 137.228 27.564 137.764 27.052C138.308 26.54 138.784 26.012 139.192 25.468C139.6 24.924 139.924 24.396 140.164 23.884L140.896 25.192C140.608 25.712 140.252 26.232 139.828 26.752C139.412 27.272 138.94 27.772 138.412 28.252C137.884 28.724 137.308 29.152 136.684 29.536C136.284 29.784 135.844 30.024 135.364 30.256C134.892 30.488 134.38 30.696 133.828 30.88C133.284 31.064 132.704 31.212 132.088 31.324L131.284 30.088ZM144.94 21.568H148.348V22.72H144.94V21.568ZM147.784 21.568H148.948C148.948 21.936 148.96 22.364 148.984 22.852C149.016 23.332 149.084 23.848 149.188 24.4C149.292 24.944 149.452 25.508 149.668 26.092C149.884 26.676 150.168 27.256 150.52 27.832C150.88 28.408 151.332 28.968 151.876 29.512C152.42 30.048 153.076 30.544 153.844 31C153.764 31.064 153.664 31.152 153.544 31.264C153.424 31.384 153.308 31.508 153.196 31.636C153.084 31.764 152.996 31.876 152.932 31.972C152.148 31.492 151.476 30.964 150.916 30.388C150.356 29.804 149.884 29.188 149.5 28.54C149.124 27.892 148.82 27.24 148.588 26.584C148.356 25.928 148.18 25.292 148.06 24.676C147.948 24.06 147.872 23.488 147.832 22.96C147.8 22.424 147.784 21.96 147.784 21.568ZM147.364 24.052L148.648 24.28C148.368 25.488 148 26.58 147.544 27.556C147.088 28.524 146.536 29.376 145.888 30.112C145.248 30.848 144.492 31.476 143.62 31.996C143.556 31.908 143.46 31.808 143.332 31.696C143.204 31.584 143.072 31.468 142.936 31.348C142.808 31.228 142.692 31.136 142.588 31.072C143.892 30.4 144.924 29.476 145.684 28.3C146.452 27.116 147.012 25.7 147.364 24.052ZM155.632 23.44H164.896V24.604H155.632V23.44ZM164.44 23.44H165.628C165.628 23.44 165.624 23.48 165.616 23.56C165.616 23.632 165.612 23.712 165.604 23.8C165.604 23.88 165.6 23.948 165.592 24.004C165.528 25.228 165.464 26.272 165.4 27.136C165.336 28 165.264 28.716 165.184 29.284C165.104 29.844 165.012 30.288 164.908 30.616C164.812 30.936 164.696 31.172 164.56 31.324C164.4 31.524 164.232 31.66 164.056 31.732C163.888 31.804 163.68 31.856 163.432 31.888C163.224 31.912 162.944 31.92 162.592 31.912C162.24 31.912 161.88 31.904 161.512 31.888C161.504 31.72 161.464 31.524 161.392 31.3C161.32 31.076 161.228 30.88 161.116 30.712C161.516 30.752 161.884 30.776 162.22 30.784C162.564 30.784 162.812 30.784 162.964 30.784C163.092 30.784 163.196 30.772 163.276 30.748C163.364 30.724 163.448 30.676 163.528 30.604C163.632 30.492 163.728 30.284 163.816 29.98C163.912 29.676 163.996 29.252 164.068 28.708C164.14 28.164 164.204 27.48 164.26 26.656C164.324 25.824 164.384 24.828 164.44 23.668V23.44ZM159.46 20.896H160.66V23.152C160.66 23.696 160.632 24.276 160.576 24.892C160.528 25.5 160.424 26.124 160.264 26.764C160.104 27.404 159.86 28.036 159.532 28.66C159.204 29.284 158.764 29.888 158.212 30.472C157.668 31.048 156.984 31.58 156.16 32.068C156.096 31.972 156.012 31.864 155.908 31.744C155.812 31.632 155.704 31.52 155.584 31.408C155.472 31.304 155.368 31.22 155.272 31.156C156.048 30.708 156.688 30.224 157.192 29.704C157.704 29.184 158.112 28.644 158.416 28.084C158.72 27.516 158.944 26.948 159.088 26.38C159.24 25.804 159.34 25.244 159.388 24.7C159.436 24.148 159.46 23.632 159.46 23.152V20.896ZM172.672 28.024L172.396 23.608L172.36 22.024H173.968L173.932 23.608L173.656 28.024H172.672ZM173.164 31.084C172.908 31.084 172.692 31 172.516 30.832C172.348 30.664 172.264 30.444 172.264 30.172C172.264 29.9 172.352 29.68 172.528 29.512C172.704 29.344 172.916 29.26 173.164 29.26C173.412 29.26 173.624 29.344 173.8 29.512C173.976 29.68 174.064 29.9 174.064 30.172C174.064 30.444 173.976 30.664 173.8 30.832C173.624 31 173.412 31.084 173.164 31.084Z" fill="white"/>
<path d="M37.8713 51.133C38.5916 51.133 39.1757 50.5489 39.1757 49.8282V47.775C39.1757 47.0547 38.5916 46.4706 37.8713 46.4706C37.1505 46.4706 36.5664 47.0547 36.5664 47.775V49.8282C36.5664 50.5489 37.1505 51.133 37.8713 51.133Z" fill="white"/>
<path d="M47.4923 51.133C48.2127 51.133 48.7967 50.5489 48.7967 49.8282V47.775C48.7968 47.0547 48.2127 46.4706 47.4923 46.4706C46.7716 46.4706 46.1875 47.0547 46.1875 47.775V49.8282C46.1875 50.5489 46.7716 51.133 47.4923 51.133Z" fill="white"/>
<path d="M50.7505 48.33H49.9432V49.8282C49.9432 51.18 48.8437 52.2796 47.4922 52.2796C46.1403 52.2796 45.0408 51.18 45.0408 49.8282V48.33H40.3223V49.8282C40.3223 51.18 39.2228 52.2796 37.8713 52.2796C36.5195 52.2796 35.4199 51.18 35.4199 49.8282V48.33H34.6126C32.8774 48.33 31.4707 49.7367 31.4707 51.4719V66.3875C31.4707 68.1227 32.8775 69.5294 34.6126 69.5294H50.7505C52.4857 69.5294 53.8924 68.1227 53.8924 66.3875V51.4719C53.8924 49.7367 52.4857 48.33 50.7505 48.33ZM51.4197 65.8358C51.4197 66.6387 50.7666 67.2918 49.9637 67.2918H35.3994C34.5966 67.2918 33.9434 66.6387 33.9434 65.8358V54.1663H51.4198L51.4197 65.8358Z" fill="white"/>
<path d="M42.0477 63.2138H39.7422V65.5193H42.0477V63.2138Z" fill="white"/>
<path d="M42.0477 59.6402H39.7422V61.9456H42.0477V59.6402Z" fill="white"/>
<path d="M38.4744 63.2138H36.1689V65.5193H38.4744V63.2138Z" fill="white"/>
<path d="M38.4744 59.6402H36.1689V61.9456H38.4744V59.6402Z" fill="white"/>
<path d="M49.1951 56.0665H46.8896V58.3719H49.1951V56.0665Z" fill="white"/>
<path d="M45.6213 56.0665H43.3154V58.3719H45.6213V56.0665Z" fill="white"/>
<path d="M45.6213 59.6402H43.3154V61.9456H45.6213V59.6402Z" fill="white"/>
<path d="M49.1951 63.2138H46.8896V65.5193H49.1951V63.2138Z" fill="white"/>
<path d="M49.1951 59.6402H46.8896V61.9456H49.1951V59.6402Z" fill="white"/>
<path d="M45.6213 63.2138H43.3154V65.5193H45.6213V63.2138Z" fill="white"/>
<path d="M42.0477 56.0665H39.7422V58.3719H42.0477V56.0665Z" fill="white"/>
<path d="M38.4744 56.0665H36.1689V58.3719H38.4744V56.0665Z" fill="white"/>
<path d="M66.148 66.216C65.956 66.216 65.818 66.186 65.734 66.126C65.662 66.066 65.608 65.964 65.572 65.82C65.548 65.676 65.488 65.388 65.392 64.956C65.296 64.524 65.176 64.002 65.032 63.39C64.9 62.778 64.75 62.118 64.582 61.41C64.414 60.69 64.246 59.97 64.078 59.25C63.91 58.53 63.748 57.858 63.592 57.234C63.448 56.61 63.322 56.076 63.214 55.632C63.106 55.188 63.028 54.888 62.98 54.732C62.824 54.216 62.62 53.886 62.368 53.742C62.116 53.586 61.852 53.508 61.576 53.508C61.408 53.508 61.324 53.412 61.324 53.22C61.324 53.028 61.408 52.932 61.576 52.932C61.708 52.932 61.93 52.938 62.242 52.95C62.554 52.962 62.938 52.968 63.394 52.968C63.934 52.968 64.36 52.962 64.672 52.95C64.996 52.938 65.218 52.932 65.338 52.932C65.506 52.932 65.59 53.028 65.59 53.22C65.59 53.412 65.506 53.508 65.338 53.508C65.038 53.508 64.81 53.616 64.654 53.832C64.51 54.048 64.492 54.396 64.6 54.876C64.648 55.08 64.726 55.416 64.834 55.884C64.942 56.34 65.062 56.874 65.194 57.486C65.338 58.086 65.482 58.71 65.626 59.358C65.782 59.994 65.926 60.6 66.058 61.176C66.19 61.74 66.298 62.22 66.382 62.616C66.478 63 66.538 63.246 66.562 63.354C66.586 63.438 66.622 63.48 66.67 63.48C66.718 63.468 66.754 63.42 66.778 63.336C66.826 63.18 66.904 62.91 67.012 62.526C67.12 62.13 67.24 61.668 67.372 61.14C67.516 60.612 67.666 60.054 67.822 59.466C67.978 58.878 68.128 58.308 68.272 57.756C68.416 57.204 68.542 56.712 68.65 56.28C68.758 55.848 68.83 55.53 68.866 55.326C68.998 54.714 68.926 54.258 68.65 53.958C68.386 53.658 68.032 53.508 67.588 53.508C67.42 53.508 67.336 53.412 67.336 53.22C67.336 53.028 67.42 52.932 67.588 52.932C67.708 52.932 67.954 52.938 68.326 52.95C68.71 52.962 69.13 52.968 69.586 52.968C70.114 52.968 70.576 52.962 70.972 52.95C71.38 52.938 71.626 52.932 71.71 52.932C71.878 52.932 71.962 53.028 71.962 53.22C71.962 53.412 71.878 53.508 71.71 53.508C71.206 53.508 70.876 53.598 70.72 53.778C70.576 53.958 70.564 54.324 70.684 54.876C70.732 55.068 70.81 55.398 70.918 55.866C71.026 56.334 71.146 56.874 71.278 57.486C71.422 58.098 71.572 58.728 71.728 59.376C71.884 60.012 72.028 60.618 72.16 61.194C72.292 61.77 72.4 62.256 72.484 62.652C72.58 63.036 72.64 63.27 72.664 63.354C72.676 63.438 72.706 63.48 72.754 63.48C72.814 63.468 72.85 63.42 72.862 63.336C72.91 63.18 72.988 62.904 73.096 62.508C73.204 62.112 73.33 61.644 73.474 61.104C73.618 60.552 73.768 59.976 73.924 59.376C74.092 58.776 74.248 58.194 74.392 57.63C74.536 57.066 74.662 56.562 74.77 56.118C74.878 55.674 74.95 55.35 74.986 55.146C75.118 54.546 75.118 54.126 74.986 53.886C74.854 53.634 74.578 53.508 74.158 53.508C73.99 53.508 73.906 53.412 73.906 53.22C73.906 53.028 73.99 52.932 74.158 52.932C74.278 52.932 74.476 52.938 74.752 52.95C75.04 52.962 75.352 52.968 75.688 52.968C76.108 52.968 76.42 52.968 76.624 52.968C76.84 52.956 77.002 52.95 77.11 52.95C77.218 52.938 77.308 52.932 77.38 52.932C77.548 52.932 77.632 53.028 77.632 53.22C77.632 53.412 77.548 53.508 77.38 53.508C76.96 53.508 76.612 53.652 76.336 53.94C76.06 54.216 75.844 54.606 75.688 55.11C75.616 55.362 75.496 55.782 75.328 56.37C75.172 56.946 74.992 57.612 74.788 58.368C74.584 59.124 74.374 59.91 74.158 60.726C73.942 61.53 73.738 62.298 73.546 63.03C73.366 63.75 73.21 64.362 73.078 64.866C72.946 65.37 72.862 65.7 72.826 65.856C72.766 66.096 72.574 66.216 72.25 66.216C72.046 66.216 71.902 66.186 71.818 66.126C71.746 66.066 71.698 65.964 71.674 65.82C71.65 65.664 71.578 65.328 71.458 64.812C71.35 64.296 71.212 63.672 71.044 62.94C70.876 62.208 70.696 61.44 70.504 60.636C70.312 59.82 70.126 59.028 69.946 58.26C69.766 57.492 69.604 56.82 69.46 56.244C69.448 56.208 69.418 56.19 69.37 56.19C69.322 56.178 69.292 56.196 69.28 56.244C69.172 56.808 69.022 57.474 68.83 58.242C68.638 58.998 68.428 59.79 68.2 60.618C67.972 61.434 67.756 62.214 67.552 62.958C67.348 63.69 67.168 64.32 67.012 64.848C66.868 65.364 66.778 65.7 66.742 65.856C66.682 66.096 66.484 66.216 66.148 66.216ZM78.4673 66C78.3833 66 78.3173 65.97 78.2693 65.91C78.2333 65.85 78.2153 65.784 78.2153 65.712C78.2153 65.628 78.2333 65.556 78.2693 65.496C78.3173 65.436 78.3833 65.406 78.4673 65.406C78.9953 65.406 79.4093 65.346 79.7093 65.226C80.0213 65.106 80.1773 64.8 80.1773 64.308V54.588C80.1773 54.132 80.0333 53.844 79.7453 53.724C79.4693 53.592 79.0673 53.526 78.5393 53.526C78.4553 53.526 78.3893 53.496 78.3413 53.436C78.3053 53.376 78.2873 53.304 78.2873 53.22C78.2873 53.148 78.3053 53.082 78.3413 53.022C78.3893 52.962 78.4553 52.932 78.5393 52.932C78.6353 52.932 79.1093 52.944 79.9613 52.968C80.8133 52.98 82.0433 52.986 83.6513 52.986C85.1873 52.986 86.3753 52.98 87.2153 52.968C88.0673 52.944 88.5353 52.932 88.6193 52.932C88.9313 52.932 89.0933 53.076 89.1053 53.364C89.1053 53.472 89.1113 53.646 89.1233 53.886C89.1353 54.114 89.1473 54.36 89.1593 54.624C89.1713 54.876 89.1833 55.104 89.1953 55.308C89.2073 55.5 89.2133 55.62 89.2133 55.668C89.2133 55.8 89.1293 55.884 88.9613 55.92C88.8173 55.944 88.7093 55.884 88.6373 55.74C88.4813 55.452 88.2893 55.14 88.0613 54.804C87.8453 54.468 87.5513 54.18 87.1793 53.94C86.8193 53.7 86.3393 53.58 85.7393 53.58H82.1573C81.9053 53.58 81.7793 53.7 81.7793 53.94V58.764C81.7793 58.92 81.8573 58.998 82.0133 58.998H83.3813C83.8853 58.998 84.2753 58.908 84.5513 58.728C84.8273 58.536 85.0313 58.314 85.1633 58.062C85.2953 57.798 85.4033 57.558 85.4873 57.342C85.5473 57.186 85.6493 57.108 85.7933 57.108C85.9613 57.108 86.0453 57.192 86.0453 57.36C86.0453 57.444 86.0453 57.6 86.0453 57.828C86.0453 58.056 86.0393 58.308 86.0273 58.584C86.0273 58.848 86.0273 59.1 86.0273 59.34C86.0273 59.568 86.0273 59.826 86.0273 60.114C86.0393 60.402 86.0453 60.666 86.0453 60.906C86.0453 61.134 86.0453 61.296 86.0453 61.392C86.0453 61.572 85.9613 61.662 85.7933 61.662C85.6493 61.662 85.5413 61.578 85.4693 61.41C85.3853 61.206 85.2773 60.966 85.1453 60.69C85.0133 60.414 84.8093 60.174 84.5333 59.97C84.2693 59.766 83.8853 59.664 83.3813 59.664H82.0133C81.8573 59.664 81.7793 59.742 81.7793 59.898V64.992C81.7793 65.244 81.9113 65.37 82.1753 65.37H85.4873C86.0753 65.37 86.5673 65.274 86.9633 65.082C87.3593 64.878 87.6833 64.632 87.9353 64.344C88.1993 64.056 88.4033 63.762 88.5473 63.462C88.7033 63.162 88.8233 62.904 88.9073 62.688C88.9433 62.592 88.9913 62.538 89.0513 62.526C89.1233 62.502 89.1893 62.496 89.2493 62.508C89.4053 62.52 89.4833 62.604 89.4833 62.76C89.4833 62.808 89.4773 62.952 89.4653 63.192C89.4653 63.432 89.4653 63.708 89.4653 64.02C89.4653 64.332 89.4593 64.62 89.4473 64.884C89.4473 65.148 89.4473 65.334 89.4473 65.442C89.4233 65.814 89.2373 66 88.8893 66C88.8173 66 88.6073 66 88.2593 66C87.9113 65.988 87.3773 65.982 86.6573 65.982C85.9493 65.97 85.0013 65.964 83.8133 65.964C82.8173 65.964 81.9293 65.97 81.1493 65.982C80.3813 65.982 79.7633 65.988 79.2953 66C78.8273 66 78.5513 66 78.4673 66ZM90.844 66C90.772 66 90.712 65.97 90.664 65.91C90.616 65.85 90.592 65.784 90.592 65.712C90.592 65.628 90.616 65.556 90.664 65.496C90.712 65.436 90.772 65.406 90.844 65.406C91.372 65.406 91.774 65.334 92.05 65.19C92.338 65.046 92.482 64.752 92.482 64.308V54.588C92.482 54.132 92.338 53.844 92.05 53.724C91.774 53.592 91.372 53.526 90.844 53.526C90.76 53.526 90.694 53.496 90.646 53.436C90.61 53.376 90.592 53.304 90.592 53.22C90.592 53.148 90.61 53.082 90.646 53.022C90.694 52.962 90.76 52.932 90.844 52.932C90.94 52.932 91.198 52.938 91.618 52.95C92.038 52.962 92.59 52.968 93.274 52.968C94.558 52.968 95.596 52.962 96.388 52.95C97.192 52.938 97.72 52.932 97.972 52.932C98.62 52.932 99.208 53.058 99.736 53.31C100.276 53.562 100.702 53.904 101.014 54.336C101.338 54.768 101.5 55.266 101.5 55.83C101.5 56.37 101.398 56.826 101.194 57.198C100.99 57.558 100.738 57.858 100.438 58.098C100.138 58.338 99.838 58.53 99.538 58.674C99.25 58.806 99.022 58.902 98.854 58.962C98.746 58.998 98.692 59.046 98.692 59.106C98.692 59.166 98.746 59.208 98.854 59.232C99.094 59.28 99.394 59.37 99.754 59.502C100.114 59.622 100.468 59.802 100.816 60.042C101.176 60.282 101.47 60.594 101.698 60.978C101.938 61.362 102.058 61.83 102.058 62.382C102.058 63.018 101.914 63.564 101.626 64.02C101.35 64.476 100.978 64.854 100.51 65.154C100.054 65.442 99.544 65.658 98.98 65.802C98.428 65.934 97.87 66 97.306 66C97.174 66 97.024 66 96.856 66C96.7 65.988 96.484 65.982 96.208 65.982C95.932 65.982 95.554 65.982 95.074 65.982C94.606 65.97 93.988 65.964 93.22 65.964C92.536 65.964 92.002 65.97 91.618 65.982C91.234 65.994 90.976 66 90.844 66ZM94.462 65.352H97.306C98.266 65.352 98.974 65.082 99.43 64.542C99.886 64.002 100.114 63.282 100.114 62.382C100.114 61.83 99.988 61.338 99.736 60.906C99.484 60.462 99.13 60.114 98.674 59.862C98.23 59.598 97.696 59.466 97.072 59.466H94.318C94.162 59.466 94.084 59.544 94.084 59.7V64.992C94.084 65.232 94.21 65.352 94.462 65.352ZM94.318 58.818H97.108C97.816 58.818 98.422 58.578 98.926 58.098C99.43 57.618 99.682 56.88 99.682 55.884C99.682 55.2 99.508 54.648 99.16 54.228C98.812 53.796 98.212 53.58 97.36 53.58H94.462C94.21 53.58 94.084 53.7 94.084 53.94V58.584C94.084 58.74 94.162 58.818 94.318 58.818ZM110.648 67.296C110.492 66.888 110.324 66.576 110.144 66.36C109.964 66.144 109.742 65.988 109.478 65.892C109.226 65.796 108.89 65.724 108.47 65.676C108.362 65.52 108.38 65.4 108.524 65.316C108.632 65.316 108.824 65.328 109.1 65.352C109.388 65.364 109.688 65.376 110 65.388C110.324 65.4 110.588 65.406 110.792 65.406C110.996 65.406 111.134 65.37 111.206 65.298C111.278 65.226 111.314 65.112 111.314 64.956L111.332 58.062H104.816C104.816 58.062 104.714 58.068 104.51 58.08C104.318 58.08 104.102 58.11 103.862 58.17L103.718 57.378C104.018 57.45 104.276 57.492 104.492 57.504C104.708 57.516 104.816 57.522 104.816 57.522H117.362C117.446 57.522 117.512 57.498 117.56 57.45C117.656 57.39 117.782 57.306 117.938 57.198C118.094 57.078 118.214 56.988 118.298 56.928C118.382 56.868 118.448 56.844 118.496 56.856C118.544 56.856 118.604 56.892 118.676 56.964C118.832 57.108 119.036 57.312 119.288 57.576C119.54 57.828 119.744 58.038 119.9 58.206C119.996 58.302 119.996 58.41 119.9 58.53C119.816 58.65 119.708 58.692 119.576 58.656C119.312 58.572 119.108 58.542 118.964 58.566C118.832 58.59 118.646 58.662 118.406 58.782C118.238 58.866 118.01 58.992 117.722 59.16C117.434 59.328 117.122 59.514 116.786 59.718C116.45 59.91 116.126 60.102 115.814 60.294C115.502 60.486 115.232 60.654 115.004 60.798C114.776 60.942 114.626 61.032 114.554 61.068C114.362 61.044 114.29 60.948 114.338 60.78C114.446 60.672 114.626 60.504 114.878 60.276C115.142 60.036 115.424 59.772 115.724 59.484C116.036 59.196 116.324 58.926 116.588 58.674C116.864 58.41 117.074 58.206 117.218 58.062H112.466V59.16C112.466 60.108 112.472 60.984 112.484 61.788C112.508 62.592 112.526 63.276 112.538 63.84C112.55 64.392 112.556 64.776 112.556 64.992C112.556 65.472 112.43 65.916 112.178 66.324C111.926 66.732 111.416 67.056 110.648 67.296ZM113.258 57.054C113.03 57.258 112.79 57.204 112.538 56.892C112.058 56.292 111.458 55.722 110.738 55.182C110.018 54.642 109.286 54.216 108.542 53.904C108.482 53.724 108.524 53.604 108.668 53.544C109.412 53.712 110.114 53.916 110.774 54.156C111.434 54.396 112.004 54.672 112.484 54.984C112.676 54.828 112.904 54.642 113.168 54.426C113.444 54.198 113.714 53.97 113.978 53.742C114.254 53.514 114.5 53.304 114.716 53.112C114.932 52.92 115.088 52.782 115.184 52.698H106.598C106.598 52.698 106.496 52.704 106.292 52.716C106.1 52.716 105.884 52.74 105.644 52.788L105.5 52.014C105.8 52.086 106.058 52.128 106.274 52.14C106.49 52.152 106.598 52.158 106.598 52.158H115.274C115.37 52.158 115.442 52.14 115.49 52.104C115.586 52.032 115.706 51.948 115.85 51.852C115.994 51.744 116.108 51.66 116.192 51.6C116.324 51.504 116.444 51.51 116.552 51.618C116.648 51.714 116.78 51.84 116.948 51.996C117.116 52.152 117.284 52.308 117.452 52.464C117.62 52.62 117.752 52.752 117.848 52.86C117.944 52.956 117.944 53.058 117.848 53.166C117.764 53.274 117.662 53.31 117.542 53.274C117.29 53.19 117.086 53.166 116.93 53.202C116.774 53.226 116.558 53.304 116.282 53.436C116.054 53.544 115.73 53.712 115.31 53.94C114.89 54.168 114.458 54.408 114.014 54.66C113.582 54.9 113.21 55.104 112.898 55.272C112.922 55.284 112.946 55.302 112.97 55.326C112.994 55.35 113.018 55.374 113.042 55.398C113.318 55.626 113.462 55.92 113.474 56.28C113.498 56.628 113.426 56.886 113.258 57.054ZM132.914 66.99C132.842 66.63 132.74 66.342 132.608 66.126C132.476 65.91 132.284 65.73 132.032 65.586C131.792 65.442 131.462 65.31 131.042 65.19C131.006 65.118 131 65.046 131.024 64.974C131.06 64.902 131.108 64.854 131.168 64.83C131.336 64.866 131.57 64.926 131.87 65.01C132.17 65.082 132.482 65.154 132.806 65.226C133.142 65.286 133.436 65.316 133.688 65.316C134.204 65.316 134.612 65.082 134.912 64.614C135.224 64.134 135.452 63.45 135.596 62.562C135.752 61.674 135.854 60.618 135.902 59.394C135.95 58.17 135.974 56.814 135.974 55.326H131.132C130.868 55.878 130.58 56.418 130.268 56.946C129.956 57.462 129.626 57.93 129.278 58.35C129.122 58.386 129.02 58.32 128.972 58.152C129.308 57.612 129.614 56.982 129.89 56.262C130.178 55.53 130.418 54.792 130.61 54.048C130.814 53.304 130.946 52.644 131.006 52.068C131.018 51.9 131.018 51.762 131.006 51.654C131.006 51.546 131 51.456 130.988 51.384C130.964 51.288 130.964 51.222 130.988 51.186C131.024 51.138 131.084 51.126 131.168 51.15C131.3 51.186 131.474 51.246 131.69 51.33C131.906 51.402 132.122 51.48 132.338 51.564C132.566 51.636 132.74 51.696 132.86 51.744C132.968 51.768 133.01 51.846 132.986 51.978C132.974 52.086 132.908 52.14 132.788 52.14C132.656 52.14 132.542 52.158 132.446 52.194C132.35 52.23 132.278 52.326 132.23 52.482C132.002 53.25 131.72 54.018 131.384 54.786H135.704C135.776 54.786 135.842 54.756 135.902 54.696C135.998 54.6 136.1 54.498 136.208 54.39C136.316 54.27 136.412 54.162 136.496 54.066C136.604 53.946 136.724 53.946 136.856 54.066C136.94 54.138 137.054 54.24 137.198 54.372C137.342 54.492 137.48 54.618 137.612 54.75C137.744 54.87 137.84 54.966 137.9 55.038C138.032 55.194 138.008 55.314 137.828 55.398L137.252 55.668C137.204 55.692 137.168 55.722 137.144 55.758C137.12 55.794 137.108 55.86 137.108 55.956C137.108 57.732 137.066 59.244 136.982 60.492C136.91 61.728 136.778 62.754 136.586 63.57C136.394 64.386 136.136 65.034 135.812 65.514C135.5 65.982 135.104 66.324 134.624 66.54C134.144 66.768 133.574 66.918 132.914 66.99ZM125.426 67.314C125.162 67.314 125.03 67.206 125.03 66.99C125.03 66.942 125.036 66.762 125.048 66.45C125.06 66.138 125.072 65.748 125.084 65.28C125.108 64.812 125.126 64.314 125.138 63.786C125.15 63.246 125.156 62.73 125.156 62.238V59.394C124.832 59.442 124.52 59.496 124.22 59.556C123.932 59.604 123.686 59.64 123.482 59.664C123.314 59.676 123.2 59.712 123.14 59.772C123.092 59.82 123.08 59.922 123.104 60.078C123.14 60.198 123.092 60.276 122.96 60.312C122.852 60.336 122.774 60.3 122.726 60.204C122.69 60.12 122.624 59.988 122.528 59.808C122.432 59.628 122.33 59.442 122.222 59.25C122.126 59.046 122.042 58.884 121.97 58.764C121.934 58.68 121.94 58.62 121.988 58.584C122.012 58.572 122.096 58.578 122.24 58.602C122.312 58.614 122.396 58.632 122.492 58.656C122.6 58.668 122.72 58.674 122.852 58.674C123.164 58.698 123.554 58.698 124.022 58.674C124.226 58.422 124.46 58.104 124.724 57.72C124.988 57.336 125.258 56.928 125.534 56.496C125.81 56.064 126.062 55.638 126.29 55.218C126.53 54.786 126.71 54.396 126.83 54.048C126.902 53.856 126.932 53.694 126.92 53.562C126.92 53.43 126.95 53.346 127.01 53.31C127.046 53.286 127.106 53.292 127.19 53.328C127.358 53.424 127.586 53.568 127.874 53.76C128.174 53.952 128.408 54.108 128.576 54.228C128.66 54.288 128.678 54.372 128.63 54.48C128.582 54.588 128.498 54.624 128.378 54.588C128.246 54.552 128.126 54.54 128.018 54.552C127.91 54.552 127.814 54.618 127.73 54.75C127.466 55.182 127.148 55.644 126.776 56.136C126.404 56.616 126.026 57.078 125.642 57.522C125.27 57.966 124.934 58.344 124.634 58.656C125.162 58.632 125.696 58.608 126.236 58.584C126.776 58.56 127.244 58.524 127.64 58.476C127.52 58.248 127.394 58.026 127.262 57.81C127.13 57.594 126.98 57.402 126.812 57.234C126.812 57.042 126.896 56.946 127.064 56.946C127.34 57.114 127.622 57.324 127.91 57.576C128.198 57.816 128.45 58.068 128.666 58.332C128.894 58.596 129.05 58.848 129.134 59.088C129.242 59.412 129.242 59.688 129.134 59.916C129.026 60.144 128.9 60.276 128.756 60.312C128.636 60.336 128.522 60.324 128.414 60.276C128.318 60.216 128.234 60.054 128.162 59.79C128.126 59.646 128.078 59.496 128.018 59.34C127.958 59.184 127.898 59.028 127.838 58.872C127.61 58.92 127.352 58.974 127.064 59.034C126.776 59.094 126.476 59.154 126.164 59.214V62.238C126.164 62.934 126.17 63.624 126.182 64.308C126.206 64.98 126.224 65.55 126.236 66.018C126.248 66.498 126.254 66.786 126.254 66.882C126.254 66.99 126.164 67.086 125.984 67.17C125.816 67.266 125.63 67.314 125.426 67.314ZM124.4 56.694C124.16 56.814 123.974 56.712 123.842 56.388C123.626 55.788 123.362 55.272 123.05 54.84C122.75 54.408 122.39 54.006 121.97 53.634C121.946 53.442 122.024 53.346 122.204 53.346C122.48 53.49 122.756 53.646 123.032 53.814C123.308 53.982 123.56 54.162 123.788 54.354C123.98 54.018 124.19 53.598 124.418 53.094C124.646 52.59 124.82 52.14 124.94 51.744C125 51.54 125.018 51.384 124.994 51.276C124.982 51.156 125 51.078 125.048 51.042C125.096 51.006 125.156 51.006 125.228 51.042C125.336 51.102 125.48 51.192 125.66 51.312C125.852 51.42 126.044 51.528 126.236 51.636C126.428 51.732 126.572 51.816 126.668 51.888C126.752 51.96 126.776 52.044 126.74 52.14C126.692 52.26 126.608 52.296 126.488 52.248C126.332 52.212 126.212 52.206 126.128 52.23C126.044 52.242 125.96 52.314 125.876 52.446C125.648 52.83 125.354 53.238 124.994 53.67C124.646 54.09 124.352 54.42 124.112 54.66C124.352 54.9 124.538 55.17 124.67 55.47C124.79 55.77 124.808 56.034 124.724 56.262C124.652 56.49 124.544 56.634 124.4 56.694ZM121.97 66.378C121.778 66.426 121.67 66.36 121.646 66.18C121.826 65.832 122.006 65.394 122.186 64.866C122.378 64.338 122.546 63.78 122.69 63.192C122.846 62.604 122.954 62.052 123.014 61.536C123.026 61.416 123.026 61.308 123.014 61.212C123.014 61.116 123.008 61.032 122.996 60.96C122.984 60.84 122.984 60.768 122.996 60.744C123.02 60.672 123.08 60.66 123.176 60.708C123.344 60.756 123.578 60.84 123.878 60.96C124.19 61.068 124.424 61.152 124.58 61.212C124.688 61.248 124.718 61.326 124.67 61.446C124.634 61.566 124.556 61.614 124.436 61.59C124.316 61.566 124.226 61.578 124.166 61.626C124.106 61.674 124.058 61.776 124.022 61.932C123.89 62.436 123.704 62.976 123.464 63.552C123.236 64.116 122.99 64.65 122.726 65.154C122.462 65.658 122.21 66.066 121.97 66.378ZM133.31 61.932C133.19 61.98 133.064 61.986 132.932 61.95C132.812 61.902 132.704 61.746 132.608 61.482C132.38 60.834 132.068 60.252 131.672 59.736C131.288 59.208 130.814 58.758 130.25 58.386C130.214 58.218 130.28 58.11 130.448 58.062C131.12 58.29 131.75 58.614 132.338 59.034C132.926 59.454 133.34 59.892 133.58 60.348C133.772 60.708 133.826 61.038 133.742 61.338C133.67 61.638 133.526 61.836 133.31 61.932ZM128.774 65.01C128.654 65.022 128.552 64.998 128.468 64.938C128.384 64.866 128.312 64.704 128.252 64.452C128.12 63.888 127.934 63.318 127.694 62.742C127.454 62.154 127.124 61.584 126.704 61.032C126.74 60.852 126.842 60.774 127.01 60.798C127.478 61.146 127.94 61.572 128.396 62.076C128.864 62.568 129.164 63.114 129.296 63.714C129.38 64.062 129.368 64.356 129.26 64.596C129.152 64.836 128.99 64.974 128.774 65.01ZM149.348 65.568C148.496 65.616 147.836 65.448 147.368 65.064C146.9 64.68 146.684 64.176 146.72 63.552C146.744 63.084 146.978 62.682 147.422 62.346C147.878 62.01 148.472 61.842 149.204 61.842C149.504 61.842 149.798 61.854 150.086 61.878C150.374 61.902 150.65 61.938 150.914 61.986C150.89 61.482 150.854 60.912 150.806 60.276C150.758 59.64 150.734 58.794 150.734 57.738V57.27C150.182 57.33 149.642 57.366 149.114 57.378C148.598 57.378 148.148 57.354 147.764 57.306C147.272 57.234 146.87 57.018 146.558 56.658C146.258 56.298 146.12 55.83 146.144 55.254C146.252 55.11 146.372 55.092 146.504 55.2C146.54 55.512 146.69 55.782 146.954 56.01C147.23 56.238 147.53 56.364 147.854 56.388C148.286 56.4 148.76 56.394 149.276 56.37C149.792 56.346 150.278 56.304 150.734 56.244V53.562C150.734 53.358 150.728 53.214 150.716 53.13C150.704 53.034 150.656 52.962 150.572 52.914C150.5 52.866 150.38 52.842 150.212 52.842C150.044 52.842 149.924 52.848 149.852 52.86C149.72 52.728 149.714 52.602 149.834 52.482C150.026 52.422 150.284 52.392 150.608 52.392C150.944 52.392 151.208 52.416 151.4 52.464C151.652 52.536 151.862 52.68 152.03 52.896C152.198 53.112 152.192 53.31 152.012 53.49C151.88 53.622 151.784 53.868 151.724 54.228C151.844 54.324 151.994 54.456 152.174 54.624C152.366 54.78 152.558 54.924 152.75 55.056C152.954 55.176 153.128 55.236 153.272 55.236C153.44 55.236 153.578 55.242 153.686 55.254C153.806 55.266 153.932 55.32 154.064 55.416C154.172 55.476 154.22 55.626 154.208 55.866C154.208 56.094 154.052 56.292 153.74 56.46C153.464 56.616 153.146 56.748 152.786 56.856C152.426 56.964 152.042 57.054 151.634 57.126V57.72C151.634 58.488 151.658 59.142 151.706 59.682C151.766 60.21 151.826 60.678 151.886 61.086C151.958 61.482 152.012 61.872 152.048 62.256C152.672 62.436 153.23 62.64 153.722 62.868C154.226 63.096 154.634 63.306 154.946 63.498C155.174 63.654 155.324 63.828 155.396 64.02C155.468 64.2 155.48 64.392 155.432 64.596C155.384 64.824 155.27 64.968 155.09 65.028C154.922 65.076 154.73 65.022 154.514 64.866C154.178 64.626 153.806 64.374 153.398 64.11C152.99 63.834 152.54 63.594 152.048 63.39C151.964 64.062 151.676 64.584 151.184 64.956C150.692 65.316 150.08 65.52 149.348 65.568ZM143.588 66.018C143.468 66.102 143.312 66.138 143.12 66.126C142.928 66.114 142.754 66.048 142.598 65.928C142.202 65.616 141.854 65.118 141.554 64.434C141.266 63.75 141.122 62.826 141.122 61.662C141.122 60.87 141.182 60.12 141.302 59.412C141.422 58.704 141.56 58.044 141.716 57.432C141.884 56.82 142.028 56.244 142.148 55.704C142.268 55.152 142.328 54.642 142.328 54.174C142.328 53.934 142.274 53.7 142.166 53.472C142.058 53.232 141.95 53.046 141.842 52.914C141.842 52.83 141.866 52.764 141.914 52.716C141.962 52.656 142.022 52.632 142.094 52.644C142.442 52.836 142.772 53.124 143.084 53.508C143.396 53.88 143.552 54.288 143.552 54.732C143.552 55.08 143.474 55.476 143.318 55.92C143.174 56.364 143 56.862 142.796 57.414C142.592 57.966 142.412 58.584 142.256 59.268C142.112 59.952 142.04 60.72 142.04 61.572C142.04 61.968 142.07 62.34 142.13 62.688C142.19 63.024 142.274 63.288 142.382 63.48C142.442 63.6 142.502 63.654 142.562 63.642C142.634 63.618 142.688 63.558 142.724 63.462C142.808 63.186 142.916 62.838 143.048 62.418C143.18 61.998 143.318 61.56 143.462 61.104C143.618 60.636 143.756 60.21 143.876 59.826C144.008 59.43 144.11 59.124 144.182 58.908C144.374 58.848 144.488 58.896 144.524 59.052C144.464 59.256 144.38 59.556 144.272 59.952C144.176 60.336 144.068 60.768 143.948 61.248C143.84 61.728 143.738 62.214 143.642 62.706C143.546 63.198 143.48 63.642 143.444 64.038C143.432 64.254 143.444 64.416 143.48 64.524C143.516 64.62 143.594 64.776 143.714 64.992C143.738 65.016 143.756 65.04 143.768 65.064C143.864 65.232 143.888 65.412 143.84 65.604C143.792 65.784 143.708 65.922 143.588 66.018ZM149.294 64.542C149.678 64.518 150.032 64.368 150.356 64.092C150.692 63.816 150.884 63.456 150.932 63.012C150.656 62.94 150.368 62.886 150.068 62.85C149.768 62.802 149.462 62.778 149.15 62.778C148.634 62.778 148.244 62.856 147.98 63.012C147.728 63.168 147.59 63.354 147.566 63.57C147.542 63.774 147.572 63.948 147.656 64.092C147.86 64.44 148.406 64.59 149.294 64.542ZM151.634 56.082C151.934 56.01 152.168 55.926 152.336 55.83C152.408 55.794 152.438 55.74 152.426 55.668C152.426 55.584 152.402 55.518 152.354 55.47C152.306 55.41 152.216 55.302 152.084 55.146C151.952 54.99 151.82 54.846 151.688 54.714C151.652 55.086 151.634 55.542 151.634 56.082ZM165.728 65.316C164.6 65.316 163.688 65.184 162.992 64.92C162.308 64.656 161.804 64.314 161.48 63.894C161.168 63.462 161 63.006 160.976 62.526C160.952 62.034 161.036 61.572 161.228 61.14C161.324 61.104 161.414 61.104 161.498 61.14C161.582 61.164 161.642 61.224 161.678 61.32C161.546 61.884 161.588 62.37 161.804 62.778C162.02 63.174 162.452 63.48 163.1 63.696C163.748 63.912 164.654 64.02 165.818 64.02C166.49 64.02 167.15 63.966 167.798 63.858C168.458 63.75 169.064 63.6 169.616 63.408C169.82 63.336 169.976 63.318 170.084 63.354C170.204 63.378 170.378 63.456 170.606 63.588C170.978 63.816 171.146 64.038 171.11 64.254C171.086 64.458 170.894 64.614 170.534 64.722C169.862 64.914 169.106 65.064 168.266 65.172C167.426 65.268 166.58 65.316 165.728 65.316ZM164.27 56.676C164.09 56.64 164.024 56.532 164.072 56.352C164.216 56.256 164.408 56.124 164.648 55.956C164.9 55.776 165.122 55.626 165.314 55.506C165.122 55.482 164.864 55.44 164.54 55.38C164.228 55.32 163.904 55.23 163.568 55.11C163.232 54.978 162.938 54.798 162.686 54.57C162.446 54.342 162.308 54.042 162.272 53.67C162.32 53.61 162.38 53.574 162.452 53.562C162.524 53.538 162.584 53.55 162.632 53.598C162.716 53.886 162.956 54.102 163.352 54.246C163.748 54.39 164.222 54.486 164.774 54.534C165.338 54.57 165.902 54.576 166.466 54.552C167.042 54.516 167.54 54.468 167.96 54.408C168.296 54.348 168.53 54.342 168.662 54.39C168.806 54.438 168.962 54.564 169.13 54.768C169.442 55.104 169.55 55.368 169.454 55.56C169.358 55.752 169.112 55.848 168.716 55.848C168.704 55.848 168.674 55.848 168.626 55.848C168.194 55.848 167.726 55.86 167.222 55.884C166.73 55.908 166.232 55.98 165.728 56.1C165.224 56.208 164.738 56.4 164.27 56.676ZM182.09 66.63C182.006 66.57 181.958 66.492 181.946 66.396C181.946 66.3 181.976 66.222 182.036 66.162C182.648 66.066 183.26 65.94 183.872 65.784C184.496 65.628 185.066 65.418 185.582 65.154C186.11 64.878 186.548 64.518 186.896 64.074C187.244 63.63 187.454 63.066 187.526 62.382C187.61 61.638 187.478 61.002 187.13 60.474C186.782 59.946 186.218 59.676 185.438 59.664C184.958 59.652 184.496 59.754 184.052 59.97C183.608 60.186 183.224 60.48 182.9 60.852C182.588 61.224 182.384 61.65 182.288 62.13C182.228 62.466 182.072 62.688 181.82 62.796C181.58 62.904 181.286 62.832 180.938 62.58C180.686 62.4 180.506 62.196 180.398 61.968C180.29 61.728 180.242 61.374 180.254 60.906C180.266 60.498 180.32 60.012 180.416 59.448C180.512 58.872 180.62 58.26 180.74 57.612C180.872 56.964 180.998 56.328 181.118 55.704C180.926 55.692 180.728 55.674 180.524 55.65C180.332 55.626 180.134 55.602 179.93 55.578C178.586 55.362 177.95 54.666 178.022 53.49C178.082 53.43 178.142 53.4 178.202 53.4C178.274 53.388 178.334 53.406 178.382 53.454C178.406 53.826 178.586 54.108 178.922 54.3C179.27 54.492 179.618 54.618 179.966 54.678C180.206 54.726 180.434 54.762 180.65 54.786C180.866 54.798 181.07 54.81 181.262 54.822C181.382 54.15 181.448 53.586 181.46 53.13C181.472 52.926 181.466 52.782 181.442 52.698C181.43 52.614 181.376 52.548 181.28 52.5C181.208 52.452 181.088 52.434 180.92 52.446C180.752 52.446 180.632 52.452 180.56 52.464C180.416 52.332 180.404 52.206 180.524 52.086C180.716 52.026 180.962 51.99 181.262 51.978C181.562 51.966 181.826 51.978 182.054 52.014C182.33 52.062 182.558 52.182 182.738 52.374C182.918 52.554 182.966 52.752 182.882 52.968C183.038 53.064 183.242 53.196 183.494 53.364C183.758 53.52 184.022 53.67 184.286 53.814C184.562 53.946 184.79 54.024 184.97 54.048C185.138 54.06 185.306 54.084 185.474 54.12C185.642 54.156 185.786 54.234 185.906 54.354C186.074 54.51 186.122 54.678 186.05 54.858C185.978 55.026 185.822 55.146 185.582 55.218C185.066 55.374 184.496 55.5 183.872 55.596C183.248 55.68 182.618 55.722 181.982 55.722C181.862 56.346 181.748 56.994 181.64 57.666C181.544 58.326 181.484 58.914 181.46 59.43C181.436 59.934 181.46 60.276 181.532 60.456C181.58 60.564 181.64 60.636 181.712 60.672C181.796 60.696 181.88 60.666 181.964 60.582C182.24 60.33 182.546 60.078 182.882 59.826C183.23 59.562 183.614 59.346 184.034 59.178C184.466 58.998 184.94 58.914 185.456 58.926C186.14 58.938 186.752 59.082 187.292 59.358C187.844 59.634 188.27 60.03 188.57 60.546C188.882 61.062 189.014 61.692 188.966 62.436C188.93 63.12 188.762 63.702 188.462 64.182C188.162 64.65 187.766 65.034 187.274 65.334C186.794 65.634 186.26 65.868 185.672 66.036C185.096 66.216 184.496 66.348 183.872 66.432C183.248 66.516 182.654 66.582 182.09 66.63ZM182.18 54.84C182.804 54.804 183.32 54.702 183.728 54.534C183.908 54.474 183.932 54.36 183.8 54.192C183.716 54.072 183.542 53.916 183.278 53.724C183.026 53.532 182.822 53.388 182.666 53.292C182.606 53.388 182.534 53.574 182.45 53.85C182.366 54.126 182.276 54.456 182.18 54.84ZM200.324 66.63C200.24 66.57 200.192 66.492 200.18 66.396C200.18 66.3 200.21 66.222 200.27 66.162C200.918 66.09 201.542 65.958 202.142 65.766C202.754 65.574 203.3 65.328 203.78 65.028C204.26 64.716 204.638 64.362 204.914 63.966C205.202 63.57 205.346 63.126 205.346 62.634C205.346 62.202 205.256 61.806 205.076 61.446C204.908 61.086 204.662 60.798 204.338 60.582C204.014 60.354 203.636 60.24 203.204 60.24C202.7 60.24 202.25 60.372 201.854 60.636C201.458 60.9 201.128 61.2 200.864 61.536C200.6 61.872 200.402 62.16 200.27 62.4C200.162 62.592 199.982 62.808 199.73 63.048C199.49 63.288 199.196 63.39 198.848 63.354C198.44 63.318 198.116 63.162 197.876 62.886C197.648 62.598 197.534 62.1 197.534 61.392C197.534 61.092 197.558 60.762 197.606 60.402C197.666 60.042 197.726 59.664 197.786 59.268C197.882 58.704 197.966 58.116 198.038 57.504C198.122 56.88 198.14 56.286 198.092 55.722C198.056 55.326 198.116 55.014 198.272 54.786C198.44 54.558 198.662 54.39 198.938 54.282C199.214 54.162 199.502 54.084 199.802 54.048C200.114 54 200.39 53.964 200.63 53.94C201.098 53.904 201.428 53.784 201.62 53.58C201.812 53.364 201.854 53.106 201.746 52.806C201.65 52.494 201.386 52.182 200.954 51.87C200.93 51.69 201.002 51.588 201.17 51.564C201.662 51.72 202.136 51.978 202.592 52.338C203.06 52.698 203.372 53.088 203.528 53.508C203.624 53.736 203.636 53.97 203.564 54.21C203.504 54.45 203.354 54.636 203.114 54.768C202.886 54.888 202.688 54.936 202.52 54.912C202.364 54.876 202.19 54.816 201.998 54.732C201.842 54.672 201.662 54.612 201.458 54.552C201.266 54.48 201.026 54.444 200.738 54.444C200.114 54.444 199.646 54.54 199.334 54.732C199.034 54.912 198.926 55.23 199.01 55.686C199.106 56.274 199.118 56.88 199.046 57.504C198.974 58.116 198.896 58.686 198.812 59.214C198.764 59.49 198.722 59.754 198.686 60.006C198.65 60.246 198.632 60.462 198.632 60.654C198.632 61.158 198.746 61.458 198.974 61.554C199.214 61.638 199.514 61.548 199.874 61.284C200.09 61.128 200.36 60.912 200.684 60.636C201.02 60.36 201.398 60.108 201.818 59.88C202.25 59.652 202.712 59.538 203.204 59.538C203.792 59.538 204.356 59.664 204.896 59.916C205.448 60.168 205.898 60.528 206.246 60.996C206.594 61.452 206.768 61.998 206.768 62.634C206.768 63.294 206.612 63.858 206.3 64.326C206 64.782 205.604 65.16 205.112 65.46C204.62 65.748 204.086 65.976 203.51 66.144C202.934 66.312 202.364 66.432 201.8 66.504C201.236 66.576 200.744 66.618 200.324 66.63Z" fill="white"/>
<rect width="240" height="28" transform="translate(0 84)" fill="#E1D6B8"/>
<path d="M77.616 104V103.244C78.6893 102.301 79.5713 101.443 80.262 100.668C80.962 99.8933 81.48 99.1747 81.816 98.512C82.152 97.84 82.32 97.21 82.32 96.622C82.32 96.23 82.25 95.88 82.11 95.572C81.9793 95.264 81.774 95.026 81.494 94.858C81.214 94.6807 80.8593 94.592 80.43 94.592C80.01 94.592 79.618 94.704 79.254 94.928C78.8993 95.152 78.582 95.4367 78.302 95.782L77.56 95.054C77.9707 94.5967 78.414 94.2327 78.89 93.962C79.366 93.6913 79.9307 93.556 80.584 93.556C81.2 93.556 81.7273 93.682 82.166 93.934C82.614 94.1767 82.9593 94.5267 83.202 94.984C83.454 95.432 83.58 95.9593 83.58 96.566C83.58 97.2473 83.4073 97.938 83.062 98.638C82.726 99.338 82.2547 100.052 81.648 100.78C81.0507 101.499 80.3507 102.236 79.548 102.992C79.8187 102.973 80.0987 102.955 80.388 102.936C80.6867 102.908 80.9667 102.894 81.228 102.894H84.07V104H77.616ZM89.5256 104V97C89.5256 96.748 89.535 96.44 89.5536 96.076C89.5723 95.712 89.5863 95.3993 89.5956 95.138H89.5396C89.409 95.3807 89.2736 95.6327 89.1336 95.894C89.003 96.146 88.863 96.398 88.7136 96.65L86.3756 100.15H92.1016V101.172H85.0456V100.332L89.3156 93.738H90.7296V104H89.5256ZM98.4253 93.906H105.439V94.844H98.4253V93.906ZM97.8373 96.622H106.027V97.574H97.8373V96.622ZM97.9073 99.156H105.887V100.094H97.9073V99.156ZM101.365 92.226H102.401V97.21H101.365V92.226ZM103.213 97.42H104.249V103.874C104.249 104.173 104.207 104.401 104.123 104.56C104.039 104.728 103.89 104.849 103.675 104.924C103.451 105.008 103.157 105.059 102.793 105.078C102.429 105.097 101.963 105.106 101.393 105.106C101.375 104.966 101.328 104.798 101.253 104.602C101.188 104.415 101.118 104.252 101.043 104.112C101.473 104.121 101.865 104.126 102.219 104.126C102.574 104.135 102.807 104.135 102.919 104.126C103.031 104.126 103.106 104.107 103.143 104.07C103.19 104.033 103.213 103.963 103.213 103.86V97.42ZM98.7613 101.074L99.6012 100.584C99.8346 100.817 100.073 101.079 100.315 101.368C100.558 101.657 100.777 101.942 100.973 102.222C101.179 102.502 101.333 102.759 101.435 102.992L100.539 103.538C100.437 103.305 100.287 103.048 100.091 102.768C99.9046 102.479 99.6946 102.189 99.4613 101.9C99.2279 101.601 98.9946 101.326 98.7613 101.074ZM94.0993 93.15H97.5993V102.362H94.0993V101.41H96.6053V94.116H94.0993V93.15ZM94.1413 97.224H97.0673V98.176H94.1413V97.224ZM93.5953 93.15H94.5753V103.51H93.5953V93.15ZM111.403 100.822H115.645V101.634H111.403V100.822ZM111.347 98.708H116.121V103.818H111.347V102.992H115.141V99.534H111.347V98.708ZM110.899 98.708H111.851V104.532H110.899V98.708ZM108.309 94.83H112.201V95.6H108.309V94.83ZM114.763 94.83H118.739V95.6H114.763V94.83ZM118.291 92.842H119.355V103.734C119.355 104.061 119.309 104.317 119.215 104.504C119.131 104.691 118.973 104.831 118.739 104.924C118.515 105.017 118.207 105.073 117.815 105.092C117.433 105.111 116.952 105.12 116.373 105.12C116.355 105.017 116.327 104.901 116.289 104.77C116.252 104.639 116.205 104.509 116.149 104.378C116.103 104.247 116.056 104.135 116.009 104.042C116.289 104.051 116.56 104.056 116.821 104.056C117.092 104.056 117.33 104.056 117.535 104.056C117.741 104.056 117.885 104.056 117.969 104.056C118.091 104.047 118.175 104.019 118.221 103.972C118.268 103.925 118.291 103.841 118.291 103.72V92.842ZM108.393 92.842H112.873V97.644H108.393V96.846H111.893V93.654H108.393V92.842ZM118.823 92.842V93.654H115.141V96.86H118.823V97.672H114.147V92.842H118.823ZM107.791 92.842H108.841V105.134H107.791V92.842ZM121.539 96.286H133.537V99.142H132.501V97.21H122.533V99.142H121.539V96.286ZM123.247 98.792H131.073V99.772H123.247V98.792ZM132.011 92.184L132.739 93.038C132.039 93.178 131.255 93.3087 130.387 93.43C129.519 93.5513 128.605 93.6587 127.643 93.752C126.691 93.836 125.725 93.9107 124.745 93.976C123.775 94.0413 122.832 94.0927 121.917 94.13C121.908 93.99 121.875 93.836 121.819 93.668C121.773 93.4907 121.726 93.3413 121.679 93.22C122.585 93.1827 123.513 93.1313 124.465 93.066C125.427 93.0007 126.369 92.926 127.293 92.842C128.227 92.758 129.095 92.66 129.897 92.548C130.7 92.436 131.405 92.3147 132.011 92.184ZM122.855 94.424L123.765 94.158C123.971 94.438 124.167 94.7553 124.353 95.11C124.54 95.4647 124.671 95.7633 124.745 96.006L123.793 96.328C123.719 96.0667 123.588 95.7587 123.401 95.404C123.224 95.04 123.042 94.7133 122.855 94.424ZM126.579 94.116L127.517 93.906C127.685 94.2327 127.839 94.5873 127.979 94.97C128.129 95.3433 128.222 95.67 128.259 95.95L127.279 96.202C127.233 95.9313 127.144 95.6 127.013 95.208C126.883 94.8067 126.738 94.4427 126.579 94.116ZM131.353 93.878L132.431 94.2C132.263 94.4987 132.081 94.8067 131.885 95.124C131.699 95.432 131.507 95.7307 131.311 96.02C131.115 96.3093 130.933 96.566 130.765 96.79L129.925 96.496C130.084 96.2627 130.252 95.9967 130.429 95.698C130.607 95.39 130.779 95.0773 130.947 94.76C131.115 94.4333 131.251 94.1393 131.353 93.878ZM130.695 98.792H130.919L131.115 98.75L131.815 99.198C131.386 100.085 130.826 100.859 130.135 101.522C129.454 102.185 128.675 102.749 127.797 103.216C126.92 103.673 125.977 104.051 124.969 104.35C123.971 104.658 122.935 104.901 121.861 105.078C121.824 104.994 121.768 104.891 121.693 104.77C121.628 104.649 121.553 104.532 121.469 104.42C121.395 104.308 121.325 104.215 121.259 104.14C122.305 103.991 123.313 103.785 124.283 103.524C125.263 103.253 126.169 102.913 126.999 102.502C127.83 102.091 128.563 101.597 129.197 101.018C129.832 100.43 130.331 99.7487 130.695 98.974V98.792ZM124.605 99.45C125.147 100.309 125.865 101.055 126.761 101.69C127.667 102.315 128.712 102.829 129.897 103.23C131.092 103.631 132.394 103.921 133.803 104.098C133.729 104.173 133.649 104.266 133.565 104.378C133.491 104.499 133.416 104.621 133.341 104.742C133.267 104.863 133.206 104.975 133.159 105.078C131.741 104.863 130.429 104.532 129.225 104.084C128.021 103.636 126.948 103.057 126.005 102.348C125.072 101.639 124.302 100.799 123.695 99.828L124.605 99.45ZM139.361 95.348H147.887V96.412H139.361V95.348ZM145.045 92.408H146.123V103.678C146.123 104.079 146.063 104.373 145.941 104.56C145.82 104.747 145.629 104.882 145.367 104.966C145.097 105.05 144.714 105.101 144.219 105.12C143.725 105.139 143.099 105.143 142.343 105.134C142.325 105.041 142.292 104.929 142.245 104.798C142.199 104.677 142.147 104.551 142.091 104.42C142.035 104.299 141.979 104.187 141.923 104.084C142.315 104.103 142.693 104.112 143.057 104.112C143.431 104.121 143.753 104.121 144.023 104.112C144.294 104.112 144.481 104.112 144.583 104.112C144.751 104.103 144.868 104.065 144.933 104C145.008 103.944 145.045 103.837 145.045 103.678V92.408ZM140.243 98.316L141.153 97.882C141.396 98.246 141.648 98.638 141.909 99.058C142.18 99.478 142.437 99.884 142.679 100.276C142.922 100.668 143.118 101.009 143.267 101.298L142.287 101.83C142.147 101.531 141.961 101.181 141.727 100.78C141.503 100.379 141.261 99.9633 140.999 99.534C140.738 99.0953 140.486 98.6893 140.243 98.316ZM137.135 96.048L138.185 94.998V95.012V105.092H137.135V96.048ZM138.661 92.324L139.683 92.646C139.366 93.458 138.997 94.256 138.577 95.04C138.157 95.824 137.705 96.5613 137.219 97.252C136.734 97.9333 136.23 98.54 135.707 99.072C135.67 98.988 135.609 98.8807 135.525 98.75C135.451 98.61 135.371 98.4747 135.287 98.344C135.203 98.2133 135.124 98.106 135.049 98.022C135.535 97.5647 136.001 97.0327 136.449 96.426C136.897 95.8193 137.308 95.166 137.681 94.466C138.064 93.766 138.391 93.052 138.661 92.324ZM149.875 94.746H161.159V101.326H160.081V95.768H150.925V101.396H149.875V94.746ZM150.435 99.492H160.711V100.528H150.435V99.492ZM154.943 92.24H156.049V105.106H154.943V92.24Z" fill="#333333"/>
</g>
<defs>
<clipPath id="clip0_296_2082">
<path d="M0 6C0 2.68629 2.68629 0 6 0H234C237.314 0 240 2.68629 240 6V106C240 109.314 237.314 112 234 112H5.99999C2.68629 112 0 109.314 0 106V6Z" fill="white"/>
</clipPath>
</defs>
</svg>
