<svg width="82" height="105" viewBox="0 0 82 105" fill="none" xmlns="http://www.w3.org/2000/svg">
<circle cx="41" cy="41" r="41" fill="white"/>
<path d="M22.6125 32.9314C25.2109 26.7874 30.7589 22.1765 37.6566 21V21.0024C37.6607 21.0017 37.6647 21.0007 37.6687 21.0002V31.3715C33.7875 32.7497 31 36.4879 31 40.8615C31 46.4185 35.4875 50.9308 41 50.9308C46.5188 50.9308 51 46.4185 51 40.8615C51 36.4878 48.2187 32.7558 44.3376 31.3715V22.4814L44.3355 21.0186C44.3362 21.0187 44.3376 21.0189 44.3376 21.0189V21.0063C46.1329 21.3095 47.8462 21.8544 49.4448 22.6048C49.6245 22.6885 49.8002 22.7781 49.9767 22.8669C50.0423 22.9001 50.1094 22.9305 50.1745 22.9644C54.0486 24.966 57.1403 28.1854 59.0095 32.0952C59.0212 32.1196 59.0339 32.1433 59.0456 32.1679C59.1059 32.2953 59.1617 32.425 59.2194 32.5538C60.3605 35.0873 61 37.8986 61 40.8615C61 51.9881 52.05 61 41 61C29.9563 61 21 51.9881 21 40.8615C21 38.2085 21.5146 35.6769 22.4416 33.3566C22.494 33.2245 22.5443 33.0916 22.5995 32.9608C22.6036 32.9509 22.6083 32.9415 22.6125 32.9314Z" fill="black"/>
<path d="M16.556 101.656C16.556 101.479 16.556 101.189 16.556 100.788C16.556 100.377 16.556 99.906 16.556 99.374C16.556 98.8327 16.556 98.268 16.556 97.68C16.556 97.092 16.556 96.5273 16.556 95.986C16.556 95.4353 16.556 94.95 16.556 94.53C16.556 94.11 16.556 93.802 16.556 93.606C16.556 93.3633 16.542 93.0833 16.514 92.766C16.4953 92.4487 16.4627 92.1687 16.416 91.926H18.6C18.572 92.1687 18.544 92.4393 18.516 92.738C18.488 93.0273 18.474 93.3167 18.474 93.606C18.474 93.8673 18.474 94.222 18.474 94.67C18.474 95.118 18.474 95.6173 18.474 96.168C18.474 96.7093 18.474 97.2647 18.474 97.834C18.474 98.394 18.474 98.9353 18.474 99.458C18.474 99.9807 18.474 100.438 18.474 100.83C18.474 101.213 18.474 101.488 18.474 101.656C18.474 101.787 18.4787 101.973 18.488 102.216C18.4973 102.449 18.516 102.692 18.544 102.944C18.572 103.196 18.5907 103.42 18.6 103.616H16.416C16.4533 103.336 16.486 103.009 16.514 102.636C16.542 102.263 16.556 101.936 16.556 101.656ZM18.054 95.552C18.5207 95.6733 19.0433 95.832 19.622 96.028C20.2007 96.2147 20.784 96.4153 21.372 96.63C21.96 96.8447 22.5107 97.0593 23.024 97.274C23.5467 97.4793 23.9807 97.6707 24.326 97.848L23.528 99.78C23.136 99.5747 22.702 99.3693 22.226 99.164C21.75 98.9493 21.2647 98.744 20.77 98.548C20.2847 98.352 19.804 98.17 19.328 98.002C18.8613 97.834 18.4367 97.6847 18.054 97.554V95.552ZM33.79 94.684C33.8553 94.8333 33.9393 95.048 34.042 95.328C34.154 95.5987 34.2707 95.8927 34.392 96.21C34.5133 96.518 34.6207 96.812 34.714 97.092C34.8073 97.372 34.882 97.5913 34.938 97.75L33.258 98.338C33.2207 98.1607 33.1553 97.9367 33.062 97.666C32.9687 97.3953 32.866 97.1107 32.754 96.812C32.642 96.504 32.53 96.21 32.418 95.93C32.306 95.65 32.208 95.4167 32.124 95.23L33.79 94.684ZM38.956 95.706C38.8813 95.93 38.816 96.1213 38.76 96.28C38.7133 96.4387 38.6667 96.588 38.62 96.728C38.4427 97.4373 38.2 98.1467 37.892 98.856C37.584 99.556 37.192 100.214 36.716 100.83C36.0627 101.67 35.3207 102.384 34.49 102.972C33.6687 103.551 32.8473 103.994 32.026 104.302L30.556 102.804C31.0693 102.664 31.6107 102.459 32.18 102.188C32.7493 101.908 33.3 101.572 33.832 101.18C34.364 100.788 34.8213 100.354 35.204 99.878C35.5213 99.4767 35.8013 99.0193 36.044 98.506C36.296 97.9833 36.5013 97.428 36.66 96.84C36.828 96.2427 36.94 95.6547 36.996 95.076L38.956 95.706ZM30.542 95.426C30.6353 95.6033 30.738 95.832 30.85 96.112C30.9713 96.392 31.0927 96.686 31.214 96.994C31.3353 97.302 31.452 97.6007 31.564 97.89C31.6853 98.1793 31.7787 98.422 31.844 98.618L30.136 99.262C30.08 99.0753 29.996 98.8327 29.884 98.534C29.7813 98.2353 29.6647 97.9227 29.534 97.596C29.4033 97.26 29.2773 96.952 29.156 96.672C29.044 96.392 28.946 96.1773 28.862 96.028L30.542 95.426ZM52.536 92.738C52.536 92.962 52.6153 93.1533 52.774 93.312C52.9327 93.4613 53.1193 93.536 53.334 93.536C53.558 93.536 53.7493 93.4613 53.908 93.312C54.0667 93.1533 54.146 92.962 54.146 92.738C54.146 92.514 54.0667 92.3227 53.908 92.164C53.7493 92.0053 53.558 91.926 53.334 91.926C53.1193 91.926 52.9327 92.0053 52.774 92.164C52.6153 92.3227 52.536 92.514 52.536 92.738ZM51.668 92.738C51.668 92.43 51.7427 92.15 51.892 91.898C52.0507 91.6367 52.256 91.4313 52.508 91.282C52.76 91.1327 53.0353 91.058 53.334 91.058C53.642 91.058 53.922 91.1327 54.174 91.282C54.4353 91.4313 54.6407 91.6367 54.79 91.898C54.9393 92.15 55.014 92.43 55.014 92.738C55.014 93.0367 54.9393 93.312 54.79 93.564C54.6407 93.816 54.4353 94.0213 54.174 94.18C53.922 94.3293 53.642 94.404 53.334 94.404C53.0353 94.404 52.76 94.3293 52.508 94.18C52.256 94.0213 52.0507 93.816 51.892 93.564C51.7427 93.312 51.668 93.0367 51.668 92.738ZM53.362 93.844C53.2967 93.9747 53.2407 94.1333 53.194 94.32C53.1473 94.4973 53.1007 94.6607 53.054 94.81C52.9793 95.1553 52.8813 95.5427 52.76 95.972C52.6387 96.392 52.494 96.8307 52.326 97.288C52.158 97.7453 51.9573 98.198 51.724 98.646C51.5 99.094 51.2433 99.514 50.954 99.906C50.534 100.466 50.044 100.989 49.484 101.474C48.924 101.959 48.2987 102.398 47.608 102.79C46.9173 103.182 46.1567 103.513 45.326 103.784L43.8 102.104C44.7333 101.88 45.536 101.605 46.208 101.278C46.88 100.951 47.4633 100.578 47.958 100.158C48.462 99.738 48.9053 99.29 49.288 98.814C49.596 98.422 49.8573 97.9973 50.072 97.54C50.296 97.0827 50.478 96.6253 50.618 96.168C50.7673 95.7013 50.87 95.2673 50.926 94.866C50.786 94.866 50.5527 94.866 50.226 94.866C49.9087 94.866 49.5307 94.866 49.092 94.866C48.6627 94.866 48.21 94.866 47.734 94.866C47.2673 94.866 46.8147 94.866 46.376 94.866C45.9373 94.866 45.5407 94.866 45.186 94.866C44.8407 94.866 44.584 94.866 44.416 94.866C44.0893 94.866 43.772 94.8707 43.464 94.88C43.1653 94.8893 42.9273 94.9033 42.75 94.922V92.948C42.89 92.9667 43.058 92.9853 43.254 93.004C43.4593 93.0227 43.6647 93.0367 43.87 93.046C44.0847 93.0553 44.2667 93.06 44.416 93.06C44.5653 93.06 44.7753 93.06 45.046 93.06C45.326 93.06 45.648 93.06 46.012 93.06C46.376 93.06 46.754 93.06 47.146 93.06C47.5473 93.06 47.944 93.06 48.336 93.06C48.7373 93.06 49.1107 93.06 49.456 93.06C49.8013 93.06 50.1 93.06 50.352 93.06C50.604 93.06 50.786 93.06 50.898 93.06C51.038 93.06 51.206 93.0553 51.402 93.046C51.6073 93.0367 51.8033 93.004 51.99 92.948L53.362 93.844ZM56.358 98.828C56.5727 98.66 56.7687 98.492 56.946 98.324C57.1327 98.1467 57.3333 97.9507 57.548 97.736C57.7067 97.568 57.8887 97.3627 58.094 97.12C58.2993 96.868 58.5187 96.5973 58.752 96.308C58.9853 96.0187 59.2187 95.7293 59.452 95.44C59.6947 95.1413 59.9233 94.866 60.138 94.614C60.6327 94.054 61.1133 93.7553 61.58 93.718C62.0467 93.6713 62.5367 93.9 63.05 94.404C63.3673 94.712 63.694 95.062 64.03 95.454C64.3753 95.846 64.7113 96.238 65.038 96.63C65.3647 97.022 65.668 97.3673 65.948 97.666C66.172 97.918 66.41 98.1793 66.662 98.45C66.9233 98.7207 67.1987 99.0053 67.488 99.304C67.7773 99.6027 68.0807 99.9013 68.398 100.2C68.7153 100.499 69.0373 100.797 69.364 101.096L67.922 102.776C67.5953 102.449 67.25 102.095 66.886 101.712C66.522 101.329 66.1627 100.937 65.808 100.536C65.4627 100.135 65.136 99.766 64.828 99.43C64.548 99.0847 64.2493 98.7207 63.932 98.338C63.624 97.946 63.3253 97.5727 63.036 97.218C62.7467 96.8633 62.49 96.5647 62.266 96.322C62.1073 96.1353 61.9627 96.0187 61.832 95.972C61.7107 95.9253 61.5893 95.9347 61.468 96C61.356 96.0653 61.2347 96.1867 61.104 96.364C60.964 96.5413 60.8007 96.7513 60.614 96.994C60.4367 97.2367 60.2453 97.498 60.04 97.778C59.844 98.0487 59.6527 98.3147 59.466 98.576C59.2793 98.828 59.1067 99.052 58.948 99.248C58.7893 99.4813 58.6307 99.7147 58.472 99.948C58.3227 100.181 58.1873 100.391 58.066 100.578L56.358 98.828Z" fill="#4B4B4B"/>
</svg>
