<svg width="118" height="85" viewBox="0 0 118 85" fill="none" xmlns="http://www.w3.org/2000/svg">
<g opacity="0.15">
<path d="M74.6934 38.2824H42.4983C41.2105 38.2824 40.1568 37.2288 40.1568 35.941V24.819C40.1568 23.5312 41.2105 22.4775 42.4983 22.4775H74.6934C75.9812 22.4775 77.0349 23.5312 77.0349 24.819V35.941C77.0349 37.2288 75.9812 38.2824 74.6934 38.2824ZM44.8398 33.5995H72.3519V27.1605H44.8398V33.5995ZM96.352 94.5946H20.7227C17.4446 94.5946 14.752 91.9019 14.752 88.6239V39.4531C14.752 36.1751 17.4446 33.4824 20.7227 33.4824H96.352C99.63 33.4824 102.323 36.1751 102.323 39.4531V88.6239C102.323 92.019 99.63 94.5946 96.352 94.5946ZM20.7227 38.2824C20.0202 38.2824 19.4349 38.8678 19.4349 39.5702V88.741C19.4349 89.4434 20.0202 90.0288 20.7227 90.0288H96.352C97.0544 90.0288 97.6398 89.4434 97.6398 88.741V39.5702C97.6398 38.8678 97.0544 38.2824 96.352 38.2824H20.7227ZM64.8593 81.2483H52.2154C50.9276 81.2483 49.8739 80.1946 49.8739 78.9068V71.7653H42.7324C41.4446 71.7653 40.391 70.7117 40.391 69.4239V57.0141C40.391 55.7263 41.4446 54.6727 42.7324 54.6727H49.8739V47.5312C49.8739 46.2434 50.9276 45.1897 52.2154 45.1897H64.7422C66.03 45.1897 67.0837 46.2434 67.0837 47.5312V54.6727H74.2251C75.5129 54.6727 76.5666 55.7263 76.5666 57.0141V69.541C76.5666 70.8288 75.5129 71.8824 74.2251 71.8824H67.0837V79.0239C67.2007 80.1946 66.1471 81.2483 64.8593 81.2483ZM54.5568 76.5653H62.4007V69.4239C62.4007 68.1361 63.4544 67.0824 64.7422 67.0824H71.8837V59.2385H64.7422C63.4544 59.2385 62.4007 58.1849 62.4007 56.897V49.7556H54.5568V56.897C54.5568 58.1849 53.5032 59.2385 52.2154 59.2385H45.0739V67.0824H52.2154C53.5032 67.0824 54.5568 68.1361 54.5568 69.4239V76.5653Z" fill="#9B7714"/>
</g>
</svg>
