<svg preserveAspectRatio="none" width="100%" height="100%" overflow="visible" style="display: block;" viewBox="0 0 12.7597 13.9997" fill="none" xmlns="http://www.w3.org/2000/svg">
<g id="Group" opacity="0.85">
<path id="Vector" d="M6.3799 0.00016276L8.13802e-05 2.30434V3.63347H0.531733V4.03221H12.2281V3.63347H12.7597V2.30434L6.3799 0.00016276Z" fill="var(--fill-0, #9B7714)"/>
<path id="Vector_2" d="M12.2281 11.873H0.531733V12.9363H8.13802e-05V13.9997H12.7597V12.9363H12.2281V11.873Z" fill="var(--fill-0, #9B7714)"/>
<path id="Vector_3" d="M9.30379 10.8101V11.3417H11.4304V10.8101H11.1646V5.0948H11.4304V4.56315H9.30379V5.0948H9.56962V10.8101H9.30379Z" fill="var(--fill-0, #9B7714)"/>
<path id="Vector_4" d="M5.31645 10.8101V11.3417H7.44305V10.8101H7.17723V5.0948H7.44305V4.56315H5.31645V5.0948H5.58227V10.8101H5.31645Z" fill="var(--fill-0, #9B7714)"/>
<path id="Vector_5" d="M1.3291 10.8101V11.3417H3.45571V10.8101H3.18988V5.0948H3.45571V4.56315H1.3291V5.0948H1.59493V10.8101H1.3291Z" fill="var(--fill-0, #9B7714)"/>
</g>
</svg>
