<svg width="170" height="136" viewBox="0 0 170 136" fill="none" xmlns="http://www.w3.org/2000/svg">
<g opacity="0.1">
<path fill-rule="evenodd" clip-rule="evenodd" d="M16.1309 29.6634L22.8978 22.8965H137.935L144.702 29.6634V43.1972H151.469L158.236 49.9641V77.0318V83.7987V117.633V144.701L151.469 151.468H22.8978L16.1309 144.701V49.9641V29.6634ZM144.702 117.633H117.635C106.423 117.633 97.3338 108.544 97.3338 97.3325C97.3338 86.1211 106.423 77.0318 117.635 77.0318H144.702V56.731H137.935H29.6647V137.934H144.702V117.633ZM131.168 36.4303V43.1972H29.6647V36.4303H131.168ZM110.868 97.3325C110.868 93.5954 113.897 90.5656 117.635 90.5656H144.702V104.099H117.635C113.897 104.099 110.868 101.07 110.868 97.3325Z" fill="#9B7714"/>
</g>
</svg>
