<svg width="160" height="136" viewBox="0 0 160 136" fill="none" xmlns="http://www.w3.org/2000/svg">
<g opacity="0.1" clip-path="url(#clip0_26_1102)">
<path d="M80 0C35.8153 0 0 35.8153 0 80C0 124.185 35.8153 160 80 160C124.185 160 160 124.185 160 80C160 35.8153 124.185 0 80 0ZM80 147.5C42.7197 147.5 12.5 117.28 12.5 80C12.5 42.7197 42.7197 12.5 80 12.5C117.28 12.5 147.5 42.7197 147.5 80C147.5 117.28 117.28 147.5 80 147.5Z" fill="#9B7714"/>
<path d="M105.781 76.0644V83.5644H86.4601V91.9384H105.781V99.4481H86.4601V120H72.1826V99.4481H53.1054V91.9384H72.1826V83.5644H53.1054V76.0644H68.3691L48.0566 40H64.3066L74.7657 62.2753C76.8604 66.8359 78.3401 70.6444 79.8145 74.7119H80.0585C81.5379 71.0106 83.1395 66.5869 85.2295 62.0312L96.0645 40H111.939L90.5226 76.0644H105.781Z" fill="#9B7714"/>
</g>
<defs>
<clipPath id="clip0_26_1102">
<rect width="160" height="160" fill="white"/>
</clipPath>
</defs>
</svg>
