<svg preserveAspectRatio="none" width="100%" height="100%" overflow="visible" style="display: block;" viewBox="0 0 15.5556 15.5557" fill="none" xmlns="http://www.w3.org/2000/svg">
<g id="Group">
<path id="Vector" d="M7.77778 0C3.48204 0 0 3.48204 0 7.77778C0 12.0735 3.48204 15.5556 7.77778 15.5556C12.0735 15.5556 15.5556 12.0735 15.5556 7.77778C15.5556 3.48204 12.0735 0 7.77778 0ZM7.77778 14.3403C4.1533 14.3403 1.21528 11.4023 1.21528 7.77778C1.21528 4.1533 4.1533 1.21528 7.77778 1.21528C11.4023 1.21528 14.3403 4.1533 14.3403 7.77778C14.3403 11.4023 11.4023 14.3403 7.77778 14.3403Z" fill="var(--fill-0, #9B7714)"/>
<path id="Vector_2" d="M10.2845 7.39477V8.12393H8.40603V8.93808H10.2845V9.66819H8.40603V11.6663H7.01794V9.66819H5.16321V8.93808H7.01794V8.12393H5.16321V7.39477H6.64719L4.67236 3.88851H6.25222L7.26908 6.05416C7.47273 6.49756 7.61659 6.86782 7.75993 7.26327H7.78366C7.92748 6.90343 8.08319 6.47334 8.28639 6.03044L9.33979 3.88851H10.8831L8.801 7.39477H10.2845Z" fill="var(--fill-0, #9B7714)"/>
</g>
</svg>
