<svg width="117" height="90" viewBox="0 0 117 90" fill="none" xmlns="http://www.w3.org/2000/svg">
<g opacity="0.15">
<path d="M85.2683 17.0313H77.0244V14.4459C77.0001 13.8327 76.8541 13.2303 76.5948 12.674C76.3356 12.1177 75.9684 11.6185 75.5144 11.2054C75.0605 10.7924 74.529 10.4737 73.9508 10.2679C73.3725 10.0622 72.7592 9.97342 72.1463 10.0069H45.3171C44.7042 9.97342 44.0909 10.0622 43.5127 10.2679C42.9344 10.4737 42.4029 10.7924 41.949 11.2054C41.495 11.6185 41.1278 12.1177 40.8686 12.674C40.6093 13.2303 40.4633 13.8327 40.439 14.4459V17.0313H32.1951C28.9608 17.0313 25.8589 18.3161 23.5719 20.6031C21.2848 22.8902 20 25.9921 20 29.2264V94.7874C20 96.3889 20.3154 97.9747 20.9283 99.4543C21.5412 100.934 22.4394 102.278 23.5719 103.411C24.7043 104.543 26.0487 105.441 27.5283 106.054C29.0078 106.667 30.5936 106.983 32.1951 106.983H85.2683C86.8698 106.983 88.4556 106.667 89.9352 106.054C91.4147 105.441 92.7591 104.543 93.8915 103.411C95.024 102.278 95.9222 100.934 96.5351 99.4543C97.148 97.9747 97.4634 96.3889 97.4634 94.7874V29.2264C97.4634 25.9921 96.1786 22.8902 93.8915 20.6031C91.6045 18.3161 88.5026 17.0313 85.2683 17.0313ZM45.3171 14.8849L72.1463 14.9337V20.3971C72.1463 23.3727 68.7805 25.8605 64.8293 25.8605H52.6341C48.6341 25.8605 45.3171 23.3727 45.3171 20.3971V14.8849ZM92.5854 94.7874C92.5713 96.7236 91.7959 98.5766 90.4267 99.9458C89.0575 101.315 87.2046 102.09 85.2683 102.104H32.1951C30.2545 102.104 28.3934 101.334 27.0212 99.9613C25.649 98.5891 24.878 96.728 24.878 94.7874V29.2264C24.878 27.2858 25.649 25.4247 27.0212 24.0524C28.3934 22.6802 30.2545 21.9093 32.1951 21.9093H40.5854C41.251 24.554 42.8189 26.8833 45.0187 28.4952C47.2184 30.1072 49.9118 30.9006 52.6341 30.7386H64.8293C67.5516 30.9006 70.245 30.1072 72.4447 28.4952C74.6445 26.8833 76.2124 24.554 76.878 21.9093H85.2683C87.2089 21.9093 89.07 22.6802 90.4422 24.0524C91.8145 25.4247 92.5854 27.2858 92.5854 29.2264V94.7874Z" fill="#9B7714"/>
<path d="M70.9274 61.9578C70.9274 62.6047 70.6704 63.2251 70.213 63.6825C69.7556 64.1399 69.1352 64.3968 68.4883 64.3968H61.1713V71.7139C61.1713 72.3608 60.9143 72.9812 60.4569 73.4386C59.9995 73.896 59.3791 74.1529 58.7322 74.1529C58.0854 74.1529 57.465 73.896 57.0076 73.4386C56.5502 72.9812 56.2932 72.3608 56.2932 71.7139V64.3968H48.9761C48.3293 64.3968 47.7089 64.1399 47.2515 63.6825C46.7941 63.2251 46.5371 62.6047 46.5371 61.9578C46.5371 61.3109 46.7941 60.6906 47.2515 60.2332C47.7089 59.7758 48.3293 59.5188 48.9761 59.5188H56.2932V52.2017C56.2932 51.5549 56.5502 50.9345 57.0076 50.4771C57.465 50.0197 58.0854 49.7627 58.7322 49.7627C59.376 49.7728 59.9905 50.033 60.4458 50.4882C60.901 50.9434 61.1612 51.558 61.1713 52.2017V59.5188H68.4883C69.1321 59.5289 69.7466 59.789 70.2019 60.2443C70.6571 60.6995 70.9173 61.3141 70.9274 61.9578Z" fill="#9B7714"/>
</g>
</svg>
