<svg width="118" height="96" viewBox="0 0 118 96" fill="none" xmlns="http://www.w3.org/2000/svg">
<g opacity="0.15">
<path d="M58.5372 86.3997C36.8786 86.3997 18.8494 69.6582 12.1762 62.5168C10.0689 60.2924 10.0689 56.7802 12.1762 54.5558C18.9664 47.4143 36.9957 30.6729 58.5372 30.6729C80.0786 30.6729 98.225 47.4143 104.898 54.5558C107.005 56.7802 107.005 60.2924 104.898 62.5168C98.225 69.7753 80.1957 86.3997 58.5372 86.3997ZM58.5372 35.3558C38.7518 35.3558 21.8933 51.0436 15.5713 57.8338C15.103 58.3021 15.103 59.0046 15.5713 59.3558C21.8933 66.146 38.7518 81.8338 58.5372 81.8338C78.3225 81.8338 95.1811 66.146 101.503 59.3558C101.971 58.8875 101.971 58.185 101.503 57.8338C95.1811 51.0436 78.3225 35.3558 58.5372 35.3558ZM58.5372 76.2143C45.8933 76.2143 35.5908 66.0289 35.5908 53.385C35.5908 40.7411 45.8933 30.6729 58.5372 30.6729C71.1811 30.6729 81.4835 40.8582 81.4835 53.5021C81.4835 66.146 71.1811 76.2143 58.5372 76.2143ZM58.5372 35.3558C48.4689 35.3558 40.2738 43.4338 40.2738 53.5021C40.2738 63.4533 48.4689 71.6485 58.5372 71.6485C68.6055 71.6485 76.8006 63.5704 76.8006 53.5021C76.8006 43.4338 68.6055 35.3558 58.5372 35.3558ZM58.5372 62.6338C53.3859 62.6338 49.2884 58.5363 49.2884 53.385C49.2884 48.2338 53.503 44.1363 58.5372 44.1363C63.5713 44.1363 67.7859 48.2338 67.7859 53.385C67.7859 58.5363 63.6884 62.6338 58.5372 62.6338ZM58.5372 48.8192C55.9616 48.8192 53.9713 50.8094 53.9713 53.385C53.9713 55.9607 56.0786 57.9509 58.5372 57.9509C60.9957 57.9509 63.103 55.9607 63.103 53.385C63.103 50.8094 61.1128 48.8192 58.5372 48.8192Z" fill="#9B7714"/>
</g>
</svg>
