<svg preserveAspectRatio="none" width="100%" height="100%" overflow="visible" style="display: block;" viewBox="0 0 14 14" fill="none" xmlns="http://www.w3.org/2000/svg">
<g id="wallet-1-svgrepo-com 1" opacity="0.85">
<path id="Vector" fill-rule="evenodd" clip-rule="evenodd" d="M1.33549 2.4563L1.8958 1.896H11.421L11.9813 2.4563V3.57692H12.5416L13.1019 4.13722V6.37845V6.93876V9.74029V11.9815L12.5416 12.5418H1.8958L1.33549 11.9815V4.13722V2.4563ZM11.9813 9.74029H9.7401C8.81178 9.74029 8.05918 8.98769 8.05918 8.05937C8.05918 7.13106 8.81178 6.37845 9.7401 6.37845H11.9813V4.69753H11.421H2.4561V11.4212H11.9813V9.74029ZM10.8607 3.01661V3.57692H2.4561V3.01661H10.8607ZM9.17979 8.05937C9.17979 7.74993 9.43066 7.49907 9.7401 7.49907H11.9813V8.61968H9.7401C9.43066 8.61968 9.17979 8.36881 9.17979 8.05937Z" fill="var(--fill-0, #9B7714)"/>
</g>
</svg>
