<svg width="35" height="25" viewBox="0 0 35 25" fill="none" xmlns="http://www.w3.org/2000/svg">
<path d="M8.85222 0.282992C8.75569 0.192105 8.59915 0.192151 8.50259 0.282992L6.929 1.76454C6.83245 1.85545 6.83245 2.00281 6.929 2.09372L8.50259 3.57527C8.59915 3.66611 8.75569 3.66615 8.85222 3.57527C8.94875 3.48438 8.94871 3.337 8.85222 3.24608L7.70071 2.16192H13.0379C13.1745 2.16192 13.2852 2.0577 13.2852 1.92913C13.2852 1.80056 13.1745 1.69634 13.0379 1.69634H7.70071L8.85222 0.612174C8.94871 0.521258 8.94875 0.37388 8.85222 0.282992Z" fill="white"/>
<path d="M8.50259 0.282992L8.3557 0.126975L8.35576 0.126915L8.50259 0.282992ZM6.929 1.76454L6.78211 1.60852L6.929 1.76454ZM6.929 2.09372L7.0759 1.9377L6.929 2.09372ZM8.50259 3.57527L8.35576 3.73134L8.3557 3.73128L8.50259 3.57527ZM8.85222 3.24608L8.99911 3.09007L8.99918 3.09013L8.85222 3.24608ZM7.70071 2.16192L7.55381 2.31794L7.16051 1.94764H7.70071V2.16192ZM7.70071 1.69634V1.91062H7.16051L7.55381 1.54032L7.70071 1.69634ZM8.85222 0.612174L8.99918 0.768131L8.99911 0.768191L8.85222 0.612174ZM8.85222 0.282992L8.70533 0.439009C8.69968 0.433694 8.69017 0.429128 8.67744 0.429129C8.6647 0.429131 8.65512 0.433706 8.64942 0.439069L8.50259 0.282992L8.35576 0.126915C8.53477 -0.0414816 8.82 -0.0416605 8.99911 0.126975L8.85222 0.282992ZM8.50259 0.282992L8.64948 0.439009L7.0759 1.92056L6.929 1.76454L6.78211 1.60852L8.3557 0.126975L8.50259 0.282992ZM6.929 1.76454L7.0759 1.92056C7.07298 1.9233 7.07191 1.92534 7.07149 1.92632C7.07102 1.92742 7.07087 1.92834 7.07087 1.92913C7.07087 1.92991 7.07102 1.93084 7.07149 1.93194C7.07191 1.93292 7.07298 1.93496 7.0759 1.9377L6.929 2.09372L6.78211 2.24974C6.5957 2.07422 6.5957 1.78404 6.78211 1.60852L6.929 1.76454ZM6.929 2.09372L7.0759 1.9377L8.64948 3.41925L8.50259 3.57527L8.3557 3.73128L6.78211 2.24974L6.929 2.09372ZM8.50259 3.57527L8.64942 3.41919C8.65512 3.42455 8.6647 3.42913 8.67744 3.42913C8.69017 3.42913 8.69968 3.42457 8.70533 3.41925L8.85222 3.57527L8.99911 3.73128C8.82 3.89992 8.53477 3.89974 8.35576 3.73134L8.50259 3.57527ZM8.85222 3.57527L8.70533 3.41925C8.70822 3.41653 8.70928 3.41451 8.70969 3.41354C8.71017 3.41244 8.71032 3.41151 8.71032 3.41071C8.71032 3.4099 8.71017 3.40896 8.70968 3.40783C8.70925 3.40683 8.70817 3.40478 8.70527 3.40204L8.85222 3.24608L8.99918 3.09013C9.18537 3.26557 9.18557 3.55573 8.99911 3.73128L8.85222 3.57527ZM8.85222 3.24608L8.70533 3.4021L7.55381 2.31794L7.70071 2.16192L7.8476 2.0059L8.99911 3.09007L8.85222 3.24608ZM7.70071 2.16192V1.94764H13.0379V2.16192V2.37621H7.70071V2.16192ZM13.0379 2.16192V1.94764C13.0512 1.94764 13.0606 1.9427 13.0658 1.93772C13.0709 1.93295 13.0709 1.92992 13.0709 1.92913H13.2852H13.4994C13.4994 2.18803 13.2805 2.37621 13.0379 2.37621V2.16192ZM13.2852 1.92913H13.0709C13.0709 1.92834 13.0709 1.92531 13.0658 1.92054C13.0606 1.91556 13.0512 1.91062 13.0379 1.91062V1.69634V1.48205C13.2805 1.48205 13.4994 1.67023 13.4994 1.92913H13.2852ZM13.0379 1.69634V1.91062H7.70071V1.69634V1.48205H13.0379V1.69634ZM7.70071 1.69634L7.55381 1.54032L8.70533 0.456157L8.85222 0.612174L8.99911 0.768191L7.8476 1.85235L7.70071 1.69634ZM8.85222 0.612174L8.70527 0.456218C8.70817 0.453479 8.70925 0.451428 8.70968 0.450427C8.71017 0.449302 8.71032 0.448354 8.71032 0.447551C8.71032 0.446748 8.71017 0.445819 8.70969 0.444723C8.70928 0.443754 8.70822 0.44173 8.70533 0.439009L8.85222 0.282992L8.99911 0.126975C9.18557 0.30253 9.18537 0.592686 8.99918 0.768131L8.85222 0.612174Z" fill="white"/>
<path d="M27.5755 0.282992C27.672 0.192105 27.8286 0.192151 27.9251 0.282992L29.4987 1.76454C29.5953 1.85545 29.5953 2.00281 29.4987 2.09372L27.9251 3.57527C27.8286 3.66611 27.672 3.66615 27.5755 3.57527C27.479 3.48438 27.479 3.337 27.5755 3.24608L28.727 2.16192H23.3898C23.2533 2.16192 23.1426 2.0577 23.1426 1.92913C23.1426 1.80056 23.2533 1.69634 23.3898 1.69634H28.727L27.5755 0.612174C27.479 0.521258 27.479 0.37388 27.5755 0.282992Z" fill="white"/>
<path d="M27.9251 0.282992L28.072 0.126975L28.072 0.126915L27.9251 0.282992ZM29.4987 1.76454L29.6456 1.60852L29.4987 1.76454ZM29.4987 2.09372L29.3518 1.9377L29.4987 2.09372ZM27.9251 3.57527L28.072 3.73134L28.072 3.73128L27.9251 3.57527ZM27.5755 3.24608L27.4286 3.09007L27.4286 3.09013L27.5755 3.24608ZM28.727 2.16192L28.8739 2.31794L29.2672 1.94764H28.727V2.16192ZM28.727 1.69634V1.91062H29.2672L28.8739 1.54032L28.727 1.69634ZM27.5755 0.612174L27.4286 0.768131L27.4286 0.768191L27.5755 0.612174ZM27.5755 0.282992L27.7224 0.439009C27.7281 0.433694 27.7376 0.429128 27.7503 0.429129C27.763 0.429131 27.7726 0.433706 27.7783 0.439069L27.9251 0.282992L28.072 0.126915C27.893 -0.0414816 27.6077 -0.0416605 27.4286 0.126975L27.5755 0.282992ZM27.9251 0.282992L27.7783 0.439009L29.3518 1.92056L29.4987 1.76454L29.6456 1.60852L28.072 0.126975L27.9251 0.282992ZM29.4987 1.76454L29.3518 1.92056C29.3548 1.9233 29.3558 1.92534 29.3562 1.92632C29.3567 1.92742 29.3569 1.92834 29.3569 1.92913C29.3569 1.92991 29.3567 1.93084 29.3562 1.93194C29.3558 1.93292 29.3548 1.93496 29.3518 1.9377L29.4987 2.09372L29.6456 2.24974C29.832 2.07422 29.832 1.78404 29.6456 1.60852L29.4987 1.76454ZM29.4987 2.09372L29.3518 1.9377L27.7783 3.41925L27.9251 3.57527L28.072 3.73128L29.6456 2.24974L29.4987 2.09372ZM27.9251 3.57527L27.7783 3.41919C27.7726 3.42455 27.763 3.42913 27.7503 3.42913C27.7376 3.42913 27.7281 3.42457 27.7224 3.41925L27.5755 3.57527L27.4286 3.73128C27.6077 3.89992 27.893 3.89974 28.072 3.73134L27.9251 3.57527ZM27.5755 3.57527L27.7224 3.41925C27.7195 3.41653 27.7185 3.41451 27.718 3.41354C27.7176 3.41244 27.7174 3.41151 27.7174 3.41071C27.7174 3.4099 27.7176 3.40896 27.7181 3.40783C27.7185 3.40683 27.7196 3.40478 27.7225 3.40204L27.5755 3.24608L27.4286 3.09013C27.2424 3.26557 27.2422 3.55573 27.4286 3.73128L27.5755 3.57527ZM27.5755 3.24608L27.7224 3.4021L28.8739 2.31794L28.727 2.16192L28.5801 2.0059L27.4286 3.09007L27.5755 3.24608ZM28.727 2.16192V1.94764H23.3898V2.16192V2.37621H28.727V2.16192ZM23.3898 2.16192V1.94764C23.3766 1.94764 23.3672 1.9427 23.3619 1.93772C23.3568 1.93295 23.3569 1.92992 23.3569 1.92913H23.1426H22.9283C22.9283 2.18803 23.1473 2.37621 23.3898 2.37621V2.16192ZM23.1426 1.92913H23.3569C23.3569 1.92834 23.3568 1.92531 23.3619 1.92054C23.3672 1.91556 23.3766 1.91062 23.3898 1.91062V1.69634V1.48205C23.1473 1.48205 22.9283 1.67023 22.9283 1.92913H23.1426ZM23.3898 1.69634V1.91062H28.727V1.69634V1.48205H23.3898V1.69634ZM28.727 1.69634L28.8739 1.54032L27.7224 0.456157L27.5755 0.612174L27.4286 0.768191L28.5801 1.85235L28.727 1.69634ZM27.5755 0.612174L27.7225 0.456218C27.7196 0.453479 27.7185 0.451428 27.7181 0.450427C27.7176 0.449302 27.7174 0.448354 27.7174 0.447551C27.7174 0.446748 27.7176 0.445819 27.718 0.444723C27.7185 0.443754 27.7195 0.44173 27.7224 0.439009L27.5755 0.282992L27.4286 0.126975C27.2422 0.30253 27.2424 0.592686 27.4286 0.768131L27.5755 0.612174Z" fill="white"/>
<path d="M19.8849 2.50244H20.4173L20.4173 10.4631C20.4173 10.6067 20.4173 12.2356 20.4173 12.3842C20.4151 12.579 20.4459 12.831 20.4986 12.9635C20.5111 12.9965 20.5235 13.0214 20.533 13.0368L20.5462 13.0551L20.5227 13.0771L20.5418 13.0515L20.5462 13.0551L20.5227 13.0771L20.5418 13.0515L20.4905 13.121V13.0317L20.5418 13.0515L20.4905 13.121V13.0317C20.4905 13.0324 20.5125 13.0324 20.5659 13.0105C20.6194 12.9892 20.6992 12.946 20.8003 12.8735L21.1108 13.3056L20.7036 12.9628L22.8723 10.3876C23.344 9.82802 24.0222 9.53725 24.7004 9.538C25.2417 9.53725 25.7903 9.72259 26.2356 10.0983C26.7959 10.57 27.0866 11.2489 27.0859 11.9272C27.0859 12.4684 26.9013 13.017 26.5256 13.4631L22.1575 18.6494L21.7502 18.3066L22.1648 18.6406C21.2823 19.7326 20.6488 20.364 19.8248 21.256C19.0704 22.072 18.327 22.8359 17.4327 23.4079C16.5407 23.9814 15.4874 24.3447 14.2115 24.3418C10.5099 24.3418 7.50986 21.3418 7.50986 17.6409V9.85595C7.50986 8.66355 8.47521 7.69605 9.66906 7.6953C10.3165 7.6953 10.8937 7.98606 11.2833 8.42917L10.8849 8.78148H10.3517V8.52733C10.3517 7.33492 11.3185 6.36742 12.5109 6.36742C13.1833 6.36667 13.7795 6.68237 14.1706 7.15478L13.7604 7.49462L13.2389 7.38695C13.2902 7.13425 13.3913 6.90208 13.5363 6.70872C13.7531 6.4165 14.0549 6.22605 14.3683 6.11767C14.6847 6.0078 15.0173 5.96973 15.3542 5.96898C15.5636 5.96973 15.7673 6.01366 15.965 6.08983C16.2594 6.20556 16.5451 6.39452 16.7736 6.66845C16.9992 6.94019 17.1633 7.31223 17.1618 7.73266C17.1618 7.87328 17.1046 8.01025 17.005 8.10911C16.9054 8.20872 16.7692 8.26511 16.6285 8.26511C16.4894 8.26511 16.3517 8.20872 16.2521 8.10911C16.1525 8.01025 16.0968 7.87328 16.0968 7.73266V2.50244C16.0968 1.30858 17.0636 0.342531 18.2567 0.341781C19.4498 0.343235 20.4166 1.30933 20.4173 2.50244H19.8849H19.3524C19.3517 1.89817 18.8617 1.40673 18.2567 1.40673C17.6524 1.40819 17.1618 1.89747 17.1618 2.50244V7.73261C17.1618 7.87323 17.1046 8.0102 17.005 8.10906C16.9054 8.20867 16.7692 8.26506 16.6285 8.26506C16.4894 8.26506 16.3517 8.20867 16.2521 8.10906C16.1525 8.0102 16.0968 7.87323 16.0968 7.73261C16.0953 7.63005 16.0734 7.54656 16.0309 7.46453C15.9679 7.34294 15.8522 7.22795 15.7159 7.14887C15.5826 7.0683 15.4303 7.03169 15.3541 7.03389C15.0157 7.03244 14.7403 7.09323 14.5763 7.18548C14.4942 7.23236 14.4356 7.28219 14.3902 7.34444C14.3433 7.40669 14.3067 7.48361 14.2818 7.6015C14.2393 7.80292 14.0884 7.96113 13.8892 8.01091C13.69 8.06069 13.4805 7.99258 13.3502 7.83367C13.1421 7.58537 12.8477 7.43228 12.5108 7.43158C11.9073 7.43303 11.418 7.92301 11.4166 8.52728L11.4166 8.78144C11.4166 9.00334 11.2803 9.20111 11.0723 9.27948C10.8658 9.35786 10.6329 9.30072 10.4849 9.13445C10.2784 8.90228 9.99419 8.7602 9.66902 8.7602C9.0655 8.76095 8.57622 9.25094 8.57477 9.8559V17.6408C8.57477 19.1987 9.20467 20.6049 10.2257 21.6259C11.2466 22.647 12.6529 23.2768 14.2115 23.2768C15.2911 23.2746 16.1026 22.9905 16.8585 22.5107C17.6136 22.0302 18.3028 21.3366 19.0426 20.5339C19.8856 19.6213 20.4876 19.0229 21.3365 17.9719L21.3431 17.9638L25.7106 12.7775C25.9201 12.5278 26.0204 12.229 26.0211 11.9272C26.0204 11.5478 25.8622 11.1764 25.5494 10.9127C25.3004 10.704 25.0023 10.603 24.7006 10.603C24.3219 10.6037 23.9498 10.7619 23.6861 11.0739L21.5182 13.6484C21.4896 13.6828 21.4581 13.7121 21.4222 13.7385C21.2677 13.849 21.119 13.9355 20.9659 13.9977C20.8128 14.0593 20.6539 14.0966 20.4906 14.0966C20.2379 14.101 19.9867 13.9919 19.8255 13.838C19.7017 13.7237 19.619 13.5948 19.5574 13.4674C19.4659 13.2763 19.4197 13.0844 19.3904 12.9005C19.3619 12.7167 19.3523 12.5402 19.3523 12.3842C19.3523 12.2355 19.3523 10.6066 19.3523 10.463L19.3523 2.50234H19.8849V2.50244Z" fill="white"/>
</svg>
